<?xml version="1.0" encoding="utf-8"?>
<!-- Generator: Adobe Illustrator 27.3.1, SVG Export Plug-In . SVG Version: 6.00 Build 0)  -->
<svg version="1.1" id="_x30_1" xmlns="http://www.w3.org/2000/svg" xmlns:xlink="http://www.w3.org/1999/xlink" x="0px" y="0px"
	 viewBox="0 0 102.5 48.6" style="enable-background:new 0 0 102.5 48.6;" xml:space="preserve">
<style type="text/css">
	.st0{fill:#0058A1;}
	.st1{fill:#DC2337;}
	.st2{enable-background:new    ;}
	.st3{fill:#272727;}
	.st4{fill:url(#SVGID_1_);}
	.st5{fill:#0063AF;}
	.st6{fill:url(#SVGID_00000018931826900090783450000015519507825004421525_);}
	.st7{fill:url(#SVGID_00000114760760057207893730000003949954199813270940_);}
</style>
<g>
	<g>
		<g>
			
				<rect id="Rectángulo_1330_00000080196678569705439330000012426320680308793011_" x="0.1" y="45.5" class="st0" width="18.1" height="3"/>
			
				<rect id="Rectángulo_1331_00000083050313996345650690000001286964550059756182_" x="18.2" y="45.5" class="st1" width="22.3" height="3"/>
		</g>
		<g>
			<g>
				<g class="st2">
					<path class="st3" d="M0,0h3.3v14.6c0,1.5,0.5,2.7,1.3,3.5c0.8,0.8,1.9,1.3,3.2,1.3s2.4-0.4,3.2-1.3c0.8-0.8,1.2-2,1.3-3.5V0
						h3.3v14.9c0,2.4-0.8,4.3-2.2,5.7c-1.5,1.4-3.3,2.2-5.5,2.2c-2.2,0-4-0.7-5.5-2.2C0.8,19.2,0,17.3,0,14.9V0z"/>
					<path class="st3" d="M19.4,6.5h3.1v1.7h0.1c1-1.3,2.4-1.9,4-1.9c1.3,0,2.5,0.5,3.5,1.4c1.1,1,1.6,2.3,1.7,4.2v10.7h-3.1V13
						c0-1.1-0.3-2-0.9-2.6c-0.6-0.6-1.3-0.9-2.2-0.9c-0.9,0-1.6,0.3-2.2,0.9c-0.6,0.6-0.9,1.4-0.9,2.6v9.6h-3.1V6.5z"/>
					<path class="st3" d="M35.9,0H39v3.2h-3.1V0z M35.9,6.5H39v16.1h-3.1V6.5z"/>
				</g>
				<g class="st2">
					
						<linearGradient id="SVGID_1_" gradientUnits="userSpaceOnUse" x1="4410.6318" y1="14.5345" x2="4417.583" y2="14.5345" gradientTransform="matrix(-1 0 0 1 4490.1348 0)">
						<stop  offset="0" style="stop-color:#DC2337"/>
						<stop  offset="0.9989" style="stop-color:#5D0037"/>
					</linearGradient>
					<path class="st4" d="M86.8,18.4c-0.3,0.9-0.7,1.7-1.3,2.3c-0.4,0.5-1,1-1.8,1.4c-0.8,0.4-1.7,0.7-2.9,0.7c-1.2,0-2.2-0.3-3-0.7
						c-0.4-0.2-0.7-0.4-1-0.7c-0.3-0.2-0.5-0.5-0.7-0.7c-0.6-0.7-1.1-1.4-1.3-2.3c-0.2-0.9-0.4-2.2-0.4-3.9c0-1.7,0.1-3,0.4-3.9
						C75,9.7,75.4,9,76,8.4c0.4-0.5,1-1,1.7-1.4c0.8-0.4,1.8-0.6,3-0.6c1.2,0,2.2,0.2,2.9,0.6c0.8,0.4,1.4,0.9,1.8,1.4
						c0.6,0.6,1,1.4,1.3,2.2c0.3,0.9,0.4,2.2,0.4,3.9C87.2,16.2,87,17.5,86.8,18.4z M77.6,17c0.1,0.5,0.3,1,0.6,1.4
						c0.2,0.3,0.6,0.6,1,0.8c0.4,0.2,0.9,0.3,1.5,0.3c0.5,0,1-0.1,1.5-0.3c0.4-0.2,0.8-0.5,1.1-0.8c0.3-0.4,0.5-0.9,0.6-1.4
						c0.1-0.5,0.2-1.3,0.2-2.5c0-1.1-0.1-2-0.2-2.5c-0.1-0.5-0.3-1-0.6-1.3c-0.3-0.4-0.6-0.6-1.1-0.9c-0.5-0.2-0.9-0.3-1.5-0.3
						c-0.6,0-1.1,0.1-1.5,0.3c-0.5,0.2-0.8,0.5-1,0.9c-0.3,0.4-0.5,0.8-0.6,1.3c-0.1,0.5-0.2,1.4-0.2,2.5
						C77.5,15.7,77.5,16.5,77.6,17z"/>
					<path class="st5" d="M58.9,10.7c0.3-0.9,0.7-1.7,1.3-2.3c0.4-0.5,1-1,1.8-1.4c0.8-0.4,1.7-0.7,2.9-0.7c1.2,0,2.2,0.3,3,0.7
						c0.4,0.2,0.7,0.4,1,0.7c0.3,0.2,0.5,0.5,0.7,0.7c0.6,0.7,1.1,1.4,1.3,2.3c0.2,0.9,0.4,2.2,0.4,3.9c0,1.7-0.1,3-0.4,3.9
						c-0.3,0.9-0.7,1.6-1.3,2.2c-0.4,0.5-1,1-1.7,1.4c-0.8,0.4-1.8,0.6-3,0.6c-1.2,0-2.2-0.2-2.9-0.6c-0.8-0.4-1.4-0.9-1.8-1.4
						c-0.6-0.6-1-1.4-1.3-2.2c-0.3-0.9-0.4-2.2-0.4-3.9C58.5,12.8,58.6,11.6,58.9,10.7z M68,12.1c-0.1-0.5-0.3-1-0.6-1.4
						c-0.2-0.3-0.6-0.6-1-0.8c-0.4-0.2-0.9-0.3-1.5-0.3c-0.5,0-1,0.1-1.5,0.3c-0.4,0.2-0.8,0.5-1.1,0.8c-0.3,0.4-0.5,0.9-0.6,1.4
						c-0.1,0.5-0.2,1.3-0.2,2.5c0,1.1,0.1,2,0.2,2.5c0.1,0.5,0.3,1,0.6,1.3c0.3,0.4,0.6,0.6,1.1,0.9c0.5,0.2,0.9,0.3,1.5,0.3
						c0.6,0,1.1-0.1,1.5-0.3c0.5-0.2,0.8-0.5,1-0.9c0.3-0.4,0.5-0.8,0.6-1.3c0.1-0.5,0.2-1.4,0.2-2.5C68.2,13.4,68.1,12.6,68,12.1z"
						/>
					<path class="st5" d="M52.1,20.9c-1,1.2-2.4,1.8-4,1.9c-0.9,0-1.7-0.2-2.4-0.6c-0.7-0.4-1.3-0.9-1.8-1.5
						c-0.4-0.5-0.7-1.2-0.9-2.1c-0.2-0.8-0.3-2.2-0.3-4.1c0-1.9,0.1-3.3,0.3-4.1c0.1-0.8,0.4-1.5,0.9-2c0.9-1.3,2.3-2,4.2-2.1
						c0.8,0,1.5,0.2,2.2,0.5c0.6,0.4,1.2,0.8,1.8,1.4V0h3.1v22.6h-3.1V20.9z M49,9.5c-0.7,0-1.3,0.1-1.7,0.4
						c-0.4,0.3-0.7,0.7-0.9,1.1c-0.2,0.5-0.3,1-0.4,1.6c-0.1,0.6-0.1,1.2-0.1,1.9c0,0.6,0,1.2,0.1,1.8c0.1,0.6,0.2,1.2,0.4,1.6
						c0.2,0.5,0.5,0.8,0.9,1.1c0.4,0.3,1,0.4,1.7,0.4c0.7,0,1.3-0.2,1.8-0.5c0.4-0.3,0.7-0.7,0.9-1.2c0.2-0.5,0.3-1,0.4-1.6
						c0-0.6,0-1.2,0-1.7c0-0.6,0-1.2,0-1.8c-0.1-0.6-0.2-1.1-0.4-1.6c-0.2-0.5-0.5-0.9-0.9-1.2C50.3,9.7,49.8,9.5,49,9.5z"/>
					
						<linearGradient id="SVGID_00000029730813580476241630000017335697411450248355_" gradientUnits="userSpaceOnUse" x1="66.1286" y1="-323.7503" x2="73.0796" y2="-323.7503" gradientTransform="matrix(1 0 0 -1 0 -309.2158)">
						<stop  offset="0" style="stop-color:#0063AF"/>
						<stop  offset="0.9989" style="stop-color:#00006A"/>
					</linearGradient>
					<path style="fill:url(#SVGID_00000029730813580476241630000017335697411450248355_);" d="M58.9,10.7c0.3-0.9,0.7-1.7,1.3-2.3
						c0.4-0.5,1-1,1.8-1.4c0.8-0.4,1.7-0.7,2.9-0.7c1.2,0,2.2,0.3,3,0.7c0.4,0.2,0.7,0.4,1,0.7c0.3,0.2,0.5,0.5,0.7,0.7
						c0.6,0.7,1.1,1.4,1.3,2.3c0.2,0.9,0.4,2.2,0.4,3.9c0,1.7-0.1,3-0.4,3.9c-0.3,0.9-0.7,1.6-1.3,2.2c-0.4,0.5-1,1-1.7,1.4
						c-0.8,0.4-1.8,0.6-3,0.6c-1.2,0-2.2-0.2-2.9-0.6c-0.8-0.4-1.4-0.9-1.8-1.4c-0.6-0.6-1-1.4-1.3-2.2c-0.3-0.9-0.4-2.2-0.4-3.9
						C58.5,12.8,58.6,11.6,58.9,10.7z M68,12.1c-0.1-0.5-0.3-1-0.6-1.4c-0.2-0.3-0.6-0.6-1-0.8c-0.4-0.2-0.9-0.3-1.5-0.3
						c-0.5,0-1,0.1-1.5,0.3c-0.4,0.2-0.8,0.5-1.1,0.8c-0.3,0.4-0.5,0.9-0.6,1.4c-0.1,0.5-0.2,1.3-0.2,2.5c0,1.1,0.1,2,0.2,2.5
						c0.1,0.5,0.3,1,0.6,1.3c0.3,0.4,0.6,0.6,1.1,0.9c0.5,0.2,0.9,0.3,1.5,0.3c0.6,0,1.1-0.1,1.5-0.3c0.5-0.2,0.8-0.5,1-0.9
						c0.3-0.4,0.5-0.8,0.6-1.3c0.1-0.5,0.2-1.4,0.2-2.5C68.2,13.4,68.1,12.6,68,12.1z"/>
					<path class="st1" d="M91.4,17.7c1.3,1.4,2.9,2.1,4.9,2.1c0.9,0,1.6-0.2,2.2-0.5c0.6-0.4,0.9-0.9,0.9-1.5c0-0.6-0.2-1-0.5-1.2
						c-0.4-0.2-0.8-0.4-1.4-0.4l-2.8-0.2c-1.3-0.1-2.4-0.6-3.2-1.4c-0.8-0.8-1.3-1.8-1.3-3.2c0-1.7,0.6-2.9,1.7-3.7
						c1.1-0.8,2.5-1.2,4.1-1.2c0.7,0,1.4,0,1.9,0.1c0.6,0.1,1.1,0.2,1.6,0.4c1,0.4,1.8,0.9,2.6,1.6l-1.9,2.3
						c-0.6-0.4-1.2-0.8-1.9-1.1c-0.7-0.3-1.4-0.4-2.3-0.4c-1,0-1.7,0.2-2.1,0.5c-0.4,0.4-0.6,0.8-0.6,1.4c0,0.4,0.1,0.7,0.5,0.9
						c0.3,0.3,0.8,0.5,1.6,0.6L98,13c1.6,0.1,2.8,0.6,3.5,1.5c0.7,0.9,1,2,1,3.3c0,1.6-0.6,2.8-1.8,3.6c-1.2,0.9-2.7,1.3-4.6,1.3
						c-2.5,0-4.8-1-6.9-2.9L91.4,17.7z"/>
					
						<linearGradient id="SVGID_00000127012445649490821400000015063366611911875503_" gradientUnits="userSpaceOnUse" x1="64.8853" y1="-323.7496" x2="80.7464" y2="-323.7496" gradientTransform="matrix(1 0 0 -1 0 -309.2158)">
						<stop  offset="0" style="stop-color:#0063AF"/>
						<stop  offset="0.5353" style="stop-color:#FF5963"/>
						<stop  offset="0.9987" style="stop-color:#DC2337"/>
					</linearGradient>
					<path style="fill:url(#SVGID_00000127012445649490821400000015063366611911875503_);" d="M64.9,22.8c1.4,0,6.9-0.5,9.5-7.6
						c2.1-5.8,6.2-5.6,6.4-5.6l0-3.2c-0.3,0-6.4-0.3-9.3,7.8c-2.1,5.7-6.3,5.4-6.5,5.4L64.9,22.8z"/>
				</g>
			</g>
		</g>
		<g>
			<g>
				<g id="Grupo_3603_00000094582505029806951730000014612774916399193771_">
					<g id="Grupo_3610_00000022560654435656377130000000635662707177990795_" transform="translate(128.388 14.409)">
						<g>
							<g id="Grupo_3609_00000087371712556699611490000002328415257407834809_" transform="translate(0 0)">
								<path id="Trazado_2728_00000011012494977364371490000001352973873242268581_" class="st3" d="M-103.9,24.7
									c-2.5,0-3.8-1.6-3.8-4.6c0-2.8,1.3-4.5,3.8-4.5c1,0,2,0.2,3,0.7l-0.6,1.3c-0.6-0.4-1.3-0.6-2.1-0.6c-1.4,0-2.3,1-2.3,3
									c0,2,0.7,3.1,2.1,3.1c0.8,0,1.6-0.3,2.4-0.8l0.5,1.3C-101.7,24.4-102.8,24.7-103.9,24.7"/>
								<path id="Trazado_2729_00000111152753668434673910000017047653914479326347_" class="st3" d="M-99.7,24.5v-9h1.6v2.4
									c0,0.3-0.1,0.7-0.2,1c0.4-0.5,1.1-0.9,1.8-0.9c1.8,0,2.4,0.9,2.4,2.6v4h-1.7v-3.8c0-0.9-0.4-1.4-1.1-1.4
									c-0.4,0-0.8,0.1-1.1,0.4v4.8H-99.7z"/>
								<path id="Trazado_2730_00000068657243146717935520000013058944406884807809_" class="st3" d="M-92.1,24.5v-5.1l-0.7-0.1v-1
									h2.5v6.3L-92.1,24.5L-92.1,24.5z M-92.2,15.6h1.7v1.5h-1.7V15.6z"/>
								<path id="Trazado_2731_00000060021759298599037560000009811431593738773152_" class="st3" d="M-88.9,22.8"/>
								<path id="Trazado_2731_00000141436717361022248730000015384655430487746224_" class="st3" d="M-87.2,24.7
									c-1,0-1.7-0.8-1.7-1.7v-0.1v-7.3h1.6v7.2c0,0.5,0.3,0.6,1,0.6v1.2C-86.6,24.7-87,24.7-87.2,24.7L-87.2,24.7z"/>
								<path id="Trazado_2732_00000093868127082041793520000003550900488872429759_" class="st3" d="M-83.6,21.8
									c-0.1,0.8,0.5,1.5,1.3,1.5c0.1,0,0.2,0,0.3,0c0.6,0,1.3-0.2,1.8-0.5l0.3,1.2c-0.7,0.4-1.5,0.6-2.5,0.6
									c-1.6,0.1-3.1-1.1-3.2-2.8c0-0.2,0-0.4,0-0.5c0-1.9,0.9-3.3,3-3.3c1.9,0,2.7,1.4,2.7,3.1v0.7L-83.6,21.8L-83.6,21.8z
									 M-82.4,19.3c-0.8,0-1.2,0.8-1.2,1.5h2.4C-81.2,20-81.6,19.3-82.4,19.3"/>
								<path id="Trazado_2733_00000021810460801441650300000014734409826113957250_" class="st3" d="M-77.1,24.5H-78l2.4-8.8h2.1
									l2.3,8.8h-1.1l-0.5-2.3h-3.6L-77.1,24.5z M-74.9,16.6l-1.3,4.8h3.2l-1.1-4.8C-74.2,16.6-74.9,16.6-74.9,16.6z"/>
								<path id="Trazado_2734_00000146472631094355728300000011126250630676585098_" class="st3" d="M-68.1,24.7
									c-0.9,0-1.6-0.5-1.6-1.9v-3.8h-0.9v-0.7h0.9v-1.1l1-0.3v1.4h1.8v0.7h-1.8v3.9c0,0.7,0.2,1,0.8,1c0.3,0,0.7-0.1,1-0.2
									l0.2,0.7C-67,24.6-67.5,24.7-68.1,24.7"/>
								<path id="Trazado_2735_00000003821957844562525890000010730524449233057172_" class="st3" d="M-64.8,24.5v-5.5l-0.7-0.1
									v-0.6h1.6v6.3h-0.9V24.5z M-64.9,15.7h1v1h-1V15.7z"/>
								<path id="Trazado_2736_00000183949494170756948930000005970598933128311739_" class="st3" d="M-61.4,21.6
									c0,1.5,0.8,2.3,2,2.3c0.7,0,1.4-0.2,2-0.6l0.2,0.7c-0.7,0.4-1.5,0.6-2.4,0.7c-1.7,0-2.9-1.1-2.9-3.4c0-2,1-3.3,2.8-3.3
									c1.7,0,2.6,1.4,2.6,3.1v0.5H-61.4z M-59.7,18.8c-1.2,0-1.6,1-1.6,2.1h3.3C-58,19.9-58.3,18.8-59.7,18.8"/>
								<path id="Trazado_2737_00000053538749759008058430000008923535873864789412_" class="st3" d="M-51.6,24.5v-3.8
									c0-1.2-0.4-1.8-1.4-1.8c-0.6,0-1.1,0.3-1.5,0.7v5h-1v-6.3h0.7l0.2,0.7c0.5-0.5,1.2-0.9,2-0.9c1.4,0,2.1,0.9,2.1,2.5v4
									L-51.6,24.5z"/>
								<path id="Trazado_2738_00000168093622087075490670000009299820536430479506_" class="st3" d="M-44.7,23.8
									c-0.4,0.5-1.1,0.9-1.8,0.9c-1.5,0-2.6-1.1-2.6-3.3c0-1.9,0.9-3.3,2.7-3.3c0.6,0,1.2,0.2,1.6,0.5c0-0.3-0.1-0.7,0-1v-2h1v9
									h-0.7L-44.7,23.8z M-44.8,19.3c-0.4-0.3-1-0.5-1.5-0.5c-1.2,0-1.7,0.9-1.7,2.6c0,1.5,0.5,2.6,1.6,2.6c0.6,0,1.2-0.3,1.6-0.8
									L-44.8,19.3z"/>
								<path id="Trazado_2739_00000002363571491979758990000002761635287169821095_" class="st3" d="M-41.4,21.6
									c0,1.5,0.8,2.3,2,2.3c0.7,0,1.4-0.2,2-0.6l0.2,0.7c-0.7,0.4-1.5,0.6-2.4,0.7c-1.7,0-2.9-1.1-2.9-3.4c0-2,1-3.3,2.8-3.3
									s2.6,1.4,2.6,3.1v0.5H-41.4z M-39.6,18.8c-1.2,0-1.6,1-1.6,2.1h3.3C-38,19.9-38.4,18.8-39.6,18.8"/>
								
									<rect id="Rectángulo_1340_00000018207121660388313090000004898901270990129304_" x="-128.2" y="15.6" class="st3" width="1.7" height="9"/>
								<path id="Trazado_2740_00000124130639534053602290000013426780056614232197_" class="st3" d="M-121.9,21.4h-1v3.2h-1.7v-9
									h2.8c1.8,0,3.5,0.9,3.5,2.9C-118.4,20.1-119.7,21.4-121.9,21.4 M-121.9,17h-0.9v3.1h0.9c0.8,0.1,1.5-0.5,1.6-1.3l0,0
									c0-0.1,0-0.2,0-0.3C-120.2,17.5-120.8,17-121.9,17"/>
								<path id="Trazado_2741_00000086666819994834647720000011534849245443193260_" class="st3" d="M-114.7,24.7
									c-1,0-2.1-0.3-3-0.9l0.7-1.4c0.6,0.5,1.4,0.8,2.3,0.9c0.7,0.1,1.3-0.4,1.3-1.1l0,0V22c0-1.9-4.2-0.9-4.2-4.2
									c0-1.3,1-2.5,3.2-2.5c0.9,0,1.8,0.2,2.7,0.6l-0.6,1.4c-0.6-0.3-1.4-0.5-2.1-0.5c-0.8,0-1.3,0.3-1.3,0.9c0,1.6,4.2,1,4.2,4.1
									C-111.4,23.3-112.6,24.7-114.7,24.7"/>
							</g>
						</g>
					</g>
				</g>
			</g>
		</g>
	</g>
</g>
</svg>
