<?xml version="1.0" encoding="utf-8"?>
<!-- Generator: Adobe Illustrator 18.1.1, SVG Export Plug-In . SVG Version: 6.00 Build 0)  -->
<svg version="1.1" id="Capa_1" xmlns="http://www.w3.org/2000/svg" xmlns:xlink="http://www.w3.org/1999/xlink" x="0px" y="0px"
	 viewBox="0 0 508.7 275.4" enable-background="new 0 0 508.7 275.4" xml:space="preserve">
<path fill="#FFFFFF" d="M508.7,49.2l-89.4-13.5l-13.5,89.4l22.1,3.3l7.9-53.1c28.8,44.5,23.8,104.9-15.2,143.9
	c-44.8,44.8-117.9,44.8-162.8,0s-44.8-117.9,0-162.8c21.8-21.7,50.7-33.8,81.5-33.8V0.3c-36.8,0-71.3,14.3-97.3,40.4
	c-53.7,53.7-53.7,140.8,0,194.5c26.8,26.8,62,40.2,97.3,40.2s70.4-13.5,97.3-40.2c46.5-46.5,52.6-118.1,18.5-171.3l50.1,7.5
	L508.7,49.2z"/>
</svg>
