<?xml version="1.0" encoding="utf-8"?>
<!-- Generator: Adobe Illustrator 26.5.0, SVG Export Plug-In . SVG Version: 6.00 Build 0)  -->
<svg version="1.1" id="Capa_1" xmlns="http://www.w3.org/2000/svg" xmlns:xlink="http://www.w3.org/1999/xlink" x="0px" y="0px"
	 viewBox="0 0 600 150" style="enable-background:new 0 0 600 150;" xml:space="preserve">
<style type="text/css">
	.st0{enable-background:new    ;}
	.st1{fill:#272727;}
	.st2{fill:#0063AF;}
</style>
<g>
	<g class="st0">
		<path class="st1" d="M5.1,12.1h18.7v82.2c0.1,8.7,2.5,15.3,7.3,19.9c4.6,4.8,10.6,7.2,17.9,7.2c7.3,0,13.3-2.4,18.1-7.2
			c4.6-4.5,7-11.2,7.1-19.9V12.1h18.7v84.3c-0.2,13.4-4.4,24-12.6,31.9c-8.2,8.1-18.7,12.2-31.3,12.3c-12.4-0.1-22.7-4.2-31-12.3
			c-8.5-7.9-12.8-18.5-12.9-31.9V12.1z"/>
		<path class="st1" d="M118.6,48.8h17.6v9.6h0.3c5.8-7.2,13.4-10.8,22.8-10.8c7.3,0,13.9,2.6,20,8c6,5.4,9.1,13.2,9.4,23.6v60.3
			h-17.6V85.4c0-6.4-1.6-11.2-4.9-14.5c-3.2-3.4-7.4-5.1-12.4-5.1c-5.1,0-9.3,1.7-12.5,5.1c-3.3,3.3-5,8.2-5,14.5v54.1h-17.6V48.8z"
			/>
		<path class="st1" d="M215.2,12.1h17.6v18.2h-17.6V12.1z M215.2,48.8h17.6v90.7h-17.6V48.8z"/>
	</g>
	<g class="st0">
		<path class="st2" d="M310.1,130c-5.8,6.8-13.4,10.3-22.8,10.5c-5.3-0.1-9.8-1.3-13.6-3.4c-3.9-2.1-7.2-4.9-9.9-8.4
			c-2.4-2.9-4-6.7-4.8-11.6c-1-4.7-1.4-12.4-1.4-23.1c0-10.9,0.5-18.7,1.4-23.3c0.8-4.7,2.4-8.4,4.8-11.3c5-7.6,12.8-11.5,23.5-11.8
			c4.5,0,8.7,1,12.5,2.9c3.6,2,7,4.6,10.2,7.8V12.1h17.6v127.4h-17.6V130z M292.8,65.8c-4.2,0-7.4,0.7-9.6,2.2
			c-2.4,1.6-4.2,3.7-5.3,6.5c-1.1,2.7-1.8,5.7-2.1,8.9c-0.3,3.4-0.5,7-0.5,10.6c0,3.4,0.2,6.8,0.5,10.1c0.3,3.4,1,6.5,2.1,9.3
			c1.1,2.6,2.9,4.8,5.3,6.5c2.2,1.6,5.4,2.5,9.6,2.5c4.2,0,7.5-0.9,9.9-2.6c2.4-1.7,4.1-3.9,5-6.7c1.1-2.7,1.9-5.8,2.3-9.2
			c0.1-3.3,0.2-6.6,0.2-9.8c0-3.5-0.1-6.9-0.2-10.1c-0.4-3.2-1.2-6.2-2.3-8.9c-0.9-2.7-2.6-5-5-6.7C300.3,66.7,297,65.8,292.8,65.8z
			"/>
		<path class="st2" d="M346.2,94.1c0-9.6,0.8-16.9,2.3-22.1c1.6-5,4-9.3,7.3-12.7c2.4-3,5.8-5.7,10.2-8.1c4.3-2.3,9.8-3.4,16.5-3.6
			c6.9,0.1,12.6,1.3,16.8,3.6c4.2,2.4,7.5,5.1,9.8,8.1c3.5,3.4,6,7.7,7.4,12.7c1.4,5.1,2.1,12.5,2.1,22s-0.7,16.8-2.1,21.9
			c-1.5,5-4,9.4-7.4,13c-1.1,1.3-2.5,2.6-4.1,3.9c-1.5,1.5-3.4,2.7-5.7,3.8c-4.3,2.5-9.9,3.8-16.8,3.9c-6.7-0.1-12.2-1.4-16.5-3.9
			c-4.3-2.3-7.7-4.8-10.2-7.7c-3.3-3.7-5.7-8-7.3-13C346.9,110.9,346.2,103.6,346.2,94.1z M401,94.2c0-6.5-0.3-11.2-0.8-14.2
			c-0.6-2.9-1.7-5.4-3.5-7.5c-1.3-2-3.2-3.7-5.8-4.8c-2.4-1.2-5.3-1.8-8.5-1.8c-3,0-5.8,0.6-8.3,1.8c-2.4,1.2-4.4,2.8-5.9,4.8
			c-1.5,2.2-2.6,4.7-3.3,7.5c-0.7,3-1,7.7-1,14c0,6.3,0.3,10.9,1,13.9c0.7,3,1.8,5.6,3.3,7.9c1.5,1.8,3.5,3.3,5.9,4.6
			c2.5,1.3,5.3,1.9,8.3,1.9c3.2,0,6.1-0.6,8.5-1.9c2.5-1.3,4.5-2.9,5.8-4.6c1.8-2.3,2.9-4.9,3.5-7.9C400.7,105,401,100.4,401,94.2z"
			/>
		<path class="st2" d="M435.7,94.1c0-9.6,0.8-16.9,2.3-22.1c1.6-5,4-9.3,7.3-12.7c2.4-3,5.8-5.7,10.2-8.1c4.3-2.3,9.8-3.4,16.5-3.6
			c6.9,0.1,12.6,1.3,16.8,3.6c4.2,2.4,7.5,5.1,9.8,8.1c3.5,3.4,6,7.7,7.4,12.7c1.4,5.1,2.1,12.5,2.1,22s-0.7,16.8-2.1,21.9
			c-1.5,5-4,9.4-7.4,13c-1.1,1.3-2.5,2.6-4.1,3.9c-1.5,1.5-3.4,2.7-5.7,3.8c-4.3,2.5-9.9,3.8-16.8,3.9c-6.7-0.1-12.2-1.4-16.5-3.9
			c-4.3-2.3-7.7-4.8-10.2-7.7c-3.3-3.7-5.7-8-7.3-13C436.4,110.9,435.7,103.6,435.7,94.1z M490.5,94.2c0-6.5-0.3-11.2-0.8-14.2
			c-0.6-2.9-1.7-5.4-3.5-7.5c-1.3-2-3.2-3.7-5.8-4.8c-2.4-1.2-5.3-1.8-8.5-1.8c-3,0-5.8,0.6-8.3,1.8c-2.4,1.2-4.4,2.8-5.9,4.8
			c-1.5,2.2-2.6,4.7-3.3,7.5c-0.7,3-1,7.7-1,14c0,6.3,0.3,10.9,1,13.9c0.7,3,1.8,5.6,3.3,7.9c1.5,1.8,3.5,3.3,5.9,4.6
			c2.5,1.3,5.3,1.9,8.3,1.9c3.2,0,6.1-0.6,8.5-1.9c2.5-1.3,4.5-2.9,5.8-4.6c1.8-2.3,2.9-4.9,3.5-7.9
			C490.2,105,490.5,100.4,490.5,94.2z"/>
		<path class="st2" d="M532.1,111.8c7.2,7.8,16.5,11.6,27.8,11.6c5.1,0,9.3-1,12.5-3.1c3.2-2,4.8-4.9,4.8-8.6c0-3.3-1-5.5-2.9-6.8
			c-2-1.3-4.6-2.1-7.9-2.2l-15.6-1.4c-7.4-0.7-13.4-3.3-18.1-7.7c-4.8-4.3-7.2-10.3-7.3-18.1c0.1-9.3,3.3-16.3,9.6-21
			c6.1-4.7,13.8-7,23.2-7c4.1,0,7.7,0.3,10.9,0.8c3.2,0.6,6.2,1.4,9.1,2.4c5.4,2.3,10.3,5.3,14.6,9.2l-10.9,13.2
			c-3.4-2.5-7-4.6-10.8-6.3c-3.7-1.5-8-2.2-12.9-2.2c-5.5,0-9.4,1-11.6,3.1c-2.3,2-3.5,4.7-3.5,7.9c-0.1,2,0.8,3.8,2.6,5.3
			c1.7,1.7,4.7,2.8,9,3.2l14.6,1.1c9.2,0.7,15.8,3.6,19.8,8.6c3.8,4.9,5.7,11.1,5.7,18.6c-0.1,8.8-3.6,15.6-10.4,20.4
			c-6.8,4.9-15.4,7.4-26,7.5c-14.3,0-27.2-5.4-38.7-16.3L532.1,111.8z"/>
	</g>
	<g class="st0">
		<path class="st2" d="M367.1,33.6C387,17.5,408.4,9.4,431.5,9.4c23,0,44.5,8.1,64.4,24.2v6.1C476,30.2,454.5,25.3,431.5,25
			c-23,0.2-44.4,5.2-64.4,14.7V33.6z"/>
	</g>
</g>
</svg>
