<?xml version="1.0" standalone="no"?>
<!DOCTYPE svg PUBLIC "-//W3C//DTD SVG 1.1//EN" "http://www.w3.org/Graphics/SVG/1.1/DTD/svg11.dtd" >
<svg xmlns="http://www.w3.org/2000/svg" xmlns:xlink="http://www.w3.org/1999/xlink" version="1.1">
<metadata>
Created by FontForge 20201107 at Thu Dec  5 17:18:07 2019
 By 
Copyright 2017 The Inria Sans Project Authors (https://github.com/BlackFoundryCom/InriaFonts)
</metadata>
<defs>
<font id="InriaSans-BoldItalic" horiz-adv-x="588" >
  <font-face 
    font-family="Inria Sans"
    font-weight="700"
    font-style="italic"
    font-stretch="normal"
    units-per-em="1000"
    panose-1="0 0 0 0 0 0 0 0 0 0"
    ascent="800"
    descent="-200"
    x-height="507"
    cap-height="680"
    bbox="-268 -256 1406 978"
    underline-thickness="50"
    underline-position="-100"
    slope="-10"
    unicode-range="U+000D-FB04"
  />
<missing-glyph horiz-adv-x="636" 
d="M49 0l120 680h448l-120 -680h-448zM189 115h208l80 450h-208z" />
    <glyph glyph-name="ff" unicode="ff" horiz-adv-x="680" 
d="M361 0l72 407h-192l-72 -407h-115l72 407h-82l17 100h83l9 53q15 84 58.5 132t131.5 48q31 0 58 -7t49 -16l-42 -98q-17 6 -33 9.5t-29 3.5q-32 0 -51 -15.5t-27 -56.5l-9 -53h192l9 53q16 89 64.5 139.5t145.5 50.5q37 0 69 -7.5t58 -18.5l-42 -98q-45 16 -82 16
q-40 0 -65 -17.5t-33 -64.5l-9 -53h157l-17 -100h-158l-72 -407h-115z" />
    <glyph glyph-name="fi" unicode="fi" horiz-adv-x="600" 
d="M266 550l-8 -43h307l-89 -507h-115l72 407h-192l-72 -407h-115l72 407h-82l17 100h82l8 43q17 94 70.5 147t162.5 53q41 0 86.5 -9.5t91.5 -32.5l-46 -96q-42 17 -75 23.5t-61 6.5q-46 0 -75.5 -19.5t-38.5 -72.5z" />
    <glyph glyph-name="fl" unicode="fl" horiz-adv-x="616" 
d="M557 101l-19 -106h-19q-58 0 -86.5 22.5t-35 58t-0.5 72.5l85 479q-27 8 -50.5 11.5t-48.5 3.5q-49 0 -78.5 -19.5t-38.5 -72.5l-8 -43h138l-17 -100h-138l-72 -407h-115l72 407h-82l17 100h82l8 43q17 94 71.5 147t164.5 53q45 0 101.5 -11.5t120.5 -43.5l-98 -552
q-3 -15 4 -28.5t30 -13.5h12z" />
    <glyph glyph-name="ffi" unicode="ffi" horiz-adv-x="907" 
d="M361 0l72 407h-192l-72 -407h-115l72 407h-82l17 100h83l9 53q15 84 58.5 132t131.5 48q31 0 58 -7t49 -16l-42 -98q-17 6 -33 9.5t-29 3.5q-32 0 -51 -15.5t-27 -56.5l-9 -53h191l8 43q17 94 70.5 147t162.5 53q41 0 86.5 -9.5t91.5 -32.5l-46 -96q-42 17 -75 23.5
t-61 6.5q-46 0 -75.5 -19.5t-38.5 -72.5l-8 -43h307l-89 -507h-115l71 407h-191l-72 -407h-115z" />
    <glyph glyph-name="ffl" unicode="ffl" horiz-adv-x="923" 
d="M268 560l-9 -53h191l8 43q17 94 71.5 147t164.5 53q45 0 101.5 -11.5t120.5 -43.5l-98 -552q-3 -15 4 -28.5t30 -13.5h12l-19 -106h-19q-58 0 -86.5 22.5t-35 58t-0.5 72.5l85 479q-27 8 -50.5 11.5t-48.5 3.5q-49 0 -78.5 -19.5t-38.5 -72.5l-8 -43h138l-17 -100h-138
l-72 -407h-115l72 407h-192l-72 -407h-115l72 407h-82l17 100h83l9 53q15 84 58.5 132t131.5 48q31 0 58 -7t49 -16l-42 -98q-17 6 -33 9.5t-29 3.5q-32 0 -51 -15.5t-27 -56.5z" />
    <glyph glyph-name="ft" unicode="ft" horiz-adv-x="720" 
d="M401 169l42 238h-202l-72 -407h-115l72 407h-82l17 100h82l8 43q17 94 71.5 147t164.5 53q45 0 101.5 -11.5t120.5 -43.5l-33 -188h157l-17 -100h-158l-42 -238q-7 -40 7 -55.5t45 -15.5q15 0 35.5 3t43.5 11l17 -101q-28 -11 -62 -16t-60 -5q-63 0 -96.5 25t-43 66
t-1.5 88zM266 550l-8 -43h203l21 120q-27 8 -50.5 11.5t-48.5 3.5q-49 0 -78.5 -19.5t-38.5 -72.5z" />
    <glyph glyph-name="fft" unicode="fft" horiz-adv-x="1027" 
d="M268 560l-9 -53h191l8 43q17 94 71.5 147t164.5 53q45 0 101.5 -11.5t120.5 -43.5l-33 -188h157l-17 -100h-158l-42 -238q-7 -40 7 -55.5t45 -15.5q15 0 35.5 3t43.5 11l17 -101q-28 -11 -62 -16t-60 -5q-63 0 -96.5 25t-43 66t-1.5 88l42 238h-202l-72 -407h-115l72 407
h-192l-72 -407h-115l72 407h-82l17 100h83l9 53q15 84 58.5 132t131.5 48q31 0 58 -7t49 -16l-42 -98q-17 6 -33 9.5t-29 3.5q-32 0 -51 -15.5t-27 -56.5zM573 550l-8 -43h203l21 120q-27 8 -50.5 11.5t-48.5 3.5q-49 0 -78.5 -19.5t-38.5 -72.5z" />
    <glyph glyph-name="fb" unicode="fb" horiz-adv-x="902" 
d="M843 227q-18 -115 -77 -176t-164 -61q-61 0 -115.5 20t-104.5 48l100 569q-27 8 -50.5 11.5t-48.5 3.5q-49 0 -78.5 -19.5t-38.5 -72.5l-8 -43h138l-17 -100h-138l-72 -407h-115l72 407h-82l17 100h82l8 43q17 94 71.5 147t164.5 53q45 0 101.5 -11.5t120.5 -43.5
l-46 -264q52 53 91 69.5t70 16.5q50 0 82 -31.5t44 -86.5t0 -128zM682 410q-26 0 -60.5 -24.5t-81.5 -84.5l-32 -186q23 -12 43.5 -17t40.5 -5q59 0 91 36.5t42 97.5l7 44q12 72 -1.5 105.5t-48.5 33.5z" />
    <glyph glyph-name="ffb" unicode="ffb" horiz-adv-x="1209" 
d="M268 560l-9 -53h191l8 43q17 94 71.5 147t164.5 53q45 0 101.5 -11.5t120.5 -43.5l-46 -264q52 53 91 69.5t70 16.5q50 0 82 -31.5t44 -86.5t0 -128l-7 -44q-18 -115 -77 -176t-164 -61q-61 0 -115.5 20t-104.5 48l100 569q-27 8 -50.5 11.5t-48.5 3.5q-49 0 -78.5 -19.5
t-38.5 -72.5l-8 -43h138l-17 -100h-138l-72 -407h-115l72 407h-192l-72 -407h-115l72 407h-82l17 100h83l9 53q15 84 58.5 132t131.5 48q31 0 58 -7t49 -16l-42 -98q-17 6 -33 9.5t-29 3.5q-32 0 -51 -15.5t-27 -56.5zM989 410q-26 0 -60.5 -24.5t-81.5 -84.5l-32 -186
q23 -12 43.5 -17t40.5 -5q59 0 91 36.5t42 97.5l7 44q12 72 -1.5 105.5t-48.5 33.5z" />
    <glyph glyph-name="fff" unicode="fff" horiz-adv-x="987" 
d="M361 0l72 407h-192l-72 -407h-115l72 407h-82l17 100h83l9 53q15 84 58.5 132t131.5 48q31 0 58 -7t49 -16l-42 -98q-17 6 -33 9.5t-29 3.5q-32 0 -51 -15.5t-27 -56.5l-9 -53h192l9 53q15 84 58.5 132t131.5 48q31 0 58 -7t49 -16l-42 -98q-17 6 -33 9.5t-29 3.5
q-32 0 -51 -15.5t-27 -56.5l-9 -53h192l9 53q16 89 64.5 139.5t145.5 50.5q37 0 69 -7.5t58 -18.5l-42 -98q-45 16 -82 16q-40 0 -65 -17.5t-33 -64.5l-9 -53h157l-17 -100h-158l-72 -407h-115l72 407h-192l-72 -407h-115z" />
    <glyph glyph-name="fh" unicode="fh" horiz-adv-x="922" 
d="M379 407h-138l-72 -407h-115l72 407h-82l17 100h82l8 43q17 94 71.5 147t164.5 53q45 0 101.5 -11.5t120.5 -43.5l-47 -267q55 53 98 71t78 18q51 0 81.5 -24.5t41.5 -67.5t1 -97l-58 -328h-115l57 326q16 84 -47 84q-24 0 -61 -18.5t-96 -77.5l-55 -314h-115l110 627
q-27 8 -50.5 11.5t-48.5 3.5q-49 0 -78.5 -19.5t-38.5 -72.5l-8 -43h138z" />
    <glyph glyph-name="ffh" unicode="ffh" horiz-adv-x="1229" 
d="M361 0l72 407h-192l-72 -407h-115l72 407h-82l17 100h83l9 53q15 84 58.5 132t131.5 48q31 0 58 -7t49 -16l-42 -98q-17 6 -33 9.5t-29 3.5q-32 0 -51 -15.5t-27 -56.5l-9 -53h191l8 43q17 94 71.5 147t164.5 53q45 0 101.5 -11.5t120.5 -43.5l-47 -267q55 53 98 71
t78 18q51 0 81.5 -24.5t41.5 -67.5t1 -97l-58 -328h-115l57 326q16 84 -47 84q-24 0 -61 -18.5t-96 -77.5l-55 -314h-115l110 627q-27 8 -50.5 11.5t-48.5 3.5q-49 0 -78.5 -19.5t-38.5 -72.5l-8 -43h138l-17 -100h-138l-72 -407h-115z" />
    <glyph glyph-name="fj" unicode="fj" horiz-adv-x="600" 
d="M266 550l-8 -43h307l-90 -511q-12 -67 -36.5 -116t-76 -76t-144.5 -27l19 108q50 0 81 24t42 87l72 411h-191l-72 -407h-115l72 407h-82l17 100h82l8 43q17 94 70.5 147t162.5 53q41 0 86.5 -9.5t91.5 -32.5l-46 -96q-42 17 -75 23.5t-61 6.5q-46 0 -75.5 -19.5
t-38.5 -72.5z" />
    <glyph glyph-name="ffj" unicode="ffj" horiz-adv-x="907" 
d="M573 550l-8 -43h307l-90 -511q-12 -67 -36.5 -116t-76 -76t-144.5 -27l19 108q50 0 81 24t42 87l72 411h-191l-72 -407h-115l72 407h-192l-72 -407h-115l72 407h-82l17 100h83l9 53q15 84 58.5 132t131.5 48q31 0 58 -7t49 -16l-42 -98q-17 6 -33 9.5t-29 3.5
q-32 0 -51 -15.5t-27 -56.5l-9 -53h191l8 43q17 94 70.5 147t162.5 53q41 0 86.5 -9.5t91.5 -32.5l-46 -96q-42 17 -75 23.5t-61 6.5q-46 0 -75.5 -19.5t-38.5 -72.5z" />
    <glyph glyph-name="fk" unicode="fk" horiz-adv-x="869" 
d="M379 407h-138l-72 -407h-115l72 407h-82l17 100h82l8 43q17 94 71.5 147t164.5 53q45 0 101.5 -11.5t120.5 -43.5l-73 -410q65 56 114.5 107.5t94.5 114.5h137q-43 -60 -92 -114t-106 -110l129 -283h-134l-91 214q-18 -16 -36.5 -31t-38.5 -30l-27 -153h-115l111 627
q-27 8 -50.5 11.5t-48.5 3.5q-49 0 -78.5 -19.5t-38.5 -72.5l-8 -43h138z" />
    <glyph glyph-name="ffk" unicode="ffk" horiz-adv-x="1176" 
d="M361 0l72 407h-192l-72 -407h-115l72 407h-82l17 100h83l9 53q15 84 58.5 132t131.5 48q31 0 58 -7t49 -16l-42 -98q-17 6 -33 9.5t-29 3.5q-32 0 -51 -15.5t-27 -56.5l-9 -53h191l8 43q17 94 71.5 147t164.5 53q45 0 101.5 -11.5t120.5 -43.5l-73 -410
q65 56 114.5 107.5t94.5 114.5h137q-43 -60 -92 -114t-106 -110l129 -283h-134l-91 214q-18 -16 -36.5 -31t-38.5 -30l-27 -153h-115l111 627q-27 8 -50.5 11.5t-48.5 3.5q-49 0 -78.5 -19.5t-38.5 -72.5l-8 -43h138l-17 -100h-138l-72 -407h-115z" />
    <glyph glyph-name=".notdef" horiz-adv-x="636" 
d="M49 0l120 680h448l-120 -680h-448zM189 115h208l80 450h-208z" />
    <glyph glyph-name=".null" horiz-adv-x="0" 
 />
    <glyph glyph-name="nonmarkingreturn" horiz-adv-x="333" 
 />
    <glyph glyph-name="NULL" horiz-adv-x="0" 
 />
    <glyph glyph-name="NULL" horiz-adv-x="0" 
 />
    <glyph glyph-name="CR" unicode="&#xd;" horiz-adv-x="200" 
 />
    <glyph glyph-name="space" unicode=" " horiz-adv-x="200" 
 />
    <glyph glyph-name="exclam" unicode="!" horiz-adv-x="281" 
d="M176 199h-90l34 261l39 220h115l-39 -220zM156 0h-121l21 119h121z" />
    <glyph glyph-name="quotedbl" unicode="&#x22;" horiz-adv-x="386" 
d="M162 388h-67l15 196l17 96h107l-17 -96zM337 388h-67l15 196l17 96h107l-17 -96z" />
    <glyph glyph-name="numbersign" unicode="#" horiz-adv-x="654" 
d="M251 0l87 185h-139l-87 -185h-102l87 185h-94l15 87h120l65 136h-91l15 87h117l87 185h102l-87 -185h139l87 185h102l-87 -185h94l-15 -87h-120l-65 -136h91l-15 -87h-117l-87 -185h-102zM240 272h139l65 136h-139z" />
    <glyph glyph-name="dollar" unicode="$" horiz-adv-x="518" 
d="M467 204q0 -51 -20.5 -96t-64.5 -75.5t-116 -39.5l-24 -138h-110l24 138q-73 9 -154 48l42 103q52 -24 89 -33.5t78 -9.5q68 0 99 26t31 67q0 28 -16 46.5t-51 34.5l-73 33q-58 26 -88 67.5t-30 105.5q0 80 47.5 138t148.5 69l24 137h110l-25 -141q28 -5 56 -14.5
t59 -23.5l-42 -103q-43 18 -74 27t-65 9q-113 0 -113 -87q0 -27 15 -44t51 -34l73 -33q56 -25 87.5 -67t31.5 -110z" />
    <glyph glyph-name="percent" unicode="%" horiz-adv-x="734" 
d="M357 504q-9 -62 -48 -95.5t-100 -33.5q-67 0 -100.5 41.5t-24.5 105.5l5 34q9 62 48 95.5t100 33.5q68 0 101 -41.5t24 -105.5zM557 680h94l-445 -680h-94zM276 504l6 37q5 32 -7 51t-41 19q-23 0 -41 -13t-23 -42l-6 -37q-5 -32 7 -51t41 -19q23 0 41.5 13.5t22.5 41.5z
M675 124q-9 -62 -48 -95.5t-100 -33.5q-67 0 -100.5 41.5t-24.5 105.5l5 34q9 62 48 95.5t100 33.5q68 0 101 -41.5t24 -105.5zM594 124l6 37q5 32 -7 51t-41 19q-23 0 -41 -13t-23 -42l-6 -37q-5 -32 7 -51t41 -19q23 0 41.5 13.5t22.5 41.5z" />
    <glyph glyph-name="ampersand" unicode="&#x26;" horiz-adv-x="555" 
d="M462 186q0 -64 -33.5 -107.5t-89.5 -66t-125 -22.5q-97 0 -153.5 45t-56.5 128q0 70 40 120t127 79q-35 35 -59 77t-24 91q0 76 52 118t139 42q71 0 115.5 -28.5t60 -73.5t-1.5 -95l-110 -15q15 55 -3.5 81.5t-62.5 26.5q-28 0 -51 -13.5t-23 -52.5q0 -28 15.5 -60.5
t52.5 -72.5l116 25q51 11 87 21t68 21l33 -102q-37 -11 -70.5 -19t-65.5 -14l-23 -4q22 -29 34 -60.5t12 -68.5zM119 171q0 -37 26.5 -56t70.5 -19q54 0 92.5 27t38.5 78q0 43 -30 94l-48 -9q-79 -16 -114.5 -45.5t-35.5 -69.5z" />
    <glyph glyph-name="quotesingle" unicode="'" horiz-adv-x="211" 
d="M162 388h-67l15 196l17 96h107l-17 -96z" />
    <glyph glyph-name="parenleft" unicode="(" horiz-adv-x="335" 
d="M166 184q0 -64 26.5 -135.5t77.5 -136.5l-89 -65q-64 77 -98 169t-34 174v31q0 155 76 284.5t215 244.5l66 -85q-76 -67 -130 -136t-82 -147.5t-28 -175.5v-22z" />
    <glyph glyph-name="parenright" unicode=")" horiz-adv-x="335" 
d="M184 391v22q0 65 -26.5 136t-77.5 136l89 65q64 -76 98 -168.5t34 -174.5v-31q0 -155 -76 -284.5t-215 -244.5l-66 85q77 68 130.5 136.5t81.5 147.5t28 175z" />
    <glyph glyph-name="asterisk" unicode="*" horiz-adv-x="413" 
d="M374 342l-85 -42l-22 46l-26 102l-60 -88l-35 -35l-66 69l35 34l88 56l-100 30l-44 24l45 83l43 -23l82 -67l-4 105l9 50l93 -17l-8 -49l-39 -97l99 35l50 7l13 -94l-49 -7l-105 6l65 -83z" />
    <glyph glyph-name="plus" unicode="+" 
d="M501 255h-156l-28 -160h-102l28 160h-156l18 100h156l28 160h102l-28 -160h156z" />
    <glyph glyph-name="comma" unicode="," horiz-adv-x="211" 
d="M137 119l-3 -19q-10 -58 -27.5 -110.5t-46.5 -104t-75 -108.5l-65 39q32 55 51 99t30.5 92t23.5 112h112z" />
    <glyph glyph-name="hyphen" unicode="-" horiz-adv-x="404" 
d="M52 265l17 100h304l-17 -100h-304z" />
    <glyph glyph-name="period" unicode="." horiz-adv-x="211" 
d="M121 0h-121l21 119h121z" />
    <glyph glyph-name="slash" unicode="/" horiz-adv-x="394" 
d="M367 740h121l-476 -883h-121z" />
    <glyph glyph-name="zero" unicode="0" horiz-adv-x="610" 
d="M571 402l-22 -123q-25 -142 -90.5 -215.5t-181.5 -73.5q-76 0 -128.5 35.5t-74 100.5t-5.5 153l22 123q25 140 90.5 214t182.5 74q76 0 128 -36t73.5 -100.5t5.5 -151.5zM450 402q15 86 -8.5 131.5t-84.5 45.5t-95 -44.5t-50 -132.5l-22 -123q-16 -88 8 -133t84 -45
q62 0 96 43.5t50 134.5z" />
    <glyph glyph-name="one" unicode="1" horiz-adv-x="377" 
d="M68 583l190 97h100l-120 -680h-118l96 544l-110 -55z" />
    <glyph glyph-name="two" unicode="2" horiz-adv-x="514" 
d="M437 113l-20 -113h-412l17 95q13 70 35.5 115t58.5 75t87 55l74 36q38 18 59.5 31.5t32.5 27.5t14 34l4 22q7 39 -14.5 63.5t-79.5 24.5q-32 0 -68 -9t-88 -29l-28 103q59 25 105.5 35.5t91.5 10.5q77 0 124 -28.5t65.5 -73.5t9.5 -97l-4 -23q-9 -54 -33 -87.5
t-62.5 -57.5t-93.5 -51l-74 -36q-44 -21 -64 -49.5t-31 -73.5h294z" />
    <glyph glyph-name="three" unicode="3" horiz-adv-x="504" 
d="M435 179q-8 -55 -34.5 -97.5t-77 -67t-131.5 -24.5q-47 0 -94.5 11t-101.5 37l43 103q47 -21 83 -30.5t73 -9.5q53 0 85 19.5t38 62.5l2 14q6 41 -12.5 66.5t-67.5 25.5h-106l19 108h106q47 0 73 21.5t31 55.5l3 19q7 45 -14 65.5t-71 20.5q-34 0 -72 -9t-90 -29l-30 103
q61 26 110 36t92 10q77 0 122.5 -26t63 -69.5t8.5 -96.5l-3 -19q-7 -48 -33.5 -84t-67.5 -59q32 -22 47.5 -58t8.5 -85z" />
    <glyph glyph-name="four" unicode="4" horiz-adv-x="527" 
d="M487 154h-71l-27 -154h-116l27 154h-292l17 97q87 107 168.5 215.5t139.5 213.5h141q-56 -103 -137 -209t-167 -210h149l18 103h116l-18 -103h71z" />
    <glyph glyph-name="five" unicode="5" horiz-adv-x="510" 
d="M76 351l78 329h351l-20 -113h-246l-34 -147q30 6 61 6q71 0 117 -28t64.5 -75.5t6.5 -108.5l-6 -30q-11 -54 -39 -98t-79.5 -70t-134.5 -26q-48 0 -95.5 11t-101.5 37l45 103q50 -21 85 -30.5t74 -9.5q108 0 125 83l6 30q9 46 -12 75.5t-80 29.5q-24 0 -51.5 -6.5
t-59.5 -18.5z" />
    <glyph glyph-name="six" unicode="6" horiz-adv-x="568" 
d="M512 197q-17 -94 -76 -150.5t-160 -56.5q-80 0 -130.5 39.5t-69 107.5t-4.5 154l22 131q24 143 94.5 205.5t188.5 62.5q44 0 88.5 -10t96.5 -36l-49 -103q-41 21 -73.5 29.5t-61.5 8.5q-68 0 -111 -35.5t-58 -121.5l-8 -48q78 63 156 63q58 0 97.5 -29.5t56 -78.5
t5.5 -110zM321 329q-30 0 -68 -14t-70 -40q-12 -87 13.5 -130.5t83.5 -43.5q46 0 76.5 26.5t38.5 69.5l4 20q10 49 -9.5 80.5t-68.5 31.5z" />
    <glyph glyph-name="seven" unicode="7" horiz-adv-x="474" 
d="M507 577q-93 -142 -163.5 -285.5t-122.5 -291.5h-132q102 290 281 567h-296l20 113h432z" />
    <glyph glyph-name="eight" unicode="8" horiz-adv-x="567" 
d="M503 204q0 -55 -25 -104t-80.5 -79.5t-146.5 -30.5q-110 0 -163 45.5t-53 112.5q0 50 31.5 102t106.5 92q-33 26 -51 60t-18 81q0 55 26.5 102t79 76t130.5 29q98 0 151.5 -42.5t53.5 -116.5q0 -46 -27.5 -94t-95.5 -86q39 -26 60 -62t21 -85zM296 413l50 -22
q46 33 62 63t16 56q0 74 -88 74q-53 0 -82.5 -25.5t-29.5 -64.5q0 -30 19 -48t53 -33zM157 177q0 -37 25.5 -59t74.5 -22q62 0 93 26t31 67q0 27 -18 47.5t-61 39.5l-52 23q-49 -31 -71 -59.5t-22 -62.5z" />
    <glyph glyph-name="nine" unicode="9" horiz-adv-x="570" 
d="M506 258q-24 -143 -94 -205.5t-189 -62.5q-43 0 -88 10.5t-97 35.5l49 103q41 -21 74 -29.5t61 -8.5q68 0 111 36t58 121l8 48q-78 -63 -156 -63q-57 0 -95.5 29t-55 78.5t-8.5 110.5l3 22q13 95 74.5 151t162.5 56q80 0 130.5 -39.5t69.5 -107.5t4 -154zM201 463
q-7 -49 11 -80.5t67 -31.5q30 0 68.5 14t69.5 40q12 87 -13.5 130.5t-83.5 43.5q-46 0 -77.5 -26.5t-38.5 -69.5z" />
    <glyph glyph-name="colon" unicode=":" horiz-adv-x="211" 
d="M189 388h-121l21 119h121zM121 0h-121l21 119h121z" />
    <glyph glyph-name="semicolon" unicode=";" horiz-adv-x="211" 
d="M189 388h-121l21 119h121zM137 119l-3 -19q-10 -58 -27.5 -110.5t-46.5 -104t-75 -108.5l-65 39q32 55 51 99t30.5 92t23.5 112h112z" />
    <glyph glyph-name="less" unicode="&#x3c;" 
d="M493 207l-19 -104l-384 168l14 81l443 165l-20 -112l-277 -98z" />
    <glyph glyph-name="equal" unicode="=" 
d="M106 364l18 100h414l-18 -100h-414zM71 165l18 100h414l-18 -100h-414z" />
    <glyph glyph-name="greater" unicode="&#x3e;" 
d="M503 268l-443 -165l20 112l277 98l-243 100l19 104l384 -168z" />
    <glyph glyph-name="question" unicode="?" horiz-adv-x="464" 
d="M271 583q-32 0 -71 -9t-92 -29l-29 99q59 25 109.5 35.5t96.5 10.5q79 0 125 -27t61.5 -72t4.5 -99l-4 -20q-9 -46 -32.5 -76t-64.5 -66l-38 -33q-25 -22 -38.5 -36.5t-18.5 -26t-8 -26.5l-1 -9h-120l3 18q5 27 14 48t28.5 44.5t55.5 54.5l39 34q32 28 46.5 46t18.5 42
l3 18q7 35 -12 57t-76 22zM237 0h-121l21 119h121z" />
    <glyph glyph-name="at" unicode="@" horiz-adv-x="946" 
d="M729 -167q-58 -26 -126 -41t-136 -15q-133 0 -228.5 54t-147 151t-51.5 225q0 103 32 191t92 153.5t144 102t188 36.5q93 0 170 -30t132.5 -84t85.5 -127t30 -160q0 -85 -30.5 -151.5t-82.5 -104.5t-119 -38q-47 0 -79.5 19t-44.5 59q-46 -49 -84.5 -66t-74.5 -17
q-68 0 -99.5 61.5t-15.5 159.5l7 44q17 104 68.5 158t144.5 54q52 0 102 -18t95 -47l-42 -240q-6 -33 2 -54t34 -21q29 0 55.5 25t43.5 70.5t17 106.5q0 89 -39.5 158t-110 108.5t-165.5 39.5q-108 0 -187.5 -51t-122.5 -138.5t-43 -198.5q0 -101 38.5 -176.5t111 -117
t174.5 -41.5q59 0 120 14t112 39zM400 211q-10 -61 1.5 -88.5t39.5 -27.5q23 0 49.5 18.5t58.5 62.5l30 172q-18 8 -33.5 13t-31.5 5q-46 0 -72.5 -30t-34.5 -81z" />
    <glyph glyph-name="A" unicode="A" horiz-adv-x="601" 
d="M416 0l-19 133h-233l-65 -133h-124l347 680h106l108 -680h-120zM266 341l-48 -98h164l-14 98l-20 172z" />
    <glyph glyph-name="B" unicode="B" horiz-adv-x="586" 
d="M49 0l120 680h197q101 0 148.5 -52t33.5 -136l-5 -30q-6 -37 -25.5 -66t-53.5 -48q38 -22 54 -59.5t8 -86.5l-5 -30q-9 -55 -33 -93t-70.5 -58.5t-123.5 -20.5h-245zM357 570h-87l-30 -170h87q39 0 63 15.5t29 43.5l6 33q7 36 -11 57t-57 21zM332 290h-112l-32 -180h112
q42 0 67.5 17t30.5 47l6 33q7 38 -12 60.5t-60 22.5z" />
    <glyph glyph-name="C" unicode="C" horiz-adv-x="538" 
d="M192 280q-13 -76 11.5 -126.5t94.5 -50.5q25 0 59.5 5t84.5 20l25 -105q-55 -19 -101 -26t-80 -7q-82 0 -135.5 38.5t-74 104t-7.5 147.5l20 122q23 143 94 215.5t197 72.5q41 0 82.5 -9.5t89.5 -32.5l-45 -106q-43 19 -73 27t-62 8q-70 0 -108.5 -49t-51.5 -126z" />
    <glyph glyph-name="D" unicode="D" horiz-adv-x="639" 
d="M49 0l120 680h210q81 0 135.5 -36.5t77 -99t8.5 -142.5l-22 -123q-23 -132 -94 -205.5t-194 -73.5h-241zM371 565h-102l-80 -450h107q68 0 106.5 42.5t52.5 121.5l22 123q14 74 -11.5 118.5t-94.5 44.5z" />
    <glyph glyph-name="E" unicode="E" horiz-adv-x="536" 
d="M463 115l-20 -115h-394l120 680h384l-20 -115h-264l-29 -163h234l-20 -115h-234l-31 -172h274z" />
    <glyph glyph-name="F" unicode="F" horiz-adv-x="505" 
d="M443 261h-228l-46 -261h-120l120 680h378l-20 -115h-258l-34 -189h228z" />
    <glyph glyph-name="G" unicode="G" horiz-adv-x="603" 
d="M507 43q-57 -28 -111 -40.5t-98 -12.5q-86 0 -141.5 38.5t-77.5 104t-9 147.5l20 122q23 143 98 215.5t208 72.5q44 0 90.5 -9.5t98.5 -32.5l-45 -105q-47 19 -82 26.5t-67 7.5q-79 0 -122 -49t-56 -126l-20 -122q-8 -51 0.5 -91t37.5 -63t81 -23q20 0 44.5 4t55.5 14
l26 148h-111l19 105h219z" />
    <glyph glyph-name="H" unicode="H" horiz-adv-x="682" 
d="M423 0l51 287h-254l-51 -287h-120l120 680h120l-49 -278h254l49 278h120l-120 -680h-120z" />
    <glyph glyph-name="I" unicode="I" horiz-adv-x="308" 
d="M169 0h-120l120 680h120z" />
    <glyph glyph-name="J" unicode="J" horiz-adv-x="376" 
d="M-21 -10l21 115q58 0 93.5 11t55 41t29.5 87l77 436h120l-77 -436q-12 -67 -31.5 -115t-54.5 -79t-91.5 -45.5t-141.5 -14.5z" />
    <glyph glyph-name="K" unicode="K" horiz-adv-x="614" 
d="M416 0l-119 303l-44 -40t-45 -41l-39 -222h-120l120 680h120l-55 -313q88 83 154 160t117 153h138q-59 -85 -122 -160t-129 -141l161 -379h-137z" />
    <glyph glyph-name="L" unicode="L" horiz-adv-x="507" 
d="M461 115l-20 -115h-392l120 680h120l-100 -565h272z" />
    <glyph glyph-name="M" unicode="M" horiz-adv-x="829" 
d="M295 680l108 -468l274 468h133l-120 -680h-115l46 260l56 232l-242 -412h-107l-91 418l-27 -238l-46 -260h-115l120 680h126z" />
    <glyph glyph-name="N" unicode="N" horiz-adv-x="683" 
d="M49 0l120 680h110q43 -87 77 -162.5t63.5 -150t57.5 -158.5l26 211l46 260h115l-120 -680h-110q-43 140 -89.5 261.5t-100.5 239.5l-34 -241l-46 -260h-115z" />
    <glyph glyph-name="O" unicode="O" horiz-adv-x="640" 
d="M601 402l-22 -123q-25 -136 -95 -212.5t-193 -76.5q-81 0 -136 37t-78 102.5t-8 149.5l22 123q24 134 94.5 211t194.5 77q81 0 135.5 -37.5t77.5 -102.5t8 -148zM478 402q14 79 -11.5 127t-94.5 48q-66 0 -105 -47t-53 -128l-22 -123q-14 -82 11.5 -129t93.5 -47t106 46
t53 130z" />
    <glyph glyph-name="P" unicode="P" horiz-adv-x="575" 
d="M49 0l120 680h211q107 0 156 -57.5t34 -152.5l-9 -56q-13 -84 -70.5 -134t-163.5 -50h-117l-41 -230h-120zM373 565h-104l-39 -220h104q44 0 71.5 19.5t33.5 54.5l9 53q8 44 -11.5 68.5t-63.5 24.5z" />
    <glyph glyph-name="Q" unicode="Q" horiz-adv-x="640" 
d="M503 -73l-22 -125q-73 0 -117 22.5t-65.5 61.5t-30.5 87l-3 18q-73 6 -121.5 44t-68.5 101t-6 143l22 123q24 134 94.5 211t194.5 77q81 0 135.5 -37.5t77.5 -102.5t8 -148l-22 -123q-20 -110 -69.5 -181.5t-132.5 -96.5q5 -30 17.5 -46t38.5 -22t70 -6zM478 402
q14 79 -11.5 127t-94.5 48q-66 0 -105 -47t-53 -128l-22 -123q-14 -82 11.5 -129t93.5 -47t106 46t53 130z" />
    <glyph glyph-name="R" unicode="R" horiz-adv-x="609" 
d="M49 0l120 680h214q73 0 119 -27t64.5 -74t7.5 -106l-8 -45q-21 -115 -123 -158q57 -135 90 -270h-130q-27 127 -75 250h-115l-44 -250h-120zM377 570h-107l-37 -210h106q44 0 71 20.5t34 54.5l8 43q8 44 -11.5 68t-63.5 24z" />
    <glyph glyph-name="S" unicode="S" horiz-adv-x="518" 
d="M211 101q68 0 99 26t31 67q0 28 -16 46.5t-51 34.5l-73 33q-58 26 -88 67.5t-30 105.5q0 59 25.5 106.5t78.5 75t135 27.5q46 0 89 -11t92 -33l-42 -103q-43 18 -74 27t-65 9q-113 0 -113 -87q0 -27 15 -44t51 -34l73 -33q56 -25 87.5 -67t31.5 -110q0 -57 -25.5 -106
t-82 -78.5t-148.5 -29.5q-52 0 -102 11.5t-107 39.5l42 103q52 -24 89 -33.5t78 -9.5z" />
    <glyph glyph-name="T" unicode="T" horiz-adv-x="526" 
d="M68 565l20 115h500l-20 -115h-190l-100 -565h-120l100 565h-190z" />
    <glyph glyph-name="U" unicode="U" horiz-adv-x="646" 
d="M153 680h123l-77 -436q-11 -65 11 -103t86 -38t100 37.5t47 103.5l77 436h123l-77 -436q-13 -75 -44.5 -132.5t-87 -89.5t-142.5 -32q-81 0 -133.5 32.5t-74 89.5t-8.5 132z" />
    <glyph glyph-name="V" unicode="V" horiz-adv-x="584" 
d="M645 680l-336 -680h-123l-97 680h124l43 -342l16 -177l81 178l162 341h130z" />
    <glyph glyph-name="W" unicode="W" horiz-adv-x="867" 
d="M232 411l-6 -252l228 521h108l44 -516l85 247l100 269h125l-273 -680h-123l-42 506l-221 -506h-123l-33 680h127z" />
    <glyph glyph-name="X" unicode="X" horiz-adv-x="562" 
d="M373 0l-97 243l-173 -243h-133l260 354l-129 326h129l91 -230l163 230h133l-250 -341l135 -339h-129z" />
    <glyph glyph-name="Y" unicode="Y" horiz-adv-x="544" 
d="M616 680l-279 -406l-49 -274h-120l48 271l-138 409h124l93 -289l190 289h131z" />
    <glyph glyph-name="Z" unicode="Z" horiz-adv-x="509" 
d="M448 115l-20 -115h-435l19 105l356 460h-265l20 115h415l-19 -105l-356 -460h285z" />
    <glyph glyph-name="bracketleft" unicode="[" horiz-adv-x="350" 
d="M296 -43l-17 -100h-255l155 883h255l-17 -100h-140l-121 -683h140z" />
    <glyph glyph-name="backslash" unicode="\" horiz-adv-x="394" 
d="M190 740l173 -883h-114l-173 883h114z" />
    <glyph glyph-name="bracketright" unicode="]" horiz-adv-x="350" 
d="M341 740l-155 -883h-255l17 100h141l119 683h-139l17 100h255z" />
    <glyph glyph-name="asciicircum" unicode="^" 
d="M397 266l-53 260l-145 -260h-110l239 414h81l94 -414h-106z" />
    <glyph glyph-name="underscore" unicode="_" horiz-adv-x="414" 
d="M-69 -163l13 73h404l-13 -73h-404z" />
    <glyph glyph-name="grave" unicode="`" horiz-adv-x="500" 
d="M258 579l-82 120l111 46l67 -166h-96z" />
    <glyph glyph-name="a" unicode="a" horiz-adv-x="558" 
d="M465 -5q-55 0 -81.5 23.5t-34.5 57.5q-54 -52 -97 -69t-76 -17q-49 0 -81 31.5t-43.5 87t-0.5 127.5l7 44q19 116 76.5 176.5t160.5 60.5q58 0 113.5 -17t102.5 -48l-54 -309q-2 -15 4.5 -28.5t29.5 -13.5h12l-19 -106h-19zM169 236q-11 -72 2 -105.5t44 -33.5
q26 0 59.5 20.5t76.5 74.5l35 202q-41 20 -81 20q-56 0 -87.5 -36t-41.5 -98z" />
    <glyph glyph-name="b" unicode="b" horiz-adv-x="560" 
d="M501 227q-18 -115 -77 -176t-164 -61q-61 0 -115.5 20t-104.5 48l120 682h115l-54 -309q52 53 91 69.5t70 16.5q50 0 82 -31.5t44 -86.5t0 -128zM340 410q-26 0 -60.5 -24.5t-81.5 -84.5l-32 -186q23 -12 43.5 -17t40.5 -5q59 0 91 36.5t42 97.5l7 44q12 72 -1.5 105.5
t-48.5 33.5z" />
    <glyph glyph-name="c" unicode="c" horiz-adv-x="450" 
d="M293 411q-46 0 -78 -29.5t-43 -87.5l-11 -60q-25 -138 90 -138q24 0 50.5 5.5t64.5 18.5l17 -99q-46 -17 -80.5 -24t-65.5 -7q-108 0 -157.5 68.5t-29.5 183.5l9 52q20 111 81.5 167t151.5 56q69 0 149 -34l-38 -99q-63 27 -110 27z" />
    <glyph glyph-name="d" unicode="d" horiz-adv-x="564" 
d="M331 0l15 85q-55 -58 -96 -76.5t-73 -18.5q-49 0 -81.5 31.5t-44.5 87t0 127.5l7 44q18 116 77 176.5t164 60.5q31 0 58.5 -6.5t54.5 -17.5l43 247h115l-130 -740h-109zM169 236q-12 -72 2 -105.5t48 -33.5q26 0 60.5 25t82.5 85l32 185q-23 12 -44 17t-41 5
q-58 0 -90 -36t-43 -98z" />
    <glyph glyph-name="e" unicode="e" horiz-adv-x="522" 
d="M424 24q-55 -21 -96.5 -27.5t-77.5 -6.5q-116 0 -168.5 68.5t-33.5 183.5l9 52q18 102 81 162.5t156 60.5q49 0 91.5 -17t69.5 -54.5t27 -99.5q0 -65 -39 -128h-289q-7 -61 19 -92.5t92 -31.5q22 0 59 6t84 22zM290 417q-94 0 -120 -111h195q7 21 7 40q0 35 -22.5 53
t-59.5 18z" />
    <glyph glyph-name="f" unicode="f" horiz-adv-x="373" 
d="M399 407h-158l-72 -407h-115l72 407h-82l17 100h83l9 53q16 89 64.5 139.5t145.5 50.5q37 0 69 -7.5t58 -18.5l-42 -98q-45 16 -82 16q-40 0 -65 -17.5t-33 -64.5l-10 -53h158z" />
    <glyph glyph-name="g" unicode="g" horiz-adv-x="561" 
d="M441 0q-11 -64 -34 -114.5t-70 -79.5t-130 -29q-79 0 -171 30l25 98q43 -15 80 -20.5t60 -5.5q46 0 71 15.5t36.5 43t17.5 62.5l12 69q-50 -46 -90 -62.5t-71 -16.5q-49 0 -81.5 31.5t-44 87t-0.5 127.5l7 44q18 116 77 176.5t164 60.5q59 0 115.5 -17t104.5 -48z
M169 236q-11 -72 2.5 -105.5t47.5 -33.5q26 0 61.5 21t78.5 75l35 200q-43 21 -85 21q-58 0 -90.5 -36t-42.5 -98z" />
    <glyph glyph-name="h" unicode="h" horiz-adv-x="584" 
d="M361 410q-24 0 -61 -18.5t-96 -77.5l-55 -314h-115l130 740h115l-55 -312q55 53 98 71t78 18q51 0 81.5 -24.5t41.5 -67.5t1 -97l-58 -328h-115l57 326q16 84 -47 84z" />
    <glyph glyph-name="i" unicode="i" horiz-adv-x="273" 
d="M258 603h-121l21 119h121zM149 0h-115l89 507h115z" />
    <glyph glyph-name="j" unicode="j" horiz-adv-x="273" 
d="M258 603h-121l21 119h121zM-109 -223l19 108q50 0 81 24t42 87l90 511h115l-90 -511q-12 -67 -36.5 -116t-76 -76t-144.5 -27z" />
    <glyph glyph-name="k" unicode="k" horiz-adv-x="532" 
d="M342 0l-91 214q-18 -16 -36.5 -31t-38.5 -30l-27 -153h-115l130 740h115l-80 -455q65 56 114.5 108t94.5 114h137q-43 -60 -92 -114t-106 -110l129 -283h-134z" />
    <glyph glyph-name="l" unicode="l" horiz-adv-x="276" 
d="M57 148l104 592h115l-105 -597q-2 -15 4.5 -28.5t29.5 -13.5h12l-19 -106h-19q-58 0 -86.5 22.5t-35 58t-0.5 72.5z" />
    <glyph glyph-name="m" unicode="m" horiz-adv-x="881" 
d="M356 410q-23 0 -58 -18.5t-93 -76.5l-56 -315h-115l89 507h109l-15 -86q56 57 99 76.5t79 19.5q51 0 81 -27t39 -73q59 60 104.5 80t82.5 20q49 0 78.5 -24.5t40 -67.5t0.5 -97l-58 -328h-115l57 326q8 43 -4 63.5t-38 20.5q-23 0 -58 -18.5t-93 -76.5l-56 -315h-115
l57 326q8 43 -4 63.5t-38 20.5z" />
    <glyph glyph-name="n" unicode="n" horiz-adv-x="584" 
d="M361 410q-24 0 -61 -18.5t-96 -77.5l-55 -314h-115l89 507h109l-15 -86q57 58 101.5 77t81.5 19q51 0 81.5 -24.5t41.5 -67.5t1 -97l-58 -328h-115l57 326q16 84 -47 84z" />
    <glyph glyph-name="o" unicode="o" horiz-adv-x="545" 
d="M496 266l-8 -52q-16 -108 -79.5 -166t-161.5 -58q-71 0 -119.5 32.5t-69 89.5t-9.5 130l8 52q17 107 79 165t161 58q72 0 120 -32.5t69 -89t10 -129.5zM379 271q11 65 -11.5 104t-74.5 39q-43 0 -75.5 -29.5t-42.5 -90.5l-9 -57q-10 -65 13 -104.5t73 -39.5q44 0 76 30.5
t42 90.5z" />
    <glyph glyph-name="p" unicode="p" horiz-adv-x="564" 
d="M264 -10q-31 0 -59 6.5t-54 17.5l-40 -227h-115l127 720h109l-15 -85q55 59 96 77t73 18q50 0 82 -31.5t44 -86.5t0 -128l-7 -44q-18 -115 -77 -176t-164 -61zM344 410q-26 0 -60.5 -25t-82.5 -85l-32 -185q45 -22 85 -22q59 0 91 36.5t42 97.5l7 44q12 72 -1.5 105.5
t-48.5 33.5z" />
    <glyph glyph-name="q" unicode="q" horiz-adv-x="561" 
d="M519 449l-117 -662h-115l51 289q-52 -52 -91 -69t-70 -17q-49 0 -81.5 31.5t-44.5 87t0 127.5l7 44q18 116 77 176.5t164 60.5q62 0 116 -19.5t104 -48.5zM169 236q-12 -72 2 -105.5t48 -33.5q26 0 60.5 24.5t80.5 83.5l33 187q-23 12 -43.5 17t-40.5 5q-58 0 -90 -36
t-43 -98z" />
    <glyph glyph-name="r" unicode="r" horiz-adv-x="387" 
d="M391 402q-23 0 -51.5 -5t-62 -23t-72.5 -57l-56 -317h-115l89 507h109l-15 -87q59 59 107.5 78t86.5 19z" />
    <glyph glyph-name="s" unicode="s" horiz-adv-x="461" 
d="M201 91q41 0 63.5 12t22.5 38q0 20 -13.5 33t-45.5 23l-55 19q-55 20 -81.5 56t-26.5 88q0 68 47 112.5t145 44.5q42 0 82 -9t83 -27l-37 -98q-37 17 -69.5 25t-61.5 8q-44 0 -59 -14t-15 -33t13 -30.5t38 -20.5l55 -19q59 -20 87 -56.5t28 -89.5q0 -70 -49.5 -116.5
t-156.5 -46.5q-46 0 -90 9.5t-91 30.5l36 98q43 -19 79.5 -28t71.5 -9z" />
    <glyph glyph-name="t" unicode="t" horiz-adv-x="400" 
d="M344 11q-28 -11 -62 -16t-60 -5q-63 0 -96.5 25t-43 66t-1.5 88l42 238h-82l17 100h83l23 132h115l-23 -132h157l-17 -100h-158l-42 -238q-7 -40 6.5 -55.5t45.5 -15.5q15 0 35.5 3t43.5 11z" />
    <glyph glyph-name="u" unicode="u" horiz-adv-x="570" 
d="M337 0l15 86q-55 -57 -98 -76.5t-78 -19.5q-48 0 -77.5 25t-39.5 67.5t0 96.5l58 328h115l-57 -326q-7 -43 4 -63.5t36 -20.5q23 0 57.5 19t92.5 77l55 314h115l-89 -507h-109z" />
    <glyph glyph-name="v" unicode="v" horiz-adv-x="499" 
d="M526 507l-269 -507h-105l-91 507h110l43 -253l15 -112l54 112l127 253h116z" />
    <glyph glyph-name="w" unicode="w" horiz-adv-x="737" 
d="M754 507l-219 -507h-125l-16 381l-157 -381h-125l-41 507h112l14 -201l1 -191l157 392h116l20 -381l63 179l83 202h117z" />
    <glyph glyph-name="x" unicode="x" horiz-adv-x="484" 
d="M303 0l-74 167l-129 -167h-126l210 262l-110 245h117l68 -153l118 153h126l-199 -248l116 -259h-117z" />
    <glyph glyph-name="y" unicode="y" horiz-adv-x="499" 
d="M230 -50q-49 -92 -107.5 -132.5t-146.5 -40.5l20 115q39 3 63 10.5t41.5 24.5t34.5 48l16 30l-90 502h114l43 -253l15 -105l51 105l127 253h115l-269 -507z" />
    <glyph glyph-name="z" unicode="z" horiz-adv-x="432" 
d="M370 100l-18 -100h-362l16 90l265 317h-199l17 100h342l-15 -90l-265 -317h219z" />
    <glyph glyph-name="braceleft" unicode="{" horiz-adv-x="381" 
d="M327 -44l-17 -100h-81q-69 0 -108 27.5t-47 74t15 103.5l35 86q18 45 11 73t-63 28h-53l17 100h53q56 0 73.5 28t14.5 73l-5 86q-5 94 42 149.5t147 55.5h104l-17 -100h-89q-37 0 -54 -24t-15 -62l5 -86q4 -71 -23 -115t-80 -60q47 -14 59 -55.5t-16 -109.5l-36 -86
q-15 -37 -6.5 -61.5t45.5 -24.5h89z" />
    <glyph glyph-name="bar" unicode="|" horiz-adv-x="303" 
d="M179 740h115l-168 -953h-115z" />
    <glyph glyph-name="braceright" unicode="}" horiz-adv-x="381" 
d="M224 61q5 -94 -41.5 -149.5t-147.5 -55.5h-104l17 100h89q37 0 54 24.5t15 61.5l-5 86q-4 71 23.5 115t79.5 60q-47 14 -59 55.5t16 109.5l36 86q15 38 6.5 62t-45.5 24h-89l17 100h81q70 0 108.5 -27.5t46.5 -74t-15 -103.5l-35 -86q-18 -45 -11 -73t63 -28h53l-17 -100
h-53q-56 0 -73.5 -28t-14.5 -73z" />
    <glyph glyph-name="asciitilde" unicode="~" 
d="M384 210q-36 0 -60.5 16t-42 37t-31.5 37t-29 16q-5 0 -14 -5.5t-20.5 -25.5t-25.5 -65l-87 20q22 75 47 112.5t51.5 50.5t50.5 13q35 0 59.5 -16t42 -37t31.5 -37t29 -16q6 0 15 5.5t21 26.5t27 65l86 -20q-21 -75 -46.5 -113t-52 -51t-51.5 -13z" />
    <glyph glyph-name="uni00A0" unicode="&#xa0;" horiz-adv-x="200" 
 />
    <glyph glyph-name="exclamdown" unicode="&#xa1;" horiz-adv-x="281" 
d="M124 507h121l-21 -119h-121zM104 308h90l-34 -261l-39 -220h-115l39 220z" />
    <glyph glyph-name="cent" unicode="&#xa2;" horiz-adv-x="450" 
d="M383 21q-67 -25 -115 -29l-20 -117h-110l22 126q-68 23 -97 86t-13 155l9 52q17 98 67.5 153t124.5 67l20 118h110l-21 -122q39 -9 81 -27l-38 -99q-63 27 -110 27q-46 0 -78 -29.5t-43 -87.5l-11 -60q-25 -138 90 -138q24 0 50.5 5.5t64.5 18.5z" />
    <glyph glyph-name="sterling" unicode="&#xa3;" horiz-adv-x="487" 
d="M436 115l-20 -115h-400l19 105q51 37 76 66.5t34 54t9 46.5h-98l18 100h60q-8 26 -15.5 54t-7.5 64q0 51 20.5 97t68.5 74.5t131 28.5q42 0 85.5 -9.5t96.5 -32.5l-45 -106q-44 20 -76.5 27.5t-58.5 7.5q-48 0 -74 -23.5t-26 -70.5q0 -28 8 -55.5t16 -55.5h156l-18 -100
h-123q-4 -38 -26.5 -77t-67.5 -80h258z" />
    <glyph glyph-name="currency" unicode="&#xa4;" horiz-adv-x="558" 
d="M272 103q-65 0 -112 33l-129 -111l-49 62l127 111q-17 37 -17 84q0 38 11.5 71.5t31.5 61.5l-78 98l64 56l78 -98q23 12 49 19t55 7q65 0 111 -33l128 112l49 -63l-126 -110q18 -37 18 -85q0 -38 -11.5 -72t-32.5 -62l77 -97l-63 -55l-78 97q-46 -26 -103 -26zM300 407
q-49 0 -81 -35t-32 -86q0 -44 24 -68.5t64 -24.5q50 0 81.5 35t31.5 86q0 44 -24 68.5t-64 24.5z" />
    <glyph glyph-name="yen" unicode="&#xa5;" horiz-adv-x="566" 
d="M490 149h-165l-26 -149h-120l26 149h-165l16 87h165l6 35l-14 41h-144l15 87h100l-95 281h124l93 -289l190 289h131l-193 -281h100l-15 -87h-145l-26 -38l-7 -38h165z" />
    <glyph glyph-name="brokenbar" unicode="&#xa6;" horiz-adv-x="281" 
d="M168 740h115l-67 -383h-115zM68 170h115l-68 -383h-115z" />
    <glyph glyph-name="section" unicode="&#xa7;" horiz-adv-x="516" 
d="M400 -22q0 -54 -24.5 -99.5t-78 -73.5t-140.5 -28q-52 0 -99.5 12t-102.5 39l46 103q50 -22 84.5 -32.5t75.5 -10.5q59 0 86 22.5t27 57.5q0 23 -12 39t-41 29l-73 33q-59 27 -90 65.5t-31 90.5q0 47 29 89.5t84 68.5q-38 43 -38 111q0 55 24.5 99.5t76 70.5t132.5 26
q46 0 89 -11t92 -33l-46 -103q-43 18 -74 27t-65 9q-103 0 -103 -74q0 -22 12.5 -36.5t43.5 -28.5l73 -33q53 -24 83.5 -59.5t30.5 -94.5q0 -41 -27 -83t-87 -70q43 -45 43 -122zM222 175l53 -24q36 16 53 38t17 44q0 23 -15 38.5t-47 29.5l-68 31q-31 -16 -46.5 -40.5
t-15.5 -47.5q0 -25 16 -38.5t53 -30.5z" />
    <glyph glyph-name="dieresis" unicode="&#xa8;" horiz-adv-x="500" 
d="M270 609h-109l19 107h109zM464 609h-109l19 107h109z" />
    <glyph glyph-name="copyright" unicode="&#xa9;" horiz-adv-x="834" 
d="M432 -37q-81 0 -149 28t-118 79t-77.5 119.5t-27.5 150.5t27.5 150.5t77.5 119.5t118 79t149 28q80 0 148 -28t118 -79t78 -119.5t28 -150.5t-28 -150.5t-78 -119.5t-118 -79t-148 -28zM432 33q86 0 152.5 39.5t105 108.5t38.5 159q0 89 -38.5 158.5t-105 109
t-152.5 39.5q-85 0 -152 -39.5t-105.5 -109t-38.5 -158.5q0 -90 38.5 -159t105.5 -108.5t152 -39.5zM348 361v-41q0 -55 20 -83.5t65 -28.5q26 0 53 8t55 21l29 -79q-68 -35 -142 -35q-85 0 -129 52t-44 145v41q0 92 44 144t129 52q32 0 67 -7.5t66 -24.5l-29 -79
q-25 12 -50 19t-49 7q-45 0 -65 -28t-20 -83z" />
    <glyph glyph-name="ordfeminine" unicode="&#xaa;" horiz-adv-x="353" 
d="M343 340q-36 0 -55 16.5t-26 38.5q-36 -35 -63.5 -47.5t-49.5 -12.5q-48 0 -71.5 45.5t-10.5 117.5l5 29q14 77 53.5 117.5t112.5 40.5q35 0 70 -11.5t65 -31.5l-35 -197q-2 -14 2.5 -21t20.5 -7h8l-14 -77h-12zM148 498q-7 -44 1.5 -65t29.5 -21q16 0 37 12.5t48 44.5
l22 129q-25 12 -50 12q-37 0 -56.5 -22.5t-26.5 -60.5z" />
    <glyph glyph-name="guillemotleft" unicode="&#xab;" horiz-adv-x="712" 
d="M316 126l-21 -112l-261 195l13 77l330 192l-21 -124l-204 -113zM636 126l-21 -112l-261 195l13 77l330 192l-21 -124l-204 -113z" />
    <glyph glyph-name="logicalnot" unicode="&#xac;" 
d="M108 375l18 100h414l-46 -257h-102l28 157h-312z" />
    <glyph glyph-name="uni00AD" unicode="&#xad;" horiz-adv-x="0" 
 />
    <glyph glyph-name="registered" unicode="&#xae;" horiz-adv-x="537" 
d="M308 241q-67 0 -120 31t-83.5 85t-30.5 122q0 69 30.5 122.5t83.5 84.5t120 31t120 -31t83.5 -84.5t30.5 -122.5q0 -68 -30.5 -122t-83.5 -85t-120 -31zM308 299q50 0 88.5 23.5t61 64.5t22.5 92q0 52 -22.5 92.5t-61 64t-88.5 23.5q-49 0 -88 -23.5t-61.5 -64
t-22.5 -92.5q0 -51 22.5 -92t61.5 -64.5t88 -23.5zM219 353v255h95q41 0 62.5 -22.5t21.5 -59.5v-9q0 -48 -34 -70q28 -44 49 -94h-67q-9 21 -19 41.5t-21 39.5h-26v-81h-61zM314 550h-34v-57h34q21 0 21 24v9q0 24 -21 24z" />
    <glyph glyph-name="macron" unicode="&#xaf;" horiz-adv-x="500" 
d="M479 692l-15 -83h-303l15 83h303z" />
    <glyph glyph-name="degree" unicode="&#xb0;" horiz-adv-x="355" 
d="M210 366q-66 0 -105.5 39t-39.5 105q0 50 23 91t62.5 65t90.5 24q66 0 105.5 -39t39.5 -105q0 -50 -23 -91t-62.5 -65t-90.5 -24zM238 613q-40 0 -65.5 -28.5t-25.5 -70.5q0 -34 17.5 -52.5t48.5 -18.5q40 0 65.5 28.5t25.5 70.5q0 34 -17.5 52.5t-48.5 18.5z" />
    <glyph glyph-name="plusminus" unicode="&#xb1;" 
d="M508 295h-156l-26 -150h-102l26 150h-156l18 100h156l26 150h102l-26 -150h156zM42 0l18 100h414l-18 -100h-414z" />
    <glyph glyph-name="uni00B2" unicode="&#xb2;" horiz-adv-x="269" 
d="M288 518l-13 -73h-221l12 68q10 55 33.5 79.5t62.5 40.5l37 15q21 8 30 17t10 20l1 3q5 27 -38 27q-18 0 -38 -5t-47 -14l-13 71q31 13 57 18t50 5q46 0 70.5 -14t33 -36.5t4.5 -48.5l-1 -9q-4 -32 -26 -56.5t-67 -42.5l-37 -15q-21 -8 -30 -20.5t-12 -29.5h142z" />
    <glyph glyph-name="uni00B3" unicode="&#xb3;" horiz-adv-x="275" 
d="M291 530q-7 -40 -36 -65t-95 -25q-25 0 -51 5t-49 16l23 70q21 -8 40 -11.5t37 -3.5q49 0 55 29l1 7q2 14 -7 23.5t-30 9.5h-51l11 64h51q40 0 45 30l1 7q6 29 -40 29q-15 0 -33 -3.5t-43 -11.5l-17 70q30 11 54.5 15.5t46.5 4.5q68 0 93 -29.5t20 -66.5l-1 -7
q-3 -26 -19 -44t-40 -28q20 -11 30.5 -29t5.5 -44z" />
    <glyph glyph-name="acute" unicode="&#xb4;" horiz-adv-x="500" 
d="M360 579h-106l125 166l105 -46z" />
    <glyph glyph-name="uni00B5" unicode="&#xb5;" horiz-adv-x="574" 
d="M127 -125l-16 -88h-115l128 720h115l-57 -326q-7 -43 4 -63.5t36 -20.5q23 0 57 19t92 76l55 315h115l-64 -364q-3 -15 4 -28.5t30 -13.5h12l-19 -106h-19q-63 0 -89 29t-29 70q-58 -62 -101.5 -83t-76.5 -21q-41 0 -62 21v-136z" />
    <glyph glyph-name="paragraph" unicode="&#xb6;" horiz-adv-x="572" 
d="M79 496q14 84 71 134t163 50h322l-16 -87h-84l-130 -736h-120l130 736h-63l-64 -363h-28q-106 0 -155.5 58t-34.5 152z" />
    <glyph glyph-name="periodcentered" unicode="&#xb7;" horiz-adv-x="500" 
d="M323 325h-121l21 119h121z" />
    <glyph glyph-name="cedilla" unicode="&#xb8;" horiz-adv-x="500" 
d="M299 -117q0 -43 -35 -74.5t-100 -31.5q-23 0 -42.5 4t-42.5 11l17 69q41 -11 69 -11q26 0 35.5 9t9.5 18q0 8 -7.5 14.5t-27.5 6.5q-7 0 -13.5 -0.5t-14.5 -2.5l-19 32l25 73h77l-14 -39q40 -3 61.5 -25.5t21.5 -52.5z" />
    <glyph glyph-name="uni00B9" unicode="&#xb9;" horiz-adv-x="220" 
d="M101 737l105 48h60l-60 -340h-79l44 249l-47 -21z" />
    <glyph glyph-name="ordmasculine" unicode="&#xba;" horiz-adv-x="346" 
d="M370 518l-5 -34q-11 -72 -54 -110.5t-109 -38.5q-74 0 -110.5 47t-25.5 120l5 34q11 71 54 110t110 39q72 0 109 -47.5t26 -119.5zM290 521q6 41 -8.5 65t-49.5 24q-30 0 -52 -18t-28 -56l-6 -37q-7 -41 9 -65t50 -24q29 0 51 18.5t28 55.5z" />
    <glyph glyph-name="guillemotright" unicode="&#xbb;" horiz-adv-x="713" 
d="M342 206l-330 -192l21 124l204 113l-164 115l21 112l261 -195zM662 206l-330 -192l21 124l204 113l-164 115l21 112l261 -195z" />
    <glyph glyph-name="onequarter" unicode="&#xbc;" horiz-adv-x="631" 
d="M83 632l105 48h60l-60 -340h-79l44 249l-47 -21zM496 680h94l-445 -680h-94zM588 67h-34l-12 -67h-73l12 67h-143l11 64q43 52 80.5 104.5t65.5 104.5h85q-56 -104 -142 -204h55l8 46h73l-8 -46h34z" />
    <glyph glyph-name="onehalf" unicode="&#xbd;" horiz-adv-x="670" 
d="M83 632l105 48h60l-60 -340h-79l44 249l-47 -21zM496 680h94l-445 -680h-94zM612 73l-13 -73h-221l12 68q10 55 33.5 79.5t62.5 40.5l37 15q21 8 30 17t10 20l1 3q5 27 -38 27q-18 0 -38 -5t-47 -14l-13 71q31 13 57 18t50 5q46 0 70.5 -14t33 -36.5t4.5 -48.5l-1 -9
q-4 -32 -26 -56.5t-67 -42.5l-37 -15q-21 -8 -30 -20.5t-12 -29.5h142z" />
    <glyph glyph-name="threequarters" unicode="&#xbe;" horiz-adv-x="671" 
d="M273 425q-7 -40 -36 -65t-95 -25q-25 0 -51 5t-49 16l23 70q21 -8 40 -11.5t37 -3.5q49 0 55 29l1 7q2 14 -7 23.5t-30 9.5h-51l11 64h51q40 0 45 30l1 7q6 29 -40 29q-15 0 -33 -3.5t-43 -11.5l-17 70q30 11 54.5 15.5t46.5 4.5q68 0 93 -29.5t20 -66.5l-1 -7
q-3 -26 -19 -44t-40 -28q20 -11 30.5 -29t5.5 -44zM536 680h94l-445 -680h-94zM628 67h-34l-12 -67h-73l12 67h-143l11 64q43 52 80.5 104.5t65.5 104.5h85q-56 -104 -142 -204h55l8 46h73l-8 -46h34z" />
    <glyph glyph-name="questiondown" unicode="&#xbf;" horiz-adv-x="464" 
d="M240 507h121l-21 -119h-121zM205 -76q33 0 72 9t92 29l29 -99q-59 -25 -109 -35.5t-97 -10.5q-79 0 -125 27t-61.5 72t-4.5 99l4 20q9 46 32.5 76t64.5 66l38 33q25 22 38 36.5t18.5 26.5t7.5 26l2 9h120l-3 -18q-4 -26 -13.5 -47.5t-29 -44.5t-55.5 -55l-39 -34
q-32 -28 -46.5 -46t-19.5 -42l-3 -18q-6 -34 13 -56.5t75 -22.5z" />
    <glyph glyph-name="Agrave" unicode="&#xc0;" horiz-adv-x="601" 
d="M416 0l-19 133h-233l-65 -133h-124l347 680h106l108 -680h-120zM266 341l-48 -98h164l-14 98l-20 172zM337 752l-82 120l111 46l67 -166h-96z" />
    <glyph glyph-name="Aacute" unicode="&#xc1;" horiz-adv-x="601" 
d="M416 0l-19 133h-233l-65 -133h-124l347 680h106l108 -680h-120zM266 341l-48 -98h164l-14 98l-20 172zM439 752h-106l125 166l105 -46z" />
    <glyph glyph-name="Acircumflex" unicode="&#xc2;" horiz-adv-x="601" 
d="M416 0l-19 133h-233l-65 -133h-124l347 680h106l108 -680h-120zM266 341l-48 -98h164l-14 98l-20 172zM449 752l-47 80l-75 -80h-94l124 161h112l68 -161h-88z" />
    <glyph glyph-name="Atilde" unicode="&#xc3;" horiz-adv-x="601" 
d="M416 0l-19 133h-233l-65 -133h-124l347 680h106l108 -680h-120zM266 341l-48 -98h164l-14 98l-20 172zM457 761q-28 0 -45 10.5t-27.5 24.5t-18.5 24.5t-18 10.5q-8 0 -15 -12t-15 -50h-81q11 63 28 96.5t39 45.5t45 12q27 0 44 -10.5t27 -24.5t18 -24.5t18 -10.5
q8 0 15.5 12.5t14.5 49.5h81q-10 -63 -27.5 -96.5t-38.5 -45.5t-44 -12z" />
    <glyph glyph-name="Adieresis" unicode="&#xc4;" horiz-adv-x="601" 
d="M416 0l-19 133h-233l-65 -133h-124l347 680h106l108 -680h-120zM266 341l-48 -98h164l-14 98l-20 172zM348 782h-109l19 107h109zM542 782h-109l19 107h109z" />
    <glyph glyph-name="Aring" unicode="&#xc5;" horiz-adv-x="601" 
d="M164 133l-65 -133h-124l323 633q-22 16 -31.5 41.5t-2.5 58.5l3 15q10 47 44 76t86 29q56 0 86.5 -34.5t19.5 -86.5l-3 -15q-6 -29 -22 -52t-42 -36l100 -629h-120l-19 133h-233zM434 741q5 21 -7 33.5t-35 12.5q-22 0 -36.5 -12.5t-19.5 -33.5l-3 -15q-4 -21 7 -33.5
t33 -12.5q23 0 38.5 12.5t19.5 33.5zM266 341l-48 -98h164l-14 98l-20 172z" />
    <glyph glyph-name="AE" unicode="&#xc6;" horiz-adv-x="843" 
d="M-44 0l450 680h454l-20 -115h-264l-29 -163h234l-20 -115h-234l-31 -172h274l-20 -115h-394l23 133h-201l-86 -133h-136zM250 243h149l55 315z" />
    <glyph glyph-name="Ccedilla" unicode="&#xc7;" horiz-adv-x="538" 
d="M346 -117q0 -43 -35 -74.5t-100 -31.5q-23 0 -42.5 4t-42.5 11l17 69q41 -11 69 -11q26 0 35.5 9t9.5 18q0 8 -7.5 14.5t-27.5 6.5q-7 0 -13.5 -0.5t-14.5 -2.5l-19 32l26 76q-79 27 -113.5 102t-18.5 175l20 122q23 143 94 215.5t197 72.5q41 0 82.5 -9.5t89.5 -32.5
l-45 -106q-43 19 -73 27t-62 8q-70 0 -108.5 -49t-51.5 -126l-20 -122q-13 -76 11.5 -126.5t94.5 -50.5q25 0 59.5 5t84.5 20l25 -105q-55 -19 -101 -26t-80 -7h-12l-11 -29q40 -3 61.5 -25.5t21.5 -52.5z" />
    <glyph glyph-name="Egrave" unicode="&#xc8;" horiz-adv-x="536" 
d="M463 115l-20 -115h-394l120 680h384l-20 -115h-264l-29 -163h234l-20 -115h-234l-31 -172h274zM322 752l-82 120l111 46l67 -166h-96z" />
    <glyph glyph-name="Eacute" unicode="&#xc9;" horiz-adv-x="536" 
d="M463 115l-20 -115h-394l120 680h384l-20 -115h-264l-29 -163h234l-20 -115h-234l-31 -172h274zM424 752h-106l125 166l105 -46z" />
    <glyph glyph-name="Ecircumflex" unicode="&#xca;" horiz-adv-x="536" 
d="M463 115l-20 -115h-394l120 680h384l-20 -115h-264l-29 -163h234l-20 -115h-234l-31 -172h274zM434 752l-47 80l-75 -80h-94l124 161h112l68 -161h-88z" />
    <glyph glyph-name="Edieresis" unicode="&#xcb;" horiz-adv-x="536" 
d="M463 115l-20 -115h-394l120 680h384l-20 -115h-264l-29 -163h234l-20 -115h-234l-31 -172h274zM334 782h-109l19 107h109zM528 782h-109l19 107h109z" />
    <glyph glyph-name="Igrave" unicode="&#xcc;" horiz-adv-x="308" 
d="M169 0h-120l120 680h120zM190 752l-82 120l111 46l67 -166h-96z" />
    <glyph glyph-name="Iacute" unicode="&#xcd;" horiz-adv-x="308" 
d="M169 0h-120l120 680h120zM292 752h-106l125 166l105 -46z" />
    <glyph glyph-name="Icircumflex" unicode="&#xce;" horiz-adv-x="308" 
d="M169 0h-120l120 680h120zM302 752l-47 80l-75 -80h-94l124 161h112l68 -161h-88z" />
    <glyph glyph-name="Idieresis" unicode="&#xcf;" horiz-adv-x="308" 
d="M169 0h-120l120 680h120zM202 782h-109l19 107h109zM396 782h-109l19 107h109z" />
    <glyph glyph-name="Eth" unicode="&#xd0;" horiz-adv-x="648" 
d="M46 399h82l50 281h210q81 0 135.5 -36.5t77 -99t8.5 -142.5l-22 -123q-23 -132 -94 -205.5t-194 -73.5h-241l51 290h-82zM349 290h-120l-31 -175h107q68 0 106.5 42.5t52.5 121.5l22 123q14 74 -11.5 118.5t-94.5 44.5h-102l-30 -166h120z" />
    <glyph glyph-name="Ntilde" unicode="&#xd1;" horiz-adv-x="683" 
d="M49 0l120 680h110q43 -87 77 -162.5t63.5 -150t57.5 -158.5l26 211l46 260h115l-120 -680h-110q-43 140 -89.5 261.5t-100.5 239.5l-34 -241l-46 -260h-115zM498 761q-28 0 -45 10.5t-27.5 24.5t-18.5 24.5t-18 10.5q-8 0 -15 -12t-15 -50h-81q11 63 28 96.5t39 45.5
t45 12q27 0 44 -10.5t27 -24.5t18 -24.5t18 -10.5q8 0 15.5 12.5t14.5 49.5h81q-10 -63 -27.5 -96.5t-38.5 -45.5t-44 -12z" />
    <glyph glyph-name="Ograve" unicode="&#xd2;" horiz-adv-x="640" 
d="M601 402l-22 -123q-25 -136 -95 -212.5t-193 -76.5q-81 0 -136 37t-78 102.5t-8 149.5l22 123q24 134 94.5 211t194.5 77q81 0 135.5 -37.5t77.5 -102.5t8 -148zM478 402q14 79 -11.5 127t-94.5 48q-66 0 -105 -47t-53 -128l-22 -123q-14 -82 11.5 -129t93.5 -47t106 46
t53 130zM356 752l-82 120l111 46l67 -166h-96z" />
    <glyph glyph-name="Oacute" unicode="&#xd3;" horiz-adv-x="640" 
d="M601 402l-22 -123q-25 -136 -95 -212.5t-193 -76.5q-81 0 -136 37t-78 102.5t-8 149.5l22 123q24 134 94.5 211t194.5 77q81 0 135.5 -37.5t77.5 -102.5t8 -148zM478 402q14 79 -11.5 127t-94.5 48q-66 0 -105 -47t-53 -128l-22 -123q-14 -82 11.5 -129t93.5 -47t106 46
t53 130zM458 752h-106l125 166l105 -46z" />
    <glyph glyph-name="Ocircumflex" unicode="&#xd4;" horiz-adv-x="640" 
d="M601 402l-22 -123q-25 -136 -95 -212.5t-193 -76.5q-81 0 -136 37t-78 102.5t-8 149.5l22 123q24 134 94.5 211t194.5 77q81 0 135.5 -37.5t77.5 -102.5t8 -148zM478 402q14 79 -11.5 127t-94.5 48q-66 0 -105 -47t-53 -128l-22 -123q-14 -82 11.5 -129t93.5 -47t106 46
t53 130zM468 752l-47 80l-75 -80h-94l124 161h112l68 -161h-88z" />
    <glyph glyph-name="Otilde" unicode="&#xd5;" horiz-adv-x="640" 
d="M601 402l-22 -123q-25 -136 -95 -212.5t-193 -76.5q-81 0 -136 37t-78 102.5t-8 149.5l22 123q24 134 94.5 211t194.5 77q81 0 135.5 -37.5t77.5 -102.5t8 -148zM478 402q14 79 -11.5 127t-94.5 48q-66 0 -105 -47t-53 -128l-22 -123q-14 -82 11.5 -129t93.5 -47t106 46
t53 130zM476 761q-28 0 -45 10.5t-27.5 24.5t-18.5 24.5t-18 10.5q-8 0 -15 -12t-15 -50h-81q11 63 28 96.5t39 45.5t45 12q27 0 44 -10.5t27 -24.5t18 -24.5t18 -10.5q8 0 15.5 12.5t14.5 49.5h81q-10 -63 -27.5 -96.5t-38.5 -45.5t-44 -12z" />
    <glyph glyph-name="Odieresis" unicode="&#xd6;" horiz-adv-x="640" 
d="M601 402l-22 -123q-25 -136 -95 -212.5t-193 -76.5q-81 0 -136 37t-78 102.5t-8 149.5l22 123q24 134 94.5 211t194.5 77q81 0 135.5 -37.5t77.5 -102.5t8 -148zM478 402q14 79 -11.5 127t-94.5 48q-66 0 -105 -47t-53 -128l-22 -123q-14 -82 11.5 -129t93.5 -47t106 46
t53 130zM368 782h-109l19 107h109zM562 782h-109l19 107h109z" />
    <glyph glyph-name="multiply" unicode="&#xd7;" 
d="M412 110l-115 134l-165 -143l-62 75l164 143l-115 135l79 67l114 -135l165 144l62 -76l-164 -142l115 -136z" />
    <glyph glyph-name="Oslash" unicode="&#xd8;" horiz-adv-x="641" 
d="M291 -10q-76 0 -129 32l-37 -52h-109l82 115q-24 38 -31.5 87t2.5 107l22 123q24 134 94.5 211t194.5 77q38 0 70.5 -8.5t58.5 -24.5l38 53h109l-84 -117q24 -37 32 -86t-3 -105l-22 -123q-25 -136 -95 -212.5t-193 -76.5zM192 279q-4 -19 -5 -37t0 -33l252 350
q-25 18 -67 18q-66 0 -105 -47t-53 -128zM478 402q3 18 4.5 35t0.5 32l-251 -350q27 -16 65 -16q68 0 106 46t53 130z" />
    <glyph glyph-name="Ugrave" unicode="&#xd9;" horiz-adv-x="646" 
d="M153 680h123l-77 -436q-11 -65 11 -103t86 -38t100 37.5t47 103.5l77 436h123l-77 -436q-13 -75 -44.5 -132.5t-87 -89.5t-142.5 -32q-81 0 -133.5 32.5t-74 89.5t-8.5 132zM359 752l-82 120l111 46l67 -166h-96z" />
    <glyph glyph-name="Uacute" unicode="&#xda;" horiz-adv-x="646" 
d="M153 680h123l-77 -436q-11 -65 11 -103t86 -38t100 37.5t47 103.5l77 436h123l-77 -436q-13 -75 -44.5 -132.5t-87 -89.5t-142.5 -32q-81 0 -133.5 32.5t-74 89.5t-8.5 132zM461 752h-106l125 166l105 -46z" />
    <glyph glyph-name="Ucircumflex" unicode="&#xdb;" horiz-adv-x="646" 
d="M153 680h123l-77 -436q-11 -65 11 -103t86 -38t100 37.5t47 103.5l77 436h123l-77 -436q-13 -75 -44.5 -132.5t-87 -89.5t-142.5 -32q-81 0 -133.5 32.5t-74 89.5t-8.5 132zM471 752l-47 80l-75 -80h-94l124 161h112l68 -161h-88z" />
    <glyph glyph-name="Udieresis" unicode="&#xdc;" horiz-adv-x="646" 
d="M153 680h123l-77 -436q-11 -65 11 -103t86 -38t100 37.5t47 103.5l77 436h123l-77 -436q-13 -75 -44.5 -132.5t-87 -89.5t-142.5 -32q-81 0 -133.5 32.5t-74 89.5t-8.5 132zM371 782h-109l19 107h109zM565 782h-109l19 107h109z" />
    <glyph glyph-name="Yacute" unicode="&#xdd;" horiz-adv-x="544" 
d="M616 680l-279 -406l-49 -274h-120l48 271l-138 409h124l93 -289l190 289h131zM410 752h-106l125 166l105 -46z" />
    <glyph glyph-name="Thorn" unicode="&#xde;" horiz-adv-x="575" 
d="M307 118h-117l-21 -118h-120l120 680h120l-20 -112h91q107 0 156 -57.5t34 -152.5l-9 -56q-13 -84 -70.5 -134t-163.5 -50zM353 453h-104l-39 -220h104q44 0 71.5 19.5t33.5 54.5l9 53q8 44 -11.5 68.5t-63.5 24.5z" />
    <glyph glyph-name="germandbls" unicode="&#xdf;" horiz-adv-x="634" 
d="M588 161q0 -44 -19.5 -83.5t-61.5 -63.5t-110 -24q-28 0 -67 6.5t-79 25.5l30 98q37 -18 67.5 -24.5t49.5 -6.5q38 0 56.5 19.5t18.5 41.5q0 14 -7.5 31t-27.5 35l-34 32q-29 28 -45.5 56.5t-16.5 62.5q0 35 14 65.5t33 58t33 52.5t14 49q0 27 -20 38.5t-52 11.5
q-38 0 -63 -17.5t-33 -64.5l-99 -560h-115l72 407h-82l17 100h83l9 53q16 89 66 139.5t150 50.5q49 0 90.5 -14.5t67 -46.5t25.5 -83q0 -39 -14 -70.5t-33 -57.5t-33 -48t-14 -41q0 -16 9.5 -31t31.5 -37l34 -33q55 -54 55 -127z" />
    <glyph glyph-name="agrave" unicode="&#xe0;" horiz-adv-x="558" 
d="M465 -5q-55 0 -81.5 23.5t-34.5 57.5q-54 -52 -97 -69t-76 -17q-49 0 -81 31.5t-43.5 87t-0.5 127.5l7 44q19 116 76.5 176.5t160.5 60.5q58 0 113.5 -17t102.5 -48l-54 -309q-2 -15 4.5 -28.5t29.5 -13.5h12l-19 -106h-19zM169 236q-11 -72 2 -105.5t44 -33.5
q26 0 59.5 20.5t76.5 74.5l35 202q-41 20 -81 20q-56 0 -87.5 -36t-41.5 -98zM283 579l-82 120l111 46l67 -166h-96z" />
    <glyph glyph-name="aacute" unicode="&#xe1;" horiz-adv-x="558" 
d="M465 -5q-55 0 -81.5 23.5t-34.5 57.5q-54 -52 -97 -69t-76 -17q-49 0 -81 31.5t-43.5 87t-0.5 127.5l7 44q19 116 76.5 176.5t160.5 60.5q58 0 113.5 -17t102.5 -48l-54 -309q-2 -15 4.5 -28.5t29.5 -13.5h12l-19 -106h-19zM169 236q-11 -72 2 -105.5t44 -33.5
q26 0 59.5 20.5t76.5 74.5l35 202q-41 20 -81 20q-56 0 -87.5 -36t-41.5 -98zM385 579h-106l125 166l105 -46z" />
    <glyph glyph-name="acircumflex" unicode="&#xe2;" horiz-adv-x="558" 
d="M465 -5q-55 0 -81.5 23.5t-34.5 57.5q-54 -52 -97 -69t-76 -17q-49 0 -81 31.5t-43.5 87t-0.5 127.5l7 44q19 116 76.5 176.5t160.5 60.5q58 0 113.5 -17t102.5 -48l-54 -309q-2 -15 4.5 -28.5t29.5 -13.5h12l-19 -106h-19zM169 236q-11 -72 2 -105.5t44 -33.5
q26 0 59.5 20.5t76.5 74.5l35 202q-41 20 -81 20q-56 0 -87.5 -36t-41.5 -98zM395 579l-47 80l-75 -80h-94l124 161h112l68 -161h-88z" />
    <glyph glyph-name="atilde" unicode="&#xe3;" horiz-adv-x="558" 
d="M465 -5q-55 0 -81.5 23.5t-34.5 57.5q-54 -52 -97 -69t-76 -17q-49 0 -81 31.5t-43.5 87t-0.5 127.5l7 44q19 116 76.5 176.5t160.5 60.5q58 0 113.5 -17t102.5 -48l-54 -309q-2 -15 4.5 -28.5t29.5 -13.5h12l-19 -106h-19zM169 236q-11 -72 2 -105.5t44 -33.5
q26 0 59.5 20.5t76.5 74.5l35 202q-41 20 -81 20q-56 0 -87.5 -36t-41.5 -98zM403 588q-28 0 -45 10.5t-27.5 24.5t-18.5 24.5t-18 10.5q-8 0 -15 -12t-15 -50h-81q11 63 28 96.5t39 45.5t45 12q27 0 44 -10.5t27 -24.5t18 -24.5t18 -10.5q8 0 15.5 12.5t14.5 49.5h81
q-10 -63 -27.5 -96.5t-38.5 -45.5t-44 -12z" />
    <glyph glyph-name="adieresis" unicode="&#xe4;" horiz-adv-x="558" 
d="M465 -5q-55 0 -81.5 23.5t-34.5 57.5q-54 -52 -97 -69t-76 -17q-49 0 -81 31.5t-43.5 87t-0.5 127.5l7 44q19 116 76.5 176.5t160.5 60.5q58 0 113.5 -17t102.5 -48l-54 -309q-2 -15 4.5 -28.5t29.5 -13.5h12l-19 -106h-19zM169 236q-11 -72 2 -105.5t44 -33.5
q26 0 59.5 20.5t76.5 74.5l35 202q-41 20 -81 20q-56 0 -87.5 -36t-41.5 -98zM294 609h-109l19 107h109zM488 609h-109l19 107h109z" />
    <glyph glyph-name="aring" unicode="&#xe5;" horiz-adv-x="558" 
d="M465 -5q-55 0 -81.5 23.5t-34.5 57.5q-54 -52 -97 -69t-76 -17q-49 0 -81 31.5t-43.5 87t-0.5 127.5l7 44q19 116 76.5 176.5t160.5 60.5q58 0 113.5 -17t102.5 -48l-54 -309q-2 -15 4.5 -28.5t29.5 -13.5h12l-19 -106h-19zM169 236q-11 -72 2 -105.5t44 -33.5
q26 0 59.5 20.5t76.5 74.5l35 202q-41 20 -81 20q-56 0 -87.5 -36t-41.5 -98zM471 682l-3 -15q-9 -46 -43.5 -75t-87.5 -29q-55 0 -85 33.5t-20 86.5l3 15q10 47 44 76t86 29q56 0 86.5 -34.5t19.5 -86.5zM402 691q5 21 -7 33.5t-35 12.5q-22 0 -36.5 -12.5t-19.5 -33.5
l-3 -15q-4 -21 7 -33.5t33 -12.5q23 0 38.5 12.5t19.5 33.5z" />
    <glyph glyph-name="ae" unicode="&#xe6;" horiz-adv-x="798" 
d="M700 24q-55 -21 -96 -27.5t-74 -6.5q-72 0 -120 26t-71 72q-49 -52 -94.5 -75t-95.5 -23q-64 0 -97.5 35.5t-33.5 96.5q0 41 16 79.5t56.5 63.5t112.5 25q59 0 128 -11l8 43q9 49 -18.5 69t-71.5 20q-22 0 -55 -5t-72 -18l-27 98q51 17 91 24t72 7q65 0 101 -22.5
t52 -58.5q29 39 71 60t94 21q42 0 84 -17t70 -54.5t28 -99.5q0 -65 -39 -128h-289q-7 -61 19 -92.5t92 -31.5q22 0 59 6t84 22zM566 417q-94 0 -120 -111h192q7 21 7 40q0 35 -22 53t-57 18zM132 134q0 -48 43 -48q26 0 60.5 15t83.5 67v28q-31 5 -61 7.5t-52 2.5
q-43 0 -58.5 -23t-15.5 -49z" />
    <glyph glyph-name="ccedilla" unicode="&#xe7;" horiz-adv-x="450" 
d="M306 -117q0 -43 -35 -74.5t-100 -31.5q-23 0 -42.5 4t-42.5 11l17 69q41 -11 69 -11q26 0 35.5 9t9.5 18q0 8 -7.5 14.5t-27.5 6.5q-7 0 -13.5 -0.5t-14.5 -2.5l-19 32l25 74q-68 23 -97 86t-13 155l9 52q20 111 81.5 167t151.5 56q69 0 149 -34l-38 -99q-63 27 -110 27
q-46 0 -78 -29.5t-43 -87.5l-11 -60q-25 -138 90 -138q24 0 50.5 5.5t64.5 18.5l17 -99q-46 -17 -80.5 -24t-65.5 -7h-4l-10 -29q40 -3 61.5 -25.5t21.5 -52.5z" />
    <glyph glyph-name="egrave" unicode="&#xe8;" horiz-adv-x="522" 
d="M424 24q-55 -21 -96.5 -27.5t-77.5 -6.5q-116 0 -168.5 68.5t-33.5 183.5l9 52q18 102 81 162.5t156 60.5q49 0 91.5 -17t69.5 -54.5t27 -99.5q0 -65 -39 -128h-289q-7 -61 19 -92.5t92 -31.5q22 0 59 6t84 22zM290 417q-94 0 -120 -111h195q7 21 7 40q0 35 -22.5 53
t-59.5 18zM272 579l-82 120l111 46l67 -166h-96z" />
    <glyph glyph-name="eacute" unicode="&#xe9;" horiz-adv-x="522" 
d="M424 24q-55 -21 -96.5 -27.5t-77.5 -6.5q-116 0 -168.5 68.5t-33.5 183.5l9 52q18 102 81 162.5t156 60.5q49 0 91.5 -17t69.5 -54.5t27 -99.5q0 -65 -39 -128h-289q-7 -61 19 -92.5t92 -31.5q22 0 59 6t84 22zM290 417q-94 0 -120 -111h195q7 21 7 40q0 35 -22.5 53
t-59.5 18zM374 579h-106l125 166l105 -46z" />
    <glyph glyph-name="ecircumflex" unicode="&#xea;" horiz-adv-x="522" 
d="M424 24q-55 -21 -96.5 -27.5t-77.5 -6.5q-116 0 -168.5 68.5t-33.5 183.5l9 52q18 102 81 162.5t156 60.5q49 0 91.5 -17t69.5 -54.5t27 -99.5q0 -65 -39 -128h-289q-7 -61 19 -92.5t92 -31.5q22 0 59 6t84 22zM290 417q-94 0 -120 -111h195q7 21 7 40q0 35 -22.5 53
t-59.5 18zM384 579l-47 80l-75 -80h-94l124 161h112l68 -161h-88z" />
    <glyph glyph-name="edieresis" unicode="&#xeb;" horiz-adv-x="522" 
d="M424 24q-55 -21 -96.5 -27.5t-77.5 -6.5q-116 0 -168.5 68.5t-33.5 183.5l9 52q18 102 81 162.5t156 60.5q49 0 91.5 -17t69.5 -54.5t27 -99.5q0 -65 -39 -128h-289q-7 -61 19 -92.5t92 -31.5q22 0 59 6t84 22zM290 417q-94 0 -120 -111h195q7 21 7 40q0 35 -22.5 53
t-59.5 18zM283 609h-109l19 107h109zM477 609h-109l19 107h109z" />
    <glyph glyph-name="igrave" unicode="&#xec;" horiz-adv-x="273" 
d="M149 0h-115l89 507h115zM145 579l-82 120l111 46l67 -166h-96z" />
    <glyph glyph-name="iacute" unicode="&#xed;" horiz-adv-x="273" 
d="M149 0h-115l89 507h115zM247 579h-106l125 166l105 -46z" />
    <glyph glyph-name="icircumflex" unicode="&#xee;" horiz-adv-x="273" 
d="M149 0h-115l89 507h115zM257 579l-47 80l-75 -80h-94l124 161h112l68 -161h-88z" />
    <glyph glyph-name="idieresis" unicode="&#xef;" horiz-adv-x="273" 
d="M149 0h-115l89 507h115zM156 609h-109l19 107h109zM350 609h-109l19 107h109z" />
    <glyph glyph-name="eth" unicode="&#xf0;" horiz-adv-x="536" 
d="M486 244q-22 -126 -91 -190t-173 -64q-61 0 -107 28t-67 81t-9 127l5 30q10 61 39 100.5t70.5 59.5t86.5 20q40 0 79 -19.5t64 -65.5q2 52 -10.5 100.5t-41.5 91.5l-154 -85l17 101l84 46q-16 16 -35 31t-41 29l59 85q33 -22 61.5 -45t50.5 -48l169 93l-17 -101l-101 -55
q53 -78 67 -159t2 -151zM153 209q-8 -50 13 -83t67 -33q45 0 79.5 34t52.5 107q-19 49 -50.5 72t-64.5 23q-32 0 -58 -23.5t-34 -66.5z" />
    <glyph glyph-name="ntilde" unicode="&#xf1;" horiz-adv-x="584" 
d="M361 410q-24 0 -61 -18.5t-96 -77.5l-55 -314h-115l89 507h109l-15 -86q57 58 101.5 77t81.5 19q51 0 81.5 -24.5t41.5 -67.5t1 -97l-58 -328h-115l57 326q16 84 -47 84zM428 588q-28 0 -45 10.5t-27.5 24.5t-18.5 24.5t-18 10.5q-8 0 -15 -12t-15 -50h-81q11 63 28 96.5
t39 45.5t45 12q27 0 44 -10.5t27 -24.5t18 -24.5t18 -10.5q8 0 15.5 12.5t14.5 49.5h81q-10 -63 -27.5 -96.5t-38.5 -45.5t-44 -12z" />
    <glyph glyph-name="ograve" unicode="&#xf2;" horiz-adv-x="545" 
d="M496 266l-8 -52q-16 -108 -79.5 -166t-161.5 -58q-71 0 -119.5 32.5t-69 89.5t-9.5 130l8 52q17 107 79 165t161 58q72 0 120 -32.5t69 -89t10 -129.5zM379 271q11 65 -11.5 104t-74.5 39q-43 0 -75.5 -29.5t-42.5 -90.5l-9 -57q-10 -65 13 -104.5t73 -39.5q44 0 76 30.5
t42 90.5zM272 579l-82 120l111 46l67 -166h-96z" />
    <glyph glyph-name="oacute" unicode="&#xf3;" horiz-adv-x="545" 
d="M496 266l-8 -52q-16 -108 -79.5 -166t-161.5 -58q-71 0 -119.5 32.5t-69 89.5t-9.5 130l8 52q17 107 79 165t161 58q72 0 120 -32.5t69 -89t10 -129.5zM379 271q11 65 -11.5 104t-74.5 39q-43 0 -75.5 -29.5t-42.5 -90.5l-9 -57q-10 -65 13 -104.5t73 -39.5q44 0 76 30.5
t42 90.5zM374 579h-106l125 166l105 -46z" />
    <glyph glyph-name="ocircumflex" unicode="&#xf4;" horiz-adv-x="545" 
d="M496 266l-8 -52q-16 -108 -79.5 -166t-161.5 -58q-71 0 -119.5 32.5t-69 89.5t-9.5 130l8 52q17 107 79 165t161 58q72 0 120 -32.5t69 -89t10 -129.5zM379 271q11 65 -11.5 104t-74.5 39q-43 0 -75.5 -29.5t-42.5 -90.5l-9 -57q-10 -65 13 -104.5t73 -39.5q44 0 76 30.5
t42 90.5zM384 579l-47 80l-75 -80h-94l124 161h112l68 -161h-88z" />
    <glyph glyph-name="otilde" unicode="&#xf5;" horiz-adv-x="545" 
d="M496 266l-8 -52q-16 -108 -79.5 -166t-161.5 -58q-71 0 -119.5 32.5t-69 89.5t-9.5 130l8 52q17 107 79 165t161 58q72 0 120 -32.5t69 -89t10 -129.5zM379 271q11 65 -11.5 104t-74.5 39q-43 0 -75.5 -29.5t-42.5 -90.5l-9 -57q-10 -65 13 -104.5t73 -39.5q44 0 76 30.5
t42 90.5zM392 588q-28 0 -45 10.5t-27.5 24.5t-18.5 24.5t-18 10.5q-8 0 -15 -12t-15 -50h-81q11 63 28 96.5t39 45.5t45 12q27 0 44 -10.5t27 -24.5t18 -24.5t18 -10.5q8 0 15.5 12.5t14.5 49.5h81q-10 -63 -27.5 -96.5t-38.5 -45.5t-44 -12z" />
    <glyph glyph-name="odieresis" unicode="&#xf6;" horiz-adv-x="545" 
d="M496 266l-8 -52q-16 -108 -79.5 -166t-161.5 -58q-71 0 -119.5 32.5t-69 89.5t-9.5 130l8 52q17 107 79 165t161 58q72 0 120 -32.5t69 -89t10 -129.5zM379 271q11 65 -11.5 104t-74.5 39q-43 0 -75.5 -29.5t-42.5 -90.5l-9 -57q-10 -65 13 -104.5t73 -39.5q44 0 76 30.5
t42 90.5zM284 609h-109l19 107h109zM478 609h-109l19 107h109z" />
    <glyph glyph-name="divide" unicode="&#xf7;" 
d="M389 447h-121l21 119h121zM89 265l17 100h414l-17 -100h-414zM320 59h-121l21 119h121z" />
    <glyph glyph-name="oslash" unicode="&#xf8;" horiz-adv-x="545" 
d="M247 -10q-62 0 -108 26l-35 -46h-103l78 101q-45 68 -30 171l8 52q17 107 79 165t161 58q63 0 109 -26l36 46h103l-79 -101q45 -69 30 -170l-8 -52q-16 -108 -79.5 -166t-161.5 -58zM166 237q-2 -16 -2.5 -30t0.5 -28l174 225q-9 5 -20 7.5t-25 2.5q-43 0 -75.5 -29.5
t-42.5 -90.5zM379 271q5 30 3 56l-174 -223q19 -11 44 -11q44 0 76 30.5t42 90.5z" />
    <glyph glyph-name="ugrave" unicode="&#xf9;" horiz-adv-x="570" 
d="M337 0l15 86q-55 -57 -98 -76.5t-78 -19.5q-48 0 -77.5 25t-39.5 67.5t0 96.5l58 328h115l-57 -326q-7 -43 4 -63.5t36 -20.5q23 0 57.5 19t92.5 77l55 314h115l-89 -507h-109zM289 579l-82 120l111 46l67 -166h-96z" />
    <glyph glyph-name="uacute" unicode="&#xfa;" horiz-adv-x="570" 
d="M337 0l15 86q-55 -57 -98 -76.5t-78 -19.5q-48 0 -77.5 25t-39.5 67.5t0 96.5l58 328h115l-57 -326q-7 -43 4 -63.5t36 -20.5q23 0 57.5 19t92.5 77l55 314h115l-89 -507h-109zM391 579h-106l125 166l105 -46z" />
    <glyph glyph-name="ucircumflex" unicode="&#xfb;" horiz-adv-x="570" 
d="M337 0l15 86q-55 -57 -98 -76.5t-78 -19.5q-48 0 -77.5 25t-39.5 67.5t0 96.5l58 328h115l-57 -326q-7 -43 4 -63.5t36 -20.5q23 0 57.5 19t92.5 77l55 314h115l-89 -507h-109zM401 579l-47 80l-75 -80h-94l124 161h112l68 -161h-88z" />
    <glyph glyph-name="udieresis" unicode="&#xfc;" horiz-adv-x="570" 
d="M337 0l15 86q-55 -57 -98 -76.5t-78 -19.5q-48 0 -77.5 25t-39.5 67.5t0 96.5l58 328h115l-57 -326q-7 -43 4 -63.5t36 -20.5q23 0 57.5 19t92.5 77l55 314h115l-89 -507h-109zM300 609h-109l19 107h109zM494 609h-109l19 107h109z" />
    <glyph glyph-name="yacute" unicode="&#xfd;" horiz-adv-x="499" 
d="M230 -50q-49 -92 -107.5 -132.5t-146.5 -40.5l20 115q39 3 63 10.5t41.5 24.5t34.5 48l16 30l-90 502h114l43 -253l15 -105l51 105l127 253h115l-269 -507zM360 579h-106l125 166l105 -46z" />
    <glyph glyph-name="thorn" unicode="&#xfe;" horiz-adv-x="564" 
d="M264 -10q-31 0 -59 6.5t-54 17.5l-40 -227h-115l168 953h115l-55 -310q53 53 92 70t70 17q50 0 82 -31.5t44 -86.5t0 -128l-7 -44q-18 -115 -77 -176t-164 -61zM344 410q-26 0 -60.5 -25t-82.5 -85l-32 -185q23 -12 44 -17t41 -5q59 0 91 36.5t42 97.5l7 44
q12 72 -1.5 105.5t-48.5 33.5z" />
    <glyph glyph-name="ydieresis" unicode="&#xff;" horiz-adv-x="499" 
d="M230 -50q-49 -92 -107.5 -132.5t-146.5 -40.5l20 115q39 3 63 10.5t41.5 24.5t34.5 48l16 30l-90 502h114l43 -253l15 -105l51 105l127 253h115l-269 -507zM269 609h-109l19 107h109zM463 609h-109l19 107h109z" />
    <glyph glyph-name="Amacron" unicode="&#x100;" horiz-adv-x="601" 
d="M416 0l-19 133h-233l-65 -133h-124l347 680h106l108 -680h-120zM266 341l-48 -98h164l-14 98l-20 172zM557 865l-15 -83h-303l15 83h303z" />
    <glyph glyph-name="amacron" unicode="&#x101;" horiz-adv-x="558" 
d="M465 -5q-55 0 -81.5 23.5t-34.5 57.5q-54 -52 -97 -69t-76 -17q-49 0 -81 31.5t-43.5 87t-0.5 127.5l7 44q19 116 76.5 176.5t160.5 60.5q58 0 113.5 -17t102.5 -48l-54 -309q-2 -15 4.5 -28.5t29.5 -13.5h12l-19 -106h-19zM169 236q-11 -72 2 -105.5t44 -33.5
q26 0 59.5 20.5t76.5 74.5l35 202q-41 20 -81 20q-56 0 -87.5 -36t-41.5 -98zM503 692l-15 -83h-303l15 83h303z" />
    <glyph glyph-name="Abreve" unicode="&#x102;" horiz-adv-x="601" 
d="M416 0l-19 133h-233l-65 -133h-124l347 680h106l108 -680h-120zM266 341l-48 -98h164l-14 98l-20 172zM400 839q21 0 35 14.5t22 50.5h90q-19 -78 -56 -112t-96 -34t-91.5 34t-24.5 112h84q-5 -36 5 -50.5t32 -14.5z" />
    <glyph glyph-name="abreve" unicode="&#x103;" horiz-adv-x="558" 
d="M465 -5q-55 0 -81.5 23.5t-34.5 57.5q-54 -52 -97 -69t-76 -17q-49 0 -81 31.5t-43.5 87t-0.5 127.5l7 44q19 116 76.5 176.5t160.5 60.5q58 0 113.5 -17t102.5 -48l-54 -309q-2 -15 4.5 -28.5t29.5 -13.5h12l-19 -106h-19zM169 236q-11 -72 2 -105.5t44 -33.5
q26 0 59.5 20.5t76.5 74.5l35 202q-41 20 -81 20q-56 0 -87.5 -36t-41.5 -98zM346 666q21 0 35 14.5t22 50.5h90q-19 -78 -56 -112t-96 -34t-91.5 34t-24.5 112h84q-5 -36 5 -50.5t32 -14.5z" />
    <glyph glyph-name="Aogonek" unicode="&#x104;" horiz-adv-x="601" 
d="M509 -207q-44 -16 -87 -16q-48 0 -76 21t-28 61q0 27 18.5 60.5t79.5 79.5l-18 134h-234l-65 -133h-124l347 680h106l108 -680q-47 -34 -71 -55t-32.5 -34t-8.5 -25q0 -19 26 -19q20 0 48 9zM266 341l-48 -98h164l-14 98l-20 172z" />
    <glyph glyph-name="aogonek" unicode="&#x105;" horiz-adv-x="558" 
d="M458 -207q-44 -16 -87 -16q-48 0 -76 21t-28 61q0 19 9.5 41t36.5 50t78 63q-18 11 -27.5 27.5t-14.5 35.5q-54 -52 -97 -69t-76 -17q-49 0 -81 31.5t-43.5 87t-0.5 127.5l7 44q19 116 76.5 176.5t160.5 60.5q58 0 113.5 -17t102.5 -48l-54 -309q-2 -15 4.5 -28.5
t29.5 -13.5h12l-19 -106q-46 -33 -70 -53t-32.5 -32.5t-8.5 -23.5q0 -19 26 -19q20 0 48 9zM169 236q-11 -72 2 -105.5t44 -33.5q26 0 59.5 20.5t76.5 74.5l35 202q-41 20 -81 20q-56 0 -87.5 -36t-41.5 -98z" />
    <glyph glyph-name="Cacute" unicode="&#x106;" horiz-adv-x="538" 
d="M192 280q-13 -76 11.5 -126.5t94.5 -50.5q25 0 59.5 5t84.5 20l25 -105q-55 -19 -101 -26t-80 -7q-82 0 -135.5 38.5t-74 104t-7.5 147.5l20 122q23 143 94 215.5t197 72.5q41 0 82.5 -9.5t89.5 -32.5l-45 -106q-43 19 -73 27t-62 8q-70 0 -108.5 -49t-51.5 -126z
M448 752h-106l125 166l105 -46z" />
    <glyph glyph-name="cacute" unicode="&#x107;" horiz-adv-x="450" 
d="M293 411q-46 0 -78 -29.5t-43 -87.5l-11 -60q-25 -138 90 -138q24 0 50.5 5.5t64.5 18.5l17 -99q-46 -17 -80.5 -24t-65.5 -7q-108 0 -157.5 68.5t-29.5 183.5l9 52q20 111 81.5 167t151.5 56q69 0 149 -34l-38 -99q-63 27 -110 27zM368 579h-106l125 166l105 -46z" />
    <glyph glyph-name="Ccircumflex" unicode="&#x108;" horiz-adv-x="538" 
d="M192 280q-13 -76 11.5 -126.5t94.5 -50.5q25 0 59.5 5t84.5 20l25 -105q-55 -19 -101 -26t-80 -7q-82 0 -135.5 38.5t-74 104t-7.5 147.5l20 122q23 143 94 215.5t197 72.5q41 0 82.5 -9.5t89.5 -32.5l-45 -106q-43 19 -73 27t-62 8q-70 0 -108.5 -49t-51.5 -126z
M458 752l-47 80l-75 -80h-94l124 161h112l68 -161h-88z" />
    <glyph glyph-name="ccircumflex" unicode="&#x109;" horiz-adv-x="450" 
d="M293 411q-46 0 -78 -29.5t-43 -87.5l-11 -60q-25 -138 90 -138q24 0 50.5 5.5t64.5 18.5l17 -99q-46 -17 -80.5 -24t-65.5 -7q-108 0 -157.5 68.5t-29.5 183.5l9 52q20 111 81.5 167t151.5 56q69 0 149 -34l-38 -99q-63 27 -110 27zM378 579l-47 80l-75 -80h-94l124 161
h112l68 -161h-88z" />
    <glyph glyph-name="Cdotaccent" unicode="&#x10a;" horiz-adv-x="538" 
d="M192 280q-13 -76 11.5 -126.5t94.5 -50.5q25 0 59.5 5t84.5 20l25 -105q-55 -19 -101 -26t-80 -7q-82 0 -135.5 38.5t-74 104t-7.5 147.5l20 122q23 143 94 215.5t197 72.5q41 0 82.5 -9.5t89.5 -32.5l-45 -106q-43 19 -73 27t-62 8q-70 0 -108.5 -49t-51.5 -126z
M460 776h-121l21 119h121z" />
    <glyph glyph-name="cdotaccent" unicode="&#x10b;" horiz-adv-x="450" 
d="M293 411q-46 0 -78 -29.5t-43 -87.5l-11 -60q-25 -138 90 -138q24 0 50.5 5.5t64.5 18.5l17 -99q-46 -17 -80.5 -24t-65.5 -7q-108 0 -157.5 68.5t-29.5 183.5l9 52q20 111 81.5 167t151.5 56q69 0 149 -34l-38 -99q-63 27 -110 27zM380 603h-121l21 119h121z" />
    <glyph glyph-name="Ccaron" unicode="&#x10c;" horiz-adv-x="538" 
d="M192 280q-13 -76 11.5 -126.5t94.5 -50.5q25 0 59.5 5t84.5 20l25 -105q-55 -19 -101 -26t-80 -7q-82 0 -135.5 38.5t-74 104t-7.5 147.5l20 122q23 143 94 215.5t197 72.5q41 0 82.5 -9.5t89.5 -32.5l-45 -106q-43 19 -73 27t-62 8q-70 0 -108.5 -49t-51.5 -126z
M574 913l-124 -161h-112l-68 161h88l47 -80l75 80h94z" />
    <glyph glyph-name="ccaron" unicode="&#x10d;" horiz-adv-x="450" 
d="M293 411q-46 0 -78 -29.5t-43 -87.5l-11 -60q-25 -138 90 -138q24 0 50.5 5.5t64.5 18.5l17 -99q-46 -17 -80.5 -24t-65.5 -7q-108 0 -157.5 68.5t-29.5 183.5l9 52q20 111 81.5 167t151.5 56q69 0 149 -34l-38 -99q-63 27 -110 27zM494 740l-124 -161h-112l-68 161h88
l47 -80l75 80h94z" />
    <glyph glyph-name="Dcaron" unicode="&#x10e;" horiz-adv-x="639" 
d="M49 0l120 680h210q81 0 135.5 -36.5t77 -99t8.5 -142.5l-22 -123q-23 -132 -94 -205.5t-194 -73.5h-241zM371 565h-102l-80 -450h107q68 0 106.5 42.5t52.5 121.5l22 123q14 74 -11.5 118.5t-94.5 44.5zM584 913l-124 -161h-112l-68 161h88l47 -80l75 80h94z" />
    <glyph glyph-name="dcaron" unicode="&#x10f;" horiz-adv-x="651" 
d="M331 0l15 85q-55 -58 -96 -76.5t-73 -18.5q-49 0 -81.5 31.5t-44.5 87t0 127.5l7 44q18 116 77 176.5t164 60.5q31 0 58.5 -6.5t54.5 -17.5l43 247h115l-130 -740h-109zM169 236q-12 -72 2 -105.5t48 -33.5q26 0 60.5 25t82.5 85l32 185q-23 12 -44 17t-41 5
q-58 0 -90 -36t-43 -98zM684 546h-77l34 194h113z" />
    <glyph glyph-name="Dcroat" unicode="&#x110;" horiz-adv-x="648" 
d="M46 399h82l50 281h210q81 0 135.5 -36.5t77 -99t8.5 -142.5l-22 -123q-23 -132 -94 -205.5t-194 -73.5h-241l51 290h-82zM349 290h-120l-31 -175h107q68 0 106.5 42.5t52.5 121.5l22 123q14 74 -11.5 118.5t-94.5 44.5h-102l-30 -166h120z" />
    <glyph glyph-name="dcroat" unicode="&#x111;" horiz-adv-x="560" 
d="M331 0l15 85q-55 -58 -96 -76.5t-73 -18.5q-49 0 -81.5 31.5t-44.5 87t0 127.5l7 44q18 116 77 176.5t164 60.5q31 0 58.5 -6.5t54.5 -17.5l17 97h-153l13 75h153l13 75h115l-13 -75h78l-13 -75h-78l-104 -590h-109zM169 236q-12 -72 2 -105.5t48 -33.5q26 0 60.5 25
t82.5 85l32 185q-23 12 -44 17t-41 5q-58 0 -90 -36t-43 -98z" />
    <glyph glyph-name="Emacron" unicode="&#x112;" horiz-adv-x="536" 
d="M463 115l-20 -115h-394l120 680h384l-20 -115h-264l-29 -163h234l-20 -115h-234l-31 -172h274zM543 865l-15 -83h-303l15 83h303z" />
    <glyph glyph-name="emacron" unicode="&#x113;" horiz-adv-x="522" 
d="M424 24q-55 -21 -96.5 -27.5t-77.5 -6.5q-116 0 -168.5 68.5t-33.5 183.5l9 52q18 102 81 162.5t156 60.5q49 0 91.5 -17t69.5 -54.5t27 -99.5q0 -65 -39 -128h-289q-7 -61 19 -92.5t92 -31.5q22 0 59 6t84 22zM290 417q-94 0 -120 -111h195q7 21 7 40q0 35 -22.5 53
t-59.5 18zM492 692l-15 -83h-303l15 83h303z" />
    <glyph glyph-name="Ebreve" unicode="&#x114;" horiz-adv-x="536" 
d="M463 115l-20 -115h-394l120 680h384l-20 -115h-264l-29 -163h234l-20 -115h-234l-31 -172h274zM385 839q21 0 35 14.5t22 50.5h90q-19 -78 -56 -112t-96 -34t-91.5 34t-24.5 112h84q-5 -36 5 -50.5t32 -14.5z" />
    <glyph glyph-name="ebreve" unicode="&#x115;" horiz-adv-x="522" 
d="M424 24q-55 -21 -96.5 -27.5t-77.5 -6.5q-116 0 -168.5 68.5t-33.5 183.5l9 52q18 102 81 162.5t156 60.5q49 0 91.5 -17t69.5 -54.5t27 -99.5q0 -65 -39 -128h-289q-7 -61 19 -92.5t92 -31.5q22 0 59 6t84 22zM290 417q-94 0 -120 -111h195q7 21 7 40q0 35 -22.5 53
t-59.5 18zM335 666q21 0 35 14.5t22 50.5h90q-19 -78 -56 -112t-96 -34t-91.5 34t-24.5 112h84q-5 -36 5 -50.5t32 -14.5z" />
    <glyph glyph-name="Edotaccent" unicode="&#x116;" horiz-adv-x="536" 
d="M463 115l-20 -115h-394l120 680h384l-20 -115h-264l-29 -163h234l-20 -115h-234l-31 -172h274zM436 776h-121l21 119h121z" />
    <glyph glyph-name="edotaccent" unicode="&#x117;" horiz-adv-x="522" 
d="M424 24q-55 -21 -96.5 -27.5t-77.5 -6.5q-116 0 -168.5 68.5t-33.5 183.5l9 52q18 102 81 162.5t156 60.5q49 0 91.5 -17t69.5 -54.5t27 -99.5q0 -65 -39 -128h-289q-7 -61 19 -92.5t92 -31.5q22 0 59 6t84 22zM290 417q-94 0 -120 -111h195q7 21 7 40q0 35 -22.5 53
t-59.5 18zM385 603h-121l21 119h121z" />
    <glyph glyph-name="Eogonek" unicode="&#x118;" horiz-adv-x="536" 
d="M416 -207q-44 -16 -87 -16q-48 0 -76 21t-28 61q0 27 21 60t86 81h-283l120 680h384l-20 -115h-264l-29 -163h234l-20 -115h-234l-31 -172h274l-20 -115q-47 -34 -71 -55t-32.5 -34t-8.5 -25q0 -19 26 -19q20 0 48 9z" />
    <glyph glyph-name="eogonek" unicode="&#x119;" horiz-adv-x="522" 
d="M382 -207q-44 -16 -87 -16q-48 0 -76 21t-28 61q0 24 15 56t63 75h-19q-116 0 -168.5 68.5t-33.5 183.5l9 52q18 102 81 162.5t156 60.5q49 0 91.5 -17t69.5 -54.5t27 -99.5q0 -65 -39 -128h-289q-7 -61 19 -92.5t92 -31.5q22 0 59 6t84 22l16 -98q-54 -42 -81.5 -68
t-36.5 -42t-9 -28q0 -19 26 -19q20 0 48 9zM290 417q-94 0 -120 -111h195q7 21 7 40q0 35 -22.5 53t-59.5 18z" />
    <glyph glyph-name="Ecaron" unicode="&#x11a;" horiz-adv-x="536" 
d="M463 115l-20 -115h-394l120 680h384l-20 -115h-264l-29 -163h234l-20 -115h-234l-31 -172h274zM550 913l-124 -161h-112l-68 161h88l47 -80l75 80h94z" />
    <glyph glyph-name="ecaron" unicode="&#x11b;" horiz-adv-x="522" 
d="M424 24q-55 -21 -96.5 -27.5t-77.5 -6.5q-116 0 -168.5 68.5t-33.5 183.5l9 52q18 102 81 162.5t156 60.5q49 0 91.5 -17t69.5 -54.5t27 -99.5q0 -65 -39 -128h-289q-7 -61 19 -92.5t92 -31.5q22 0 59 6t84 22zM290 417q-94 0 -120 -111h195q7 21 7 40q0 35 -22.5 53
t-59.5 18zM500 740l-124 -161h-112l-68 161h88l47 -80l75 80h94z" />
    <glyph glyph-name="Gcircumflex" unicode="&#x11c;" horiz-adv-x="603" 
d="M507 43q-57 -28 -111 -40.5t-98 -12.5q-86 0 -141.5 38.5t-77.5 104t-9 147.5l20 122q23 143 98 215.5t208 72.5q44 0 90.5 -9.5t98.5 -32.5l-45 -105q-47 19 -82 26.5t-67 7.5q-79 0 -122 -49t-56 -126l-20 -122q-8 -51 0.5 -91t37.5 -63t81 -23q20 0 44.5 4t55.5 14
l26 148h-111l19 105h219zM475 752l-47 80l-75 -80h-94l124 161h112l68 -161h-88z" />
    <glyph glyph-name="gcircumflex" unicode="&#x11d;" horiz-adv-x="560" 
d="M441 0q-11 -64 -34 -114.5t-70 -79.5t-130 -29q-79 0 -171 30l25 98q43 -15 80 -20.5t60 -5.5q46 0 71 15.5t36.5 43t17.5 62.5l12 69q-50 -46 -90 -62.5t-71 -16.5q-49 0 -81.5 31.5t-44 87t-0.5 127.5l7 44q18 116 77 176.5t164 60.5q59 0 115.5 -17t104.5 -48z
M169 236q-11 -72 2.5 -105.5t47.5 -33.5q26 0 61.5 21t78.5 75l35 200q-43 21 -85 21q-58 0 -90.5 -36t-42.5 -98zM398 579l-47 80l-75 -80h-94l124 161h112l68 -161h-88z" />
    <glyph glyph-name="Gbreve" unicode="&#x11e;" horiz-adv-x="603" 
d="M507 43q-57 -28 -111 -40.5t-98 -12.5q-86 0 -141.5 38.5t-77.5 104t-9 147.5l20 122q23 143 98 215.5t208 72.5q44 0 90.5 -9.5t98.5 -32.5l-45 -105q-47 19 -82 26.5t-67 7.5q-79 0 -122 -49t-56 -126l-20 -122q-8 -51 0.5 -91t37.5 -63t81 -23q20 0 44.5 4t55.5 14
l26 148h-111l19 105h219zM426 839q21 0 35 14.5t22 50.5h90q-19 -78 -56 -112t-96 -34t-91.5 34t-24.5 112h84q-5 -36 5 -50.5t32 -14.5z" />
    <glyph glyph-name="gbreve" unicode="&#x11f;" horiz-adv-x="560" 
d="M441 0q-11 -64 -34 -114.5t-70 -79.5t-130 -29q-79 0 -171 30l25 98q43 -15 80 -20.5t60 -5.5q46 0 71 15.5t36.5 43t17.5 62.5l12 69q-50 -46 -90 -62.5t-71 -16.5q-49 0 -81.5 31.5t-44 87t-0.5 127.5l7 44q18 116 77 176.5t164 60.5q59 0 115.5 -17t104.5 -48z
M169 236q-11 -72 2.5 -105.5t47.5 -33.5q26 0 61.5 21t78.5 75l35 200q-43 21 -85 21q-58 0 -90.5 -36t-42.5 -98zM349 666q21 0 35 14.5t22 50.5h90q-19 -78 -56 -112t-96 -34t-91.5 34t-24.5 112h84q-5 -36 5 -50.5t32 -14.5z" />
    <glyph glyph-name="Gdotaccent" unicode="&#x120;" horiz-adv-x="603" 
d="M507 43q-57 -28 -111 -40.5t-98 -12.5q-86 0 -141.5 38.5t-77.5 104t-9 147.5l20 122q23 143 98 215.5t208 72.5q44 0 90.5 -9.5t98.5 -32.5l-45 -105q-47 19 -82 26.5t-67 7.5q-79 0 -122 -49t-56 -126l-20 -122q-8 -51 0.5 -91t37.5 -63t81 -23q20 0 44.5 4t55.5 14
l26 148h-111l19 105h219zM476 776h-121l21 119h121z" />
    <glyph glyph-name="gdotaccent" unicode="&#x121;" horiz-adv-x="560" 
d="M441 0q-11 -64 -34 -114.5t-70 -79.5t-130 -29q-79 0 -171 30l25 98q43 -15 80 -20.5t60 -5.5q46 0 71 15.5t36.5 43t17.5 62.5l12 69q-50 -46 -90 -62.5t-71 -16.5q-49 0 -81.5 31.5t-44 87t-0.5 127.5l7 44q18 116 77 176.5t164 60.5q59 0 115.5 -17t104.5 -48z
M169 236q-11 -72 2.5 -105.5t47.5 -33.5q26 0 61.5 21t78.5 75l35 200q-43 21 -85 21q-58 0 -90.5 -36t-42.5 -98zM399 603h-121l21 119h121z" />
    <glyph glyph-name="uni0122" unicode="&#x122;" horiz-adv-x="603" 
d="M507 43q-57 -28 -111 -40.5t-98 -12.5q-86 0 -141.5 38.5t-77.5 104t-9 147.5l20 122q23 143 98 215.5t208 72.5q44 0 90.5 -9.5t98.5 -32.5l-45 -105q-47 19 -82 26.5t-67 7.5q-79 0 -122 -49t-56 -126l-20 -122q-8 -51 0.5 -91t37.5 -63t81 -23q20 0 44.5 4t55.5 14
l26 148h-111l19 105h219zM223 -256l-74 17l58 162h124z" />
    <glyph glyph-name="uni0123" unicode="&#x123;" horiz-adv-x="560" 
d="M441 0q-11 -64 -34 -114.5t-70 -79.5t-130 -29q-79 0 -171 30l25 98q43 -15 80 -20.5t60 -5.5q46 0 71 15.5t36.5 43t17.5 62.5l12 69q-50 -46 -90 -62.5t-71 -16.5q-49 0 -81.5 31.5t-44 87t-0.5 127.5l7 44q18 116 77 176.5t164 60.5q59 0 115.5 -17t104.5 -48z
M169 236q-11 -72 2.5 -105.5t47.5 -33.5q26 0 61.5 21t78.5 75l35 200q-43 21 -85 21q-58 0 -90.5 -36t-42.5 -98zM380 758l74 -17l-58 -162h-124z" />
    <glyph glyph-name="Hcircumflex" unicode="&#x124;" horiz-adv-x="682" 
d="M423 0l51 287h-254l-51 -287h-120l120 680h120l-49 -278h254l49 278h120l-120 -680h-120zM489 752l-47 80l-75 -80h-94l124 161h112l68 -161h-88z" />
    <glyph glyph-name="hcircumflex" unicode="&#x125;" horiz-adv-x="584" 
d="M361 410q-24 0 -61 -18.5t-96 -77.5l-55 -314h-115l130 740h115l-55 -312q55 53 98 71t78 18q51 0 81.5 -24.5t41.5 -67.5t1 -97l-58 -328h-115l57 326q16 84 -47 84zM401 812l-47 80l-75 -80h-94l124 161h112l68 -161h-88z" />
    <glyph glyph-name="Hbar" unicode="&#x126;" horiz-adv-x="700" 
d="M229 287l-51 -287h-120l88 501h-82l16 87h82l16 92h120l-16 -92h254l16 92h120l-16 -92h82l-16 -87h-82l-88 -501h-120l51 287h-254zM249 402h254l17 99h-254z" />
    <glyph glyph-name="hbar" unicode="&#x127;" horiz-adv-x="584" 
d="M204 314l-55 -314h-115l104 590h-82l13 75h82l13 75h115l-13 -75h149l-13 -75h-149l-29 -162q55 53 98 71t78 18q51 0 81.5 -24.5t41.5 -67.5t1 -97l-58 -328h-115l57 326q16 84 -47 84q-24 0 -61 -18.5t-96 -77.5z" />
    <glyph glyph-name="Itilde" unicode="&#x128;" horiz-adv-x="308" 
d="M169 0h-120l120 680h120zM310 761q-28 0 -45 10.5t-27.5 24.5t-18.5 24.5t-18 10.5q-8 0 -15 -12t-15 -50h-81q11 63 28 96.5t39 45.5t45 12q27 0 44 -10.5t27 -24.5t18 -24.5t18 -10.5q8 0 15.5 12.5t14.5 49.5h81q-10 -63 -27.5 -96.5t-38.5 -45.5t-44 -12z" />
    <glyph glyph-name="itilde" unicode="&#x129;" horiz-adv-x="273" 
d="M149 0h-115l89 507h115zM265 588q-28 0 -45 10.5t-27.5 24.5t-18.5 24.5t-18 10.5q-8 0 -15 -12t-15 -50h-81q11 63 28 96.5t39 45.5t45 12q27 0 44 -10.5t27 -24.5t18 -24.5t18 -10.5q8 0 15.5 12.5t14.5 49.5h81q-10 -63 -27.5 -96.5t-38.5 -45.5t-44 -12z" />
    <glyph glyph-name="Imacron" unicode="&#x12a;" horiz-adv-x="308" 
d="M169 0h-120l120 680h120zM411 865l-15 -83h-303l15 83h303z" />
    <glyph glyph-name="imacron" unicode="&#x12b;" horiz-adv-x="273" 
d="M149 0h-115l89 507h115zM365 692l-15 -83h-303l15 83h303z" />
    <glyph glyph-name="Ibreve" unicode="&#x12c;" horiz-adv-x="308" 
d="M169 0h-120l120 680h120zM253 839q21 0 35 14.5t22 50.5h90q-19 -78 -56 -112t-96 -34t-91.5 34t-24.5 112h84q-5 -36 5 -50.5t32 -14.5z" />
    <glyph glyph-name="ibreve" unicode="&#x12d;" horiz-adv-x="273" 
d="M149 0h-115l89 507h115zM208 666q21 0 35 14.5t22 50.5h90q-19 -78 -56 -112t-96 -34t-91.5 34t-24.5 112h84q-5 -36 5 -50.5t32 -14.5z" />
    <glyph glyph-name="Iogonek" unicode="&#x12e;" horiz-adv-x="308" 
d="M158 -207q-44 -16 -87 -16q-48 0 -76 21t-28 61q0 26 16 58.5t65 74.5l121 688h120l-120 -680q-58 -48 -77 -72.5t-19 -41.5q0 -19 26 -19q20 0 48 9z" />
    <glyph glyph-name="iogonek" unicode="&#x12f;" horiz-adv-x="273" 
d="M256 606h-115l20 113h115zM138 -207q-44 -16 -87 -16q-48 0 -76 21t-28 61q0 26 17.5 60t69.5 78l89 510h115l-89 -507q-58 -48 -77 -72.5t-19 -41.5q0 -19 26 -19q20 0 48 9z" />
    <glyph glyph-name="Idotaccent" unicode="&#x130;" horiz-adv-x="308" 
d="M169 0h-120l120 680h120zM304 776h-121l21 119h121z" />
    <glyph glyph-name="dotlessi" unicode="&#x131;" horiz-adv-x="273" 
d="M149 0h-115l89 507h115z" />
    <glyph glyph-name="IJ" unicode="&#x132;" horiz-adv-x="684" 
d="M169 0h-120l120 680h120zM287 -10l21 115q58 0 93.5 11t55 41t29.5 87l77 436h120l-77 -436q-12 -67 -31.5 -115t-54.5 -79t-91.5 -45.5t-141.5 -14.5z" />
    <glyph glyph-name="ij" unicode="&#x133;" horiz-adv-x="546" 
d="M258 603h-121l21 119h121zM149 0h-115l89 507h115zM531 603h-121l21 119h121zM164 -223l19 108q50 0 81 24t42 87l90 511h115l-90 -511q-12 -67 -36.5 -116t-76 -76t-144.5 -27z" />
    <glyph glyph-name="Jcircumflex" unicode="&#x134;" horiz-adv-x="376" 
d="M-21 -10l21 115q58 0 93.5 11t55 41t29.5 87l77 436h120l-77 -436q-12 -67 -31.5 -115t-54.5 -79t-91.5 -45.5t-141.5 -14.5zM388 752l-47 80l-75 -80h-94l124 161h112l68 -161h-88z" />
    <glyph glyph-name="jcircumflex" unicode="&#x135;" horiz-adv-x="273" 
d="M-109 -223l19 108q50 0 81 24t42 87l90 511h115l-90 -511q-12 -67 -36.5 -116t-76 -76t-144.5 -27zM257 579l-47 80l-75 -80h-94l124 161h112l68 -161h-88z" />
    <glyph glyph-name="uni0136" unicode="&#x136;" horiz-adv-x="614" 
d="M416 0l-119 303l-44 -40t-45 -41l-39 -222h-120l120 680h120l-55 -313q88 83 154 160t117 153h138q-59 -85 -122 -160t-129 -141l161 -379h-137zM228 -256l-74 17l58 162h124z" />
    <glyph glyph-name="uni0137" unicode="&#x137;" horiz-adv-x="532" 
d="M342 0l-91 214q-18 -16 -36.5 -31t-38.5 -30l-27 -153h-115l130 740h115l-80 -455q65 56 114.5 108t94.5 114h137q-43 -60 -92 -114t-106 -110l129 -283h-134zM181 -256l-74 17l58 162h124z" />
    <glyph glyph-name="kgreenlandic" unicode="&#x138;" horiz-adv-x="532" 
d="M342 0l-91 214q-18 -16 -36.5 -31t-38.5 -30l-27 -153h-115l89 507h115l-39 -222q65 56 114.5 107.5t94.5 114.5h137q-43 -60 -92 -114t-106 -110l129 -283h-134z" />
    <glyph glyph-name="Lacute" unicode="&#x139;" horiz-adv-x="507" 
d="M461 115l-20 -115h-392l120 680h120l-100 -565h272zM291 752h-106l125 166l105 -46z" />
    <glyph glyph-name="lacute" unicode="&#x13a;" horiz-adv-x="276" 
d="M57 148l104 592h115l-105 -597q-2 -15 4.5 -28.5t29.5 -13.5h12l-19 -106h-19q-58 0 -86.5 22.5t-35 58t-0.5 72.5zM280 812h-106l125 166l105 -46z" />
    <glyph glyph-name="uni013B" unicode="&#x13b;" horiz-adv-x="507" 
d="M461 115l-20 -115h-392l120 680h120l-100 -565h272zM189 -256l-74 17l58 162h124z" />
    <glyph glyph-name="uni013C" unicode="&#x13c;" horiz-adv-x="276" 
d="M57 148l104 592h115l-105 -597q-2 -15 4.5 -28.5t29.5 -13.5h12l-19 -106h-19q-58 0 -86.5 22.5t-35 58t-0.5 72.5zM63 -256l-74 17l58 162h124z" />
    <glyph glyph-name="Lcaron" unicode="&#x13d;" horiz-adv-x="507" 
d="M461 115l-20 -115h-392l120 680h120l-100 -565h272zM407 486h-77l34 194h113z" />
    <glyph glyph-name="lcaron" unicode="&#x13e;" horiz-adv-x="360" 
d="M57 148l104 592h115l-105 -597q-2 -15 4.5 -28.5t29.5 -13.5h12l-19 -106h-19q-58 0 -86.5 22.5t-35 58t-0.5 72.5zM397 546h-77l34 194h113z" />
    <glyph glyph-name="Ldot" unicode="&#x13f;" horiz-adv-x="507" 
d="M461 115l-20 -115h-392l120 680h120l-100 -565h272zM480 325h-121l21 119h121z" />
    <glyph glyph-name="ldot" unicode="&#x140;" horiz-adv-x="336" 
d="M57 148l104 592h115l-105 -597q-2 -15 4.5 -28.5t29.5 -13.5h12l-19 -106h-19q-58 0 -86.5 22.5t-35 58t-0.5 72.5zM374 325h-121l21 119h121z" />
    <glyph glyph-name="Lslash" unicode="&#x141;" horiz-adv-x="517" 
d="M471 115l-20 -115h-392l46 259l-88 -37l20 124l90 38l52 296h120l-43 -242l129 54l-20 -124l-131 -55l-35 -198h272z" />
    <glyph glyph-name="lslash" unicode="&#x142;" horiz-adv-x="329" 
d="M246 101l-19 -106h-19q-58 0 -86.5 22.5t-35 58t-0.5 72.5l25 145l-89 -43l20 113l89 42l59 335h115l-48 -275l92 44l-20 -113l-92 -44l-37 -209q-2 -15 4.5 -28.5t29.5 -13.5h12z" />
    <glyph glyph-name="Nacute" unicode="&#x143;" horiz-adv-x="683" 
d="M49 0l120 680h110q43 -87 77 -162.5t63.5 -150t57.5 -158.5l26 211l46 260h115l-120 -680h-110q-43 140 -89.5 261.5t-100.5 239.5l-34 -241l-46 -260h-115zM480 752h-106l125 166l105 -46z" />
    <glyph glyph-name="nacute" unicode="&#x144;" horiz-adv-x="584" 
d="M361 410q-24 0 -61 -18.5t-96 -77.5l-55 -314h-115l89 507h109l-15 -86q57 58 101.5 77t81.5 19q51 0 81.5 -24.5t41.5 -67.5t1 -97l-58 -328h-115l57 326q16 84 -47 84zM410 579h-106l125 166l105 -46z" />
    <glyph glyph-name="uni0145" unicode="&#x145;" horiz-adv-x="683" 
d="M49 0l120 680h110q43 -87 77 -162.5t63.5 -150t57.5 -158.5l26 211l46 260h115l-120 -680h-110q-43 140 -89.5 261.5t-100.5 239.5l-34 -241l-46 -260h-115zM237 -256l-74 17l58 162h124z" />
    <glyph glyph-name="uni0146" unicode="&#x146;" horiz-adv-x="584" 
d="M361 410q-24 0 -61 -18.5t-96 -77.5l-55 -314h-115l89 507h109l-15 -86q57 58 101.5 77t81.5 19q51 0 81.5 -24.5t41.5 -67.5t1 -97l-58 -328h-115l57 326q16 84 -47 84zM188 -256l-74 17l58 162h124z" />
    <glyph glyph-name="Ncaron" unicode="&#x147;" horiz-adv-x="683" 
d="M49 0l120 680h110q43 -87 77 -162.5t63.5 -150t57.5 -158.5l26 211l46 260h115l-120 -680h-110q-43 140 -89.5 261.5t-100.5 239.5l-34 -241l-46 -260h-115zM606 913l-124 -161h-112l-68 161h88l47 -80l75 80h94z" />
    <glyph glyph-name="ncaron" unicode="&#x148;" horiz-adv-x="584" 
d="M361 410q-24 0 -61 -18.5t-96 -77.5l-55 -314h-115l89 507h109l-15 -86q57 58 101.5 77t81.5 19q51 0 81.5 -24.5t41.5 -67.5t1 -97l-58 -328h-115l57 326q16 84 -47 84zM536 740l-124 -161h-112l-68 161h88l47 -80l75 80h94z" />
    <glyph glyph-name="napostrophe" unicode="&#x149;" horiz-adv-x="723" 
d="M500 410q-24 0 -61 -18.5t-96 -77.5l-55 -314h-115l89 507h109l-15 -86q57 58 101.5 77t81.5 19q51 0 81.5 -24.5t41.5 -67.5t1 -97l-58 -328h-115l57 326q16 84 -47 84zM243 681l-3 -19q-13 -73 -46 -139t-96 -144l-65 39q30 49 47.5 87t29 79t21.5 97h112z" />
    <glyph glyph-name="Eng" unicode="&#x14a;" horiz-adv-x="683" 
d="M49 0l120 680h110q43 -87 77 -162.5t63.5 -150t57.5 -158.5l26 211l46 260h115l-115 -649q-12 -66 -31.5 -114t-54.5 -79t-91.5 -46t-141.5 -15l21 115q57 0 92 11t54.5 39t29.5 80q-41 133 -86 250t-97 229l-34 -241l-46 -260h-115z" />
    <glyph glyph-name="eng" unicode="&#x14b;" horiz-adv-x="584" 
d="M465 -4q-12 -68 -36.5 -117t-76 -75.5t-144.5 -26.5l19 108q50 0 81 23.5t42 87.5l58 330q15 84 -47 84q-24 0 -61 -18.5t-96 -77.5l-55 -314h-115l89 507h109l-15 -86q57 58 101.5 77t81.5 19q51 0 81.5 -24.5t41.5 -67.5t1 -97z" />
    <glyph glyph-name="Omacron" unicode="&#x14c;" horiz-adv-x="640" 
d="M601 402l-22 -123q-25 -136 -95 -212.5t-193 -76.5q-81 0 -136 37t-78 102.5t-8 149.5l22 123q24 134 94.5 211t194.5 77q81 0 135.5 -37.5t77.5 -102.5t8 -148zM478 402q14 79 -11.5 127t-94.5 48q-66 0 -105 -47t-53 -128l-22 -123q-14 -82 11.5 -129t93.5 -47t106 46
t53 130zM577 865l-15 -83h-303l15 83h303z" />
    <glyph glyph-name="omacron" unicode="&#x14d;" horiz-adv-x="545" 
d="M496 266l-8 -52q-16 -108 -79.5 -166t-161.5 -58q-71 0 -119.5 32.5t-69 89.5t-9.5 130l8 52q17 107 79 165t161 58q72 0 120 -32.5t69 -89t10 -129.5zM379 271q11 65 -11.5 104t-74.5 39q-43 0 -75.5 -29.5t-42.5 -90.5l-9 -57q-10 -65 13 -104.5t73 -39.5q44 0 76 30.5
t42 90.5zM493 692l-15 -83h-303l15 83h303z" />
    <glyph glyph-name="Obreve" unicode="&#x14e;" horiz-adv-x="640" 
d="M601 402l-22 -123q-25 -136 -95 -212.5t-193 -76.5q-81 0 -136 37t-78 102.5t-8 149.5l22 123q24 134 94.5 211t194.5 77q81 0 135.5 -37.5t77.5 -102.5t8 -148zM478 402q14 79 -11.5 127t-94.5 48q-66 0 -105 -47t-53 -128l-22 -123q-14 -82 11.5 -129t93.5 -47t106 46
t53 130zM419 839q21 0 35 14.5t22 50.5h90q-19 -78 -56 -112t-96 -34t-91.5 34t-24.5 112h84q-5 -36 5 -50.5t32 -14.5z" />
    <glyph glyph-name="obreve" unicode="&#x14f;" horiz-adv-x="545" 
d="M496 266l-8 -52q-16 -108 -79.5 -166t-161.5 -58q-71 0 -119.5 32.5t-69 89.5t-9.5 130l8 52q17 107 79 165t161 58q72 0 120 -32.5t69 -89t10 -129.5zM379 271q11 65 -11.5 104t-74.5 39q-43 0 -75.5 -29.5t-42.5 -90.5l-9 -57q-10 -65 13 -104.5t73 -39.5q44 0 76 30.5
t42 90.5zM335 666q21 0 35 14.5t22 50.5h90q-19 -78 -56 -112t-96 -34t-91.5 34t-24.5 112h84q-5 -36 5 -50.5t32 -14.5z" />
    <glyph glyph-name="Ohungarumlaut" unicode="&#x150;" horiz-adv-x="640" 
d="M601 402l-22 -123q-25 -136 -95 -212.5t-193 -76.5q-81 0 -136 37t-78 102.5t-8 149.5l22 123q24 134 94.5 211t194.5 77q81 0 135.5 -37.5t77.5 -102.5t8 -148zM478 402q14 79 -11.5 127t-94.5 48q-66 0 -105 -47t-53 -128l-22 -123q-14 -82 11.5 -129t93.5 -47t106 46
t53 130zM378 752h-96l105 166l85 -46zM528 752h-96l105 166l85 -46z" />
    <glyph glyph-name="ohungarumlaut" unicode="&#x151;" horiz-adv-x="545" 
d="M496 266l-8 -52q-16 -108 -79.5 -166t-161.5 -58q-71 0 -119.5 32.5t-69 89.5t-9.5 130l8 52q17 107 79 165t161 58q72 0 120 -32.5t69 -89t10 -129.5zM379 271q11 65 -11.5 104t-74.5 39q-43 0 -75.5 -29.5t-42.5 -90.5l-9 -57q-10 -65 13 -104.5t73 -39.5q44 0 76 30.5
t42 90.5zM294 579h-96l105 166l85 -46zM444 579h-96l105 166l85 -46z" />
    <glyph glyph-name="OE" unicode="&#x152;" horiz-adv-x="867" 
d="M91 401q23 132 94 205.5t194 73.5h505l-20 -115h-264l-29 -163h234l-20 -115h-234l-31 -172h274l-20 -115h-484q-81 0 -135.5 36.5t-77 99.5t-8.5 142zM298 115h102l80 450h-107q-67 0 -106 -42.5t-53 -121.5l-22 -123q-13 -73 12 -118t94 -45z" />
    <glyph glyph-name="oe" unicode="&#x153;" horiz-adv-x="848" 
d="M750 24q-55 -21 -95.5 -27.5t-69.5 -6.5q-61 0 -104 21.5t-66 61.5q-61 -83 -171 -83q-70 0 -117.5 32.5t-68 89.5t-9.5 130l8 52q17 107 78.5 165t156.5 58q57 0 98.5 -24t63.5 -65q30 42 73 65.5t98 23.5q42 0 84 -17t70.5 -54.5t28.5 -99.5q0 -65 -39 -128h-289
q-7 -61 19 -92.5t92 -31.5q22 0 59 6t84 22zM616 417q-94 0 -120 -111h192q7 21 7 40q0 35 -22 53t-57 18zM379 271q11 65 -11.5 104t-74.5 39q-43 0 -75.5 -29.5t-42.5 -90.5l-9 -57q-10 -65 13 -104.5t73 -39.5q44 0 76 30.5t42 90.5z" />
    <glyph glyph-name="Racute" unicode="&#x154;" horiz-adv-x="609" 
d="M49 0l120 680h214q73 0 119 -27t64.5 -74t7.5 -106l-8 -45q-21 -115 -123 -158q57 -135 90 -270h-130q-27 127 -75 250h-115l-44 -250h-120zM377 570h-107l-37 -210h106q44 0 71 20.5t34 54.5l8 43q8 44 -11.5 68t-63.5 24zM443 752h-106l125 166l105 -46z" />
    <glyph glyph-name="racute" unicode="&#x155;" horiz-adv-x="387" 
d="M391 402q-23 0 -51.5 -5t-62 -23t-72.5 -57l-56 -317h-115l89 507h109l-15 -87q59 59 107.5 78t86.5 19zM330 579h-106l125 166l105 -46z" />
    <glyph glyph-name="uni0156" unicode="&#x156;" horiz-adv-x="609" 
d="M49 0l120 680h214q73 0 119 -27t64.5 -74t7.5 -106l-8 -45q-21 -115 -123 -158q57 -135 90 -270h-130q-27 127 -75 250h-115l-44 -250h-120zM377 570h-107l-37 -210h106q44 0 71 20.5t34 54.5l8 43q8 44 -11.5 68t-63.5 24zM225 -256l-74 17l58 162h124z" />
    <glyph glyph-name="uni0157" unicode="&#x157;" horiz-adv-x="387" 
d="M391 402q-23 0 -51.5 -5t-62 -23t-72.5 -57l-56 -317h-115l89 507h109l-15 -87q59 59 107.5 78t86.5 19zM31 -256l-74 17l58 162h124z" />
    <glyph glyph-name="Rcaron" unicode="&#x158;" horiz-adv-x="609" 
d="M49 0l120 680h214q73 0 119 -27t64.5 -74t7.5 -106l-8 -45q-21 -115 -123 -158q57 -135 90 -270h-130q-27 127 -75 250h-115l-44 -250h-120zM377 570h-107l-37 -210h106q44 0 71 20.5t34 54.5l8 43q8 44 -11.5 68t-63.5 24zM569 913l-124 -161h-112l-68 161h88l47 -80
l75 80h94z" />
    <glyph glyph-name="rcaron" unicode="&#x159;" horiz-adv-x="387" 
d="M391 402q-23 0 -51.5 -5t-62 -23t-72.5 -57l-56 -317h-115l89 507h109l-15 -87q59 59 107.5 78t86.5 19zM456 740l-124 -161h-112l-68 161h88l47 -80l75 80h94z" />
    <glyph glyph-name="Sacute" unicode="&#x15a;" horiz-adv-x="518" 
d="M211 101q68 0 99 26t31 67q0 28 -16 46.5t-51 34.5l-73 33q-58 26 -88 67.5t-30 105.5q0 59 25.5 106.5t78.5 75t135 27.5q46 0 89 -11t92 -33l-42 -103q-43 18 -74 27t-65 9q-113 0 -113 -87q0 -27 15 -44t51 -34l73 -33q56 -25 87.5 -67t31.5 -110q0 -57 -25.5 -106
t-82 -78.5t-148.5 -29.5q-52 0 -102 11.5t-107 39.5l42 103q52 -24 89 -33.5t78 -9.5zM405 752h-106l125 166l105 -46z" />
    <glyph glyph-name="sacute" unicode="&#x15b;" horiz-adv-x="461" 
d="M201 91q41 0 63.5 12t22.5 38q0 20 -13.5 33t-45.5 23l-55 19q-55 20 -81.5 56t-26.5 88q0 68 47 112.5t145 44.5q42 0 82 -9t83 -27l-37 -98q-37 17 -69.5 25t-61.5 8q-44 0 -59 -14t-15 -33t13 -30.5t38 -20.5l55 -19q59 -20 87 -56.5t28 -89.5q0 -70 -49.5 -116.5
t-156.5 -46.5q-46 0 -90 9.5t-91 30.5l36 98q43 -19 79.5 -28t71.5 -9zM336 579h-106l125 166l105 -46z" />
    <glyph glyph-name="Scircumflex" unicode="&#x15c;" horiz-adv-x="518" 
d="M211 101q68 0 99 26t31 67q0 28 -16 46.5t-51 34.5l-73 33q-58 26 -88 67.5t-30 105.5q0 59 25.5 106.5t78.5 75t135 27.5q46 0 89 -11t92 -33l-42 -103q-43 18 -74 27t-65 9q-113 0 -113 -87q0 -27 15 -44t51 -34l73 -33q56 -25 87.5 -67t31.5 -110q0 -57 -25.5 -106
t-82 -78.5t-148.5 -29.5q-52 0 -102 11.5t-107 39.5l42 103q52 -24 89 -33.5t78 -9.5zM415 752l-47 80l-75 -80h-94l124 161h112l68 -161h-88z" />
    <glyph glyph-name="scircumflex" unicode="&#x15d;" horiz-adv-x="461" 
d="M201 91q41 0 63.5 12t22.5 38q0 20 -13.5 33t-45.5 23l-55 19q-55 20 -81.5 56t-26.5 88q0 68 47 112.5t145 44.5q42 0 82 -9t83 -27l-37 -98q-37 17 -69.5 25t-61.5 8q-44 0 -59 -14t-15 -33t13 -30.5t38 -20.5l55 -19q59 -20 87 -56.5t28 -89.5q0 -70 -49.5 -116.5
t-156.5 -46.5q-46 0 -90 9.5t-91 30.5l36 98q43 -19 79.5 -28t71.5 -9zM346 579l-47 80l-75 -80h-94l124 161h112l68 -161h-88z" />
    <glyph glyph-name="Scedilla" unicode="&#x15e;" horiz-adv-x="518" 
d="M303 -117q0 -43 -35 -74.5t-100 -31.5q-23 0 -42.5 4t-42.5 11l17 69q41 -11 69 -11q26 0 35.5 9t9.5 18q0 8 -7.5 14.5t-27.5 6.5q-7 0 -13.5 -0.5t-14.5 -2.5l-19 32l23 66q-37 5 -74.5 16.5t-78.5 31.5l42 103q52 -24 89 -33.5t78 -9.5q68 0 99 26t31 67
q0 28 -16 46.5t-51 34.5l-73 33q-58 26 -88 67.5t-30 105.5q0 59 25.5 106.5t78.5 75t135 27.5q46 0 89 -11t92 -33l-42 -103q-43 18 -74 27t-65 9q-113 0 -113 -87q0 -27 15 -44t51 -34l73 -33q56 -25 87.5 -67t31.5 -110q0 -55 -24 -102.5t-75.5 -77.5t-136.5 -34l-11 -29
q40 -3 61.5 -25.5t21.5 -52.5z" />
    <glyph glyph-name="scedilla" unicode="&#x15f;" horiz-adv-x="461" 
d="M285 -117q0 -43 -35 -74.5t-100 -31.5q-23 0 -42.5 4t-42.5 11l17 69q41 -11 69 -11q26 0 35.5 9t9.5 18q0 8 -7.5 14.5t-27.5 6.5q-7 0 -13.5 -0.5t-14.5 -2.5l-19 32l23 67q-58 7 -123 36l36 98q43 -19 79.5 -28t71.5 -9q41 0 63.5 12t22.5 38q0 20 -13.5 33t-45.5 23
l-55 19q-55 20 -81.5 56t-26.5 88q0 68 47 112.5t145 44.5q42 0 82 -9t83 -27l-37 -98q-37 17 -69.5 25t-61.5 8q-44 0 -59 -14t-15 -33t13 -30.5t38 -20.5l55 -19q59 -20 87 -56.5t28 -89.5q0 -67 -45 -112.5t-143 -50.5l-11 -29q40 -3 61.5 -25.5t21.5 -52.5z" />
    <glyph glyph-name="Scaron" unicode="&#x160;" horiz-adv-x="518" 
d="M211 101q68 0 99 26t31 67q0 28 -16 46.5t-51 34.5l-73 33q-58 26 -88 67.5t-30 105.5q0 59 25.5 106.5t78.5 75t135 27.5q46 0 89 -11t92 -33l-42 -103q-43 18 -74 27t-65 9q-113 0 -113 -87q0 -27 15 -44t51 -34l73 -33q56 -25 87.5 -67t31.5 -110q0 -57 -25.5 -106
t-82 -78.5t-148.5 -29.5q-52 0 -102 11.5t-107 39.5l42 103q52 -24 89 -33.5t78 -9.5zM531 913l-124 -161h-112l-68 161h88l47 -80l75 80h94z" />
    <glyph glyph-name="scaron" unicode="&#x161;" horiz-adv-x="461" 
d="M201 91q41 0 63.5 12t22.5 38q0 20 -13.5 33t-45.5 23l-55 19q-55 20 -81.5 56t-26.5 88q0 68 47 112.5t145 44.5q42 0 82 -9t83 -27l-37 -98q-37 17 -69.5 25t-61.5 8q-44 0 -59 -14t-15 -33t13 -30.5t38 -20.5l55 -19q59 -20 87 -56.5t28 -89.5q0 -70 -49.5 -116.5
t-156.5 -46.5q-46 0 -90 9.5t-91 30.5l36 98q43 -19 79.5 -28t71.5 -9zM462 740l-124 -161h-112l-68 161h88l47 -80l75 80h94z" />
    <glyph glyph-name="uni0162" unicode="&#x162;" horiz-adv-x="526" 
d="M68 565l20 115h500l-20 -115h-190l-100 -565h-120l100 565h-190zM159 -256l-74 17l58 162h124z" />
    <glyph glyph-name="uni0163" unicode="&#x163;" horiz-adv-x="400" 
d="M344 11q-28 -11 -62 -16t-60 -5q-63 0 -96.5 25t-43 66t-1.5 88l42 238h-82l17 100h83l23 132h115l-23 -132h157l-17 -100h-158l-42 -238q-7 -40 6.5 -55.5t45.5 -15.5q15 0 35.5 3t43.5 11zM135 -256l-74 17l58 162h124z" />
    <glyph glyph-name="Tcaron" unicode="&#x164;" horiz-adv-x="526" 
d="M68 565l20 115h500l-20 -115h-190l-100 -565h-120l100 565h-190zM527 913l-124 -161h-112l-68 161h88l47 -80l75 80h94z" />
    <glyph glyph-name="tcaron" unicode="&#x165;" horiz-adv-x="398" 
d="M344 11q-28 -11 -62 -16t-60 -5q-63 0 -96.5 25t-43 66t-1.5 88l42 238h-82l17 100h83l23 132h115l-23 -132h157l-17 -100h-158l-42 -238q-7 -40 6.5 -55.5t45.5 -15.5q15 0 35.5 3t43.5 11zM409 571h-77l34 194h113z" />
    <glyph glyph-name="Tbar" unicode="&#x166;" horiz-adv-x="526" 
d="M437 268h-112l-47 -268h-120l47 268h-112l19 109h113l33 188h-190l20 115h500l-20 -115h-190l-33 -188h111z" />
    <glyph glyph-name="tbar" unicode="&#x167;" horiz-adv-x="420" 
d="M362 11q-28 -11 -62 -16t-60 -5q-63 0 -96.5 25t-43 66t-1.5 88l10 58h-82l13 75h82l19 105h-82l17 100h83l23 132h115l-23 -132h157l-17 -100h-158l-19 -105h119l-13 -75h-119l-10 -58q-7 -40 6.5 -55.5t45.5 -15.5q15 0 35.5 3t43.5 11z" />
    <glyph glyph-name="Utilde" unicode="&#x168;" horiz-adv-x="646" 
d="M153 680h123l-77 -436q-11 -65 11 -103t86 -38t100 37.5t47 103.5l77 436h123l-77 -436q-13 -75 -44.5 -132.5t-87 -89.5t-142.5 -32q-81 0 -133.5 32.5t-74 89.5t-8.5 132zM479 761q-28 0 -45 10.5t-27.5 24.5t-18.5 24.5t-18 10.5q-8 0 -15 -12t-15 -50h-81
q11 63 28 96.5t39 45.5t45 12q27 0 44 -10.5t27 -24.5t18 -24.5t18 -10.5q8 0 15.5 12.5t14.5 49.5h81q-10 -63 -27.5 -96.5t-38.5 -45.5t-44 -12z" />
    <glyph glyph-name="utilde" unicode="&#x169;" horiz-adv-x="570" 
d="M337 0l15 86q-55 -57 -98 -76.5t-78 -19.5q-48 0 -77.5 25t-39.5 67.5t0 96.5l58 328h115l-57 -326q-7 -43 4 -63.5t36 -20.5q23 0 57.5 19t92.5 77l55 314h115l-89 -507h-109zM409 588q-28 0 -45 10.5t-27.5 24.5t-18.5 24.5t-18 10.5q-8 0 -15 -12t-15 -50h-81
q11 63 28 96.5t39 45.5t45 12q27 0 44 -10.5t27 -24.5t18 -24.5t18 -10.5q8 0 15.5 12.5t14.5 49.5h81q-10 -63 -27.5 -96.5t-38.5 -45.5t-44 -12z" />
    <glyph glyph-name="Umacron" unicode="&#x16a;" horiz-adv-x="646" 
d="M153 680h123l-77 -436q-11 -65 11 -103t86 -38t100 37.5t47 103.5l77 436h123l-77 -436q-13 -75 -44.5 -132.5t-87 -89.5t-142.5 -32q-81 0 -133.5 32.5t-74 89.5t-8.5 132zM580 865l-15 -83h-303l15 83h303z" />
    <glyph glyph-name="umacron" unicode="&#x16b;" horiz-adv-x="570" 
d="M337 0l15 86q-55 -57 -98 -76.5t-78 -19.5q-48 0 -77.5 25t-39.5 67.5t0 96.5l58 328h115l-57 -326q-7 -43 4 -63.5t36 -20.5q23 0 57.5 19t92.5 77l55 314h115l-89 -507h-109zM509 692l-15 -83h-303l15 83h303z" />
    <glyph glyph-name="Ubreve" unicode="&#x16c;" horiz-adv-x="646" 
d="M153 680h123l-77 -436q-11 -65 11 -103t86 -38t100 37.5t47 103.5l77 436h123l-77 -436q-13 -75 -44.5 -132.5t-87 -89.5t-142.5 -32q-81 0 -133.5 32.5t-74 89.5t-8.5 132zM422 839q21 0 35 14.5t22 50.5h90q-19 -78 -56 -112t-96 -34t-91.5 34t-24.5 112h84
q-5 -36 5 -50.5t32 -14.5z" />
    <glyph glyph-name="ubreve" unicode="&#x16d;" horiz-adv-x="570" 
d="M337 0l15 86q-55 -57 -98 -76.5t-78 -19.5q-48 0 -77.5 25t-39.5 67.5t0 96.5l58 328h115l-57 -326q-7 -43 4 -63.5t36 -20.5q23 0 57.5 19t92.5 77l55 314h115l-89 -507h-109zM352 666q21 0 35 14.5t22 50.5h90q-19 -78 -56 -112t-96 -34t-91.5 34t-24.5 112h84
q-5 -36 5 -50.5t32 -14.5z" />
    <glyph glyph-name="Uring" unicode="&#x16e;" horiz-adv-x="646" 
d="M153 680h123l-77 -436q-11 -65 11 -103t86 -38t100 37.5t47 103.5l77 436h123l-77 -436q-13 -75 -44.5 -132.5t-87 -89.5t-142.5 -32q-81 0 -133.5 32.5t-74 89.5t-8.5 132zM547 855l-3 -15q-9 -46 -43.5 -75t-87.5 -29q-55 0 -85 33.5t-20 86.5l3 15q10 47 44 76t86 29
q56 0 86.5 -34.5t19.5 -86.5zM478 864q5 21 -7 33.5t-35 12.5q-22 0 -36.5 -12.5t-19.5 -33.5l-3 -15q-4 -21 7 -33.5t33 -12.5q23 0 38.5 12.5t19.5 33.5z" />
    <glyph glyph-name="uring" unicode="&#x16f;" horiz-adv-x="570" 
d="M337 0l15 86q-55 -57 -98 -76.5t-78 -19.5q-48 0 -77.5 25t-39.5 67.5t0 96.5l58 328h115l-57 -326q-7 -43 4 -63.5t36 -20.5q23 0 57.5 19t92.5 77l55 314h115l-89 -507h-109zM477 682l-3 -15q-9 -46 -43.5 -75t-87.5 -29q-55 0 -85 33.5t-20 86.5l3 15q10 47 44 76
t86 29q56 0 86.5 -34.5t19.5 -86.5zM408 691q5 21 -7 33.5t-35 12.5q-22 0 -36.5 -12.5t-19.5 -33.5l-3 -15q-4 -21 7 -33.5t33 -12.5q23 0 38.5 12.5t19.5 33.5z" />
    <glyph glyph-name="Uhungarumlaut" unicode="&#x170;" horiz-adv-x="646" 
d="M153 680h123l-77 -436q-11 -65 11 -103t86 -38t100 37.5t47 103.5l77 436h123l-77 -436q-13 -75 -44.5 -132.5t-87 -89.5t-142.5 -32q-81 0 -133.5 32.5t-74 89.5t-8.5 132zM381 752h-96l105 166l85 -46zM531 752h-96l105 166l85 -46z" />
    <glyph glyph-name="uhungarumlaut" unicode="&#x171;" horiz-adv-x="570" 
d="M337 0l15 86q-55 -57 -98 -76.5t-78 -19.5q-48 0 -77.5 25t-39.5 67.5t0 96.5l58 328h115l-57 -326q-7 -43 4 -63.5t36 -20.5q23 0 57.5 19t92.5 77l55 314h115l-89 -507h-109zM311 579h-96l105 166l85 -46zM461 579h-96l105 166l85 -46z" />
    <glyph glyph-name="Uogonek" unicode="&#x172;" horiz-adv-x="646" 
d="M377 -207q-44 -16 -87 -16q-48 0 -76 21t-28 61q0 27 18.5 57.5t70.5 73.5q-113 6 -165.5 75.5t-33.5 178.5l77 436h123l-77 -436q-11 -65 11 -103t86 -38t100 37.5t47 103.5l77 436h123l-77 -436q-12 -67 -37.5 -120.5t-70.5 -85.5q-69 -49 -105 -76.5t-48.5 -43.5
t-12.5 -32q0 -19 26 -19q20 0 48 9z" />
    <glyph glyph-name="uogonek" unicode="&#x173;" horiz-adv-x="570" 
d="M418 -207q-44 -16 -87 -16q-48 0 -76 21t-28 61q0 19 8.5 40.5t32.5 48.5t70 60l14 78q-55 -57 -98 -76.5t-78 -19.5q-48 0 -77.5 25t-39.5 67.5t0 96.5l58 328h115l-57 -326q-7 -43 4 -63.5t36 -20.5q23 0 57.5 19t92.5 77l55 314h115l-89 -507q-47 -34 -71.5 -55
t-33 -34t-8.5 -25q0 -19 26 -19q20 0 48 9z" />
    <glyph glyph-name="Wcircumflex" unicode="&#x174;" horiz-adv-x="867" 
d="M232 411l-6 -252l228 521h108l44 -516l85 247l100 269h125l-273 -680h-123l-42 506l-221 -506h-123l-33 680h127zM582 752l-47 80l-75 -80h-94l124 161h112l68 -161h-88z" />
    <glyph glyph-name="wcircumflex" unicode="&#x175;" horiz-adv-x="737" 
d="M754 507l-219 -507h-125l-16 381l-157 -381h-125l-41 507h112l14 -201l1 -191l157 392h116l20 -381l63 179l83 202h117zM489 579l-47 80l-75 -80h-94l124 161h112l68 -161h-88z" />
    <glyph glyph-name="Ycircumflex" unicode="&#x176;" horiz-adv-x="544" 
d="M616 680l-279 -406l-49 -274h-120l48 271l-138 409h124l93 -289l190 289h131zM420 752l-47 80l-75 -80h-94l124 161h112l68 -161h-88z" />
    <glyph glyph-name="ycircumflex" unicode="&#x177;" horiz-adv-x="499" 
d="M230 -50q-49 -92 -107.5 -132.5t-146.5 -40.5l20 115q39 3 63 10.5t41.5 24.5t34.5 48l16 30l-90 502h114l43 -253l15 -105l51 105l127 253h115l-269 -507zM370 579l-47 80l-75 -80h-94l124 161h112l68 -161h-88z" />
    <glyph glyph-name="Ydieresis" unicode="&#x178;" horiz-adv-x="544" 
d="M616 680l-279 -406l-49 -274h-120l48 271l-138 409h124l93 -289l190 289h131zM320 782h-109l19 107h109zM514 782h-109l19 107h109z" />
    <glyph glyph-name="Zacute" unicode="&#x179;" horiz-adv-x="509" 
d="M448 115l-20 -115h-435l19 105l356 460h-265l20 115h415l-19 -105l-356 -460h285zM393 752h-106l125 166l105 -46z" />
    <glyph glyph-name="zacute" unicode="&#x17a;" horiz-adv-x="432" 
d="M370 100l-18 -100h-362l16 90l265 317h-199l17 100h342l-15 -90l-265 -317h219zM320 579h-106l125 166l105 -46z" />
    <glyph glyph-name="Zdotaccent" unicode="&#x17b;" horiz-adv-x="509" 
d="M448 115l-20 -115h-435l19 105l356 460h-265l20 115h415l-19 -105l-356 -460h285zM404 776h-121l21 119h121z" />
    <glyph glyph-name="zdotaccent" unicode="&#x17c;" horiz-adv-x="432" 
d="M370 100l-18 -100h-362l16 90l265 317h-199l17 100h342l-15 -90l-265 -317h219zM332 603h-121l21 119h121z" />
    <glyph glyph-name="Zcaron" unicode="&#x17d;" horiz-adv-x="509" 
d="M448 115l-20 -115h-435l19 105l356 460h-265l20 115h415l-19 -105l-356 -460h285zM519 913l-124 -161h-112l-68 161h88l47 -80l75 80h94z" />
    <glyph glyph-name="zcaron" unicode="&#x17e;" horiz-adv-x="432" 
d="M370 100l-18 -100h-362l16 90l265 317h-199l17 100h342l-15 -90l-265 -317h219zM446 740l-124 -161h-112l-68 161h88l47 -80l75 80h94z" />
    <glyph glyph-name="florin" unicode="&#x192;" horiz-adv-x="393" 
d="M163 -33q-16 -60 -36.5 -102.5t-55.5 -65t-94 -22.5q-28 0 -58 5t-54 15l36 99q18 -7 35.5 -9t28.5 -2q35 0 52.5 18t30.5 64l91 340h-117l18 100h125l41 153q16 60 36.5 102.5t55.5 65t94 22.5q29 0 58.5 -5t53.5 -15l-36 -99q-18 7 -35.5 9t-28.5 2q-34 0 -52 -17.5
t-31 -64.5l-41 -153h115l-18 -100h-123z" />
    <glyph glyph-name="uni0218" unicode="&#x218;" horiz-adv-x="518" 
d="M211 101q68 0 99 26t31 67q0 28 -16 46.5t-51 34.5l-73 33q-58 26 -88 67.5t-30 105.5q0 59 25.5 106.5t78.5 75t135 27.5q46 0 89 -11t92 -33l-42 -103q-43 18 -74 27t-65 9q-113 0 -113 -87q0 -27 15 -44t51 -34l73 -33q56 -25 87.5 -67t31.5 -110q0 -57 -25.5 -106
t-82 -78.5t-148.5 -29.5q-52 0 -102 11.5t-107 39.5l42 103q52 -24 89 -33.5t78 -9.5zM156 -256l-74 17l58 162h124z" />
    <glyph glyph-name="uni0219" unicode="&#x219;" horiz-adv-x="461" 
d="M201 91q41 0 63.5 12t22.5 38q0 20 -13.5 33t-45.5 23l-55 19q-55 20 -81.5 56t-26.5 88q0 68 47 112.5t145 44.5q42 0 82 -9t83 -27l-37 -98q-37 17 -69.5 25t-61.5 8q-44 0 -59 -14t-15 -33t13 -30.5t38 -20.5l55 -19q59 -20 87 -56.5t28 -89.5q0 -70 -49.5 -116.5
t-156.5 -46.5q-46 0 -90 9.5t-91 30.5l36 98q43 -19 79.5 -28t71.5 -9zM124 -256l-74 17l58 162h124z" />
    <glyph glyph-name="uni021A" unicode="&#x21a;" horiz-adv-x="526" 
d="M68 565l20 115h500l-20 -115h-190l-100 -565h-120l100 565h-190zM159 -256l-74 17l58 162h124z" />
    <glyph glyph-name="uni021B" unicode="&#x21b;" horiz-adv-x="400" 
d="M344 11q-28 -11 -62 -16t-60 -5q-63 0 -96.5 25t-43 66t-1.5 88l42 238h-82l17 100h83l23 132h115l-23 -132h157l-17 -100h-158l-42 -238q-7 -40 6.5 -55.5t45.5 -15.5q15 0 35.5 3t43.5 11zM135 -256l-74 17l58 162h124z" />
    <glyph glyph-name="uni0237" unicode="&#x237;" horiz-adv-x="273" 
d="M-109 -223l19 108q50 0 81 24t42 87l90 511h115l-90 -511q-12 -67 -36.5 -116t-76 -76t-144.5 -27z" />
    <glyph glyph-name="circumflex" unicode="&#x2c6;" horiz-adv-x="500" 
d="M371 579l-47 80l-75 -80h-94l124 161h112l68 -161h-88z" />
    <glyph glyph-name="caron" unicode="&#x2c7;" horiz-adv-x="500" 
d="M487 740l-124 -161h-112l-68 161h88l47 -80l75 80h94z" />
    <glyph glyph-name="breve" unicode="&#x2d8;" horiz-adv-x="500" 
d="M321 666q21 0 35 14.5t22 50.5h90q-19 -78 -56 -112t-96 -34t-91.5 34t-24.5 112h84q-5 -36 5 -50.5t32 -14.5z" />
    <glyph glyph-name="dotaccent" unicode="&#x2d9;" horiz-adv-x="500" 
d="M372 603h-121l21 119h121z" />
    <glyph glyph-name="ring" unicode="&#x2da;" horiz-adv-x="500" 
d="M446 682l-3 -15q-9 -46 -43.5 -75t-87.5 -29q-55 0 -85 33.5t-20 86.5l3 15q10 47 44 76t86 29q56 0 86.5 -34.5t19.5 -86.5zM377 691q5 21 -7 33.5t-35 12.5q-22 0 -36.5 -12.5t-19.5 -33.5l-3 -15q-4 -21 7 -33.5t33 -12.5q23 0 38.5 12.5t19.5 33.5z" />
    <glyph glyph-name="ogonek" unicode="&#x2db;" horiz-adv-x="500" 
d="M208 -133q20 0 48 9l11 -83q-44 -16 -87 -16q-48 0 -76 21t-28 61q0 22 12.5 48t47.5 59.5t104 77.5l54 -44q-47 -34 -71 -55t-32.5 -34t-8.5 -25q0 -19 26 -19z" />
    <glyph glyph-name="tilde" unicode="&#x2dc;" horiz-adv-x="500" 
d="M378 588q-28 0 -45 10.5t-27.5 24.5t-18.5 24.5t-18 10.5q-8 0 -15 -12t-15 -50h-81q11 63 28 96.5t39 45.5t45 12q27 0 44 -10.5t27 -24.5t18 -24.5t18 -10.5q8 0 15.5 12.5t14.5 49.5h81q-10 -63 -27.5 -96.5t-38.5 -45.5t-44 -12z" />
    <glyph glyph-name="hungarumlaut" unicode="&#x2dd;" horiz-adv-x="500" 
d="M280 579h-96l105 166l85 -46zM430 579h-96l105 166l85 -46z" />
    <glyph glyph-name="pi" unicode="&#x3c0;" horiz-adv-x="584" 
d="M42 407l17 100h551l-17 -100h-83l-46 -264q-3 -15 4 -28.5t30 -13.5h41l-19 -106h-48q-58 0 -86.5 22.5t-35 57.5t-0.5 73l45 259h-156l-72 -407h-115l72 407h-82z" />
    <glyph glyph-name="Wgrave" unicode="&#x1e80;" horiz-adv-x="867" 
d="M232 411l-6 -252l228 521h108l44 -516l85 247l100 269h125l-273 -680h-123l-42 506l-221 -506h-123l-33 680h127zM470 752l-82 120l111 46l67 -166h-96z" />
    <glyph glyph-name="wgrave" unicode="&#x1e81;" horiz-adv-x="737" 
d="M754 507l-219 -507h-125l-16 381l-157 -381h-125l-41 507h112l14 -201l1 -191l157 392h116l20 -381l63 179l83 202h117zM377 579l-82 120l111 46l67 -166h-96z" />
    <glyph glyph-name="Wacute" unicode="&#x1e82;" horiz-adv-x="867" 
d="M232 411l-6 -252l228 521h108l44 -516l85 247l100 269h125l-273 -680h-123l-42 506l-221 -506h-123l-33 680h127zM572 752h-106l125 166l105 -46z" />
    <glyph glyph-name="wacute" unicode="&#x1e83;" horiz-adv-x="737" 
d="M754 507l-219 -507h-125l-16 381l-157 -381h-125l-41 507h112l14 -201l1 -191l157 392h116l20 -381l63 179l83 202h117zM479 579h-106l125 166l105 -46z" />
    <glyph glyph-name="Wdieresis" unicode="&#x1e84;" horiz-adv-x="867" 
d="M232 411l-6 -252l228 521h108l44 -516l85 247l100 269h125l-273 -680h-123l-42 506l-221 -506h-123l-33 680h127zM481 782h-109l19 107h109zM675 782h-109l19 107h109z" />
    <glyph glyph-name="wdieresis" unicode="&#x1e85;" horiz-adv-x="737" 
d="M754 507l-219 -507h-125l-16 381l-157 -381h-125l-41 507h112l14 -201l1 -191l157 392h116l20 -381l63 179l83 202h117zM388 609h-109l19 107h109zM582 609h-109l19 107h109z" />
    <glyph glyph-name="uni1E9E" unicode="&#x1e9e;" horiz-adv-x="611" 
d="M555 151q-17 -79 -64.5 -120t-138.5 -41q-34 0 -71.5 8t-74.5 26l38 103q31 -16 59.5 -21t50.5 -5q39 0 58.5 18.5t23.5 46.5l3 14q6 37 -6.5 56.5t-46.5 35.5l-84 39l14 83l124 168q-37 17 -82 17q-52 0 -84.5 -28.5t-43.5 -93.5l-81 -457h-120l81 457q15 87 48.5 138
t84 73t115.5 22q64 0 116 -19t92 -51l-14 -83l-118 -158l10 -5q43 -20 73 -47t41.5 -66.5t-0.5 -95.5z" />
    <glyph glyph-name="Ygrave" unicode="&#x1ef2;" horiz-adv-x="544" 
d="M616 680l-279 -406l-49 -274h-120l48 271l-138 409h124l93 -289l190 289h131zM308 752l-82 120l111 46l67 -166h-96z" />
    <glyph glyph-name="ygrave" unicode="&#x1ef3;" horiz-adv-x="499" 
d="M230 -50q-49 -92 -107.5 -132.5t-146.5 -40.5l20 115q39 3 63 10.5t41.5 24.5t34.5 48l16 30l-90 502h114l43 -253l15 -105l51 105l127 253h115l-269 -507zM258 579l-82 120l111 46l67 -166h-96z" />
    <glyph glyph-name="endash" unicode="&#x2013;" horiz-adv-x="604" 
d="M52 265l17 100h504l-17 -100h-504z" />
    <glyph glyph-name="emdash" unicode="&#x2014;" horiz-adv-x="804" 
d="M52 265l17 100h704l-17 -100h-704z" />
    <glyph glyph-name="quoteleft" unicode="&#x2018;" horiz-adv-x="211" 
d="M55 388l3 19q14 74 46.5 139.5t95.5 143.5l65 -39q-29 -49 -47 -87t-29.5 -78.5t-21.5 -97.5h-112z" />
    <glyph glyph-name="quoteright" unicode="&#x2019;" horiz-adv-x="211" 
d="M255 680l-3 -19q-13 -73 -46 -139t-96 -144l-65 39q30 49 47.5 87t29 79t21.5 97h112z" />
    <glyph glyph-name="quotesinglbase" unicode="&#x201a;" horiz-adv-x="211" 
d="M138 119l-3 -19q-13 -73 -46 -139t-96 -144l-65 39q30 49 47.5 87t29 78.5t21.5 97.5h112z" />
    <glyph glyph-name="quotedblleft" unicode="&#x201c;" horiz-adv-x="396" 
d="M240 388l3 19q14 74 46.5 139.5t95.5 143.5l65 -39q-29 -49 -47 -87t-29.5 -78.5t-21.5 -97.5h-112zM55 388l3 19q14 74 46.5 139.5t95.5 143.5l65 -39q-29 -49 -47 -87t-29.5 -78.5t-21.5 -97.5h-112z" />
    <glyph glyph-name="quotedblright" unicode="&#x201d;" horiz-adv-x="396" 
d="M255 680l-3 -19q-13 -73 -46 -139t-96 -144l-65 39q30 49 47.5 87t29 79t21.5 97h112zM440 680l-3 -19q-13 -73 -46 -139t-96 -144l-65 39q30 49 47.5 87t29 79t21.5 97h112z" />
    <glyph glyph-name="quotedblbase" unicode="&#x201e;" horiz-adv-x="396" 
d="M138 119l-3 -19q-13 -73 -46 -139t-96 -144l-65 39q30 49 47.5 87t29 78.5t21.5 97.5h112zM323 119l-3 -19q-13 -73 -46 -139t-96 -144l-65 39q30 49 47.5 87t29 78.5t21.5 97.5h112z" />
    <glyph glyph-name="dagger" unicode="&#x2020;" horiz-adv-x="433" 
d="M263 199l-83 -342h-70l38 342l19 109l41 131l-103 -16h-60l19 109h60l97 -16l2 104l11 60h115l-11 -60l-35 -105l104 16h60l-20 -109h-60l-98 17l-7 -131z" />
    <glyph glyph-name="daggerdbl" unicode="&#x2021;" horiz-adv-x="455" 
d="M224 -83l-10 -60h-115l10 60l36 105l-104 -16h-60l19 109h60l99 -17l6 131l14 79l41 131l-103 -16h-60l19 109h60l97 -16l2 104l11 60h115l-11 -60l-35 -105l104 16h60l-20 -109h-60l-98 17l-7 -131l-14 -79l-40 -131l103 16h60l-19 -109h-60l-98 16z" />
    <glyph glyph-name="bullet" unicode="&#x2022;" horiz-adv-x="243" 
d="M195 262h-145l25 143h145z" />
    <glyph glyph-name="ellipsis" unicode="&#x2026;" horiz-adv-x="611" 
d="M121 0h-121l21 119h121zM321 0h-121l21 119h121zM521 0h-121l21 119h121z" />
    <glyph glyph-name="perthousand" unicode="&#x2030;" horiz-adv-x="1077" 
d="M357 504q-9 -62 -48 -95.5t-100 -33.5q-67 0 -100.5 41.5t-24.5 105.5l5 34q9 62 48 95.5t100 33.5q68 0 101 -41.5t24 -105.5zM557 680h94l-445 -680h-94zM276 504l6 37q5 32 -7 51t-41 19q-23 0 -41 -13t-23 -42l-6 -37q-5 -32 7 -51t41 -19q23 0 41.5 13.5t22.5 41.5z
M675 124q-9 -62 -48 -95.5t-100 -33.5q-67 0 -100.5 41.5t-24.5 105.5l5 34q9 62 48 95.5t100 33.5q68 0 101 -41.5t24 -105.5zM1018 124q-9 -62 -48 -95.5t-100 -33.5q-67 0 -100.5 41.5t-24.5 105.5l5 34q9 62 48 95.5t100 33.5q68 0 101 -41.5t24 -105.5zM594 124l6 37
q5 32 -7 51t-41 19q-23 0 -41 -13t-23 -42l-6 -37q-5 -32 7 -51t41 -19q23 0 41.5 13.5t22.5 41.5zM937 124l6 37q5 32 -7 51t-41 19q-23 0 -41 -13t-23 -42l-6 -37q-5 -32 7 -51t41 -19q23 0 41.5 13.5t22.5 41.5z" />
    <glyph glyph-name="guilsinglleft" unicode="&#x2039;" horiz-adv-x="392" 
d="M316 126l-21 -112l-261 195l13 77l330 192l-21 -124l-204 -113z" />
    <glyph glyph-name="guilsinglright" unicode="&#x203a;" horiz-adv-x="393" 
d="M342 206l-330 -192l21 124l204 113l-164 115l21 112l261 -195z" />
    <glyph glyph-name="fraction" unicode="&#x2044;" horiz-adv-x="111" 
d="M246 680h94l-445 -680h-94z" />
    <glyph glyph-name="uni2070" unicode="&#x2070;" horiz-adv-x="326" 
d="M362 646l-10 -61q-12 -73 -46.5 -109t-95.5 -36q-64 0 -96.5 39t-21.5 106l10 61q24 144 143 144q65 0 96.5 -39t20.5 -105zM282 646q11 69 -39 69q-48 0 -60 -69l-10 -61q-12 -69 38 -69t61 69z" />
    <glyph glyph-name="uni2074" unicode="&#x2074;" horiz-adv-x="274" 
d="M308 512h-34l-12 -67h-73l12 67h-143l11 64q43 52 80.5 104.5t65.5 104.5h85q-56 -104 -142 -204h55l8 46h73l-8 -46h34z" />
    <glyph glyph-name="uni2075" unicode="&#x2075;" horiz-adv-x="276" 
d="M100 621l39 164h191l-12 -69h-126l-14 -58q15 3 31 3q51 0 78.5 -27.5t17.5 -80.5l-3 -16q-8 -43 -38.5 -70t-94.5 -27q-25 0 -50 5t-53 17l23 71q23 -10 43 -13.5t38 -3.5q48 0 53 33l3 14q2 14 -7 23t-32 9q-25 0 -55 -11z" />
    <glyph glyph-name="uni2076" unicode="&#x2076;" horiz-adv-x="303" 
d="M329 544q-7 -46 -38 -75t-88 -29q-64 0 -93.5 39t-17.5 108l11 64q14 77 51.5 108t96.5 31q22 0 45 -4t50 -15l-23 -71q-21 10 -39 13t-34 3q-27 0 -46 -15t-25 -50l-2 -9q34 22 71 22q44 0 66.5 -27.5t16.5 -76.5zM220 595q-25 0 -54 -21q-9 -61 40 -61q18 0 30.5 8
t14.5 24l2 16q5 34 -33 34z" />
    <glyph glyph-name="uni2077" unicode="&#x2077;" horiz-adv-x="253" 
d="M319 714q-44 -68 -80.5 -135t-61.5 -134h-84q25 66 59 132t79 132h-143l13 76h231z" />
    <glyph glyph-name="uni2078" unicode="&#x2078;" horiz-adv-x="303" 
d="M326 551q0 -28 -14.5 -53.5t-45 -41.5t-77.5 -16q-61 0 -87 24t-26 56q0 25 15.5 47.5t51.5 42.5q-18 15 -25.5 34t-7.5 39q0 41 30.5 74t94.5 33q56 0 83.5 -23t27.5 -58q0 -24 -14 -44t-47 -39q41 -28 41 -75zM215 655l22 -8q18 14 24 25t6 23q0 25 -35 25
q-22 0 -33.5 -10t-11.5 -25q0 -21 28 -30zM156 537q0 -27 40 -27q23 0 37.5 10t14.5 27q0 19 -32 30l-26 9q-19 -13 -26.5 -24.5t-7.5 -24.5z" />
    <glyph glyph-name="uni2079" unicode="&#x2079;" horiz-adv-x="303" 
d="M326 579q-13 -76 -51 -107.5t-97 -31.5q-22 0 -45 4t-50 15l23 71q21 -10 39 -13t34 -3q27 0 46 15t25 50l2 9q-34 -22 -71 -22q-44 0 -66.5 27.5t-16.5 76.5l2 16q7 47 38 75.5t88 28.5q65 0 94 -39t17 -108zM176 669q-5 -34 33 -34q26 0 54 21q9 61 -40 61
q-18 0 -30.5 -8t-14.5 -24z" />
    <glyph glyph-name="uni2080" unicode="&#x2080;" horiz-adv-x="326" 
d="M266 96l-10 -61q-12 -73 -46.5 -109t-95.5 -36q-64 0 -96.5 39t-21.5 106l10 61q24 144 143 144q65 0 96.5 -39t20.5 -105zM186 96q11 69 -39 69q-48 0 -60 -69l-10 -61q-12 -69 38 -69t61 69z" />
    <glyph glyph-name="uni2081" unicode="&#x2081;" horiz-adv-x="220" 
d="M5 187l105 48h60l-60 -340h-79l44 249l-47 -21z" />
    <glyph glyph-name="uni2082" unicode="&#x2082;" horiz-adv-x="269" 
d="M192 -32l-13 -73h-221l12 68q10 55 33.5 79.5t62.5 40.5l37 15q21 8 30 17t10 20l1 3q5 27 -38 27q-18 0 -38 -5t-47 -14l-13 71q31 13 57 18t50 5q46 0 70.5 -14t33 -36.5t4.5 -48.5l-1 -9q-4 -32 -26 -56.5t-67 -42.5l-37 -15q-21 -8 -30 -20.5t-12 -29.5h142z" />
    <glyph glyph-name="uni2083" unicode="&#x2083;" horiz-adv-x="275" 
d="M195 -20q-7 -40 -36 -65t-95 -25q-25 0 -51 5t-49 16l23 70q21 -8 40 -11.5t37 -3.5q49 0 55 29l1 7q2 14 -7 23.5t-30 9.5h-51l11 64h51q40 0 45 30l1 7q6 29 -40 29q-15 0 -33 -3.5t-43 -11.5l-17 70q30 11 54.5 15.5t46.5 4.5q68 0 93 -29.5t20 -66.5l-1 -7
q-3 -26 -19 -44t-40 -28q20 -11 30.5 -29t5.5 -44z" />
    <glyph glyph-name="uni2084" unicode="&#x2084;" horiz-adv-x="274" 
d="M212 -38h-34l-12 -67h-73l12 67h-143l11 64q43 52 80.5 104.5t65.5 104.5h85q-56 -104 -142 -204h55l8 46h73l-8 -46h34z" />
    <glyph glyph-name="uni2085" unicode="&#x2085;" horiz-adv-x="276" 
d="M4 71l39 164h191l-12 -69h-126l-14 -58q15 3 31 3q51 0 78.5 -27.5t17.5 -80.5l-3 -16q-8 -43 -38.5 -70t-94.5 -27q-25 0 -50 5t-53 17l23 71q23 -10 43 -13.5t38 -3.5q48 0 53 33l3 14q2 14 -7 23t-32 9q-25 0 -55 -11z" />
    <glyph glyph-name="uni2086" unicode="&#x2086;" horiz-adv-x="303" 
d="M233 -6q-7 -46 -38 -75t-88 -29q-64 0 -93.5 39t-17.5 108l11 64q14 77 51.5 108t96.5 31q22 0 45 -4t50 -15l-23 -71q-21 10 -39 13t-34 3q-27 0 -46 -15t-25 -50l-2 -9q34 22 71 22q44 0 66.5 -27.5t16.5 -76.5zM124 45q-25 0 -54 -21q-9 -61 40 -61q18 0 30.5 8
t14.5 24l2 16q5 34 -33 34z" />
    <glyph glyph-name="uni2087" unicode="&#x2087;" horiz-adv-x="253" 
d="M223 164q-44 -68 -80.5 -135t-61.5 -134h-84q25 66 59 132t79 132h-143l13 76h231z" />
    <glyph glyph-name="uni2088" unicode="&#x2088;" horiz-adv-x="303" 
d="M230 1q0 -28 -14.5 -53.5t-45 -41.5t-77.5 -16q-61 0 -87 24t-26 56q0 25 15.5 47.5t51.5 42.5q-18 15 -25.5 34t-7.5 39q0 41 30.5 74t94.5 33q56 0 83.5 -23t27.5 -58q0 -24 -14 -44t-47 -39q41 -28 41 -75zM119 105l22 -8q18 14 24 25t6 23q0 25 -35 25
q-22 0 -33.5 -10t-11.5 -25q0 -21 28 -30zM60 -13q0 -27 40 -27q23 0 37.5 10t14.5 27q0 19 -32 30l-26 9q-19 -13 -26.5 -24.5t-7.5 -24.5z" />
    <glyph glyph-name="uni2089" unicode="&#x2089;" horiz-adv-x="303" 
d="M230 29q-13 -76 -51 -107.5t-97 -31.5q-22 0 -45 4t-50 15l23 71q21 -10 39 -13t34 -3q27 0 46 15t25 50l2 9q-34 -22 -71 -22q-44 0 -66.5 27.5t-16.5 76.5l2 16q7 47 38 75.5t88 28.5q65 0 94 -39t17 -108zM80 119q-5 -34 33 -34q26 0 54 21q9 61 -40 61
q-18 0 -30.5 -8t-14.5 -24z" />
    <glyph glyph-name="Euro" unicode="&#x20ac;" horiz-adv-x="602" 
d="M531 23q-55 -19 -101 -26t-80 -7q-69 0 -118 28t-75 77t-29 112h-92l16 87h83l13 76h-83l16 87h83q29 116 98 174.5t182 58.5q41 0 82.5 -9.5t89.5 -32.5l-45 -106q-43 19 -73 27t-62 8q-56 0 -92 -33t-55 -87h215l-34 -87h-199l-13 -76h186l-34 -87h-158
q5 -47 31.5 -75.5t78.5 -28.5q25 0 59.5 5t84.5 20z" />
    <glyph glyph-name="uni20B9" unicode="&#x20b9;" horiz-adv-x="552" 
d="M280 0q-37 50 -71.5 90.5t-71 79t-79.5 80.5l15 87h156q44 0 73.5 22.5t42.5 62.5h-257l16 87h256q2 39 -19.5 61.5t-65.5 22.5h-156l15 87h452l-15 -87h-132q31 -34 32 -84h85l-16 -87h-81q-16 -82 -77.5 -127t-167.5 -45h-6q42 -40 78 -78.5t70 -79.5t71 -92h-147z" />
    <glyph glyph-name="uni2113" unicode="&#x2113;" horiz-adv-x="393" 
d="M295 15q-28 -12 -60.5 -18.5t-61.5 -6.5q-61 0 -91.5 24.5t-37.5 62.5t0 81l65 367q8 46 28 83t55.5 59.5t87.5 22.5q36 0 68.5 -12t53 -41t20.5 -79q0 -40 -20 -87.5t-74 -107.5t-158 -139l-12 -70q-5 -32 5.5 -44t35.5 -12q15 0 36.5 4t42.5 11zM224 526l-30 -166
q47 44 71.5 78.5t33.5 60.5t9 44q0 23 -9.5 31t-22.5 8q-19 0 -32.5 -12t-19.5 -44z" />
    <glyph glyph-name="uni2116" unicode="&#x2116;" horiz-adv-x="1088" 
d="M1091 508l-5 -34q-11 -77 -58 -118t-118 -41q-79 0 -117.5 50.5t-27.5 126.5l5 34q11 76 57 117.5t119 41.5q78 0 117 -50t28 -127zM49 0l120 680h110q43 -87 77 -162.5t63.5 -150t57.5 -158.5l26 211l46 260h115l-120 -680h-110q-43 140 -89.5 261.5t-100.5 239.5
l-34 -241l-46 -260h-115zM1004 511q7 42 -9 67t-54 25q-30 0 -53.5 -19t-29.5 -58l-6 -37q-7 -43 9.5 -67.5t53.5 -24.5q31 0 54 19t29 58zM725 159l14 82h284l-14 -82h-284z" />
    <glyph glyph-name="trademark" unicode="&#x2122;" horiz-adv-x="734" 
d="M504 680l50 -177l114 177h92l-60 -340h-78l15 87l31 137l-109 -173h-45l-46 172l-18 -136l-15 -87h-78l60 340h87zM66 603l14 77h289l-14 -77h-104l-46 -263h-81l46 263h-104z" />
    <glyph glyph-name="uni2126" unicode="&#x2126;" horiz-adv-x="660" 
d="M342 0l39 220q50 16 79.5 56.5t39.5 97.5l7 42q13 73 -19.5 117t-106.5 44q-75 0 -119 -44t-57 -117l-7 -42q-10 -59 8 -100.5t62 -55.5l-38 -218h-219l19 109h110l9 50q-46 35 -65 95.5t-7 131.5l7 42q20 119 97.5 190.5t201.5 71.5q91 0 150.5 -38t84 -102.5
t10.5 -144.5l-7 -42q-11 -68 -46 -122.5t-97 -85.5l-8 -46h110l-19 -109h-219z" />
    <glyph glyph-name="estimated" unicode="&#x212e;" horiz-adv-x="813" 
d="M784 305h-583q-5 0 -5 -4v-176q0 -12 8 -20q42 -44 99 -70t122 -26q70 0 129.5 29t102.5 78h52q-49 -57 -123.5 -91.5t-161.5 -34.5q-75 0 -140 25t-114.5 69.5t-77.5 103.5t-28 126t28 126t77.5 103.5t114.5 69.5t140 25t140 -25t114.5 -69.5t77.5 -103.5t28 -126v-9z
M652 328v178q0 12 -9 21q-42 42 -98 67t-120 25t-121 -25.5t-99 -69.5q-9 -9 -9 -22v-174q0 -5 5 -5h447q4 0 4 5z" />
    <glyph glyph-name="uni2153" unicode="&#x2153;" horiz-adv-x="666" 
d="M83 632l105 48h60l-60 -340h-79l44 249l-47 -21zM496 680h94l-445 -680h-94zM605 85q-7 -40 -36 -65t-95 -25q-25 0 -51 5t-49 16l23 70q21 -8 40 -11.5t37 -3.5q49 0 55 29l1 7q2 14 -7 23.5t-30 9.5h-51l11 64h51q40 0 45 30l1 7q6 29 -40 29q-15 0 -33 -3.5t-43 -11.5
l-17 70q30 11 54.5 15.5t46.5 4.5q68 0 93 -29.5t20 -66.5l-1 -7q-3 -26 -19 -44t-40 -28q20 -11 30.5 -29t5.5 -44z" />
    <glyph glyph-name="uni2154" unicode="&#x2154;" horiz-adv-x="715" 
d="M270 413l-13 -73h-221l12 68q10 55 33.5 79.5t62.5 40.5l37 15q21 8 30 17t10 20l1 3q5 27 -38 27q-18 0 -38 -5t-47 -14l-13 71q31 13 57 18t50 5q46 0 70.5 -14t33 -36.5t4.5 -48.5l-1 -9q-4 -32 -26 -56.5t-67 -42.5l-37 -15q-21 -8 -30 -20.5t-12 -29.5h142zM545 680
h94l-445 -680h-94zM654 85q-7 -40 -36 -65t-95 -25q-25 0 -51 5t-49 16l23 70q21 -8 40 -11.5t37 -3.5q49 0 55 29l1 7q2 14 -7 23.5t-30 9.5h-51l11 64h51q40 0 45 30l1 7q6 29 -40 29q-15 0 -33 -3.5t-43 -11.5l-17 70q30 11 54.5 15.5t46.5 4.5q68 0 93 -29.5t20 -66.5
l-1 -7q-3 -26 -19 -44t-40 -28q20 -11 30.5 -29t5.5 -44z" />
    <glyph glyph-name="oneeighth" unicode="&#x215b;" horiz-adv-x="679" 
d="M83 632l105 48h60l-60 -340h-79l44 249l-47 -21zM496 680h94l-445 -680h-94zM625 106q0 -28 -14.5 -53.5t-45 -41.5t-77.5 -16q-61 0 -87 24t-26 56q0 25 15.5 47.5t51.5 42.5q-18 15 -25.5 34t-7.5 39q0 41 30.5 74t94.5 33q56 0 83.5 -23t27.5 -58q0 -24 -14 -44
t-47 -39q41 -28 41 -75zM514 210l22 -8q18 14 24 25t6 23q0 25 -35 25q-22 0 -33.5 -10t-11.5 -25q0 -21 28 -30zM455 92q0 -27 40 -27q23 0 37.5 10t14.5 27q0 19 -32 30l-26 9q-19 -13 -26.5 -24.5t-7.5 -24.5z" />
    <glyph glyph-name="threeeighths" unicode="&#x215c;" horiz-adv-x="719" 
d="M273 425q-7 -40 -36 -65t-95 -25q-25 0 -51 5t-49 16l23 70q21 -8 40 -11.5t37 -3.5q49 0 55 29l1 7q2 14 -7 23.5t-30 9.5h-51l11 64h51q40 0 45 30l1 7q6 29 -40 29q-15 0 -33 -3.5t-43 -11.5l-17 70q30 11 54.5 15.5t46.5 4.5q68 0 93 -29.5t20 -66.5l-1 -7
q-3 -26 -19 -44t-40 -28q20 -11 30.5 -29t5.5 -44zM536 680h94l-445 -680h-94zM665 106q0 -28 -14.5 -53.5t-45 -41.5t-77.5 -16q-61 0 -87 24t-26 56q0 25 15.5 47.5t51.5 42.5q-18 15 -25.5 34t-7.5 39q0 41 30.5 74t94.5 33q56 0 83.5 -23t27.5 -58q0 -24 -14 -44
t-47 -39q41 -28 41 -75zM554 210l22 -8q18 14 24 25t6 23q0 25 -35 25q-22 0 -33.5 -10t-11.5 -25q0 -21 28 -30zM495 92q0 -27 40 -27q23 0 37.5 10t14.5 27q0 19 -32 30l-26 9q-19 -13 -26.5 -24.5t-7.5 -24.5z" />
    <glyph glyph-name="fiveeighths" unicode="&#x215d;" horiz-adv-x="725" 
d="M82 516l39 164h191l-12 -69h-126l-14 -58q15 3 31 3q51 0 78.5 -27.5t17.5 -80.5l-3 -16q-8 -43 -38.5 -70t-94.5 -27q-25 0 -50 5t-53 17l23 71q23 -10 43 -13.5t38 -3.5q48 0 53 33l3 14q2 14 -7 23t-32 9q-25 0 -55 -11zM542 680h94l-445 -680h-94zM671 106
q0 -28 -14.5 -53.5t-45 -41.5t-77.5 -16q-61 0 -87 24t-26 56q0 25 15.5 47.5t51.5 42.5q-18 15 -25.5 34t-7.5 39q0 41 30.5 74t94.5 33q56 0 83.5 -23t27.5 -58q0 -24 -14 -44t-47 -39q41 -28 41 -75zM560 210l22 -8q18 14 24 25t6 23q0 25 -35 25q-22 0 -33.5 -10
t-11.5 -25q0 -21 28 -30zM501 92q0 -27 40 -27q23 0 37.5 10t14.5 27q0 19 -32 30l-26 9q-19 -13 -26.5 -24.5t-7.5 -24.5z" />
    <glyph glyph-name="seveneighths" unicode="&#x215e;" horiz-adv-x="692" 
d="M301 609q-44 -68 -80.5 -135t-61.5 -134h-84q25 66 59 132t79 132h-143l13 76h231zM509 680h94l-445 -680h-94zM638 106q0 -28 -14.5 -53.5t-45 -41.5t-77.5 -16q-61 0 -87 24t-26 56q0 25 15.5 47.5t51.5 42.5q-18 15 -25.5 34t-7.5 39q0 41 30.5 74t94.5 33
q56 0 83.5 -23t27.5 -58q0 -24 -14 -44t-47 -39q41 -28 41 -75zM527 210l22 -8q18 14 24 25t6 23q0 25 -35 25q-22 0 -33.5 -10t-11.5 -25q0 -21 28 -30zM468 92q0 -27 40 -27q23 0 37.5 10t14.5 27q0 19 -32 30l-26 9q-19 -13 -26.5 -24.5t-7.5 -24.5z" />
    <glyph glyph-name="arrowleft" unicode="&#x2190;" horiz-adv-x="651" 
d="M345 188l-48 -62l-256 202v57l256 202l48 -62l-133 -123h410v-88h-414z" />
    <glyph glyph-name="arrowup" unicode="&#x2191;" horiz-adv-x="651" 
d="M504 344l-123 133v-410h-88v414l-126 -137l-62 48l202 256h57l202 -256z" />
    <glyph glyph-name="arrowright" unicode="&#x2192;" horiz-adv-x="651" 
d="M630 330l-256 -202l-48 62l133 123h-410v88h414l-137 126l48 62l256 -202v-57z" />
    <glyph glyph-name="arrowdown" unicode="&#x2193;" horiz-adv-x="651" 
d="M566 325l-202 -256h-57l-202 256l62 48l123 -133v410h88v-414l126 137z" />
    <glyph glyph-name="arrowboth" unicode="&#x2194;" horiz-adv-x="793" 
d="M353 188l-48 -62l-256 202v57l256 202l48 -62l-133 -123h393l-137 126l48 62l256 -202v-57l-256 -202l-48 62l133 123h-393z" />
    <glyph glyph-name="arrowupdn" unicode="&#x2195;" horiz-adv-x="651" 
d="M568 249l-202 -256h-57l-202 256l62 48l123 -133v393l-126 -137l-62 48l202 256h57l202 -256l-62 -48l-123 133v-393l126 137z" />
    <glyph glyph-name="uni2196" unicode="&#x2196;" horiz-adv-x="651" 
d="M569 184l-62 -62l-293 292l8 -186l-78 -10l-38 324l40 41l324 -39l-10 -77l-181 7z" />
    <glyph glyph-name="uni2197" unicode="&#x2197;" horiz-adv-x="651" 
d="M445 229l7 181l-290 -290l-62 63l292 292l-185 -7l-10 77l324 39l40 -41l-38 -324z" />
    <glyph glyph-name="uni2198" unicode="&#x2198;" horiz-adv-x="651" 
d="M557 174l-40 -41l-324 39l10 77l181 -7l-290 290l62 62l292 -292l-7 186l78 10z" />
    <glyph glyph-name="uni2199" unicode="&#x2199;" horiz-adv-x="651" 
d="M470 173l-324 -39l-40 41l38 324l78 -10l-8 -182l291 291l62 -63l-292 -292l185 7z" />
    <glyph glyph-name="partialdiff" unicode="&#x2202;" horiz-adv-x="540" 
d="M479 229q-28 -113 -95 -176t-168 -63q-67 0 -113 31t-63.5 85.5t-1.5 125.5l7 30q20 88 74.5 131t118.5 43q44 0 86 -21t63 -71q13 94 -25 174t-132 147l65 85q74 -52 118.5 -113.5t65 -126.5t22 -126.5t-11.5 -114.5zM150 216q-12 -52 7.5 -87.5t63.5 -35.5t80.5 32.5
t59.5 103.5q-15 51 -44.5 75.5t-62.5 24.5q-31 0 -59.5 -21.5t-37.5 -61.5z" />
    <glyph glyph-name="uni2206" unicode="&#x2206;" horiz-adv-x="563" 
d="M499 94l-17 -94h-491l17 94l295 586h106zM246 341l-116 -237h253l-33 237l-21 173z" />
    <glyph glyph-name="product" unicode="&#x220f;" horiz-adv-x="700" 
d="M76 565l20 115h658l-20 -115h-82l-125 -708h-120l125 708h-254l-125 -708h-120l125 708h-82z" />
    <glyph glyph-name="summation" unicode="&#x2211;" horiz-adv-x="530" 
d="M-23 -38l292 307l-184 306l19 105h479l-20 -115h-326l160 -270l-12 -67l-242 -256h335l-20 -115h-499z" />
    <glyph glyph-name="minus" unicode="&#x2212;" 
d="M89 265l17 100h414l-17 -100h-414z" />
    <glyph glyph-name="uni2215" unicode="&#x2215;" horiz-adv-x="111" 
d="M246 680h94l-445 -680h-94z" />
    <glyph glyph-name="radical" unicode="&#x221a;" 
d="M22 285l18 100h180l45 -225l292 520h114l-391 -680h-81l-64 285h-113z" />
    <glyph glyph-name="infinity" unicode="&#x221e;" horiz-adv-x="771" 
d="M747 356q0 -72 -26 -128.5t-74.5 -89t-116.5 -32.5q-59 0 -99 25.5t-63 71.5q-34 -51 -76 -74t-89 -23q-69 0 -112 45.5t-43 136.5q0 73 26 129t75 88.5t116 32.5q59 0 99.5 -25t62.5 -72q34 51 76 74t89 23q69 0 112 -45t43 -137zM156 304q0 -40 19 -60t53 -20
q29 0 56.5 17t56.5 56l-8 37q-9 42 -26 64t-52 22q-43 0 -71 -33t-28 -83zM462 310q9 -42 26 -64t52 -22q43 0 71 33.5t28 82.5q0 40 -19 60t-53 20q-29 0 -56.5 -17t-56.5 -56z" />
    <glyph glyph-name="integral" unicode="&#x222b;" horiz-adv-x="355" 
d="M45 -33l158 593q16 60 36.5 102.5t55.5 65t94 22.5q29 0 58.5 -5t53.5 -15l-36 -99q-18 7 -35.5 9t-28.5 2q-34 0 -52 -17.5t-31 -64.5l-158 -593q-16 -60 -36.5 -102.5t-55.5 -65t-94 -22.5q-28 0 -58 5t-54 15l36 99q18 -7 35.5 -9t28.5 -2q35 0 52.5 18t30.5 64z" />
    <glyph glyph-name="approxequal" unicode="&#x2248;" 
d="M403 320q-36 0 -60.5 16t-42 37t-31.5 37t-29 16q-5 0 -14 -5.5t-20.5 -25.5t-25.5 -65l-87 20q22 75 47 112.5t51.5 50.5t50.5 13q35 0 59.5 -16t42 -37t31.5 -37t29 -16q6 0 15 5.5t21 26.5t27 65l86 -20q-21 -75 -46.5 -113t-52 -51t-51.5 -13zM365 100
q-36 0 -60.5 16t-42 37t-31.5 37t-29 16q-5 0 -14 -5t-20.5 -25.5t-25.5 -65.5l-87 20q22 75 47 112.5t51.5 50.5t50.5 13q35 0 59.5 -16t42 -37t31.5 -37t29 -16q6 0 15 5.5t21 26t27 65.5l86 -20q-21 -75 -46.5 -113t-52 -51t-51.5 -13z" />
    <glyph glyph-name="notequal" unicode="&#x2260;" 
d="M485 165h-231l-86 -136l-64 39l62 97h-95l18 100h140l63 99h-186l18 100h231l86 135l64 -39l-61 -96h94l-18 -100h-140l-62 -99h185z" />
    <glyph glyph-name="lessequal" unicode="&#x2264;" 
d="M496 228l-19 -104l-384 168l14 81l443 165l-20 -112l-277 -98zM42 0l18 100h414l-18 -100h-414z" />
    <glyph glyph-name="greaterequal" unicode="&#x2265;" 
d="M507 289l-443 -165l20 112l277 98l-243 100l19 104l384 -168zM42 0l18 100h414l-18 -100h-414z" />
    <glyph glyph-name="lozenge" unicode="&#x25ca;" 
d="M212 0l-108 340l225 340h77l108 -340l-225 -340h-77zM214 335l58 -196l134 206l-60 195z" />
    <glyph glyph-name="uniF6C3" unicode="&#xf6c3;" horiz-adv-x="500" 
d="M146 -256l-74 17l58 162h124z" />
    <glyph glyph-name="A.alt" horiz-adv-x="730" 
d="M63 412q24 140 92 204t195 64h207l108 -680h-120l-19 133h-232l-7 -14q-37 -76 -75 -138.5t-86 -108t-112 -70.5t-153 -25l20 115q54 0 101 19.5t91.5 68.5t90.5 139l233 456h-61q-70 0 -107.5 -37t-52.5 -126h-113zM395 341l-48 -98h164l-14 98l-20 172z" />
    <glyph glyph-name="Aacute.alt" horiz-adv-x="730" 
d="M63 412q24 140 92 204t195 64h207l108 -680h-120l-19 133h-232l-7 -14q-37 -76 -75 -138.5t-86 -108t-112 -70.5t-153 -25l20 115q54 0 101 19.5t91.5 68.5t90.5 139l233 456h-61q-70 0 -107.5 -37t-52.5 -126h-113zM395 341l-48 -98h164l-14 98l-20 172zM568 752h-106
l125 166l105 -46z" />
    <glyph glyph-name="Abreve.alt" horiz-adv-x="730" 
d="M63 412q24 140 92 204t195 64h207l108 -680h-120l-19 133h-232l-7 -14q-37 -76 -75 -138.5t-86 -108t-112 -70.5t-153 -25l20 115q54 0 101 19.5t91.5 68.5t90.5 139l233 456h-61q-70 0 -107.5 -37t-52.5 -126h-113zM395 341l-48 -98h164l-14 98l-20 172zM529 839
q21 0 35 14.5t22 50.5h90q-19 -78 -56 -112t-96 -34t-91.5 34t-24.5 112h84q-5 -36 5 -50.5t32 -14.5z" />
    <glyph glyph-name="Acircumflex.alt" horiz-adv-x="730" 
d="M63 412q24 140 92 204t195 64h207l108 -680h-120l-19 133h-232l-7 -14q-37 -76 -75 -138.5t-86 -108t-112 -70.5t-153 -25l20 115q54 0 101 19.5t91.5 68.5t90.5 139l233 456h-61q-70 0 -107.5 -37t-52.5 -126h-113zM395 341l-48 -98h164l-14 98l-20 172zM578 752l-47 80
l-75 -80h-94l124 161h112l68 -161h-88z" />
    <glyph glyph-name="Adieresis.alt" horiz-adv-x="730" 
d="M63 412q24 140 92 204t195 64h207l108 -680h-120l-19 133h-232l-7 -14q-37 -76 -75 -138.5t-86 -108t-112 -70.5t-153 -25l20 115q54 0 101 19.5t91.5 68.5t90.5 139l233 456h-61q-70 0 -107.5 -37t-52.5 -126h-113zM395 341l-48 -98h164l-14 98l-20 172zM477 782h-109
l19 107h109zM671 782h-109l19 107h109z" />
    <glyph glyph-name="Agrave.alt" horiz-adv-x="730" 
d="M63 412q24 140 92 204t195 64h207l108 -680h-120l-19 133h-232l-7 -14q-37 -76 -75 -138.5t-86 -108t-112 -70.5t-153 -25l20 115q54 0 101 19.5t91.5 68.5t90.5 139l233 456h-61q-70 0 -107.5 -37t-52.5 -126h-113zM395 341l-48 -98h164l-14 98l-20 172zM466 752
l-82 120l111 46l67 -166h-96z" />
    <glyph glyph-name="Amacron.alt" horiz-adv-x="730" 
d="M63 412q24 140 92 204t195 64h207l108 -680h-120l-19 133h-232l-7 -14q-37 -76 -75 -138.5t-86 -108t-112 -70.5t-153 -25l20 115q54 0 101 19.5t91.5 68.5t90.5 139l233 456h-61q-70 0 -107.5 -37t-52.5 -126h-113zM395 341l-48 -98h164l-14 98l-20 172zM686 865
l-15 -83h-303l15 83h303z" />
    <glyph glyph-name="Aogonek.alt" horiz-adv-x="730" 
d="M63 412q24 140 92 204t195 64h207l108 -680q-47 -34 -71 -55t-32.5 -34t-8.5 -25q0 -19 26 -19q20 0 48 9l11 -83q-44 -16 -87 -16q-48 0 -76 21t-28 61q0 27 18.5 60.5t79.5 79.5l-18 134h-233l-7 -14q-37 -76 -75 -138.5t-86 -108t-112 -70.5t-153 -25l20 115
q54 0 101 19.5t91.5 68.5t90.5 139l233 456h-61q-70 0 -107.5 -37t-52.5 -126h-113zM395 341l-48 -98h164l-14 98l-20 172z" />
    <glyph glyph-name="Aring.alt" horiz-adv-x="601" 
d="M158 119q-37 -76 -75 -138.5t-86 -108t-112 -70.5t-153 -25l20 115q54 0 101 19.5t91.5 68.5t90.5 139l263 514q-22 16 -31.5 41.5t-2.5 58.5l3 15q10 47 44 76t86 29q56 0 86.5 -34.5t19.5 -86.5l-3 -15q-6 -29 -22 -52t-42 -36l100 -629h-120l-19 133h-232zM434 741
q5 21 -7 33.5t-35 12.5q-22 0 -36.5 -12.5t-19.5 -33.5l-3 -15q-4 -21 7 -33.5t33 -12.5q23 0 38.5 12.5t19.5 33.5zM266 341l-48 -98h164l-14 98l-20 172z" />
    <glyph glyph-name="Atilde.alt" horiz-adv-x="730" 
d="M63 412q24 140 92 204t195 64h207l108 -680h-120l-19 133h-232l-7 -14q-37 -76 -75 -138.5t-86 -108t-112 -70.5t-153 -25l20 115q54 0 101 19.5t91.5 68.5t90.5 139l233 456h-61q-70 0 -107.5 -37t-52.5 -126h-113zM395 341l-48 -98h164l-14 98l-20 172zM586 761
q-28 0 -45 10.5t-27.5 24.5t-18.5 24.5t-18 10.5q-8 0 -15 -12t-15 -50h-81q11 63 28 96.5t39 45.5t45 12q27 0 44 -10.5t27 -24.5t18 -24.5t18 -10.5q8 0 15.5 12.5t14.5 49.5h81q-10 -63 -27.5 -96.5t-38.5 -45.5t-44 -12z" />
    <glyph glyph-name="B.alt" horiz-adv-x="775" 
d="M49 412q24 140 92 204t195 64h219q101 0 148.5 -52t33.5 -136l-5 -30q-6 -37 -25.5 -66t-53.5 -48q38 -22 54 -59.5t8 -86.5l-5 -30q-9 -55 -33 -93t-70.5 -58.5t-123.5 -20.5h-245l101 575h-17q-70 0 -107.5 -37t-52.5 -126h-113zM546 570h-87l-30 -170h87q39 0 63 15.5
t29 43.5l6 33q7 36 -11 57t-57 21zM521 290h-112l-32 -180h112q42 0 67.5 17t30.5 47l6 33q7 38 -12 60.5t-60 22.5z" />
    <glyph glyph-name="D.alt" horiz-adv-x="828" 
d="M49 412q24 140 92 204t195 64h232q81 0 135.5 -36.5t77 -99t8.5 -142.5l-22 -123q-23 -132 -94 -205.5t-194 -73.5h-241l101 575h-17q-70 0 -107.5 -37t-52.5 -126h-113zM560 565h-102l-80 -450h107q68 0 106.5 42.5t52.5 121.5l22 123q14 74 -11.5 118.5t-94.5 44.5z
" />
    <glyph glyph-name="Dcaron.alt" horiz-adv-x="828" 
d="M49 412q24 140 92 204t195 64h232q81 0 135.5 -36.5t77 -99t8.5 -142.5l-22 -123q-23 -132 -94 -205.5t-194 -73.5h-241l101 575h-17q-70 0 -107.5 -37t-52.5 -126h-113zM560 565h-102l-80 -450h107q68 0 106.5 42.5t52.5 121.5l22 123q14 74 -11.5 118.5t-94.5 44.5z
M773 913l-124 -161h-112l-68 161h88l47 -80l75 80h94z" />
    <glyph glyph-name="E.alt" horiz-adv-x="725" 
d="M49 412q24 140 92 204t195 64h406l-20 -115h-264l-29 -163h234l-20 -115h-234l-31 -172h274l-20 -115h-394l101 575h-17q-70 0 -107.5 -37t-52.5 -126h-113z" />
    <glyph glyph-name="Eacute.alt" horiz-adv-x="725" 
d="M49 412q24 140 92 204t195 64h406l-20 -115h-264l-29 -163h234l-20 -115h-234l-31 -172h274l-20 -115h-394l101 575h-17q-70 0 -107.5 -37t-52.5 -126h-113zM613 752h-106l125 166l105 -46z" />
    <glyph glyph-name="Ebreve.alt" horiz-adv-x="725" 
d="M49 412q24 140 92 204t195 64h406l-20 -115h-264l-29 -163h234l-20 -115h-234l-31 -172h274l-20 -115h-394l101 575h-17q-70 0 -107.5 -37t-52.5 -126h-113zM574 839q21 0 35 14.5t22 50.5h90q-19 -78 -56 -112t-96 -34t-91.5 34t-24.5 112h84q-5 -36 5 -50.5t32 -14.5z
" />
    <glyph glyph-name="Ecaron.alt" horiz-adv-x="725" 
d="M49 412q24 140 92 204t195 64h406l-20 -115h-264l-29 -163h234l-20 -115h-234l-31 -172h274l-20 -115h-394l101 575h-17q-70 0 -107.5 -37t-52.5 -126h-113zM739 913l-124 -161h-112l-68 161h88l47 -80l75 80h94z" />
    <glyph glyph-name="Ecircumflex.alt" horiz-adv-x="725" 
d="M49 412q24 140 92 204t195 64h406l-20 -115h-264l-29 -163h234l-20 -115h-234l-31 -172h274l-20 -115h-394l101 575h-17q-70 0 -107.5 -37t-52.5 -126h-113zM623 752l-47 80l-75 -80h-94l124 161h112l68 -161h-88z" />
    <glyph glyph-name="Edieresis.alt" horiz-adv-x="725" 
d="M49 412q24 140 92 204t195 64h406l-20 -115h-264l-29 -163h234l-20 -115h-234l-31 -172h274l-20 -115h-394l101 575h-17q-70 0 -107.5 -37t-52.5 -126h-113zM523 782h-109l19 107h109zM717 782h-109l19 107h109z" />
    <glyph glyph-name="Edotaccent.alt" horiz-adv-x="725" 
d="M49 412q24 140 92 204t195 64h406l-20 -115h-264l-29 -163h234l-20 -115h-234l-31 -172h274l-20 -115h-394l101 575h-17q-70 0 -107.5 -37t-52.5 -126h-113zM625 776h-121l21 119h121z" />
    <glyph glyph-name="Egrave.alt" horiz-adv-x="725" 
d="M49 412q24 140 92 204t195 64h406l-20 -115h-264l-29 -163h234l-20 -115h-234l-31 -172h274l-20 -115h-394l101 575h-17q-70 0 -107.5 -37t-52.5 -126h-113zM511 752l-82 120l111 46l67 -166h-96z" />
    <glyph glyph-name="Emacron.alt" horiz-adv-x="725" 
d="M49 412q24 140 92 204t195 64h406l-20 -115h-264l-29 -163h234l-20 -115h-234l-31 -172h274l-20 -115h-394l101 575h-17q-70 0 -107.5 -37t-52.5 -126h-113zM732 865l-15 -83h-303l15 83h303z" />
    <glyph glyph-name="Eogonek.alt" horiz-adv-x="725" 
d="M49 412q24 140 92 204t195 64h406l-20 -115h-264l-29 -163h234l-20 -115h-234l-31 -172h274l-20 -115q-47 -34 -71 -55t-32.5 -34t-8.5 -25q0 -19 26 -19q20 0 48 9l11 -83q-44 -16 -87 -16q-48 0 -76 21t-28 61q0 27 21.5 59.5t87.5 81.5h-285l101 575h-17
q-70 0 -107.5 -37t-52.5 -126h-113z" />
    <glyph glyph-name="F.alt" horiz-adv-x="694" 
d="M49 412q24 140 92 204t195 64h400l-20 -115h-258l-34 -189h228l-20 -115h-228l-46 -261h-120l101 575h-17q-70 0 -107.5 -37t-52.5 -126h-113z" />
    <glyph glyph-name="G.alt" horiz-adv-x="604" 
d="M505 31q-12 -67 -31.5 -115t-54.5 -79t-91.5 -45.5t-141.5 -14.5l19 105q62 0 100 11.5t59.5 43.5t31.5 93q-54 -19 -106 -19q-81 0 -135 38.5t-75.5 104.5t-8.5 147l17 101q24 142 98.5 215t207.5 73q44 0 90.5 -9.5t98.5 -32.5l-45 -105q-47 19 -82 26.5t-67 7.5
q-79 0 -122 -49t-56 -126l-17 -101q-8 -51 0.5 -91t37.5 -63t81 -23q21 0 45.5 4.5t57.5 14.5l22 126h-111l19 105h219z" />
    <glyph glyph-name="Gbreve.alt" horiz-adv-x="604" 
d="M505 31q-12 -67 -31.5 -115t-54.5 -79t-91.5 -45.5t-141.5 -14.5l19 105q62 0 100 11.5t59.5 43.5t31.5 93q-54 -19 -106 -19q-81 0 -135 38.5t-75.5 104.5t-8.5 147l17 101q24 142 98.5 215t207.5 73q44 0 90.5 -9.5t98.5 -32.5l-45 -105q-47 19 -82 26.5t-67 7.5
q-79 0 -122 -49t-56 -126l-17 -101q-8 -51 0.5 -91t37.5 -63t81 -23q21 0 45.5 4.5t57.5 14.5l22 126h-111l19 105h219zM426 839q21 0 35 14.5t22 50.5h90q-19 -78 -56 -112t-96 -34t-91.5 34t-24.5 112h84q-5 -36 5 -50.5t32 -14.5z" />
    <glyph glyph-name="Gcircumflex.alt" horiz-adv-x="604" 
d="M505 31q-12 -67 -31.5 -115t-54.5 -79t-91.5 -45.5t-141.5 -14.5l19 105q62 0 100 11.5t59.5 43.5t31.5 93q-54 -19 -106 -19q-81 0 -135 38.5t-75.5 104.5t-8.5 147l17 101q24 142 98.5 215t207.5 73q44 0 90.5 -9.5t98.5 -32.5l-45 -105q-47 19 -82 26.5t-67 7.5
q-79 0 -122 -49t-56 -126l-17 -101q-8 -51 0.5 -91t37.5 -63t81 -23q21 0 45.5 4.5t57.5 14.5l22 126h-111l19 105h219zM475 752l-47 80l-75 -80h-94l124 161h112l68 -161h-88z" />
    <glyph glyph-name="Gdotaccent.alt" horiz-adv-x="604" 
d="M505 31q-12 -67 -31.5 -115t-54.5 -79t-91.5 -45.5t-141.5 -14.5l19 105q62 0 100 11.5t59.5 43.5t31.5 93q-54 -19 -106 -19q-81 0 -135 38.5t-75.5 104.5t-8.5 147l17 101q24 142 98.5 215t207.5 73q44 0 90.5 -9.5t98.5 -32.5l-45 -105q-47 19 -82 26.5t-67 7.5
q-79 0 -122 -49t-56 -126l-17 -101q-8 -51 0.5 -91t37.5 -63t81 -23q21 0 45.5 4.5t57.5 14.5l22 126h-111l19 105h219zM476 776h-121l21 119h121z" />
    <glyph glyph-name="H.alt" horiz-adv-x="871" 
d="M49 412q24 140 92 204t195 64h142l-49 -278h254l49 278h120l-120 -680h-120l51 287h-254l-51 -287h-120l101 575h-17q-70 0 -107.5 -37t-52.5 -126h-113z" />
    <glyph glyph-name="Hcircumflex.alt" horiz-adv-x="871" 
d="M49 412q24 140 92 204t195 64h142l-49 -278h254l49 278h120l-120 -680h-120l51 287h-254l-51 -287h-120l101 575h-17q-70 0 -107.5 -37t-52.5 -126h-113zM678 752l-47 80l-75 -80h-94l124 161h112l68 -161h-88z" />
    <glyph glyph-name="J.alt" horiz-adv-x="495" 
d="M49 412q24 140 92 204t195 64h158l-77 -436q-12 -67 -31.5 -115t-54.5 -79t-91.5 -45.5t-141.5 -14.5l21 115q58 0 93.5 11t55 41t29.5 87l58 331h-33q-70 0 -107.5 -37t-52.5 -126h-113z" />
    <glyph glyph-name="Jcircumflex.alt" horiz-adv-x="495" 
d="M49 412q24 140 92 204t195 64h158l-77 -436q-12 -67 -31.5 -115t-54.5 -79t-91.5 -45.5t-141.5 -14.5l21 115q58 0 93.5 11t55 41t29.5 87l58 331h-33q-70 0 -107.5 -37t-52.5 -126h-113zM507 752l-47 80l-75 -80h-94l124 161h112l68 -161h-88z" />
    <glyph glyph-name="K.alt" horiz-adv-x="803" 
d="M49 412q24 140 92 204t195 64h142l-55 -313q88 83 154 160t117 153h138q-59 -85 -122 -160t-129 -141l161 -379h-137l-119 303l-44 -40t-45 -41l-39 -222h-120l101 575h-17q-70 0 -107.5 -37t-52.5 -126h-113z" />
    <glyph glyph-name="uni0136.alt" horiz-adv-x="803" 
d="M49 412q24 140 92 204t195 64h142l-55 -313q88 83 154 160t117 153h138q-59 -85 -122 -160t-129 -141l161 -379h-137l-119 303l-44 -40t-45 -41l-39 -222h-120l101 575h-17q-70 0 -107.5 -37t-52.5 -126h-113zM421 -256l-74 17l58 162h124z" />
    <glyph glyph-name="L.alt" horiz-adv-x="696" 
d="M49 412q24 140 92 204t195 64h142l-100 -565h272l-20 -115h-392l101 575h-17q-70 0 -107.5 -37t-52.5 -126h-113z" />
    <glyph glyph-name="Lacute.alt" horiz-adv-x="696" 
d="M49 412q24 140 92 204t195 64h142l-100 -565h272l-20 -115h-392l101 575h-17q-70 0 -107.5 -37t-52.5 -126h-113zM480 752h-106l125 166l105 -46z" />
    <glyph glyph-name="Lcaron.alt" horiz-adv-x="696" 
d="M49 412q24 140 92 204t195 64h142l-100 -565h272l-20 -115h-392l101 575h-17q-70 0 -107.5 -37t-52.5 -126h-113zM617 486h-77l34 194h113z" />
    <glyph glyph-name="uni013B.alt" horiz-adv-x="696" 
d="M49 412q24 140 92 204t195 64h142l-100 -565h272l-20 -115h-392l101 575h-17q-70 0 -107.5 -37t-52.5 -126h-113zM378 -256l-74 17l58 162h124z" />
    <glyph glyph-name="M.alt" horiz-adv-x="1018" 
d="M484 680l108 -468l274 468h133l-120 -680h-115l46 260l56 232l-242 -412h-107l-91 418l-27 -238l-46 -260h-115l101 575h-17q-70 0 -107.5 -37t-52.5 -126h-113q24 140 92 204t195 64h148z" />
    <glyph glyph-name="N.alt" horiz-adv-x="872" 
d="M49 412q24 140 92 204t195 64h132q43 -87 77 -162.5t63.5 -150t57.5 -158.5l26 211l46 260h115l-120 -680h-110q-43 140 -89.5 261.5t-100.5 239.5l-34 -241l-46 -260h-115l101 575h-17q-70 0 -107.5 -37t-52.5 -126h-113z" />
    <glyph glyph-name="Nacute.alt" horiz-adv-x="872" 
d="M49 412q24 140 92 204t195 64h132q43 -87 77 -162.5t63.5 -150t57.5 -158.5l26 211l46 260h115l-120 -680h-110q-43 140 -89.5 261.5t-100.5 239.5l-34 -241l-46 -260h-115l101 575h-17q-70 0 -107.5 -37t-52.5 -126h-113zM669 752h-106l125 166l105 -46z" />
    <glyph glyph-name="Ncaron.alt" horiz-adv-x="872" 
d="M49 412q24 140 92 204t195 64h132q43 -87 77 -162.5t63.5 -150t57.5 -158.5l26 211l46 260h115l-120 -680h-110q-43 140 -89.5 261.5t-100.5 239.5l-34 -241l-46 -260h-115l101 575h-17q-70 0 -107.5 -37t-52.5 -126h-113zM795 913l-124 -161h-112l-68 161h88l47 -80
l75 80h94z" />
    <glyph glyph-name="uni0145.alt" horiz-adv-x="872" 
d="M49 412q24 140 92 204t195 64h132q43 -87 77 -162.5t63.5 -150t57.5 -158.5l26 211l46 260h115l-120 -680h-110q-43 140 -89.5 261.5t-100.5 239.5l-34 -241l-46 -260h-115l101 575h-17q-70 0 -107.5 -37t-52.5 -126h-113zM426 -256l-74 17l58 162h124z" />
    <glyph glyph-name="Eng.alt" horiz-adv-x="872" 
d="M49 412q24 140 92 204t195 64h132q43 -87 77 -162.5t63.5 -150t57.5 -158.5l26 211l46 260h115l-115 -649q-12 -66 -31.5 -114t-54.5 -79t-91.5 -46t-141.5 -15l21 115q57 0 92 11t54.5 39t29.5 80q-41 133 -86 250t-97 229l-34 -241l-46 -260h-115l101 575h-17
q-70 0 -107.5 -37t-52.5 -126h-113z" />
    <glyph glyph-name="Ntilde.alt" horiz-adv-x="872" 
d="M49 412q24 140 92 204t195 64h132q43 -87 77 -162.5t63.5 -150t57.5 -158.5l26 211l46 260h115l-120 -680h-110q-43 140 -89.5 261.5t-100.5 239.5l-34 -241l-46 -260h-115l101 575h-17q-70 0 -107.5 -37t-52.5 -126h-113zM687 761q-28 0 -45 10.5t-27.5 24.5t-18.5 24.5
t-18 10.5q-8 0 -15 -12t-15 -50h-81q11 63 28 96.5t39 45.5t45 12q27 0 44 -10.5t27 -24.5t18 -24.5t18 -10.5q8 0 15.5 12.5t14.5 49.5h81q-10 -63 -27.5 -96.5t-38.5 -45.5t-44 -12z" />
    <glyph glyph-name="P.alt" horiz-adv-x="763" 
d="M49 412q24 140 92 204t195 64h233q107 0 156 -57.5t34 -152.5l-9 -56q-13 -84 -70.5 -134t-163.5 -50h-117l-41 -230h-120l101 575h-17q-70 0 -107.5 -37t-52.5 -126h-113zM562 565h-104l-39 -220h104q44 0 71.5 19.5t33.5 54.5l9 53q8 44 -11.5 68.5t-63.5 24.5z" />
    <glyph glyph-name="R.alt" horiz-adv-x="798" 
d="M49 412q24 140 92 204t195 64h236q73 0 119 -27t64.5 -74t7.5 -106l-8 -45q-21 -115 -123 -158q57 -135 90 -270h-130q-27 127 -75 250h-115l-44 -250h-120l101 575h-17q-70 0 -107.5 -37t-52.5 -126h-113zM566 570h-107l-37 -210h106q44 0 71 20.5t34 54.5l8 43
q8 44 -11.5 68t-63.5 24z" />
    <glyph glyph-name="Racute.alt" horiz-adv-x="798" 
d="M49 412q24 140 92 204t195 64h236q73 0 119 -27t64.5 -74t7.5 -106l-8 -45q-21 -115 -123 -158q57 -135 90 -270h-130q-27 127 -75 250h-115l-44 -250h-120l101 575h-17q-70 0 -107.5 -37t-52.5 -126h-113zM566 570h-107l-37 -210h106q44 0 71 20.5t34 54.5l8 43
q8 44 -11.5 68t-63.5 24zM632 752h-106l125 166l105 -46z" />
    <glyph glyph-name="Rcaron.alt" horiz-adv-x="798" 
d="M49 412q24 140 92 204t195 64h236q73 0 119 -27t64.5 -74t7.5 -106l-8 -45q-21 -115 -123 -158q57 -135 90 -270h-130q-27 127 -75 250h-115l-44 -250h-120l101 575h-17q-70 0 -107.5 -37t-52.5 -126h-113zM566 570h-107l-37 -210h106q44 0 71 20.5t34 54.5l8 43
q8 44 -11.5 68t-63.5 24zM758 913l-124 -161h-112l-68 161h88l47 -80l75 80h94z" />
    <glyph glyph-name="uni0156.alt" horiz-adv-x="798" 
d="M49 412q24 140 92 204t195 64h236q73 0 119 -27t64.5 -74t7.5 -106l-8 -45q-21 -115 -123 -158q57 -135 90 -270h-130q-27 127 -75 250h-115l-44 -250h-120l101 575h-17q-70 0 -107.5 -37t-52.5 -126h-113zM566 570h-107l-37 -210h106q44 0 71 20.5t34 54.5l8 43
q8 44 -11.5 68t-63.5 24zM410 -256l-74 17l58 162h124z" />
    <glyph glyph-name="T.alt" horiz-adv-x="641" 
d="M49 412q24 140 92 204t195 64h367l-20 -115h-190l-100 -565h-120l100 565h-52q-70 0 -107.5 -35t-51.5 -118h-113z" />
    <glyph glyph-name="Tbar.alt" horiz-adv-x="641" 
d="M552 268h-112l-47 -268h-120l47 268h-112l19 109h113l33 188h-52q-70 0 -107.5 -35t-51.5 -118h-113q24 140 92 204t195 64h367l-20 -115h-190l-33 -188h111z" />
    <glyph glyph-name="Tcaron.alt" horiz-adv-x="641" 
d="M49 412q24 140 92 204t195 64h367l-20 -115h-190l-100 -565h-120l100 565h-52q-70 0 -107.5 -35t-51.5 -118h-113zM642 913l-124 -161h-112l-68 161h88l47 -80l75 80h94z" />
    <glyph glyph-name="uni0162.alt" horiz-adv-x="641" 
d="M49 412q24 140 92 204t195 64h367l-20 -115h-190l-100 -565h-120l100 565h-52q-70 0 -107.5 -35t-51.5 -118h-113zM274 -256l-74 17l58 162h124z" />
    <glyph glyph-name="uni021A.alt" horiz-adv-x="641" 
d="M49 412q24 140 92 204t195 64h367l-20 -115h-190l-100 -565h-120l100 565h-52q-70 0 -107.5 -35t-51.5 -118h-113zM274 -256l-74 17l58 162h124z" />
    <glyph glyph-name="U.alt" horiz-adv-x="849" 
d="M49 412q24 140 92 204t195 64h143l-77 -436q-11 -65 11 -103t86 -38t100 37.5t47 103.5l77 436h123l-77 -436q-13 -75 -44.5 -132.5t-87 -89.5t-142.5 -32q-81 0 -133.5 32.5t-74 89.5t-8.5 132l58 331h-15q-70 0 -107.5 -37t-52.5 -126h-113z" />
    <glyph glyph-name="Uacute.alt" horiz-adv-x="849" 
d="M49 412q24 140 92 204t195 64h143l-77 -436q-11 -65 11 -103t86 -38t100 37.5t47 103.5l77 436h123l-77 -436q-13 -75 -44.5 -132.5t-87 -89.5t-142.5 -32q-81 0 -133.5 32.5t-74 89.5t-8.5 132l58 331h-15q-70 0 -107.5 -37t-52.5 -126h-113zM664 752h-106l125 166
l105 -46z" />
    <glyph glyph-name="Ubreve.alt" horiz-adv-x="849" 
d="M49 412q24 140 92 204t195 64h143l-77 -436q-11 -65 11 -103t86 -38t100 37.5t47 103.5l77 436h123l-77 -436q-13 -75 -44.5 -132.5t-87 -89.5t-142.5 -32q-81 0 -133.5 32.5t-74 89.5t-8.5 132l58 331h-15q-70 0 -107.5 -37t-52.5 -126h-113zM625 839q21 0 35 14.5
t22 50.5h90q-19 -78 -56 -112t-96 -34t-91.5 34t-24.5 112h84q-5 -36 5 -50.5t32 -14.5z" />
    <glyph glyph-name="Ucircumflex.alt" horiz-adv-x="849" 
d="M49 412q24 140 92 204t195 64h143l-77 -436q-11 -65 11 -103t86 -38t100 37.5t47 103.5l77 436h123l-77 -436q-13 -75 -44.5 -132.5t-87 -89.5t-142.5 -32q-81 0 -133.5 32.5t-74 89.5t-8.5 132l58 331h-15q-70 0 -107.5 -37t-52.5 -126h-113zM674 752l-47 80l-75 -80
h-94l124 161h112l68 -161h-88z" />
    <glyph glyph-name="Udieresis.alt" horiz-adv-x="849" 
d="M49 412q24 140 92 204t195 64h143l-77 -436q-11 -65 11 -103t86 -38t100 37.5t47 103.5l77 436h123l-77 -436q-13 -75 -44.5 -132.5t-87 -89.5t-142.5 -32q-81 0 -133.5 32.5t-74 89.5t-8.5 132l58 331h-15q-70 0 -107.5 -37t-52.5 -126h-113zM574 782h-109l19 107h109z
M768 782h-109l19 107h109z" />
    <glyph glyph-name="Ugrave.alt" horiz-adv-x="849" 
d="M49 412q24 140 92 204t195 64h143l-77 -436q-11 -65 11 -103t86 -38t100 37.5t47 103.5l77 436h123l-77 -436q-13 -75 -44.5 -132.5t-87 -89.5t-142.5 -32q-81 0 -133.5 32.5t-74 89.5t-8.5 132l58 331h-15q-70 0 -107.5 -37t-52.5 -126h-113zM562 752l-82 120l111 46
l67 -166h-96z" />
    <glyph glyph-name="Uhungarumlaut.alt" horiz-adv-x="849" 
d="M49 412q24 140 92 204t195 64h143l-77 -436q-11 -65 11 -103t86 -38t100 37.5t47 103.5l77 436h123l-77 -436q-13 -75 -44.5 -132.5t-87 -89.5t-142.5 -32q-81 0 -133.5 32.5t-74 89.5t-8.5 132l58 331h-15q-70 0 -107.5 -37t-52.5 -126h-113zM584 752h-96l105 166
l85 -46zM734 752h-96l105 166l85 -46z" />
    <glyph glyph-name="Umacron.alt" horiz-adv-x="849" 
d="M49 412q24 140 92 204t195 64h143l-77 -436q-11 -65 11 -103t86 -38t100 37.5t47 103.5l77 436h123l-77 -436q-13 -75 -44.5 -132.5t-87 -89.5t-142.5 -32q-81 0 -133.5 32.5t-74 89.5t-8.5 132l58 331h-15q-70 0 -107.5 -37t-52.5 -126h-113zM783 865l-15 -83h-303
l15 83h303z" />
    <glyph glyph-name="Uogonek.alt" horiz-adv-x="849" 
d="M49 412q24 140 92 204t195 64h143l-77 -436q-11 -65 11 -103t86 -38t100 37.5t47 103.5l77 436h123l-77 -436q-12 -67 -37.5 -120.5t-70.5 -85.5q-69 -49 -105 -76.5t-48.5 -43.5t-12.5 -32q0 -19 26 -19q20 0 48 9l11 -83q-44 -16 -87 -16q-48 0 -76 21t-28 61
q0 27 18.5 57.5t70.5 73.5q-113 6 -165.5 75.5t-33.5 178.5l58 331h-15q-70 0 -107.5 -37t-52.5 -126h-113z" />
    <glyph glyph-name="Uring.alt" horiz-adv-x="849" 
d="M49 412q24 140 92 204t195 64h143l-77 -436q-11 -65 11 -103t86 -38t100 37.5t47 103.5l77 436h123l-77 -436q-13 -75 -44.5 -132.5t-87 -89.5t-142.5 -32q-81 0 -133.5 32.5t-74 89.5t-8.5 132l58 331h-15q-70 0 -107.5 -37t-52.5 -126h-113zM750 855l-3 -15
q-9 -46 -43.5 -75t-87.5 -29q-55 0 -85 33.5t-20 86.5l3 15q10 47 44 76t86 29q56 0 86.5 -34.5t19.5 -86.5zM681 864q5 21 -7 33.5t-35 12.5q-22 0 -36.5 -12.5t-19.5 -33.5l-3 -15q-4 -21 7 -33.5t33 -12.5q23 0 38.5 12.5t19.5 33.5z" />
    <glyph glyph-name="Utilde.alt" horiz-adv-x="849" 
d="M49 412q24 140 92 204t195 64h143l-77 -436q-11 -65 11 -103t86 -38t100 37.5t47 103.5l77 436h123l-77 -436q-13 -75 -44.5 -132.5t-87 -89.5t-142.5 -32q-81 0 -133.5 32.5t-74 89.5t-8.5 132l58 331h-15q-70 0 -107.5 -37t-52.5 -126h-113zM682 761q-28 0 -45 10.5
t-27.5 24.5t-18.5 24.5t-18 10.5q-8 0 -15 -12t-15 -50h-81q11 63 28 96.5t39 45.5t45 12q27 0 44 -10.5t27 -24.5t18 -24.5t18 -10.5q8 0 15.5 12.5t14.5 49.5h81q-10 -63 -27.5 -96.5t-38.5 -45.5t-44 -12z" />
    <glyph glyph-name="V.alt" horiz-adv-x="819" 
d="M49 412q24 140 92 204t195 64h102l43 -342l16 -177l81 178l106 222q51 107 108 183.5t134 117.5t188 41l-20 -115q-54 0 -101.5 -19t-92 -68.5t-89.5 -139.5l-277 -561h-123l-82 575h-7q-70 0 -107.5 -37t-52.5 -126h-113z" />
    <glyph glyph-name="W.alt" horiz-adv-x="1099" 
d="M703 506l-221 -506h-123l-28 575h-9q-70 0 -107.5 -37t-52.5 -126h-113q23 137 89 201.5t188 66.5h127l4 -269l-6 -252l228 521h108l44 -516l85 247l33 90q39 107 81.5 183t95.5 124.5t121.5 71.5t158.5 23l-20 -115q-48 0 -89.5 -10.5t-79.5 -40t-74.5 -86.5t-74.5 -150
l-200 -501h-123z" />
    <glyph glyph-name="Wacute.alt" horiz-adv-x="1099" 
d="M703 506l-221 -506h-123l-28 575h-9q-70 0 -107.5 -37t-52.5 -126h-113q23 137 89 201.5t188 66.5h127l4 -269l-6 -252l228 521h108l44 -516l85 247l33 90q39 107 81.5 183t95.5 124.5t121.5 71.5t158.5 23l-20 -115q-48 0 -89.5 -10.5t-79.5 -40t-74.5 -86.5t-74.5 -150
l-200 -501h-123zM797 752h-106l125 166l105 -46z" />
    <glyph glyph-name="Wcircumflex.alt" horiz-adv-x="1099" 
d="M703 506l-221 -506h-123l-28 575h-9q-70 0 -107.5 -37t-52.5 -126h-113q23 137 89 201.5t188 66.5h127l4 -269l-6 -252l228 521h108l44 -516l85 247l33 90q39 107 81.5 183t95.5 124.5t121.5 71.5t158.5 23l-20 -115q-48 0 -89.5 -10.5t-79.5 -40t-74.5 -86.5t-74.5 -150
l-200 -501h-123zM807 752l-47 80l-75 -80h-94l124 161h112l68 -161h-88z" />
    <glyph glyph-name="Wdieresis.alt" horiz-adv-x="1099" 
d="M703 506l-221 -506h-123l-28 575h-9q-70 0 -107.5 -37t-52.5 -126h-113q23 137 89 201.5t188 66.5h127l4 -269l-6 -252l228 521h108l44 -516l85 247l33 90q39 107 81.5 183t95.5 124.5t121.5 71.5t158.5 23l-20 -115q-48 0 -89.5 -10.5t-79.5 -40t-74.5 -86.5t-74.5 -150
l-200 -501h-123zM706 782h-109l19 107h109zM900 782h-109l19 107h109z" />
    <glyph glyph-name="Wgrave.alt" horiz-adv-x="1099" 
d="M703 506l-221 -506h-123l-28 575h-9q-70 0 -107.5 -37t-52.5 -126h-113q23 137 89 201.5t188 66.5h127l4 -269l-6 -252l228 521h108l44 -516l85 247l33 90q39 107 81.5 183t95.5 124.5t121.5 71.5t158.5 23l-20 -115q-48 0 -89.5 -10.5t-79.5 -40t-74.5 -86.5t-74.5 -150
l-200 -501h-123zM695 752l-82 120l111 46l67 -166h-96z" />
    <glyph glyph-name="X.alt" horiz-adv-x="728" 
d="M49 412q24 140 86.5 204t180.5 64h80l91 -230l163 230h133l-250 -341l135 -339h-129l-97 243l-173 -243h-133l260 354l-87 221h-7q-62 0 -93.5 -37t-46.5 -126h-113z" />
    <glyph glyph-name="Y.alt" horiz-adv-x="763" 
d="M49 412q24 140 86.5 204t180.5 64h105l93 -289l190 289h131l-279 -406l-49 -274h-120l48 271l-103 304h-30q-62 0 -93.5 -37t-46.5 -126h-113z" />
    <glyph glyph-name="Yacute.alt" horiz-adv-x="763" 
d="M49 412q24 140 86.5 204t180.5 64h105l93 -289l190 289h131l-279 -406l-49 -274h-120l48 271l-103 304h-30q-62 0 -93.5 -37t-46.5 -126h-113zM621 752h-106l125 166l105 -46z" />
    <glyph glyph-name="Ycircumflex.alt" horiz-adv-x="763" 
d="M49 412q24 140 86.5 204t180.5 64h105l93 -289l190 289h131l-279 -406l-49 -274h-120l48 271l-103 304h-30q-62 0 -93.5 -37t-46.5 -126h-113zM631 752l-47 80l-75 -80h-94l124 161h112l68 -161h-88z" />
    <glyph glyph-name="Ydieresis.alt" horiz-adv-x="763" 
d="M49 412q24 140 86.5 204t180.5 64h105l93 -289l190 289h131l-279 -406l-49 -274h-120l48 271l-103 304h-30q-62 0 -93.5 -37t-46.5 -126h-113zM531 782h-109l19 107h109zM725 782h-109l19 107h109z" />
    <glyph glyph-name="Ygrave.alt" horiz-adv-x="763" 
d="M49 412q24 140 86.5 204t180.5 64h105l93 -289l190 289h131l-279 -406l-49 -274h-120l48 271l-103 304h-30q-62 0 -93.5 -37t-46.5 -126h-113zM519 752l-82 120l111 46l67 -166h-96z" />
    <glyph glyph-name="i.dot" horiz-adv-x="273" 
d="M258 603h-121l21 119h121zM149 0h-115l89 507h115z" />
    <glyph glyph-name="zero.denominator" horiz-adv-x="326" 
d="M285 201l-10 -61q-12 -73 -46.5 -109t-95.5 -36q-64 0 -96.5 39t-21.5 106l10 61q24 144 143 144q65 0 96.5 -39t20.5 -105zM205 201q11 69 -39 69q-48 0 -60 -69l-10 -61q-12 -69 38 -69t61 69z" />
    <glyph glyph-name="one.denominator" horiz-adv-x="220" 
d="M24 292l105 48h60l-60 -340h-79l44 249l-47 -21z" />
    <glyph glyph-name="two.denominator" horiz-adv-x="269" 
d="M211 73l-13 -73h-221l12 68q10 55 33.5 79.5t62.5 40.5l37 15q21 8 30 17t10 20l1 3q5 27 -38 27q-18 0 -38 -5t-47 -14l-13 71q31 13 57 18t50 5q46 0 70.5 -14t33 -36.5t4.5 -48.5l-1 -9q-4 -32 -26 -56.5t-67 -42.5l-37 -15q-21 -8 -30 -20.5t-12 -29.5h142z" />
    <glyph glyph-name="three.denominator" horiz-adv-x="275" 
d="M214 85q-7 -40 -36 -65t-95 -25q-25 0 -51 5t-49 16l23 70q21 -8 40 -11.5t37 -3.5q49 0 55 29l1 7q2 14 -7 23.5t-30 9.5h-51l11 64h51q40 0 45 30l1 7q6 29 -40 29q-15 0 -33 -3.5t-43 -11.5l-17 70q30 11 54.5 15.5t46.5 4.5q68 0 93 -29.5t20 -66.5l-1 -7
q-3 -26 -19 -44t-40 -28q20 -11 30.5 -29t5.5 -44z" />
    <glyph glyph-name="four.denominator" horiz-adv-x="274" 
d="M231 67h-34l-12 -67h-73l12 67h-143l11 64q43 52 80.5 104.5t65.5 104.5h85q-56 -104 -142 -204h55l8 46h73l-8 -46h34z" />
    <glyph glyph-name="five.denominator" horiz-adv-x="276" 
d="M23 176l39 164h191l-12 -69h-126l-14 -58q15 3 31 3q51 0 78.5 -27.5t17.5 -80.5l-3 -16q-8 -43 -38.5 -70t-94.5 -27q-25 0 -50 5t-53 17l23 71q23 -10 43 -13.5t38 -3.5q48 0 53 33l3 14q2 14 -7 23t-32 9q-25 0 -55 -11z" />
    <glyph glyph-name="six.denominator" horiz-adv-x="303" 
d="M252 99q-7 -46 -38 -75t-88 -29q-64 0 -93.5 39t-17.5 108l11 64q14 77 51.5 108t96.5 31q22 0 45 -4t50 -15l-23 -71q-21 10 -39 13t-34 3q-27 0 -46 -15t-25 -50l-2 -9q34 22 71 22q44 0 66.5 -27.5t16.5 -76.5zM143 150q-25 0 -54 -21q-9 -61 40 -61q18 0 30.5 8
t14.5 24l2 16q5 34 -33 34z" />
    <glyph glyph-name="seven.denominator" horiz-adv-x="253" 
d="M242 269q-44 -68 -80.5 -135t-61.5 -134h-84q25 66 59 132t79 132h-143l13 76h231z" />
    <glyph glyph-name="eight.denominator" horiz-adv-x="303" 
d="M249 106q0 -28 -14.5 -53.5t-45 -41.5t-77.5 -16q-61 0 -87 24t-26 56q0 25 15.5 47.5t51.5 42.5q-18 15 -25.5 34t-7.5 39q0 41 30.5 74t94.5 33q56 0 83.5 -23t27.5 -58q0 -24 -14 -44t-47 -39q41 -28 41 -75zM138 210l22 -8q18 14 24 25t6 23q0 25 -35 25
q-22 0 -33.5 -10t-11.5 -25q0 -21 28 -30zM79 92q0 -27 40 -27q23 0 37.5 10t14.5 27q0 19 -32 30l-26 9q-19 -13 -26.5 -24.5t-7.5 -24.5z" />
    <glyph glyph-name="nine.denominator" horiz-adv-x="303" 
d="M249 134q-13 -76 -51 -107.5t-97 -31.5q-22 0 -45 4t-50 15l23 71q21 -10 39 -13t34 -3q27 0 46 15t25 50l2 9q-34 -22 -71 -22q-44 0 -66.5 27.5t-16.5 76.5l2 16q7 47 38 75.5t88 28.5q65 0 94 -39t17 -108zM99 224q-5 -34 33 -34q26 0 54 21q9 61 -40 61
q-18 0 -30.5 -8t-14.5 -24z" />
    <glyph glyph-name="zero.numerator" horiz-adv-x="326" 
d="M344 541l-10 -61q-12 -73 -46.5 -109t-95.5 -36q-64 0 -96.5 39t-21.5 106l10 61q24 144 143 144q65 0 96.5 -39t20.5 -105zM264 541q11 69 -39 69q-48 0 -60 -69l-10 -61q-12 -69 38 -69t61 69z" />
    <glyph glyph-name="one.numerator" horiz-adv-x="220" 
d="M83 632l105 48h60l-60 -340h-79l44 249l-47 -21z" />
    <glyph glyph-name="two.numerator" horiz-adv-x="269" 
d="M270 413l-13 -73h-221l12 68q10 55 33.5 79.5t62.5 40.5l37 15q21 8 30 17t10 20l1 3q5 27 -38 27q-18 0 -38 -5t-47 -14l-13 71q31 13 57 18t50 5q46 0 70.5 -14t33 -36.5t4.5 -48.5l-1 -9q-4 -32 -26 -56.5t-67 -42.5l-37 -15q-21 -8 -30 -20.5t-12 -29.5h142z" />
    <glyph glyph-name="three.numerator" horiz-adv-x="275" 
d="M273 425q-7 -40 -36 -65t-95 -25q-25 0 -51 5t-49 16l23 70q21 -8 40 -11.5t37 -3.5q49 0 55 29l1 7q2 14 -7 23.5t-30 9.5h-51l11 64h51q40 0 45 30l1 7q6 29 -40 29q-15 0 -33 -3.5t-43 -11.5l-17 70q30 11 54.5 15.5t46.5 4.5q68 0 93 -29.5t20 -66.5l-1 -7
q-3 -26 -19 -44t-40 -28q20 -11 30.5 -29t5.5 -44z" />
    <glyph glyph-name="four.numerator" horiz-adv-x="274" 
d="M290 407h-34l-12 -67h-73l12 67h-143l11 64q43 52 80.5 104.5t65.5 104.5h85q-56 -104 -142 -204h55l8 46h73l-8 -46h34z" />
    <glyph glyph-name="five.numerator" horiz-adv-x="276" 
d="M82 516l39 164h191l-12 -69h-126l-14 -58q15 3 31 3q51 0 78.5 -27.5t17.5 -80.5l-3 -16q-8 -43 -38.5 -70t-94.5 -27q-25 0 -50 5t-53 17l23 71q23 -10 43 -13.5t38 -3.5q48 0 53 33l3 14q2 14 -7 23t-32 9q-25 0 -55 -11z" />
    <glyph glyph-name="six.numerator" horiz-adv-x="303" 
d="M311 439q-7 -46 -38 -75t-88 -29q-64 0 -93.5 39t-17.5 108l11 64q14 77 51.5 108t96.5 31q22 0 45 -4t50 -15l-23 -71q-21 10 -39 13t-34 3q-27 0 -46 -15t-25 -50l-2 -9q34 22 71 22q44 0 66.5 -27.5t16.5 -76.5zM202 490q-25 0 -54 -21q-9 -61 40 -61q18 0 30.5 8
t14.5 24l2 16q5 34 -33 34z" />
    <glyph glyph-name="seven.numerator" horiz-adv-x="253" 
d="M301 609q-44 -68 -80.5 -135t-61.5 -134h-84q25 66 59 132t79 132h-143l13 76h231z" />
    <glyph glyph-name="eight.numerator" horiz-adv-x="303" 
d="M308 446q0 -28 -14.5 -53.5t-45 -41.5t-77.5 -16q-61 0 -87 24t-26 56q0 25 15.5 47.5t51.5 42.5q-18 15 -25.5 34t-7.5 39q0 41 30.5 74t94.5 33q56 0 83.5 -23t27.5 -58q0 -24 -14 -44t-47 -39q41 -28 41 -75zM197 550l22 -8q18 14 24 25t6 23q0 25 -35 25
q-22 0 -33.5 -10t-11.5 -25q0 -21 28 -30zM138 432q0 -27 40 -27q23 0 37.5 10t14.5 27q0 19 -32 30l-26 9q-19 -13 -26.5 -24.5t-7.5 -24.5z" />
    <glyph glyph-name="nine.numerator" horiz-adv-x="303" 
d="M308 474q-13 -76 -51 -107.5t-97 -31.5q-22 0 -45 4t-50 15l23 71q21 -10 39 -13t34 -3q27 0 46 15t25 50l2 9q-34 -22 -71 -22q-44 0 -66.5 27.5t-16.5 76.5l2 16q7 47 38 75.5t88 28.5q65 0 94 -39t17 -108zM158 564q-5 -34 33 -34q26 0 54 21q9 61 -40 61
q-18 0 -30.5 -8t-14.5 -24z" />
    <glyph glyph-name="zero.posf" horiz-adv-x="565" 
d="M516 266l-8 -52q-16 -108 -82.5 -166t-168.5 -58q-75 0 -125.5 32.5t-72 89.5t-10.5 130l8 52q17 107 82 165t168 58q75 0 125.5 -32.5t72.5 -89t11 -129.5zM399 271q11 65 -13.5 104t-82.5 39q-47 0 -82.5 -29.5t-45.5 -90.5l-9 -57q-10 -65 15 -104.5t81 -39.5
q47 0 82.5 30.5t45.5 90.5z" />
    <glyph glyph-name="one.posf" horiz-adv-x="371" 
d="M46 410l190 97h100l-89 -507h-118l65 371l-110 -55z" />
    <glyph glyph-name="two.posf" horiz-adv-x="492" 
d="M406 105l-19 -105h-368l17 95q14 79 50.5 118.5t106.5 62.5l72 24q30 10 47.5 22.5t21.5 30.5l1 8q4 23 -12 36t-56 13q-31 0 -62.5 -7t-81.5 -27l-32 97q56 23 100 33.5t87 10.5q71 0 112 -24.5t55.5 -63t5.5 -81.5l-2 -10q-10 -55 -51.5 -86t-96.5 -49l-72 -24
q-36 -12 -52 -27.5t-21 -46.5h250z" />
    <glyph glyph-name="three.posf" horiz-adv-x="472" 
d="M386 6q-8 -55 -34.5 -97.5t-77 -67t-131.5 -24.5q-47 0 -94.5 11t-101.5 37l43 103q47 -21 83 -30.5t73 -9.5q53 0 85 19.5t38 62.5l2 14q6 41 -12.5 66.5t-67.5 25.5h-106l19 108h106q47 0 73 21.5t31 55.5l3 19q7 45 -14 65.5t-71 20.5q-34 0 -72 -9t-90 -29l-30 103
q61 26 110 36t92 10q77 0 122.5 -26t63 -69.5t8.5 -96.5l-3 -19q-7 -48 -33.5 -84t-67.5 -59q32 -22 47.5 -58t8.5 -85z" />
    <glyph glyph-name="four.posf" horiz-adv-x="528" 
d="M464 0h-71l-31 -173h-116l31 173h-292l17 97q95 110 169 208.5t135 201.5h141q-59 -101 -135.5 -200.5t-163.5 -199.5h148l16 93h116l-16 -93h71z" />
    <glyph glyph-name="five.posf" horiz-adv-x="478" 
d="M34 178l78 329h351l-20 -113h-246l-34 -147q30 6 61 6q71 0 117 -28t64.5 -75.5t6.5 -108.5l-6 -30q-11 -54 -39 -98t-79.5 -70t-134.5 -26q-48 0 -95.5 11t-101.5 37l45 103q50 -21 85 -30.5t74 -9.5q108 0 125 83l6 30q9 46 -12 75.5t-80 29.5q-24 0 -51.5 -6.5
t-59.5 -18.5z" />
    <glyph glyph-name="six.posf" horiz-adv-x="559" 
d="M503 197q-17 -94 -76 -150.5t-160 -56.5q-80 0 -130.5 39.5t-69 107.5t-4.5 154l22 131q24 143 94.5 205.5t188.5 62.5q44 0 88.5 -10t96.5 -36l-49 -103q-41 21 -73.5 29.5t-61.5 8.5q-68 0 -111 -35.5t-58 -121.5l-8 -48q78 63 156 63q58 0 97.5 -29.5t56 -78.5
t5.5 -110zM312 329q-30 0 -68 -14t-70 -40q-12 -87 13.5 -130.5t83.5 -43.5q46 0 76.5 26.5t38.5 69.5l4 20q10 49 -9.5 80.5t-68.5 31.5z" />
    <glyph glyph-name="seven.posf" horiz-adv-x="476" 
d="M478 404q-93 -142 -163.5 -285.5t-122.5 -291.5h-132q102 290 281 567h-296l20 113h432z" />
    <glyph glyph-name="eight.posf" horiz-adv-x="535" 
d="M487 204q0 -55 -25 -104t-80.5 -79.5t-146.5 -30.5q-110 0 -163 45.5t-53 112.5q0 50 31.5 102t106.5 92q-33 26 -51 60t-18 81q0 55 26.5 102t79 76t130.5 29q98 0 151.5 -42.5t53.5 -116.5q0 -46 -27.5 -94t-95.5 -86q39 -26 60 -62t21 -85zM280 413l50 -22
q46 33 62 63t16 56q0 74 -88 74q-53 0 -82.5 -25.5t-29.5 -64.5q0 -30 19 -48t53 -33zM141 177q0 -37 25.5 -59t74.5 -22q62 0 93 26t31 67q0 27 -18 47.5t-61 39.5l-52 23q-49 -31 -71 -59.5t-22 -62.5z" />
    <glyph glyph-name="nine.posf" horiz-adv-x="552" 
d="M471 85q-24 -143 -94 -205.5t-189 -62.5q-43 0 -88 10.5t-97 35.5l49 103q41 -21 74 -29.5t61 -8.5q68 0 111 36t58 121l8 48q-78 -63 -156 -63q-57 0 -95.5 29t-55 78.5t-8.5 110.5l3 22q13 95 74.5 151t162.5 56q80 0 130.5 -39.5t69.5 -107.5t4 -154zM166 290
q-7 -49 11 -80.5t67 -31.5q30 0 68.5 14t69.5 40q12 87 -13.5 130.5t-83.5 43.5q-46 0 -77.5 -26.5t-38.5 -69.5z" />
    <glyph glyph-name="zero.tlf" horiz-adv-x="550" 
d="M541 402l-22 -123q-25 -142 -90.5 -215.5t-181.5 -73.5q-76 0 -128.5 35.5t-74 100.5t-5.5 153l22 123q25 140 90.5 214t182.5 74q76 0 128 -36t73.5 -100.5t5.5 -151.5zM420 402q15 86 -8.5 131.5t-84.5 45.5t-95 -44.5t-50 -132.5l-22 -123q-16 -88 8 -133t84 -45
q62 0 96 43.5t50 134.5z" />
    <glyph glyph-name="one.tlf" horiz-adv-x="550" 
d="M126 574l207 106h100l-100 -567h122l-20 -113h-392l20 113h152l76 431l-127 -64z" />
    <glyph glyph-name="two.tlf" horiz-adv-x="550" 
d="M463 113l-20 -113h-412l17 95q13 70 35.5 115t58.5 75t87 55l74 36q38 18 59.5 31.5t32.5 27.5t14 34l4 22q7 39 -14.5 63.5t-79.5 24.5q-32 0 -68 -9t-88 -29l-28 103q59 25 105.5 35.5t91.5 10.5q77 0 124 -28.5t65.5 -73.5t9.5 -97l-4 -23q-9 -54 -33 -87.5
t-62.5 -57.5t-93.5 -51l-74 -36q-44 -21 -64 -49.5t-31 -73.5h294z" />
    <glyph glyph-name="three.tlf" horiz-adv-x="550" 
d="M461 179q-8 -55 -34.5 -97.5t-77 -67t-131.5 -24.5q-47 0 -94.5 11t-101.5 37l43 103q47 -21 83 -30.5t73 -9.5q53 0 85 19.5t38 62.5l2 14q6 41 -12.5 66.5t-67.5 25.5h-106l19 108h106q47 0 73 21.5t31 55.5l3 19q7 45 -14 65.5t-71 20.5q-34 0 -72 -9t-90 -29l-30 103
q61 26 110 36t92 10q77 0 122.5 -26t63 -69.5t8.5 -96.5l-3 -19q-7 -48 -33.5 -84t-67.5 -59q32 -22 47.5 -58t8.5 -85z" />
    <glyph glyph-name="four.tlf" horiz-adv-x="550" 
d="M500 154h-71l-27 -154h-116l27 154h-292l17 97q87 107 168.5 215.5t139.5 213.5h141q-56 -103 -137 -209t-167 -210h149l18 103h116l-18 -103h71z" />
    <glyph glyph-name="five.tlf" horiz-adv-x="550" 
d="M91 351l78 329h351l-20 -113h-246l-34 -147q30 6 61 6q71 0 117 -28t64.5 -75.5t6.5 -108.5l-6 -30q-11 -54 -39 -98t-79.5 -70t-134.5 -26q-48 0 -95.5 11t-101.5 37l45 103q50 -21 85 -30.5t74 -9.5q108 0 125 83l6 30q9 46 -12 75.5t-80 29.5q-24 0 -51.5 -6.5
t-59.5 -18.5z" />
    <glyph glyph-name="six.tlf" horiz-adv-x="550" 
d="M501 197q-17 -94 -76 -150.5t-160 -56.5q-80 0 -130.5 39.5t-69 107.5t-4.5 154l22 131q24 143 94.5 205.5t188.5 62.5q44 0 88.5 -10t96.5 -36l-49 -103q-41 21 -73.5 29.5t-61.5 8.5q-68 0 -111 -35.5t-58 -121.5l-8 -48q78 63 156 63q58 0 97.5 -29.5t56 -78.5
t5.5 -110zM310 329q-30 0 -68 -14t-70 -40q-12 -87 13.5 -130.5t83.5 -43.5q46 0 76.5 26.5t38.5 69.5l4 20q10 49 -9.5 80.5t-68.5 31.5z" />
    <glyph glyph-name="seven.tlf" horiz-adv-x="550" 
d="M544 577q-93 -142 -163.5 -285.5t-122.5 -291.5h-132q102 290 281 567h-296l20 113h432z" />
    <glyph glyph-name="eight.tlf" horiz-adv-x="550" 
d="M498 204q0 -55 -25 -104t-80.5 -79.5t-146.5 -30.5q-110 0 -163 45.5t-53 112.5q0 50 31.5 102t106.5 92q-33 26 -51 60t-18 81q0 55 26.5 102t79 76t130.5 29q98 0 151.5 -42.5t53.5 -116.5q0 -46 -27.5 -94t-95.5 -86q39 -26 60 -62t21 -85zM291 413l50 -22
q46 33 62 63t16 56q0 74 -88 74q-53 0 -82.5 -25.5t-29.5 -64.5q0 -30 19 -48t53 -33zM152 177q0 -37 25.5 -59t74.5 -22q62 0 93 26t31 67q0 27 -18 47.5t-61 39.5l-52 23q-49 -31 -71 -59.5t-22 -62.5z" />
    <glyph glyph-name="nine.tlf" horiz-adv-x="550" 
d="M498 258q-24 -143 -94 -205.5t-189 -62.5q-43 0 -88 10.5t-97 35.5l49 103q41 -21 74 -29.5t61 -8.5q68 0 111 36t58 121l8 48q-78 -63 -156 -63q-57 0 -95.5 29t-55 78.5t-8.5 110.5l3 22q13 95 74.5 151t162.5 56q80 0 130.5 -39.5t69.5 -107.5t4 -154zM193 463
q-7 -49 11 -80.5t67 -31.5q30 0 68.5 14t69.5 40q12 87 -13.5 130.5t-83.5 43.5q-46 0 -77.5 -26.5t-38.5 -69.5z" />
    <glyph glyph-name="uni2155" horiz-adv-x="657" 
d="M83 632l105 48h60l-60 -340h-79l44 249l-47 -21zM496 680h94l-445 -680h-94zM404 176l39 164h191l-12 -69h-126l-14 -58q15 3 31 3q51 0 78.5 -27.5t17.5 -80.5l-3 -16q-8 -43 -38.5 -70t-94.5 -27q-25 0 -50 5t-53 17l23 71q23 -10 43 -13.5t38 -3.5q48 0 53 33l3 14
q2 14 -7 23t-32 9q-25 0 -55 -11z" />
    <glyph glyph-name="uni2156" horiz-adv-x="706" 
d="M270 413l-13 -73h-221l12 68q10 55 33.5 79.5t62.5 40.5l37 15q21 8 30 17t10 20l1 3q5 27 -38 27q-18 0 -38 -5t-47 -14l-13 71q31 13 57 18t50 5q46 0 70.5 -14t33 -36.5t4.5 -48.5l-1 -9q-4 -32 -26 -56.5t-67 -42.5l-37 -15q-21 -8 -30 -20.5t-12 -29.5h142zM545 680
h94l-445 -680h-94zM453 176l39 164h191l-12 -69h-126l-14 -58q15 3 31 3q51 0 78.5 -27.5t17.5 -80.5l-3 -16q-8 -43 -38.5 -70t-94.5 -27q-25 0 -50 5t-53 17l23 71q23 -10 43 -13.5t38 -3.5q48 0 53 33l3 14q2 14 -7 23t-32 9q-25 0 -55 -11z" />
    <glyph glyph-name="uni2157" horiz-adv-x="697" 
d="M273 425q-7 -40 -36 -65t-95 -25q-25 0 -51 5t-49 16l23 70q21 -8 40 -11.5t37 -3.5q49 0 55 29l1 7q2 14 -7 23.5t-30 9.5h-51l11 64h51q40 0 45 30l1 7q6 29 -40 29q-15 0 -33 -3.5t-43 -11.5l-17 70q30 11 54.5 15.5t46.5 4.5q68 0 93 -29.5t20 -66.5l-1 -7
q-3 -26 -19 -44t-40 -28q20 -11 30.5 -29t5.5 -44zM536 680h94l-445 -680h-94zM444 176l39 164h191l-12 -69h-126l-14 -58q15 3 31 3q51 0 78.5 -27.5t17.5 -80.5l-3 -16q-8 -43 -38.5 -70t-94.5 -27q-25 0 -50 5t-53 17l23 71q23 -10 43 -13.5t38 -3.5q48 0 53 33l3 14
q2 14 -7 23t-32 9q-25 0 -55 -11z" />
    <glyph glyph-name="uni2158" horiz-adv-x="721" 
d="M290 407h-34l-12 -67h-73l12 67h-143l11 64q43 52 80.5 104.5t65.5 104.5h85q-56 -104 -142 -204h55l8 46h73l-8 -46h34zM560 680h94l-445 -680h-94zM468 176l39 164h191l-12 -69h-126l-14 -58q15 3 31 3q51 0 78.5 -27.5t17.5 -80.5l-3 -16q-8 -43 -38.5 -70t-94.5 -27
q-25 0 -50 5t-53 17l23 71q23 -10 43 -13.5t38 -3.5q48 0 53 33l3 14q2 14 -7 23t-32 9q-25 0 -55 -11z" />
    <glyph glyph-name="uni2159" horiz-adv-x="676" 
d="M83 632l105 48h60l-60 -340h-79l44 249l-47 -21zM496 680h94l-445 -680h-94zM625 99q-7 -46 -38 -75t-88 -29q-64 0 -93.5 39t-17.5 108l11 64q14 77 51.5 108t96.5 31q22 0 45 -4t50 -15l-23 -71q-21 10 -39 13t-34 3q-27 0 -46 -15t-25 -50l-2 -9q34 22 71 22
q44 0 66.5 -27.5t16.5 -76.5zM516 150q-25 0 -54 -21q-9 -61 40 -61q18 0 30.5 8t14.5 24l2 16q5 34 -33 34z" />
    <glyph glyph-name="uni215A" horiz-adv-x="722" 
d="M82 516l39 164h191l-12 -69h-126l-14 -58q15 3 31 3q51 0 78.5 -27.5t17.5 -80.5l-3 -16q-8 -43 -38.5 -70t-94.5 -27q-25 0 -50 5t-53 17l23 71q23 -10 43 -13.5t38 -3.5q48 0 53 33l3 14q2 14 -7 23t-32 9q-25 0 -55 -11zM542 680h94l-445 -680h-94zM671 99
q-7 -46 -38 -75t-88 -29q-64 0 -93.5 39t-17.5 108l11 64q14 77 51.5 108t96.5 31q22 0 45 -4t50 -15l-23 -71q-21 10 -39 13t-34 3q-27 0 -46 -15t-25 -50l-2 -9q34 22 71 22q44 0 66.5 -27.5t16.5 -76.5zM562 150q-25 0 -54 -21q-9 -61 40 -61q18 0 30.5 8t14.5 24l2 16
q5 34 -33 34z" />
    <glyph glyph-name="uni2150" horiz-adv-x="664" 
d="M83 632l105 48h60l-60 -340h-79l44 249l-47 -21zM496 680h94l-445 -680h-94zM653 269q-44 -68 -80.5 -135t-61.5 -134h-84q25 66 59 132t79 132h-143l13 76h231z" />
    <glyph glyph-name="two_fraction_seven" horiz-adv-x="713" 
d="M270 413l-13 -73h-221l12 68q10 55 33.5 79.5t62.5 40.5l37 15q21 8 30 17t10 20l1 3q5 27 -38 27q-18 0 -38 -5t-47 -14l-13 71q31 13 57 18t50 5q46 0 70.5 -14t33 -36.5t4.5 -48.5l-1 -9q-4 -32 -26 -56.5t-67 -42.5l-37 -15q-21 -8 -30 -20.5t-12 -29.5h142zM545 680
h94l-445 -680h-94zM702 269q-44 -68 -80.5 -135t-61.5 -134h-84q25 66 59 132t79 132h-143l13 76h231z" />
    <glyph glyph-name="three_fraction_seven" horiz-adv-x="704" 
d="M273 425q-7 -40 -36 -65t-95 -25q-25 0 -51 5t-49 16l23 70q21 -8 40 -11.5t37 -3.5q49 0 55 29l1 7q2 14 -7 23.5t-30 9.5h-51l11 64h51q40 0 45 30l1 7q6 29 -40 29q-15 0 -33 -3.5t-43 -11.5l-17 70q30 11 54.5 15.5t46.5 4.5q68 0 93 -29.5t20 -66.5l-1 -7
q-3 -26 -19 -44t-40 -28q20 -11 30.5 -29t5.5 -44zM536 680h94l-445 -680h-94zM693 269q-44 -68 -80.5 -135t-61.5 -134h-84q25 66 59 132t79 132h-143l13 76h231z" />
    <glyph glyph-name="four_fraction_seven" horiz-adv-x="728" 
d="M290 407h-34l-12 -67h-73l12 67h-143l11 64q43 52 80.5 104.5t65.5 104.5h85q-56 -104 -142 -204h55l8 46h73l-8 -46h34zM560 680h94l-445 -680h-94zM717 269q-44 -68 -80.5 -135t-61.5 -134h-84q25 66 59 132t79 132h-143l13 76h231z" />
    <glyph glyph-name="five_fraction_seven" horiz-adv-x="710" 
d="M82 516l39 164h191l-12 -69h-126l-14 -58q15 3 31 3q51 0 78.5 -27.5t17.5 -80.5l-3 -16q-8 -43 -38.5 -70t-94.5 -27q-25 0 -50 5t-53 17l23 71q23 -10 43 -13.5t38 -3.5q48 0 53 33l3 14q2 14 -7 23t-32 9q-25 0 -55 -11zM542 680h94l-445 -680h-94zM699 269
q-44 -68 -80.5 -135t-61.5 -134h-84q25 66 59 132t79 132h-143l13 76h231z" />
    <glyph glyph-name="six_fraction_seven" horiz-adv-x="732" 
d="M311 439q-7 -46 -38 -75t-88 -29q-64 0 -93.5 39t-17.5 108l11 64q14 77 51.5 108t96.5 31q22 0 45 -4t50 -15l-23 -71q-21 10 -39 13t-34 3q-27 0 -46 -15t-25 -50l-2 -9q34 22 71 22q44 0 66.5 -27.5t16.5 -76.5zM202 490q-25 0 -54 -21q-9 -61 40 -61q18 0 30.5 8
t14.5 24l2 16q5 34 -33 34zM564 680h94l-445 -680h-94zM721 269q-44 -68 -80.5 -135t-61.5 -134h-84q25 66 59 132t79 132h-143l13 76h231z" />
    <glyph glyph-name="uni2151" horiz-adv-x="684" 
d="M83 632l105 48h60l-60 -340h-79l44 249l-47 -21zM496 680h94l-445 -680h-94zM630 134q-13 -76 -51 -107.5t-97 -31.5q-22 0 -45 4t-50 15l23 71q21 -10 39 -13t34 -3q27 0 46 15t25 50l2 9q-34 -22 -71 -22q-44 0 -66.5 27.5t-16.5 76.5l2 16q7 47 38 75.5t88 28.5
q65 0 94 -39t17 -108zM480 224q-5 -34 33 -34q26 0 54 21q9 61 -40 61q-18 0 -30.5 -8t-14.5 -24z" />
    <glyph glyph-name="two_fraction_nine" horiz-adv-x="733" 
d="M270 413l-13 -73h-221l12 68q10 55 33.5 79.5t62.5 40.5l37 15q21 8 30 17t10 20l1 3q5 27 -38 27q-18 0 -38 -5t-47 -14l-13 71q31 13 57 18t50 5q46 0 70.5 -14t33 -36.5t4.5 -48.5l-1 -9q-4 -32 -26 -56.5t-67 -42.5l-37 -15q-21 -8 -30 -20.5t-12 -29.5h142zM545 680
h94l-445 -680h-94zM679 134q-13 -76 -51 -107.5t-97 -31.5q-22 0 -45 4t-50 15l23 71q21 -10 39 -13t34 -3q27 0 46 15t25 50l2 9q-34 -22 -71 -22q-44 0 -66.5 27.5t-16.5 76.5l2 16q7 47 38 75.5t88 28.5q65 0 94 -39t17 -108zM529 224q-5 -34 33 -34q26 0 54 21
q9 61 -40 61q-18 0 -30.5 -8t-14.5 -24z" />
    <glyph glyph-name="four_fraction_nine" horiz-adv-x="748" 
d="M290 407h-34l-12 -67h-73l12 67h-143l11 64q43 52 80.5 104.5t65.5 104.5h85q-56 -104 -142 -204h55l8 46h73l-8 -46h34zM560 680h94l-445 -680h-94zM694 134q-13 -76 -51 -107.5t-97 -31.5q-22 0 -45 4t-50 15l23 71q21 -10 39 -13t34 -3q27 0 46 15t25 50l2 9
q-34 -22 -71 -22q-44 0 -66.5 27.5t-16.5 76.5l2 16q7 47 38 75.5t88 28.5q65 0 94 -39t17 -108zM544 224q-5 -34 33 -34q26 0 54 21q9 61 -40 61q-18 0 -30.5 -8t-14.5 -24z" />
    <glyph glyph-name="five_fraction_nine" horiz-adv-x="730" 
d="M82 516l39 164h191l-12 -69h-126l-14 -58q15 3 31 3q51 0 78.5 -27.5t17.5 -80.5l-3 -16q-8 -43 -38.5 -70t-94.5 -27q-25 0 -50 5t-53 17l23 71q23 -10 43 -13.5t38 -3.5q48 0 53 33l3 14q2 14 -7 23t-32 9q-25 0 -55 -11zM542 680h94l-445 -680h-94zM676 134
q-13 -76 -51 -107.5t-97 -31.5q-22 0 -45 4t-50 15l23 71q21 -10 39 -13t34 -3q27 0 46 15t25 50l2 9q-34 -22 -71 -22q-44 0 -66.5 27.5t-16.5 76.5l2 16q7 47 38 75.5t88 28.5q65 0 94 -39t17 -108zM526 224q-5 -34 33 -34q26 0 54 21q9 61 -40 61q-18 0 -30.5 -8
t-14.5 -24z" />
    <glyph glyph-name="seven_fraction_nine" horiz-adv-x="697" 
d="M301 609q-44 -68 -80.5 -135t-61.5 -134h-84q25 66 59 132t79 132h-143l13 76h231zM509 680h94l-445 -680h-94zM643 134q-13 -76 -51 -107.5t-97 -31.5q-22 0 -45 4t-50 15l23 71q21 -10 39 -13t34 -3q27 0 46 15t25 50l2 9q-34 -22 -71 -22q-44 0 -66.5 27.5t-16.5 76.5
l2 16q7 47 38 75.5t88 28.5q65 0 94 -39t17 -108zM493 224q-5 -34 33 -34q26 0 54 21q9 61 -40 61q-18 0 -30.5 -8t-14.5 -24z" />
    <glyph glyph-name="eight_fraction_nine" horiz-adv-x="751" 
d="M308 446q0 -28 -14.5 -53.5t-45 -41.5t-77.5 -16q-61 0 -87 24t-26 56q0 25 15.5 47.5t51.5 42.5q-18 15 -25.5 34t-7.5 39q0 41 30.5 74t94.5 33q56 0 83.5 -23t27.5 -58q0 -24 -14 -44t-47 -39q41 -28 41 -75zM197 550l22 -8q18 14 24 25t6 23q0 25 -35 25
q-22 0 -33.5 -10t-11.5 -25q0 -21 28 -30zM138 432q0 -27 40 -27q23 0 37.5 10t14.5 27q0 19 -32 30l-26 9q-19 -13 -26.5 -24.5t-7.5 -24.5zM562 680h94l-445 -680h-94zM696 134q-13 -76 -51 -107.5t-97 -31.5q-22 0 -45 4t-50 15l23 71q21 -10 39 -13t34 -3q27 0 46 15
t25 50l2 9q-34 -22 -71 -22q-44 0 -66.5 27.5t-16.5 76.5l2 16q7 47 38 75.5t88 28.5q65 0 94 -39t17 -108zM546 224q-5 -34 33 -34q26 0 54 21q9 61 -40 61q-18 0 -30.5 -8t-14.5 -24z" />
    <glyph glyph-name="exclamdown.case" horiz-adv-x="281" 
d="M155 680h121l-21 -119h-121zM135 481h90l-34 -261l-39 -220h-115l39 220z" />
    <glyph glyph-name="questiondown.case" horiz-adv-x="464" 
d="M258 680h121l-21 -119h-121zM223 97q33 0 72 9t92 29l29 -99q-59 -25 -109 -35.5t-97 -10.5q-79 0 -125 27t-61.5 72t-4.5 99l4 20q9 46 32.5 76t64.5 66l38 33q25 22 38 36.5t18.5 26.5t7.5 26l2 9h120l-3 -18q-4 -26 -13.5 -47.5t-29 -44.5t-55.5 -55l-39 -34
q-32 -28 -46.5 -46t-19.5 -42l-3 -18q-6 -34 13 -56.5t75 -22.5z" />
    <glyph glyph-name="parenleft.case" horiz-adv-x="334" 
d="M173 226q0 -64 26.5 -135.5t77.5 -136.5l-89 -65q-64 77 -98 169t-34 174v31q0 155 76 284.5t215 244.5l66 -85q-76 -67 -130 -136t-82 -147.5t-28 -175.5v-22z" />
    <glyph glyph-name="parenright.case" horiz-adv-x="334" 
d="M191 432v22q0 65 -26.5 136t-77.5 136l89 65q64 -76 98 -168.5t34 -174.5v-31q0 -155 -76 -284.5t-215 -244.5l-66 85q77 68 130.5 136.5t81.5 147.5t28 175z" />
    <glyph glyph-name="braceleft.case" horiz-adv-x="382" 
d="M335 -2l-17 -100h-81q-69 0 -108 27.5t-47 74t15 103.5l35 86q18 45 11 73t-63 28h-53l17 100h53q56 0 73.5 28t14.5 73l-5 86q-5 94 42 149.5t147 55.5h104l-17 -100h-89q-37 0 -54 -24t-15 -62l5 -86q4 -71 -23 -115t-80 -60q47 -14 59 -55.5t-16 -109.5l-36 -86
q-15 -37 -6.5 -61.5t45.5 -24.5h89z" />
    <glyph glyph-name="braceright.case" horiz-adv-x="382" 
d="M232 103q5 -94 -41.5 -149.5t-147.5 -55.5h-104l17 100h89q37 0 54 24.5t15 61.5l-5 86q-4 71 23.5 115t79.5 60q-47 14 -59 55.5t16 109.5l36 86q15 38 6.5 62t-45.5 24h-89l17 100h81q70 0 108.5 -27.5t46.5 -74t-15 -103.5l-35 -86q-18 -45 -11 -73t63 -28h53
l-17 -100h-53q-56 0 -73.5 -28t-14.5 -73z" />
    <glyph glyph-name="bracketleft.case" horiz-adv-x="350" 
d="M303 -2l-17 -100h-255l155 883h255l-17 -100h-140l-121 -683h140z" />
    <glyph glyph-name="bracketright.case" horiz-adv-x="351" 
d="M349 781l-155 -883h-255l17 100h141l119 683h-139l17 100h255z" />
    <glyph glyph-name="hyphen.case" horiz-adv-x="404" 
d="M48 285l17 100h304l-17 -100h-304z" />
    <glyph glyph-name="endash.case" horiz-adv-x="604" 
d="M48 285l17 100h504l-17 -100h-504z" />
    <glyph glyph-name="emdash.case" horiz-adv-x="804" 
d="M48 285l17 100h704l-17 -100h-704z" />
    <glyph glyph-name="guillemotleft.case" horiz-adv-x="712" 
d="M332 216l-21 -112l-261 195l13 77l330 192l-21 -124l-204 -113zM652 216l-21 -112l-261 195l13 77l330 192l-21 -124l-204 -113z" />
    <glyph glyph-name="guillemotright.case" horiz-adv-x="712" 
d="M357 296l-330 -192l21 124l204 113l-164 115l21 112l261 -195zM677 296l-330 -192l21 124l204 113l-164 115l21 112l261 -195z" />
    <glyph glyph-name="guilsinglleft.case" horiz-adv-x="392" 
d="M332 216l-21 -112l-261 195l13 77l330 192l-21 -124l-204 -113z" />
    <glyph glyph-name="guilsinglright.case" horiz-adv-x="392" 
d="M357 296l-330 -192l21 124l204 113l-164 115l21 112l261 -195z" />
    <glyph glyph-name="at.case" horiz-adv-x="945" 
d="M745 -77q-58 -26 -126 -41t-136 -15q-133 0 -228.5 54t-147 151t-51.5 225q0 103 32 191t92 153.5t144 102t188 36.5q93 0 170 -30t132.5 -84t85.5 -127t30 -160q0 -85 -30.5 -151.5t-82.5 -104.5t-119 -38q-47 0 -79.5 19t-44.5 59q-46 -49 -84.5 -66t-74.5 -17
q-68 0 -99.5 61.5t-15.5 159.5l7 44q17 104 68.5 158t144.5 54q52 0 102 -18t95 -47l-42 -240q-6 -33 2 -54t34 -21q29 0 55.5 25t43.5 70.5t17 106.5q0 89 -39.5 158t-110 108.5t-165.5 39.5q-108 0 -187.5 -51t-122.5 -138.5t-43 -198.5q0 -101 38.5 -176.5t111 -117
t174.5 -41.5q59 0 120 14t112 39zM416 301q-10 -61 1.5 -88.5t39.5 -27.5q23 0 49.5 18.5t58.5 62.5l30 172q-18 8 -33.5 13t-31.5 5q-46 0 -72.5 -30t-34.5 -81z" />
    <glyph glyph-name="bar.case" horiz-adv-x="303" 
d="M166 816h115l-168 -953h-115z" />
    <glyph glyph-name="brokenbar.case" horiz-adv-x="281" 
d="M155 816h115l-67 -383h-115zM55 246h115l-68 -383h-115z" />
    <glyph glyph-name="caron.alt" horiz-adv-x="500" 
d="M339 546h-77l34 194h113z" />
    <glyph glyph-name="revcommaaccent" horiz-adv-x="500" 
d="M353 758l74 -17l-58 -162h-124z" />
    </font>
</defs>
</svg>
