<?xml version="1.0" standalone="no"?>
<!DOCTYPE svg PUBLIC "-//W3C//DTD SVG 1.1//EN" "http://www.w3.org/Graphics/SVG/1.1/DTD/svg11.dtd" >
<svg xmlns="http://www.w3.org/2000/svg" xmlns:xlink="http://www.w3.org/1999/xlink" version="1.1">
<metadata>
Created by FontForge 20201107 at Thu Dec  5 17:18:07 2019
 By 
Copyright 2017 The Inria Sans Project Authors (https://github.com/BlackFoundryCom/InriaFonts)
</metadata>
<defs>
<font id="InriaSans-Italic" horiz-adv-x="588" >
  <font-face 
    font-family="Inria Sans"
    font-weight="400"
    font-style="italic"
    font-stretch="normal"
    units-per-em="1000"
    panose-1="0 0 0 0 0 0 0 0 0 0"
    ascent="800"
    descent="-200"
    x-height="495"
    cap-height="680"
    bbox="-259 -248 1396 990"
    underline-thickness="50"
    underline-position="-100"
    slope="-10"
    unicode-range="U+000D-FB04"
  />
<missing-glyph horiz-adv-x="684" 
d="M89 0l120 680h418l-120 -680h-418zM190 81h244l92 517h-244z" />
    <glyph glyph-name="ff" unicode="ff" horiz-adv-x="654" 
d="M367 0l75 423h-225l-75 -423h-82l75 423h-86l12 72h87l13 76q9 49 28.5 87t55 60t90.5 22q59 0 112 -28l-30 -66q-22 9 -40.5 14t-35.5 5q-40 0 -64.5 -22t-33.5 -71l-14 -77h226l14 82q9 50 30 89t58.5 61.5t95.5 22.5q65 0 120 -29l-32 -66q-24 10 -44.5 15t-39.5 5
q-43 0 -70 -23t-36 -74l-15 -83h163l-13 -72h-162l-75 -423h-82z" />
    <glyph glyph-name="fi" unicode="fi" horiz-adv-x="582" 
d="M242 568l-13 -73h307l-87 -495h-82l74 423h-225l-74 -423h-82l75 423h-86l12 72h86l13 72q10 55 34.5 96t69.5 64t115 23q40 0 84 -9t88 -30l-31 -67q-40 17 -76.5 24t-65.5 7q-56 0 -91 -25t-45 -82z" />
    <glyph glyph-name="fl" unicode="fl" horiz-adv-x="593" 
d="M526 70l-14 -75h-17q-69 0 -90 36.5t-11 93.5l95 532q-60 18 -110 18q-57 0 -92 -25t-45 -82l-13 -73h149l-13 -72h-149l-74 -423h-82l75 423h-86l12 72h86l13 72q10 55 34.5 96t70 64t116.5 23q44 0 94.5 -10.5t103.5 -36.5l-103 -579q-4 -28 2 -41t34 -13h14z" />
    <glyph glyph-name="ffi" unicode="ffi" horiz-adv-x="889" 
d="M367 0l75 423h-225l-75 -423h-82l75 423h-86l12 72h87l13 76q9 49 28.5 87t55 60t90.5 22q59 0 112 -28l-30 -66q-22 9 -40.5 14t-35.5 5q-40 0 -64.5 -22t-33.5 -71l-14 -77h225l13 72q10 55 34.5 96t69.5 64t115 23q40 0 84 -9t88 -30l-31 -67q-40 17 -76.5 24t-65.5 7
q-56 0 -91 -25t-45 -82l-13 -73h307l-87 -495h-82l74 423h-225l-74 -423h-82z" />
    <glyph glyph-name="ffl" unicode="ffl" horiz-adv-x="900" 
d="M243 572l-14 -77h225l13 72q10 55 34.5 96t70 64t116.5 23q44 0 94.5 -10.5t103.5 -36.5l-103 -579q-4 -28 2 -41t34 -13h14l-14 -75h-17q-69 0 -90 36.5t-11 93.5l95 532q-60 18 -110 18q-57 0 -92 -25t-45 -82l-13 -73h155l-13 -72h-155l-74 -423h-82l75 423h-225
l-75 -423h-82l75 423h-86l12 72h87l13 76q9 49 28.5 87t55 60t90.5 22q59 0 112 -28l-30 -66q-22 9 -40.5 14t-35.5 5q-40 0 -64.5 -22t-33.5 -71z" />
    <glyph glyph-name="ft" unicode="ft" horiz-adv-x="697" 
d="M399 148l49 275h-232l-74 -423h-82l75 423h-86l12 72h86l13 72q10 55 34.5 96t70 64t116.5 23q44 0 94.5 -10.5t103.5 -36.5l-37 -208h162l-12 -72h-162l-49 -275q-8 -46 7 -64.5t43 -18.5q17 0 39 4.5t48 16.5l18 -69q-62 -27 -121 -27q-51 0 -79 22.5t-36 58.5t-1 77z
M242 568l-13 -73h231l29 162q-60 18 -110 18q-57 0 -92 -25t-45 -82z" />
    <glyph glyph-name="fft" unicode="fft" horiz-adv-x="1004" 
d="M243 572l-14 -77h225l13 72q10 55 34.5 96t70 64t116.5 23q44 0 94.5 -10.5t103.5 -36.5l-37 -208h162l-12 -72h-162l-49 -275q-8 -46 7 -64.5t43 -18.5q17 0 39 4.5t48 16.5l18 -69q-62 -27 -121 -27q-51 0 -79 22.5t-36 58.5t-1 77l49 275h-232l-74 -423h-82l75 423
h-225l-75 -423h-82l75 423h-86l12 72h87l13 76q9 49 28.5 87t55 60t90.5 22q59 0 112 -28l-30 -66q-22 9 -40.5 14t-35.5 5q-40 0 -64.5 -22t-33.5 -71zM549 568l-13 -73h231l29 162q-60 18 -110 18q-57 0 -92 -25t-45 -82z" />
    <glyph glyph-name="fb" unicode="fb" horiz-adv-x="884" 
d="M814 218q-16 -109 -74.5 -168.5t-157.5 -59.5q-53 0 -103 17.5t-97 45.5l107 604q-60 18 -110 18q-57 0 -92 -25t-45 -82l-13 -73h149l-13 -72h-149l-74 -423h-82l75 423h-86l12 72h86l13 72q10 55 34.5 96t70 64t116.5 23q44 0 94.5 -10.5t103.5 -36.5l-51 -290
q46 52 87 72t78 20q50 0 82 -31t44.5 -85t1.5 -123zM670 430q-31 0 -71.5 -27.5t-89.5 -95.5l-38 -215q56 -28 106 -28q68 0 105 41.5t47 112.5l7 48q12 79 -5 121.5t-61 42.5z" />
    <glyph glyph-name="ffb" unicode="ffb" horiz-adv-x="1191" 
d="M243 572l-14 -77h225l13 72q10 55 34.5 96t70 64t116.5 23q44 0 94.5 -10.5t103.5 -36.5l-51 -290q46 52 87 72t78 20q50 0 82 -31t44.5 -85t1.5 -123l-7 -48q-16 -109 -74.5 -168.5t-157.5 -59.5q-53 0 -103 17.5t-97 45.5l107 604q-60 18 -110 18q-57 0 -92 -25
t-45 -82l-13 -73h155l-13 -72h-155l-74 -423h-82l75 423h-225l-75 -423h-82l75 423h-86l12 72h87l13 76q9 49 28.5 87t55 60t90.5 22q59 0 112 -28l-30 -66q-22 9 -40.5 14t-35.5 5q-40 0 -64.5 -22t-33.5 -71zM977 430q-31 0 -71.5 -27.5t-89.5 -95.5l-38 -215
q56 -28 106 -28q68 0 105 41.5t47 112.5l7 48q12 79 -5 121.5t-61 42.5z" />
    <glyph glyph-name="fff" unicode="fff" horiz-adv-x="961" 
d="M367 0l75 423h-225l-75 -423h-82l75 423h-86l12 72h87l13 76q9 49 28.5 87t55 60t90.5 22q59 0 112 -28l-30 -66q-22 9 -40.5 14t-35.5 5q-40 0 -64.5 -22t-33.5 -71l-14 -77h226l14 82q9 49 28.5 87t55 60t90.5 22q59 0 112 -28l-30 -66q-22 9 -40.5 14t-35.5 5
q-40 0 -64.5 -22t-33.5 -71l-15 -83h226l14 82q9 50 30 89t58.5 61.5t95.5 22.5q65 0 120 -29l-32 -66q-24 10 -44.5 15t-39.5 5q-43 0 -70 -23t-36 -74l-15 -83h163l-13 -72h-162l-75 -423h-82l75 423h-225l-75 -423h-82z" />
    <glyph glyph-name="fh" unicode="fh" horiz-adv-x="900" 
d="M365 423h-149l-74 -423h-82l75 423h-86l12 72h86l13 72q10 55 34.5 96t70 64t116.5 23q44 0 94.5 -10.5t103.5 -36.5l-52 -293q57 58 102.5 76.5t81.5 18.5q69 0 101 -49t18 -129l-58 -327h-82l57 320q20 108 -57 108q-19 0 -44.5 -8.5t-58.5 -32.5t-76 -70l-56 -317h-82
l116 657q-60 18 -110 18q-57 0 -92 -25t-45 -82l-13 -73h149z" />
    <glyph glyph-name="ffh" unicode="ffh" horiz-adv-x="1207" 
d="M367 0l75 423h-225l-75 -423h-82l75 423h-86l12 72h87l13 76q9 49 28.5 87t55 60t90.5 22q59 0 112 -28l-30 -66q-22 9 -40.5 14t-35.5 5q-40 0 -64.5 -22t-33.5 -71l-14 -77h225l13 72q10 55 34.5 96t70 64t116.5 23q44 0 94.5 -10.5t103.5 -36.5l-52 -293
q57 58 102.5 76.5t81.5 18.5q69 0 101 -49t18 -129l-58 -327h-82l57 320q20 108 -57 108q-19 0 -44.5 -8.5t-58.5 -32.5t-76 -70l-56 -317h-82l116 657q-60 18 -110 18q-57 0 -92 -25t-45 -82l-13 -73h155l-13 -72h-155l-74 -423h-82z" />
    <glyph glyph-name="fj" unicode="fj" horiz-adv-x="582" 
d="M242 568l-13 -73h307l-91 -518q-11 -62 -34 -107t-68 -69t-124 -24l13 78q53 0 85.5 25t45.5 97l78 446h-225l-74 -423h-82l75 423h-86l12 72h86l13 72q10 55 34.5 96t69.5 64t115 23q40 0 84 -9t88 -30l-31 -67q-40 17 -76.5 24t-65.5 7q-56 0 -91 -25t-45 -82z" />
    <glyph glyph-name="ffj" unicode="ffj" horiz-adv-x="889" 
d="M549 568l-13 -73h307l-91 -518q-11 -62 -34 -107t-68 -69t-124 -24l13 78q53 0 85.5 25t45.5 97l78 446h-225l-74 -423h-82l75 423h-225l-75 -423h-82l75 423h-86l12 72h87l13 76q9 49 28.5 87t55 60t90.5 22q59 0 112 -28l-30 -66q-22 9 -40.5 14t-35.5 5
q-40 0 -64.5 -22t-33.5 -71l-14 -77h225l13 72q10 55 34.5 96t69.5 64t115 23q40 0 84 -9t88 -30l-31 -67q-40 17 -76.5 24t-65.5 7q-56 0 -91 -25t-45 -82z" />
    <glyph glyph-name="fk" unicode="fk" horiz-adv-x="836" 
d="M365 423h-149l-74 -423h-82l75 423h-86l12 72h86l13 72q10 55 34.5 96t70 64t116.5 23q44 0 94.5 -10.5t103.5 -36.5l-81 -458q74 62 134.5 121t112.5 129h98q-46 -61 -94 -113t-103 -104l128 -278h-95l-100 230q-22 -20 -47 -39t-51 -39l-27 -152h-82l117 657
q-60 18 -110 18q-57 0 -92 -25t-45 -82l-13 -73h149z" />
    <glyph glyph-name="ffk" unicode="ffk" horiz-adv-x="1143" 
d="M367 0l75 423h-225l-75 -423h-82l75 423h-86l12 72h87l13 76q9 49 28.5 87t55 60t90.5 22q59 0 112 -28l-30 -66q-22 9 -40.5 14t-35.5 5q-40 0 -64.5 -22t-33.5 -71l-14 -77h225l13 72q10 55 34.5 96t70 64t116.5 23q44 0 94.5 -10.5t103.5 -36.5l-81 -458
q74 62 134.5 121t112.5 129h98q-46 -61 -94 -113t-103 -104l128 -278h-95l-100 230q-22 -20 -47 -39t-51 -39l-27 -152h-82l117 657q-60 18 -110 18q-57 0 -92 -25t-45 -82l-13 -73h155l-13 -72h-155l-74 -423h-82z" />
    <glyph glyph-name=".notdef" horiz-adv-x="684" 
d="M89 0l120 680h418l-120 -680h-418zM190 81h244l92 517h-244z" />
    <glyph glyph-name=".null" horiz-adv-x="0" 
 />
    <glyph glyph-name="nonmarkingreturn" horiz-adv-x="333" 
 />
    <glyph glyph-name="NULL" horiz-adv-x="0" 
 />
    <glyph glyph-name="NULL" horiz-adv-x="0" 
 />
    <glyph glyph-name="CR" unicode="&#xd;" horiz-adv-x="218" 
 />
    <glyph glyph-name="space" unicode=" " horiz-adv-x="218" 
 />
    <glyph glyph-name="exclam" unicode="!" horiz-adv-x="280" 
d="M161 182h-66l36 248l44 250h82l-44 -250zM142 0h-92l16 91h92z" />
    <glyph glyph-name="quotedbl" unicode="&#x22;" horiz-adv-x="353" 
d="M155 430h-54l17 172l14 78h80l-14 -78zM316 430h-54l17 172l14 78h80l-14 -78z" />
    <glyph glyph-name="numbersign" unicode="#" horiz-adv-x="638" 
d="M255 0l93 195h-166l-93 -195h-77l93 195h-99l12 66h119l75 157h-96l11 66h117l94 196h77l-94 -196h166l94 196h77l-94 -196h99l-11 -66h-120l-75 -157h97l-12 -66h-117l-93 -195h-77zM214 261h166l75 157h-166z" />
    <glyph glyph-name="dollar" unicode="$" horiz-adv-x="506" 
d="M450 193q0 -48 -19.5 -91.5t-63.5 -72.5t-116 -37l-21 -125h-80l21 124q-40 4 -81.5 15t-84.5 32l30 75q50 -24 91 -34.5t82 -10.5q74 0 112.5 32t38.5 86q0 70 -81 106l-72 32q-61 27 -90 67.5t-29 101.5q0 52 21.5 95.5t67 71t118.5 30.5l22 123h80l-23 -128
q60 -9 122 -39l-30 -75q-43 20 -79 30t-73 10q-67 0 -101.5 -30.5t-34.5 -82.5q0 -34 18.5 -56.5t61.5 -42.5l71 -32q58 -25 90 -66.5t32 -107.5z" />
    <glyph glyph-name="percent" unicode="%" horiz-adv-x="761" 
d="M355 501q-10 -63 -47 -94.5t-98 -31.5q-67 0 -98.5 43t-21.5 104l5 36q10 63 47 95t98 32q68 0 99.5 -43t21.5 -105zM590 680h75l-464 -680h-74zM291 502l5 36q6 41 -8.5 64t-49.5 23q-31 0 -52 -16.5t-26 -51.5l-5 -36q-7 -40 7.5 -63.5t49.5 -23.5q32 0 53 17t26 51z
M697 121q-10 -63 -47 -94.5t-98 -31.5q-67 0 -98.5 43t-21.5 104l5 36q10 63 47 95t98 32q68 0 99.5 -43t21.5 -105zM633 122l5 36q6 41 -8.5 64t-49.5 23q-31 0 -52 -16.5t-26 -51.5l-5 -36q-7 -40 7.5 -63.5t49.5 -23.5q32 0 53 17t26 51z" />
    <glyph glyph-name="ampersand" unicode="&#x26;" horiz-adv-x="566" 
d="M457 187q0 -64 -32 -107.5t-86.5 -66.5t-123.5 -23q-93 0 -148.5 42.5t-55.5 124.5q0 142 184 195q-42 35 -68 79t-26 97q0 77 51.5 119.5t135.5 42.5q69 0 112 -28t57.5 -72.5t-3.5 -96.5l-80 -15q20 68 -4.5 103t-82.5 35q-40 0 -71 -19.5t-31 -72.5q0 -34 18 -71.5
t67 -82.5l100 22q68 15 110.5 28t76.5 29l25 -74q-37 -15 -75.5 -25.5t-89.5 -21.5l-14 -3q54 -63 54 -138zM95 161q0 -49 33.5 -72.5t88.5 -23.5q68 0 112.5 33.5t44.5 95.5q0 28 -10.5 58t-31.5 58l-62 -13q-94 -20 -134.5 -52t-40.5 -84z" />
    <glyph glyph-name="quotesingle" unicode="'" horiz-adv-x="192" 
d="M155 430h-54l17 172l14 78h80l-14 -78z" />
    <glyph glyph-name="parenleft" unicode="(" horiz-adv-x="316" 
d="M145 193q0 -73 26.5 -151t78.5 -146l-63 -49q-61 77 -93 170t-32 178v27q0 139 70.5 276.5t213.5 251.5l45 -63q-117 -99 -181.5 -214t-64.5 -256v-24z" />
    <glyph glyph-name="parenright" unicode=")" horiz-adv-x="315" 
d="M188 379v24q0 74 -27 152.5t-78 145.5l62 49q62 -76 94 -169.5t32 -179.5v-27q0 -138 -70 -275.5t-213 -251.5l-46 63q116 98 181 213t65 256z" />
    <glyph glyph-name="asterisk" unicode="*" horiz-adv-x="406" 
d="M362 339l-67 -33l-14 29l-41 124l-81 -104l-23 -21l-52 54l23 21l106 78l-123 45l-28 15l34 65l28 -15l107 -76l5 131l6 31l73 -13l-6 -31l-39 -124l125 35l32 4l10 -73l-31 -5h-132l74 -109z" />
    <glyph glyph-name="plus" unicode="+" 
d="M503 262h-170l-31 -175h-74l31 175h-170l13 72h169l31 175h75l-31 -175h170z" />
    <glyph glyph-name="comma" unicode="," horiz-adv-x="192" 
d="M109 91l-3 -19q-13 -81 -44 -145.5t-88 -134.5l-49 31q31 48 49.5 87.5t30.5 81.5t22 99h82z" />
    <glyph glyph-name="hyphen" unicode="-" horiz-adv-x="392" 
d="M59 267l13 72h280l-13 -72h-280z" />
    <glyph glyph-name="period" unicode="." horiz-adv-x="192" 
d="M98 0h-92l16 91h92z" />
    <glyph glyph-name="slash" unicode="/" horiz-adv-x="364" 
d="M373 740h86l-480 -883h-86z" />
    <glyph glyph-name="zero" unicode="0" horiz-adv-x="613" 
d="M563 399l-23 -135q-24 -133 -89.5 -203.5t-173.5 -70.5q-74 0 -123.5 35t-69 100.5t-3.5 156.5l24 135q23 131 88.5 202t174.5 71q73 0 122.5 -35.5t69 -100.5t3.5 -155zM475 399q19 104 -11 158t-100 54q-136 0 -171 -194l-24 -135q-18 -105 11.5 -159.5t98.5 -54.5
q137 0 173 196z" />
    <glyph glyph-name="one" unicode="1" horiz-adv-x="366" 
d="M78 586l179 94h79l-120 -680h-85l103 585l-128 -67z" />
    <glyph glyph-name="two" unicode="2" horiz-adv-x="496" 
d="M410 79l-14 -79h-389l12 66q14 76 38 124t60 79t84 54l71 35q56 26 87 51t38 71l3 20q9 52 -18 81.5t-90 29.5q-31 0 -70.5 -8.5t-89.5 -28.5l-22 73q55 23 101 33t87 10q73 0 117 -26.5t61.5 -69.5t8.5 -94l-3 -20q-9 -55 -32 -88.5t-60.5 -57t-88.5 -48.5l-71 -34
q-57 -27 -83.5 -67t-40.5 -106h304z" />
    <glyph glyph-name="three" unicode="3" horiz-adv-x="499" 
d="M420 169q-13 -81 -67.5 -130t-169.5 -49q-46 0 -93 10.5t-94 33.5l29 72q44 -21 83 -29.5t76 -8.5q62 0 101 24t48 79l3 15q8 54 -15 86.5t-83 32.5h-100l14 76h100q57 0 89.5 26.5t39.5 71.5l2 16q9 62 -17.5 89t-83.5 27q-35 0 -74 -8.5t-89 -28.5l-22 72
q53 23 101.5 33.5t90.5 10.5q107 0 150.5 -54.5t30.5 -138.5l-2 -16q-15 -102 -108 -143q37 -22 54 -60.5t8 -92.5z" />
    <glyph glyph-name="four" unicode="4" horiz-adv-x="508" 
d="M466 163h-75l-29 -163h-82l29 163h-292l12 67q98 118 178.5 228t141.5 222h99q-61 -110 -138.5 -217.5t-173.5 -222.5h186l22 124h82l-22 -124h75z" />
    <glyph glyph-name="five" unicode="5" horiz-adv-x="504" 
d="M84 354l77 326h339l-14 -80h-263l-46 -193q39 13 84 13q66 0 111 -26t64.5 -73t8.5 -109l-6 -31q-15 -88 -72.5 -139.5t-170.5 -51.5q-46 0 -93 10.5t-95 33.5l33 73q44 -22 82.5 -30.5t75.5 -8.5q62 0 102 26.5t50 86.5l6 31q10 59 -16 95t-93 36q-54 0 -121 -29z" />
    <glyph glyph-name="six" unicode="6" horiz-adv-x="563" 
d="M501 187q-16 -93 -74.5 -145t-151.5 -52q-114 0 -164.5 80.5t-26.5 216.5l25 139q24 138 93 201t178 63q40 0 83.5 -9.5t89.5 -32.5l-33 -73q-40 20 -75 28t-64 8q-73 0 -122.5 -42t-67.5 -143l-13 -70q76 69 163 69q60 0 100.5 -27t58 -74t7.5 -106zM323 348
q-38 0 -80.5 -19t-79.5 -61q-29 -200 115 -200q54 0 92 31t48 88l5 30q10 57 -14.5 94t-85.5 37z" />
    <glyph glyph-name="seven" unicode="7" horiz-adv-x="474" 
d="M502 610q-100 -151 -176 -303.5t-129 -306.5h-95q53 152 128 301.5t173 298.5h-314l15 80h411z" />
    <glyph glyph-name="eight" unicode="8" horiz-adv-x="561" 
d="M488 193q0 -51 -24 -97.5t-76 -76t-138 -29.5q-70 0 -115.5 22t-67.5 58t-22 76q0 52 34.5 106t113.5 97q-35 25 -54.5 60.5t-19.5 83.5t23 93.5t71 74.5t124 29q92 0 141.5 -43.5t49.5 -112.5q0 -49 -29.5 -99t-99.5 -93q43 -26 66 -61t23 -88zM289 395l50 -23
q62 42 82 80t20 69q0 44 -27.5 68.5t-78.5 24.5q-54 0 -92 -29t-38 -85q0 -36 20 -60.5t64 -44.5zM132 165q0 -41 29 -70.5t93 -29.5q69 0 107.5 32t38.5 84q0 38 -22 63t-73 48l-53 24q-68 -40 -94 -76.5t-26 -74.5z" />
    <glyph glyph-name="nine" unicode="9" horiz-adv-x="564" 
d="M488 253q-24 -138 -93 -200.5t-178 -62.5q-40 0 -83.5 9t-90.5 32l33 73q41 -19 75.5 -27.5t64.5 -8.5q73 0 122 42t67 143l12 69q-75 -68 -162 -68q-60 0 -100 27t-57 74t-8 106l4 31q14 93 74 145.5t153 52.5q76 0 124 -36.5t65.5 -103.5t1.5 -158zM173 462
q-9 -57 15 -94t85 -37q39 0 81 19.5t79 60.5q29 200 -115 200q-53 0 -92 -31t-48 -88z" />
    <glyph glyph-name="colon" unicode=":" horiz-adv-x="192" 
d="M169 403h-92l16 92h92zM98 0h-92l16 91h92z" />
    <glyph glyph-name="semicolon" unicode=";" horiz-adv-x="192" 
d="M169 403h-92l16 92h92zM109 91l-3 -19q-13 -81 -44 -145.5t-88 -134.5l-49 31q31 48 49.5 87.5t30.5 81.5t22 99h82z" />
    <glyph glyph-name="less" unicode="&#x3c;" 
d="M489 181l-14 -77l-384 168l9 55l443 165l-15 -83l-318 -113z" />
    <glyph glyph-name="equal" unicode="=" 
d="M107 366l13 72h414l-13 -72h-414zM72 166l13 72h414l-13 -72h-414z" />
    <glyph glyph-name="greater" unicode="&#x3e;" 
d="M504 269l-443 -165l16 84l317 112l-278 115l14 77l384 -168z" />
    <glyph glyph-name="question" unicode="?" horiz-adv-x="438" 
d="M265 614q-34 0 -74.5 -9t-91.5 -30l-19 72q52 22 100 32.5t90 10.5q72 0 114.5 -25t58.5 -67t6 -93l-3 -18q-6 -35 -20 -60t-35 -46.5t-51 -46.5l-37 -33q-35 -30 -48 -50t-18 -49l-3 -20h-84l4 23q6 33 16.5 56.5t30 45.5t53.5 51l38 33q28 24 46 47.5t25 60.5l3 18
q8 44 -17 70.5t-84 26.5zM207 0h-91l16 91h91z" />
    <glyph glyph-name="at" unicode="@" horiz-adv-x="950" 
d="M733 -167q-58 -26 -126 -41t-136 -15q-131 0 -225.5 54t-145 151t-50.5 225q0 103 32 191t91 153.5t141 102t182 36.5q91 0 166.5 -31t130 -86t84 -129t29.5 -160q0 -82 -28.5 -147.5t-78 -103.5t-112.5 -38q-48 0 -79.5 20t-39.5 63q-43 -48 -84 -68t-81 -20
q-47 0 -77.5 27.5t-41.5 76t-2 109.5l8 55q15 100 69 154.5t143 54.5q49 0 95.5 -16.5t91.5 -45.5l-44 -251q-9 -52 6 -71.5t44 -19.5q35 0 65 28t49 77.5t19 115.5q0 95 -41.5 171t-116.5 120.5t-174 44.5q-82 0 -150 -31t-116.5 -87t-75 -131.5t-26.5 -163.5
q0 -109 41 -190t117.5 -125.5t184.5 -44.5q59 0 121 14.5t114 39.5zM366 203q-10 -67 5.5 -103.5t53.5 -36.5q29 0 65 24t77 83l33 196q-49 27 -92 27q-60 0 -92 -36t-42 -99z" />
    <glyph glyph-name="A" unicode="A" horiz-adv-x="577" 
d="M425 0l-23 158h-256l-79 -158h-89l345 680h82l107 -680h-87zM243 354l-58 -117h205l-17 117l-28 208z" />
    <glyph glyph-name="B" unicode="B" horiz-adv-x="586" 
d="M62 0l120 680h190q94 0 139 -51t31 -134l-4 -23q-14 -87 -93 -125q44 -21 63 -61.5t10 -92.5l-3 -23q-13 -80 -65 -125t-152 -45h-236zM368 600h-113l-38 -215h113q50 0 80 23t37 63l5 24q8 49 -13 77t-71 28zM341 305h-138l-40 -226h138q53 0 85 24.5t39 67.5l4 24
q8 50 -14 80t-74 30z" />
    <glyph glyph-name="C" unicode="C" horiz-adv-x="533" 
d="M172 281q-18 -100 11.5 -155.5t106.5 -55.5q27 0 64.5 5.5t85.5 23.5l21 -75q-51 -19 -97.5 -26.5t-82.5 -7.5q-77 0 -127 36t-68.5 101.5t-3.5 153.5l22 130q24 137 89.5 208t186.5 71q41 0 83.5 -10t85.5 -32l-31 -77q-41 20 -74.5 29t-67.5 9q-76 0 -120.5 -51.5
t-61.5 -146.5z" />
    <glyph glyph-name="D" unicode="D" horiz-adv-x="637" 
d="M62 0l120 680h194q79 0 131 -36t73 -99t6 -146l-23 -135q-22 -123 -93 -193.5t-187 -70.5h-221zM372 598h-117l-92 -517h123q75 0 123 48t64 135l23 135q17 92 -15 145.5t-109 53.5z" />
    <glyph glyph-name="E" unicode="E" horiz-adv-x="531" 
d="M456 81l-14 -81h-380l120 680h370l-15 -82h-282l-38 -213h253l-15 -82h-252l-40 -222h293z" />
    <glyph glyph-name="F" unicode="F" horiz-adv-x="506" 
d="M446 286h-246l-51 -286h-87l120 680h364l-15 -82h-276l-41 -230h247z" />
    <glyph glyph-name="G" unicode="G" horiz-adv-x="604" 
d="M499 41q-55 -28 -106.5 -39.5t-99.5 -11.5q-81 0 -133 36t-72 101.5t-5 153.5l23 130q23 137 92.5 208t195.5 71q45 0 92.5 -10t95.5 -33l-31 -76q-46 22 -85 30t-74 8q-82 0 -130.5 -51.5t-65.5 -146.5l-23 -130q-17 -101 14 -156.5t116 -55.5q29 0 58.5 5.5t66.5 20.5
l33 184h-127l15 77h206z" />
    <glyph glyph-name="H" unicode="H" horiz-adv-x="683" 
d="M446 0l53 303h-297l-53 -303h-87l120 680h87l-52 -295h297l52 295h87l-120 -680h-87z" />
    <glyph glyph-name="I" unicode="I" horiz-adv-x="300" 
d="M149 0h-87l120 680h87z" />
    <glyph glyph-name="J" unicode="J" horiz-adv-x="363" 
d="M-18 -7l15 83q57 0 93.5 12t57.5 44.5t31 91.5l80 456h87l-80 -456q-14 -77 -42 -128.5t-84.5 -77t-157.5 -25.5z" />
    <glyph glyph-name="K" unicode="K" horiz-adv-x="595" 
d="M440 0l-140 325q-26 -24 -54 -47.5t-57 -48.5l-40 -229h-87l120 680h87l-61 -346q103 89 181.5 174t137.5 172h100q-58 -82 -121.5 -156.5t-136.5 -145.5l169 -378h-98z" />
    <glyph glyph-name="L" unicode="L" horiz-adv-x="506" 
d="M449 81l-14 -81h-373l120 680h87l-106 -599h286z" />
    <glyph glyph-name="M" unicode="M" horiz-adv-x="829" 
d="M280 680l118 -506l300 506h100l-120 -680h-82l51 291l54 256l-278 -467h-82l-107 477l-38 -266l-51 -291h-83l120 680h98z" />
    <glyph glyph-name="N" unicode="N" horiz-adv-x="690" 
d="M62 0l120 680h91q44 -96 81.5 -184.5t70.5 -178t64 -189.5l38 272l50 280h82l-120 -680h-90q-48 153 -98.5 289.5t-110.5 272.5l-46 -284l-49 -278h-83z" />
    <glyph glyph-name="O" unicode="O" horiz-adv-x="647" 
d="M596 399l-23 -135q-23 -127 -93 -200.5t-185 -73.5q-80 0 -133 36.5t-73.5 102.5t-5.5 153l24 135q22 125 92 199t185 74q80 0 132.5 -37t74 -102.5t5.5 -151.5zM506 399q17 98 -15 154t-111 56q-73 0 -120 -51t-63 -141l-24 -135q-17 -99 14.5 -155.5t110.5 -56.5
q74 0 121.5 51.5t63.5 142.5z" />
    <glyph glyph-name="P" unicode="P" horiz-adv-x="565" 
d="M62 0l120 680h201q68 0 111 -26t60 -71.5t7 -102.5l-10 -54q-14 -82 -69 -130t-153 -48h-136l-44 -248h-87zM379 598h-124l-48 -269h125q54 0 87.5 26.5t41.5 72.5l10 53q11 55 -13 86t-79 31z" />
    <glyph glyph-name="Q" unicode="Q" horiz-adv-x="647" 
d="M502 -94l-16 -89q-91 0 -138 38t-62 113l-5 22q-75 4 -124.5 41t-69 102t-4.5 149l24 135q22 125 92 199t185 74q80 0 132.5 -37t74 -102.5t5.5 -151.5l-23 -135q-19 -106 -71.5 -175.5t-135.5 -90.5q8 -39 21.5 -58.5t40.5 -26t74 -7.5zM506 399q18 98 -14.5 154
t-111.5 56q-73 0 -120 -51t-63 -141l-24 -135q-17 -99 15 -155.5t110 -56.5q74 0 121.5 51.5t63.5 142.5z" />
    <glyph glyph-name="R" unicode="R" horiz-adv-x="601" 
d="M196 266l-47 -266h-87l120 680h202q64 0 107 -25t62 -69.5t9 -102.5l-7 -43q-10 -58 -44 -100t-89 -60q59 -135 96 -280h-94q-16 68 -38 134.5t-49 131.5h-141zM381 600h-126l-45 -254h126q52 0 86.5 25t42.5 71l8 43q9 55 -16 85t-76 30z" />
    <glyph glyph-name="S" unicode="S" horiz-adv-x="506" 
d="M208 68q74 0 112.5 32t38.5 86q0 70 -81 106l-72 32q-61 27 -90 67.5t-29 101.5q0 54 23 98.5t73 71.5t130 27q93 0 182 -44l-30 -75q-43 20 -79 30t-73 10q-67 0 -101.5 -30.5t-34.5 -82.5q0 -34 18.5 -56.5t61.5 -42.5l71 -32q58 -25 90 -66.5t32 -107.5
q0 -53 -24 -99.5t-77 -75t-141 -28.5q-49 0 -99.5 11.5t-103.5 36.5l30 75q50 -24 91 -34.5t82 -10.5z" />
    <glyph glyph-name="T" unicode="T" horiz-adv-x="509" 
d="M74 598l15 82h483l-14 -82h-198l-106 -598h-87l106 598h-199z" />
    <glyph glyph-name="U" unicode="U" horiz-adv-x="648" 
d="M168 680h90l-77 -436q-8 -50 0 -89.5t36 -62t79 -22.5q71 0 113 45.5t56 128.5l77 436h90l-77 -436q-21 -117 -83.5 -185.5t-178.5 -68.5q-78 0 -127.5 33.5t-68 91t-6.5 129.5z" />
    <glyph glyph-name="V" unicode="V" horiz-adv-x="563" 
d="M619 680l-337 -680h-88l-98 680h88l47 -345l25 -217l104 218l167 344h92z" />
    <glyph glyph-name="W" unicode="W" horiz-adv-x="860" 
d="M209 392l1 -266l254 554h82l57 -555l98 267l110 288h89l-269 -680h-90l-57 554l-253 -554h-90l-29 680h89z" />
    <glyph glyph-name="X" unicode="X" horiz-adv-x="541" 
d="M386 0l-111 273l-201 -273h-97l263 353l-133 327h91l106 -260l191 260h98l-254 -340l138 -340h-91z" />
    <glyph glyph-name="Y" unicode="Y" horiz-adv-x="524" 
d="M590 680l-280 -409l-48 -271h-87l48 271l-136 409h89l104 -322l214 322h96z" />
    <glyph glyph-name="Z" unicode="Z" horiz-adv-x="508" 
d="M440 81l-14 -81h-428l11 70l404 528h-301l15 82h409l-13 -71l-404 -528h321z" />
    <glyph glyph-name="bracketleft" unicode="[" horiz-adv-x="346" 
d="M287 -71l-13 -72h-237l156 883h237l-13 -72h-155l-130 -739h155z" />
    <glyph glyph-name="backslash" unicode="\" horiz-adv-x="364" 
d="M157 740l176 -883h-80l-176 883h80z" />
    <glyph glyph-name="bracketright" unicode="]" horiz-adv-x="346" 
d="M326 740l-155 -883h-237l13 72h155l129 739h-155l13 72h237z" />
    <glyph glyph-name="asciicircum" unicode="^" 
d="M412 266l-61 298l-166 -298h-82l238 414h55l94 -414h-78z" />
    <glyph glyph-name="underscore" unicode="_" horiz-adv-x="389" 
d="M-66 -157l11 61h379l-11 -61h-379z" />
    <glyph glyph-name="grave" unicode="`" horiz-adv-x="500" 
d="M274 579l-75 130l81 36l61 -166h-67z" />
    <glyph glyph-name="a" unicode="a" horiz-adv-x="549" 
d="M456 -5q-49 0 -72.5 24.5t-25.5 61.5q-47 -51 -90 -71t-81 -20q-49 0 -80.5 31t-43.5 85t-2 122l7 49q16 107 75 167.5t155 60.5q50 0 99.5 -16.5t95.5 -46.5l-54 -307q-5 -30 2 -47.5t32 -17.5h14l-14 -75h-17zM146 228q-11 -79 6 -121.5t57 -42.5q30 0 70 26t86 91
l39 222q-54 27 -101 27q-65 0 -102.5 -42.5t-47.5 -110.5z" />
    <glyph glyph-name="b" unicode="b" horiz-adv-x="553" 
d="M483 218q-16 -109 -74.5 -168.5t-157.5 -59.5q-54 0 -103.5 17.5t-97.5 45.5l122 687h82l-58 -327q46 52 87.5 72t78.5 20q50 0 82 -31t44.5 -85t1.5 -123zM339 430q-31 0 -72 -27.5t-90 -96.5l-37 -214q55 -28 106 -28q68 0 105 41.5t47 112.5l7 48q12 79 -5.5 121.5
t-60.5 42.5z" />
    <glyph glyph-name="c" unicode="c" horiz-adv-x="451" 
d="M291 429q-55 0 -92 -36.5t-48 -104.5l-9 -54q-12 -74 9.5 -121.5t93.5 -47.5q53 0 121 25l14 -71q-79 -29 -142 -29q-74 0 -117 32.5t-57 88.5t-3 126l8 51q17 101 74.5 159t145.5 58q36 0 73 -10t74 -28l-29 -70q-31 15 -60.5 23.5t-55.5 8.5z" />
    <glyph glyph-name="d" unicode="d" horiz-adv-x="557" 
d="M346 0l15 88q-47 -55 -89.5 -76.5t-81.5 -21.5q-50 0 -82 31t-44 85t-2 122l7 49q16 109 74.5 168.5t157.5 59.5q33 0 64 -8t61 -22l47 265h82l-131 -740h-78zM147 228q-11 -79 6 -121.5t60 -42.5q32 0 73 28t90 98l37 211q-55 29 -107 29q-67 0 -104 -41t-48 -112z" />
    <glyph glyph-name="e" unicode="e" horiz-adv-x="505" 
d="M409 20q-43 -16 -83 -23t-76 -7q-80 0 -125.5 32.5t-60.5 88.5t-4 126l9 51q16 98 75.5 157.5t150.5 59.5q45 0 84.5 -16t63.5 -50t24 -87q0 -29 -8.5 -61.5t-31.5 -70.5h-289q-9 -69 16 -112.5t103 -43.5q28 0 64 6.5t75 19.5zM292 432q-57 0 -94 -37.5t-48 -104.5h224
q8 17 10.5 32t2.5 28q0 42 -27 62t-68 20z" />
    <glyph glyph-name="f" unicode="f" horiz-adv-x="347" 
d="M379 423h-162l-75 -423h-82l75 423h-86l12 72h87l14 82q9 50 30 89t58.5 61.5t95.5 22.5q32 0 62.5 -7.5t57.5 -21.5l-32 -66q-48 20 -84 20q-43 0 -70 -23t-36 -74l-15 -83h163z" />
    <glyph glyph-name="g" unicode="g" horiz-adv-x="554" 
d="M424 0q-8 -46 -21.5 -86t-38.5 -71t-66.5 -48.5t-104.5 -17.5q-40 0 -79.5 8t-79.5 24l21 70q37 -15 70.5 -21.5t64.5 -6.5q56 0 86 18t44 51.5t22 79.5l14 79q-45 -49 -86.5 -69t-79.5 -20q-50 0 -82 31t-44 85t-2 122l7 49q16 109 74.5 168.5t157.5 59.5
q53 0 104 -16.5t97 -46.5zM147 228q-11 -79 6 -121.5t60 -42.5q32 0 73 26t88 93l39 219q-56 28 -107 28q-67 0 -104 -41t-48 -112z" />
    <glyph glyph-name="h" unicode="h" horiz-adv-x="571" 
d="M361 428q-19 0 -44.5 -8.5t-58.5 -32.5t-76 -70l-56 -317h-82l130 740h82l-58 -331q57 59 102.5 77.5t82.5 18.5q69 0 101 -49t18 -129l-58 -327h-82l56 320q11 54 -4.5 81t-52.5 27z" />
    <glyph glyph-name="i" unicode="i" horiz-adv-x="260" 
d="M241 616h-92l15 92h92zM126 0h-82l88 495h82z" />
    <glyph glyph-name="j" unicode="j" horiz-adv-x="259" 
d="M240 616h-92l16 92h92zM-103 -223l13 78q53 0 85 25t45 97l92 518h82l-92 -518q-11 -62 -34 -107t-68 -69t-123 -24z" />
    <glyph glyph-name="k" unicode="k" horiz-adv-x="508" 
d="M351 0l-100 230q-22 -19 -47 -38.5t-51 -39.5l-27 -152h-82l131 740h82l-88 -496q75 62 135.5 121.5t112.5 129.5h98q-46 -61 -94 -113t-103 -104l128 -278h-95z" />
    <glyph glyph-name="l" unicode="l" horiz-adv-x="264" 
d="M65 125l108 615h82l-108 -616q-4 -28 1.5 -41t33.5 -13h15l-14 -75h-17q-69 0 -90 36.5t-11 93.5z" />
    <glyph glyph-name="m" unicode="m" horiz-adv-x="869" 
d="M356 428q-28 0 -69.5 -21.5t-104.5 -89.5l-56 -317h-82l88 495h77l-15 -90q58 61 103 80.5t81 19.5q49 0 79 -28t37 -76q59 63 107 83.5t85 20.5q67 0 97.5 -49t16.5 -129l-58 -327h-82l57 320q10 54 -5 81t-48 27q-18 0 -42.5 -9t-56.5 -32.5t-75 -69.5l-56 -317h-82
l56 320q10 54 -4.5 81t-47.5 27z" />
    <glyph glyph-name="n" unicode="n" horiz-adv-x="571" 
d="M361 428q-19 0 -44 -8.5t-58 -32t-76 -69.5l-57 -318h-82l88 495h77l-15 -91q59 62 105.5 81.5t83.5 19.5q68 0 100.5 -49.5t18.5 -128.5l-58 -327h-82l56 320q20 108 -57 108z" />
    <glyph glyph-name="o" unicode="o" horiz-adv-x="543" 
d="M483 258l-8 -50q-16 -106 -75.5 -162t-154.5 -56q-70 0 -115.5 32t-63.5 88t-7 127l8 51q17 102 75.5 159.5t154.5 57.5q71 0 116 -33t63 -88.5t7 -125.5zM398 260q12 75 -14 122.5t-88 47.5q-58 0 -95.5 -37t-48.5 -105l-8 -53q-12 -77 14.5 -124t87.5 -47
q58 0 95.5 36.5t48.5 107.5z" />
    <glyph glyph-name="p" unicode="p" horiz-adv-x="556" 
d="M255 -10q-34 0 -65 8t-61 22l-41 -233h-82l126 708h77l-16 -90q48 56 91 78t81 22q50 0 82 -31t44.5 -85t2.5 -123l-7 -48q-16 -109 -75 -168.5t-157 -59.5zM342 430q-31 0 -72 -28t-91 -97l-37 -212q55 -29 107 -29q68 0 105.5 41.5t47.5 112.5l7 48q11 79 -6 121.5
t-61 42.5z" />
    <glyph glyph-name="q" unicode="q" horiz-adv-x="554" 
d="M502 441l-116 -654h-82l52 294q-46 -51 -87 -71t-79 -20q-50 0 -82 31t-44 85t-2 122l7 49q16 109 74.5 168.5t157.5 59.5q54 0 103.5 -17.5t97.5 -46.5zM147 228q-11 -79 6 -121.5t60 -42.5q32 0 72.5 27.5t89.5 97.5l37 213q-56 28 -106 28q-67 0 -104 -41t-48 -112z
" />
    <glyph glyph-name="r" unicode="r" horiz-adv-x="367" 
d="M379 422q-23 0 -55 -7.5t-68.5 -30.5t-74.5 -70l-55 -314h-82l88 495h77l-16 -93q57 63 108.5 83t91.5 20z" />
    <glyph glyph-name="s" unicode="s" horiz-adv-x="433" 
d="M177 63q58 0 83.5 20t25.5 52q0 26 -16 42t-54 30l-48 19q-51 19 -76.5 51t-25.5 81q0 40 17.5 73t56.5 53.5t102 20.5q77 0 156 -36l-26 -70q-36 17 -68 24.5t-64 7.5q-49 0 -70.5 -18t-21.5 -49q0 -22 13.5 -38t46.5 -29l49 -18q55 -20 83 -52t28 -83q0 -39 -19 -74.5
t-61.5 -57.5t-112.5 -22q-83 0 -167 37l26 69q39 -17 74 -25t69 -8z" />
    <glyph glyph-name="t" unicode="t" horiz-adv-x="382" 
d="M321 17q-64 -27 -121 -27q-51 0 -79 22.5t-36 58.5t-1 77l48 275h-86l12 72h87l24 138h82l-24 -138h162l-13 -72h-162l-49 -275q-8 -46 7 -64.5t44 -18.5q16 0 38.5 4.5t48.5 16.5z" />
    <glyph glyph-name="u" unicode="u" horiz-adv-x="559" 
d="M349 0l16 90q-58 -61 -102.5 -80.5t-80.5 -19.5q-67 0 -97.5 49t-16.5 128l58 328h82l-56 -320q-10 -55 4.5 -81.5t46.5 -26.5q19 0 43 8.5t56 32.5t74 69l56 318h82l-87 -495h-78z" />
    <glyph glyph-name="v" unicode="v" horiz-adv-x="472" 
d="M493 495l-262 -495h-76l-90 495h80l41 -241l23 -153l77 153l123 241h84z" />
    <glyph glyph-name="w" unicode="w" horiz-adv-x="716" 
d="M728 495l-214 -495h-95l-32 407l-179 -407h-95l-39 495h80l14 -207l9 -206l180 413h88l34 -410l79 202l85 208h85z" />
    <glyph glyph-name="x" unicode="x" horiz-adv-x="459" 
d="M307 0l-88 190l-151 -190h-89l208 257l-109 238h84l80 -174l138 174h90l-195 -241l116 -254h-84z" />
    <glyph glyph-name="y" unicode="y" horiz-adv-x="472" 
d="M204 -50q-34 -63 -67.5 -101t-74 -55t-95.5 -17l14 81q35 1 59 9t46.5 32t49.5 73l18 31l-89 492h81l42 -241l23 -152l75 152l123 241h85l-263 -495z" />
    <glyph glyph-name="z" unicode="z" horiz-adv-x="412" 
d="M347 71l-12 -71h-343l10 64l297 359h-224l13 72h324l-11 -65l-296 -359h242z" />
    <glyph glyph-name="braceleft" unicode="{" horiz-adv-x="377" 
d="M318 -72l-13 -72h-79q-65 0 -100 25.5t-41 69.5t15 98l37 98q13 34 15.5 60t-12 40.5t-52.5 14.5h-65l12 72h65q56 0 74 32t16 83l-2 98q-3 94 39 143.5t134 49.5h99l-12 -72h-86q-49 0 -70 -29.5t-20 -72.5l3 -98q3 -144 -90 -174q81 -31 30 -166l-38 -98
q-16 -43 -5.5 -72.5t59.5 -29.5h87z" />
    <glyph glyph-name="bar" unicode="|" horiz-adv-x="295" 
d="M193 740h82l-168 -953h-82z" />
    <glyph glyph-name="braceright" unicode="}" horiz-adv-x="377" 
d="M206 49q3 -94 -39 -143.5t-134 -49.5h-99l13 72h85q50 0 71 29.5t19 72.5l-3 98q-3 143 90 173q-81 31 -30 167l38 98q17 43 6.5 72.5t-60.5 29.5h-87l13 72h79q66 0 100.5 -25.5t40.5 -69t-15 -98.5l-37 -98q-13 -34 -15.5 -60.5t12.5 -41t52 -14.5h65l-12 -72h-65
q-56 0 -74 -32t-16 -82z" />
    <glyph glyph-name="asciitilde" unicode="~" 
d="M386 208q-39 0 -62.5 17t-39 39t-30.5 39t-37 17q-19 0 -38 -19t-41 -80l-63 16q20 65 43.5 98t49 45t50.5 12q39 0 62.5 -17t39 -39t30.5 -39t37 -17q20 0 39 20t42 80l63 -16q-20 -64 -44 -98t-49.5 -46t-51.5 -12z" />
    <glyph glyph-name="uni00A0" unicode="&#xa0;" horiz-adv-x="218" 
 />
    <glyph glyph-name="exclamdown" unicode="&#xa1;" horiz-adv-x="280" 
d="M137 495h92l-16 -92h-92zM118 312h66l-36 -247l-44 -250h-82l44 250z" />
    <glyph glyph-name="cent" unicode="&#xa2;" horiz-adv-x="445" 
d="M380 19q-34 -13 -65.5 -20t-60.5 -9l-20 -115h-80l22 122q-76 20 -102.5 85.5t-12.5 154.5l8 51q16 94 66.5 151t129.5 65l20 116h80l-21 -121q46 -9 92 -32l-29 -70q-31 15 -60.5 23.5t-55.5 8.5q-55 0 -92 -36.5t-48 -104.5l-9 -54q-12 -74 9.5 -121.5t93.5 -47.5
q53 0 121 25z" />
    <glyph glyph-name="sterling" unicode="&#xa3;" horiz-adv-x="486" 
d="M430 81l-14 -81h-391l13 69q53 49 79.5 83.5t35.5 61.5t9 51v7.5t-1 6.5h-95l14 76h65q-8 30 -16.5 62.5t-8.5 72.5q0 52 20 97.5t67 74t128 28.5q44 0 87.5 -10t89.5 -32l-33 -76q-42 20 -76.5 28.5t-65.5 8.5q-64 0 -95.5 -32.5t-31.5 -91.5q0 -36 9 -67.5t18 -62.5
h173l-14 -76h-146v-6q0 -45 -23.5 -91.5t-76.5 -100.5h280z" />
    <glyph glyph-name="currency" unicode="&#xa4;" horiz-adv-x="576" 
d="M282 103q-70 0 -116 37l-126 -109l-40 48l124 110q-22 41 -22 93q0 83 50 142l-77 98l50 44l78 -98q24 14 51.5 21.5t58.5 7.5q70 0 116 -37l125 109l41 -49l-124 -108q11 -20 16.5 -43.5t5.5 -50.5q0 -41 -13.5 -78t-37.5 -65l77 -97l-51 -45l-78 98q-48 -28 -108 -28z
M312 431q-41 0 -72.5 -19.5t-49 -52.5t-17.5 -75q0 -54 29.5 -84.5t81.5 -30.5q41 0 72 19t48.5 52.5t17.5 74.5q0 55 -29 85.5t-81 30.5z" />
    <glyph glyph-name="yen" unicode="&#xa5;" horiz-adv-x="554" 
d="M488 164h-183l-29 -164h-87l29 164h-181l12 68h181l7 39l-20 61h-150l12 68h115l-93 280h89l104 -322l214 322h96l-192 -280h117l-12 -68h-151l-42 -61l-7 -39h183z" />
    <glyph glyph-name="brokenbar" unicode="&#xa6;" horiz-adv-x="282" 
d="M187 740h82l-68 -383h-82zM86 170h82l-67 -383h-82z" />
    <glyph glyph-name="section" unicode="&#xa7;" horiz-adv-x="507" 
d="M392 -33q0 -49 -23 -92.5t-74 -70.5t-135 -27q-49 0 -96.5 11t-97.5 36l32 75q47 -22 85 -32.5t78 -10.5q70 0 106 28t36 76q0 32 -17.5 54t-55.5 38l-72 30q-121 50 -121 151q0 57 35 99t89 64q-46 43 -46 111q0 50 22 91.5t69.5 66.5t123.5 25q87 0 177 -42l-32 -75
q-41 20 -76 29t-71 9q-61 0 -92.5 -27t-31.5 -72q0 -29 17.5 -48.5t59.5 -36.5l65 -28q55 -22 86.5 -60t31.5 -97q0 -47 -30 -90t-88 -68q46 -44 46 -117zM280 125q2 -1 3 -1t2 -1q42 18 66 44.5t24 61.5t-19 57.5t-60 39.5l-65 27q-2 1 -4 1.5t-4 1.5q-97 -34 -97 -112
q0 -31 19 -50.5t63 -38.5z" />
    <glyph glyph-name="dieresis" unicode="&#xa8;" horiz-adv-x="500" 
d="M263 619h-86l15 86h86zM454 619h-86l15 86h86z" />
    <glyph glyph-name="copyright" unicode="&#xa9;" horiz-adv-x="840" 
d="M436 -37q-81 0 -149 28t-118 79t-77.5 119.5t-27.5 150.5t27.5 150.5t77.5 119.5t118 79t149 28q80 0 148 -28t118 -79t78 -119.5t28 -150.5t-28 -150.5t-78 -119.5t-118 -79t-148 -28zM436 21q89 0 158.5 41t109.5 113t40 165t-40 165t-109.5 113t-158.5 41t-158.5 -41
t-109.5 -113t-40 -165t40 -165t109.5 -113t158.5 -41zM336 361v-41q0 -64 24.5 -97t78.5 -33q53 0 113 29l24 -61q-68 -35 -142 -35q-85 0 -129 52t-44 145v41q0 92 44 144t129 52q32 0 67 -7.5t66 -24.5l-24 -61q-27 12 -53 19t-51 7q-54 0 -78.5 -33t-24.5 -96z" />
    <glyph glyph-name="ordfeminine" unicode="&#xaa;" horiz-adv-x="362" 
d="M344 338q-34 0 -51.5 16.5t-21.5 40.5q-30 -34 -57.5 -47t-52.5 -13q-51 0 -74.5 45.5t-13.5 115.5l5 33q11 74 53 115t109 41q34 0 67 -11.5t64 -31.5l-36 -205q-3 -19 1.5 -28.5t20.5 -9.5h10l-11 -61h-12zM139 496q-7 -49 3 -75.5t35 -26.5q20 0 45.5 16.5t55.5 56.5
l25 142q-32 16 -63 16q-42 0 -66 -26.5t-30 -69.5z" />
    <glyph glyph-name="guillemotleft" unicode="&#xab;" horiz-adv-x="667" 
d="M296 98l-16 -84l-247 207l9 53l320 204l-16 -96l-227 -141zM586 98l-16 -84l-247 207l9 53l320 204l-16 -96l-227 -141z" />
    <glyph glyph-name="logicalnot" unicode="&#xac;" 
d="M109 376l13 72h414l-43 -243h-74l30 171h-340z" />
    <glyph glyph-name="uni00AD" unicode="&#xad;" horiz-adv-x="0" 
 />
    <glyph glyph-name="registered" unicode="&#xae;" horiz-adv-x="547" 
d="M314 241q-67 0 -120 31t-83.5 85t-30.5 122q0 69 30.5 122.5t83.5 84.5t120 31t120 -31t83.5 -84.5t30.5 -122.5q0 -68 -30.5 -122t-83.5 -85t-120 -31zM314 290q52 0 93 24.5t64.5 67.5t23.5 97q0 55 -23.5 97.5t-64.5 67t-93 24.5t-93 -24.5t-64.5 -67t-23.5 -97.5
q0 -54 23.5 -97t64.5 -67.5t93 -24.5zM232 353v255h87q39 0 60.5 -21t21.5 -56v-14q0 -46 -35 -67q14 -23 27 -47t23 -50h-58q-10 23 -20 44t-22 42h-33v-86h-51zM319 559h-36v-71h36q28 0 28 29v14q0 28 -28 28z" />
    <glyph glyph-name="macron" unicode="&#xaf;" horiz-adv-x="500" 
d="M467 672l-11 -63h-286l12 63h285z" />
    <glyph glyph-name="degree" unicode="&#xb0;" horiz-adv-x="366" 
d="M219 366q-67 0 -107.5 39t-40.5 106q0 50 22.5 90.5t62 64.5t89.5 24q67 0 107 -39.5t40 -106.5q0 -49 -22.5 -89.5t-61.5 -64.5t-89 -24zM244 628q-46 0 -76 -33t-30 -82q0 -40 22 -62.5t60 -22.5q46 0 75.5 32.5t29.5 81.5q0 41 -21.5 63.5t-59.5 22.5z" />
    <glyph glyph-name="plusminus" unicode="&#xb1;" 
d="M510 302h-170l-30 -171h-74l30 171h-170l13 72h170l30 171h74l-30 -171h170zM43 0l12 71h414l-12 -71h-414z" />
    <glyph glyph-name="uni00B2" unicode="&#xb2;" horiz-adv-x="270" 
d="M285 505l-11 -60h-216l7 41q7 41 19 64.5t31.5 39t50.5 29.5l36 16q23 11 35.5 21t14.5 27l2 10q6 36 -45 36q-39 0 -92 -20l-11 59q57 22 107 22q65 0 88 -28t18 -68l-2 -12q-5 -41 -31 -62.5t-68 -40.5l-35 -16q-21 -9 -32.5 -21.5t-16.5 -36.5h151z" />
    <glyph glyph-name="uni00B3" unicode="&#xb3;" horiz-adv-x="274" 
d="M285 533q-8 -44 -37.5 -68.5t-91.5 -24.5q-24 0 -48.5 5t-46.5 16l20 57q20 -10 39.5 -13.5t37.5 -3.5q56 0 62 38l2 8q3 19 -8.5 30.5t-40.5 11.5h-43l9 55h44q27 0 42 11t18 29l1 7q4 20 -8.5 29t-36.5 9q-16 0 -34 -3.5t-42 -13.5l-15 58q27 11 51.5 15.5t46.5 4.5
q62 0 86 -27t18 -68l-1 -7q-9 -53 -59 -74q45 -22 36 -71z" />
    <glyph glyph-name="acute" unicode="&#xb4;" horiz-adv-x="500" 
d="M346 579h-76l119 166l77 -36z" />
    <glyph glyph-name="uni00B5" unicode="&#xb5;" horiz-adv-x="566" 
d="M104 -125l-16 -88h-82l126 708h82l-56 -320q-10 -55 4 -81.5t47 -26.5q19 0 42.5 8.5t55.5 32t74 68.5l57 319h82l-64 -360q-5 -30 2 -47.5t32 -17.5h14l-14 -75h-17q-54 0 -77 28t-22 70q-58 -62 -103.5 -82.5t-80.5 -20.5q-51 0 -76 33z" />
    <glyph glyph-name="paragraph" unicode="&#xb6;" horiz-adv-x="563" 
d="M299 -143l145 823h87l-145 -823h-87zM376 680l-76 -432h-45q-68 0 -111 26t-60 71t-7 102l10 55q14 82 69 130t153 48h67z" />
    <glyph glyph-name="periodcentered" unicode="&#xb7;" horiz-adv-x="500" 
d="M312 338h-92l15 92h92z" />
    <glyph glyph-name="cedilla" unicode="&#xb8;" horiz-adv-x="500" 
d="M284 -126q0 -38 -29.5 -67.5t-91.5 -29.5q-22 0 -41 4t-39 11l14 56q17 -6 34 -9t30 -3q30 0 42.5 10.5t12.5 23.5q0 12 -9.5 19.5t-33.5 7.5q-6 0 -12 -0.5t-13 -1.5l-16 38l24 67h59l-18 -50q41 -1 64 -21t23 -55z" />
    <glyph glyph-name="uni00B9" unicode="&#xb9;" horiz-adv-x="222" 
d="M107 735l99 50h56l-60 -340h-64l48 267l-57 -28z" />
    <glyph glyph-name="ordmasculine" unicode="&#xba;" horiz-adv-x="349" 
d="M368 517l-5 -35q-12 -72 -53 -109.5t-107 -37.5q-74 0 -108 47.5t-22 119.5l5 35q11 69 52 108.5t108 39.5q50 0 81.5 -22.5t44 -60.5t4.5 -85zM303 518q7 47 -9 77t-56 30q-38 0 -63 -23t-32 -65l-5 -36q-7 -49 9.5 -77.5t56.5 -28.5q38 0 62.5 22t31.5 65z" />
    <glyph glyph-name="guillemotright" unicode="&#xbb;" horiz-adv-x="667" 
d="M334 218l-320 -204l16 95l226 141l-176 143l16 85l247 -207zM624 218l-320 -204l16 95l226 141l-176 143l16 85l247 -207z" />
    <glyph glyph-name="onequarter" unicode="&#xbc;" horiz-adv-x="620" 
d="M89 630l99 50h56l-60 -340h-64l48 267l-57 -28zM518 680h75l-464 -680h-74zM582 70h-38l-12 -70h-59l12 70h-145l8 45q49 59 87.5 114t69.5 111h68q-29 -54 -64.5 -106t-82.5 -108h69l10 56h59l-10 -56h37z" />
    <glyph glyph-name="onehalf" unicode="&#xbd;" horiz-adv-x="664" 
d="M89 630l99 50h56l-60 -340h-64l48 267l-57 -28zM518 680h75l-464 -680h-74zM602 60l-11 -60h-216l7 41q7 41 19 64.5t31.5 39t50.5 29.5l36 16q23 11 35.5 21t14.5 27l2 10q6 36 -45 36q-39 0 -92 -20l-11 59q57 22 107 22q65 0 88 -28t18 -68l-2 -12q-5 -41 -31 -62.5
t-68 -40.5l-35 -16q-21 -9 -32.5 -21.5t-16.5 -36.5h151z" />
    <glyph glyph-name="threequarters" unicode="&#xbe;" horiz-adv-x="656" 
d="M267 428q-8 -44 -37.5 -68.5t-91.5 -24.5q-24 0 -48.5 5t-46.5 16l20 57q20 -10 39.5 -13.5t37.5 -3.5q56 0 62 38l2 8q3 19 -8.5 30.5t-40.5 11.5h-43l9 55h44q27 0 42 11t18 29l1 7q4 20 -8.5 29t-36.5 9q-16 0 -34 -3.5t-42 -13.5l-15 58q27 11 51.5 15.5t46.5 4.5
q62 0 86 -27t18 -68l-1 -7q-9 -53 -59 -74q45 -22 36 -71zM554 680h75l-464 -680h-74zM618 70h-38l-12 -70h-59l12 70h-145l8 45q49 59 87.5 114t69.5 111h68q-29 -54 -64.5 -106t-82.5 -108h69l10 56h59l-10 -56h37z" />
    <glyph glyph-name="questiondown" unicode="&#xbf;" horiz-adv-x="439" 
d="M244 495h91l-16 -92h-91zM185 -119q35 0 75.5 9t91.5 30l19 -72q-52 -22 -100 -32.5t-90 -10.5q-71 0 -114 25t-58.5 67.5t-6.5 92.5l3 18q10 52 36.5 83.5t69.5 68.5l37 33q35 30 47.5 50t17.5 50l4 19h84l-4 -22q-6 -33 -16.5 -57t-30 -46t-53.5 -51l-38 -33
q-28 -23 -46 -47t-25 -60l-3 -18q-8 -44 17 -70.5t83 -26.5z" />
    <glyph glyph-name="Agrave" unicode="&#xc0;" horiz-adv-x="577" 
d="M425 0l-23 158h-256l-79 -158h-89l345 680h82l107 -680h-87zM243 354l-58 -117h205l-17 117l-28 208zM343 764l-75 130l81 36l61 -166h-67z" />
    <glyph glyph-name="Aacute" unicode="&#xc1;" horiz-adv-x="577" 
d="M425 0l-23 158h-256l-79 -158h-89l345 680h82l107 -680h-87zM243 354l-58 -117h205l-17 117l-28 208zM415 764h-76l119 166l77 -36z" />
    <glyph glyph-name="Acircumflex" unicode="&#xc2;" horiz-adv-x="577" 
d="M425 0l-23 158h-256l-79 -158h-89l345 680h82l107 -680h-87zM243 354l-58 -117h205l-17 117l-28 208zM446 764l-50 95l-85 -95h-69l121 161h83l64 -161h-64z" />
    <glyph glyph-name="Atilde" unicode="&#xc3;" horiz-adv-x="577" 
d="M425 0l-23 158h-256l-79 -158h-89l345 680h82l107 -680h-87zM243 354l-58 -117h205l-17 117l-28 208zM448 773q-28 0 -44.5 12.5t-27 28.5t-19 28.5t-21.5 12.5q-10 0 -20.5 -14t-18.5 -56h-63q10 55 25.5 85t35.5 41.5t41 11.5q29 0 45.5 -12.5t26.5 -28.5t18.5 -28.5
t21.5 -12.5q11 0 20.5 13.5t17.5 55.5h63q-9 -55 -24.5 -84.5t-35 -41t-41.5 -11.5z" />
    <glyph glyph-name="Adieresis" unicode="&#xc4;" horiz-adv-x="577" 
d="M425 0l-23 158h-256l-79 -158h-89l345 680h82l107 -680h-87zM243 354l-58 -117h205l-17 117l-28 208zM331 804h-86l15 86h86zM522 804h-86l15 86h86z" />
    <glyph glyph-name="Aring" unicode="&#xc5;" horiz-adv-x="577" 
d="M146 158l-79 -158h-89l324 639q-25 14 -36 39.5t-6 58.5l2 15q8 45 40.5 73t82.5 28q54 0 82.5 -32t20.5 -80l-3 -15q-5 -32 -24 -56.5t-49 -35.5l100 -634h-87l-24 158h-255zM429 747q4 22 -8.5 36.5t-38.5 14.5q-23 0 -40 -13.5t-21 -38.5l-3 -14q-4 -23 9 -37.5
t38 -14.5q24 0 41 13.5t21 38.5zM243 354l-58 -117h205l-17 117l-28 208z" />
    <glyph glyph-name="AE" unicode="&#xc6;" horiz-adv-x="834" 
d="M-40 0l477 680h418l-15 -82h-282l-38 -213h253l-15 -82h-252l-40 -222h293l-14 -81h-380l28 158h-224l-110 -158h-99zM223 237h184l62 354z" />
    <glyph glyph-name="Ccedilla" unicode="&#xc7;" horiz-adv-x="533" 
d="M347 -126q0 -38 -29 -67.5t-91 -29.5q-22 0 -41 4t-39 11l14 56q17 -6 34 -9t30 -3q30 0 42 10.5t12 23.5q0 12 -9 19.5t-33 7.5q-6 0 -12 -0.5t-13 -1.5l-16 38l23 64q-84 20 -120 95.5t-17 188.5l22 130q24 137 89.5 208t186.5 71q41 0 83.5 -10t85.5 -32l-31 -77
q-41 20 -74.5 29t-67.5 9q-76 0 -120.5 -51.5t-61.5 -146.5l-22 -130q-18 -100 11.5 -155.5t106.5 -55.5q27 0 64.5 5.5t85.5 23.5l21 -75q-51 -19 -97.5 -26.5t-82.5 -7.5h-6l-14 -40q41 -1 63.5 -21t22.5 -55z" />
    <glyph glyph-name="Egrave" unicode="&#xc8;" horiz-adv-x="531" 
d="M456 81l-14 -81h-380l120 680h370l-15 -82h-282l-38 -213h253l-15 -82h-252l-40 -222h293zM345 764l-75 130l81 36l61 -166h-67z" />
    <glyph glyph-name="Eacute" unicode="&#xc9;" horiz-adv-x="531" 
d="M456 81l-14 -81h-380l120 680h370l-15 -82h-282l-38 -213h253l-15 -82h-252l-40 -222h293zM417 764h-76l119 166l77 -36z" />
    <glyph glyph-name="Ecircumflex" unicode="&#xca;" horiz-adv-x="531" 
d="M456 81l-14 -81h-380l120 680h370l-15 -82h-282l-38 -213h253l-15 -82h-252l-40 -222h293zM448 764l-50 95l-85 -95h-69l121 161h83l64 -161h-64z" />
    <glyph glyph-name="Edieresis" unicode="&#xcb;" horiz-adv-x="531" 
d="M456 81l-14 -81h-380l120 680h370l-15 -82h-282l-38 -213h253l-15 -82h-252l-40 -222h293zM333 804h-86l15 86h86zM524 804h-86l15 86h86z" />
    <glyph glyph-name="Igrave" unicode="&#xcc;" horiz-adv-x="300" 
d="M149 0h-87l120 680h87zM205 764l-75 130l81 36l61 -166h-67z" />
    <glyph glyph-name="Iacute" unicode="&#xcd;" horiz-adv-x="300" 
d="M149 0h-87l120 680h87zM277 764h-76l119 166l77 -36z" />
    <glyph glyph-name="Icircumflex" unicode="&#xce;" horiz-adv-x="300" 
d="M149 0h-87l120 680h87zM308 764l-50 95l-85 -95h-69l121 161h83l64 -161h-64z" />
    <glyph glyph-name="Idieresis" unicode="&#xcf;" horiz-adv-x="300" 
d="M149 0h-87l120 680h87zM193 804h-86l15 86h86zM384 804h-86l15 86h86z" />
    <glyph glyph-name="Eth" unicode="&#xd0;" horiz-adv-x="647" 
d="M53 384h87l52 296h193q79 0 131 -36t73.5 -99t6.5 -146l-24 -135q-21 -123 -92 -193.5t-187 -70.5h-221l54 305h-87zM350 305h-137l-40 -224h123q75 0 123 48t63 135l24 135q17 92 -15 145.5t-110 53.5h-116l-38 -214h137z" />
    <glyph glyph-name="Ntilde" unicode="&#xd1;" horiz-adv-x="690" 
d="M62 0l120 680h91q44 -96 81.5 -184.5t70.5 -178t64 -189.5l38 272l50 280h82l-120 -680h-90q-48 153 -98.5 289.5t-110.5 272.5l-46 -284l-49 -278h-83zM504 773q-28 0 -44.5 12.5t-27 28.5t-19 28.5t-21.5 12.5q-10 0 -20.5 -14t-18.5 -56h-63q10 55 25.5 85t35.5 41.5
t41 11.5q29 0 45.5 -12.5t26.5 -28.5t18.5 -28.5t21.5 -12.5q11 0 20.5 13.5t17.5 55.5h63q-9 -55 -24.5 -84.5t-35 -41t-41.5 -11.5z" />
    <glyph glyph-name="Ograve" unicode="&#xd2;" horiz-adv-x="647" 
d="M596 399l-23 -135q-23 -127 -93 -200.5t-185 -73.5q-80 0 -133 36.5t-73.5 102.5t-5.5 153l24 135q22 125 92 199t185 74q80 0 132.5 -37t74 -102.5t5.5 -151.5zM506 399q17 98 -15 154t-111 56q-73 0 -120 -51t-63 -141l-24 -135q-17 -99 14.5 -155.5t110.5 -56.5
q74 0 121.5 51.5t63.5 142.5zM378 764l-75 130l81 36l61 -166h-67z" />
    <glyph glyph-name="Oacute" unicode="&#xd3;" horiz-adv-x="647" 
d="M596 399l-23 -135q-23 -127 -93 -200.5t-185 -73.5q-80 0 -133 36.5t-73.5 102.5t-5.5 153l24 135q22 125 92 199t185 74q80 0 132.5 -37t74 -102.5t5.5 -151.5zM506 399q17 98 -15 154t-111 56q-73 0 -120 -51t-63 -141l-24 -135q-17 -99 14.5 -155.5t110.5 -56.5
q74 0 121.5 51.5t63.5 142.5zM450 764h-76l119 166l77 -36z" />
    <glyph glyph-name="Ocircumflex" unicode="&#xd4;" horiz-adv-x="647" 
d="M596 399l-23 -135q-23 -127 -93 -200.5t-185 -73.5q-80 0 -133 36.5t-73.5 102.5t-5.5 153l24 135q22 125 92 199t185 74q80 0 132.5 -37t74 -102.5t5.5 -151.5zM506 399q17 98 -15 154t-111 56q-73 0 -120 -51t-63 -141l-24 -135q-17 -99 14.5 -155.5t110.5 -56.5
q74 0 121.5 51.5t63.5 142.5zM481 764l-50 95l-85 -95h-69l121 161h83l64 -161h-64z" />
    <glyph glyph-name="Otilde" unicode="&#xd5;" horiz-adv-x="647" 
d="M596 399l-23 -135q-23 -127 -93 -200.5t-185 -73.5q-80 0 -133 36.5t-73.5 102.5t-5.5 153l24 135q22 125 92 199t185 74q80 0 132.5 -37t74 -102.5t5.5 -151.5zM506 399q17 98 -15 154t-111 56q-73 0 -120 -51t-63 -141l-24 -135q-17 -99 14.5 -155.5t110.5 -56.5
q74 0 121.5 51.5t63.5 142.5zM483 773q-28 0 -44.5 12.5t-27 28.5t-19 28.5t-21.5 12.5q-10 0 -20.5 -14t-18.5 -56h-63q10 55 25.5 85t35.5 41.5t41 11.5q29 0 45.5 -12.5t26.5 -28.5t18.5 -28.5t21.5 -12.5q11 0 20.5 13.5t17.5 55.5h63q-9 -55 -24.5 -84.5t-35 -41
t-41.5 -11.5z" />
    <glyph glyph-name="Odieresis" unicode="&#xd6;" horiz-adv-x="647" 
d="M596 399l-23 -135q-23 -127 -93 -200.5t-185 -73.5q-80 0 -133 36.5t-73.5 102.5t-5.5 153l24 135q22 125 92 199t185 74q80 0 132.5 -37t74 -102.5t5.5 -151.5zM506 399q17 98 -15 154t-111 56q-73 0 -120 -51t-63 -141l-24 -135q-17 -99 14.5 -155.5t110.5 -56.5
q74 0 121.5 51.5t63.5 142.5zM366 804h-86l15 86h86zM557 804h-86l15 86h86z" />
    <glyph glyph-name="multiply" unicode="&#xd7;" 
d="M422 106l-124 147l-175 -152l-44 54l174 151l-123 146l56 48l123 -146l175 151l44 -54l-174 -151l123 -147z" />
    <glyph glyph-name="Oslash" unicode="&#xd8;" horiz-adv-x="648" 
d="M294 -10q-83 0 -138 41l-44 -61h-83l81 111q-48 79 -27 201l24 135q22 125 92.5 199t186.5 74q83 0 137 -42l45 62h83l-82 -113q48 -78 27 -198l-23 -135q-22 -127 -93 -200.5t-186 -73.5zM173 282q-12 -67 -1 -115l300 411q-34 31 -90 31q-74 0 -121.5 -51t-63.5 -141z
M506 399q12 65 1 113l-300 -411q34 -31 90 -31q74 0 122 51.5t64 142.5z" />
    <glyph glyph-name="Ugrave" unicode="&#xd9;" horiz-adv-x="648" 
d="M168 680h90l-77 -436q-8 -50 0 -89.5t36 -62t79 -22.5q71 0 113 45.5t56 128.5l77 436h90l-77 -436q-21 -117 -83.5 -185.5t-178.5 -68.5q-78 0 -127.5 33.5t-68 91t-6.5 129.5zM378 764l-75 130l81 36l61 -166h-67z" />
    <glyph glyph-name="Uacute" unicode="&#xda;" horiz-adv-x="648" 
d="M168 680h90l-77 -436q-8 -50 0 -89.5t36 -62t79 -22.5q71 0 113 45.5t56 128.5l77 436h90l-77 -436q-21 -117 -83.5 -185.5t-178.5 -68.5q-78 0 -127.5 33.5t-68 91t-6.5 129.5zM450 764h-76l119 166l77 -36z" />
    <glyph glyph-name="Ucircumflex" unicode="&#xdb;" horiz-adv-x="648" 
d="M168 680h90l-77 -436q-8 -50 0 -89.5t36 -62t79 -22.5q71 0 113 45.5t56 128.5l77 436h90l-77 -436q-21 -117 -83.5 -185.5t-178.5 -68.5q-78 0 -127.5 33.5t-68 91t-6.5 129.5zM481 764l-50 95l-85 -95h-69l121 161h83l64 -161h-64z" />
    <glyph glyph-name="Udieresis" unicode="&#xdc;" horiz-adv-x="648" 
d="M168 680h90l-77 -436q-8 -50 0 -89.5t36 -62t79 -22.5q71 0 113 45.5t56 128.5l77 436h90l-77 -436q-21 -117 -83.5 -185.5t-178.5 -68.5q-78 0 -127.5 33.5t-68 91t-6.5 129.5zM367 804h-86l15 86h86zM558 804h-86l15 86h86z" />
    <glyph glyph-name="Yacute" unicode="&#xdd;" horiz-adv-x="524" 
d="M590 680l-280 -409l-48 -271h-87l48 271l-136 409h89l104 -322l214 322h96zM388 764h-76l119 166l77 -36z" />
    <glyph glyph-name="Thorn" unicode="&#xde;" horiz-adv-x="564" 
d="M307 128h-135l-23 -128h-87l120 680h87l-21 -120h113q68 0 111 -26t60 -71t7 -103l-10 -54q-14 -82 -69 -130t-153 -48zM357 478h-124l-47 -269h124q54 0 87.5 26.5t42.5 72.5l9 53q11 55 -13 86t-79 31z" />
    <glyph glyph-name="germandbls" unicode="&#xdf;" horiz-adv-x="611" 
d="M562 153q0 -43 -18.5 -80.5t-58.5 -60t-104 -22.5q-34 0 -70.5 8t-73.5 25l26 71q33 -17 62.5 -24.5t54.5 -7.5q53 0 76 25t23 58q0 41 -38 73l-44 36q-58 48 -58 114q0 38 16 70t37.5 60.5t37.5 56t16 56.5q0 32 -23.5 48t-61.5 16q-50 0 -79 -25t-39 -81l-101 -569h-82
l74 423h-85l12 72h86l13 74q10 53 32.5 94t64 64t106.5 23q45 0 83 -14t61 -43.5t23 -75.5q0 -40 -16.5 -72t-37.5 -59.5t-37.5 -53.5t-16.5 -54q0 -16 8 -32t29 -34l44 -36q32 -26 45.5 -56t13.5 -67z" />
    <glyph glyph-name="agrave" unicode="&#xe0;" horiz-adv-x="549" 
d="M456 -5q-49 0 -72.5 24.5t-25.5 61.5q-47 -51 -90 -71t-81 -20q-49 0 -80.5 31t-43.5 85t-2 122l7 49q16 107 75 167.5t155 60.5q50 0 99.5 -16.5t95.5 -46.5l-54 -307q-5 -30 2 -47.5t32 -17.5h14l-14 -75h-17zM146 228q-11 -79 6 -121.5t57 -42.5q30 0 70 26t86 91
l39 222q-54 27 -101 27q-65 0 -102.5 -42.5t-47.5 -110.5zM297 579l-75 130l81 36l61 -166h-67z" />
    <glyph glyph-name="aacute" unicode="&#xe1;" horiz-adv-x="549" 
d="M456 -5q-49 0 -72.5 24.5t-25.5 61.5q-47 -51 -90 -71t-81 -20q-49 0 -80.5 31t-43.5 85t-2 122l7 49q16 107 75 167.5t155 60.5q50 0 99.5 -16.5t95.5 -46.5l-54 -307q-5 -30 2 -47.5t32 -17.5h14l-14 -75h-17zM146 228q-11 -79 6 -121.5t57 -42.5q30 0 70 26t86 91
l39 222q-54 27 -101 27q-65 0 -102.5 -42.5t-47.5 -110.5zM369 579h-76l119 166l77 -36z" />
    <glyph glyph-name="acircumflex" unicode="&#xe2;" horiz-adv-x="549" 
d="M456 -5q-49 0 -72.5 24.5t-25.5 61.5q-47 -51 -90 -71t-81 -20q-49 0 -80.5 31t-43.5 85t-2 122l7 49q16 107 75 167.5t155 60.5q50 0 99.5 -16.5t95.5 -46.5l-54 -307q-5 -30 2 -47.5t32 -17.5h14l-14 -75h-17zM146 228q-11 -79 6 -121.5t57 -42.5q30 0 70 26t86 91
l39 222q-54 27 -101 27q-65 0 -102.5 -42.5t-47.5 -110.5zM400 579l-50 95l-85 -95h-69l121 161h83l64 -161h-64z" />
    <glyph glyph-name="atilde" unicode="&#xe3;" horiz-adv-x="549" 
d="M456 -5q-49 0 -72.5 24.5t-25.5 61.5q-47 -51 -90 -71t-81 -20q-49 0 -80.5 31t-43.5 85t-2 122l7 49q16 107 75 167.5t155 60.5q50 0 99.5 -16.5t95.5 -46.5l-54 -307q-5 -30 2 -47.5t32 -17.5h14l-14 -75h-17zM146 228q-11 -79 6 -121.5t57 -42.5q30 0 70 26t86 91
l39 222q-54 27 -101 27q-65 0 -102.5 -42.5t-47.5 -110.5zM402 588q-28 0 -44.5 12.5t-27 28.5t-19 28.5t-21.5 12.5q-10 0 -20.5 -14t-18.5 -56h-63q10 55 25.5 85t35.5 41.5t41 11.5q29 0 45.5 -12.5t26.5 -28.5t18.5 -28.5t21.5 -12.5q11 0 20.5 13.5t17.5 55.5h63
q-9 -55 -24.5 -84.5t-35 -41t-41.5 -11.5z" />
    <glyph glyph-name="adieresis" unicode="&#xe4;" horiz-adv-x="549" 
d="M456 -5q-49 0 -72.5 24.5t-25.5 61.5q-47 -51 -90 -71t-81 -20q-49 0 -80.5 31t-43.5 85t-2 122l7 49q16 107 75 167.5t155 60.5q50 0 99.5 -16.5t95.5 -46.5l-54 -307q-5 -30 2 -47.5t32 -17.5h14l-14 -75h-17zM146 228q-11 -79 6 -121.5t57 -42.5q30 0 70 26t86 91
l39 222q-54 27 -101 27q-65 0 -102.5 -42.5t-47.5 -110.5zM285 619h-86l15 86h86zM476 619h-86l15 86h86z" />
    <glyph glyph-name="aring" unicode="&#xe5;" horiz-adv-x="549" 
d="M456 -5q-49 0 -72.5 24.5t-25.5 61.5q-47 -51 -90 -71t-81 -20q-49 0 -80.5 31t-43.5 85t-2 122l7 49q16 107 75 167.5t155 60.5q50 0 99.5 -16.5t95.5 -46.5l-54 -307q-5 -30 2 -47.5t32 -17.5h14l-14 -75h-17zM146 228q-11 -79 6 -121.5t57 -42.5q30 0 70 26t86 91
l39 222q-54 27 -101 27q-65 0 -102.5 -42.5t-47.5 -110.5zM463 679l-3 -15q-7 -45 -40 -73t-83 -28q-53 0 -81.5 31.5t-20.5 80.5l2 15q8 45 40.5 73t82.5 28q54 0 82.5 -32t20.5 -80zM404 685q4 22 -8.5 36.5t-38.5 14.5q-23 0 -40 -13.5t-21 -38.5l-3 -14q-4 -23 9 -37.5
t38 -14.5q24 0 41 13.5t21 38.5z" />
    <glyph glyph-name="ae" unicode="&#xe6;" horiz-adv-x="776" 
d="M680 20q-43 -16 -83 -23t-75 -7q-72 0 -116 27t-64 73q-55 -61 -105 -80.5t-91 -19.5q-64 0 -94 35t-30 93q0 39 15 75.5t54 60t110 23.5q29 0 64.5 -3.5t70.5 -9.5l11 61q7 39 -5 61.5t-36.5 32.5t-56.5 10q-25 0 -57.5 -4.5t-72.5 -15.5l-18 68q90 28 154 28
q62 0 98 -22t52 -56q29 37 70 57.5t93 20.5q43 0 81.5 -16t63.5 -50t25 -87q0 -28 -8.5 -60.5t-30.5 -69.5h-289q-6 -46 2 -82t36 -56t81 -20q27 0 63 6.5t75 19.5zM563 432q-57 0 -94 -37.5t-48 -105.5h222q8 17 11 32.5t3 28.5q0 42 -27 62t-67 20zM106 125q0 -65 57 -65
q16 0 41 6.5t56.5 27t66.5 63.5q-1 21 0 43q-34 6 -67.5 9t-56.5 3q-55 0 -76 -25.5t-21 -61.5z" />
    <glyph glyph-name="ccedilla" unicode="&#xe7;" horiz-adv-x="451" 
d="M294 -126q0 -38 -29.5 -67.5t-91.5 -29.5q-22 0 -41 4t-39 11l14 56q17 -6 34 -9t30 -3q30 0 42.5 10.5t12.5 23.5q0 12 -9.5 19.5t-33.5 7.5q-6 0 -12 -0.5t-13 -1.5l-16 38l25 67q-70 22 -95 86.5t-11 150.5l8 51q17 101 74.5 159t145.5 58q36 0 73 -10t74 -28l-29 -70
q-31 15 -60.5 23.5t-55.5 8.5q-55 0 -92 -36.5t-48 -104.5l-9 -54q-12 -74 9.5 -121.5t93.5 -47.5q53 0 121 25l14 -71q-79 -29 -142 -29h-16l-15 -40q41 -1 64 -21t23 -55z" />
    <glyph glyph-name="egrave" unicode="&#xe8;" horiz-adv-x="505" 
d="M409 20q-43 -16 -83 -23t-76 -7q-80 0 -125.5 32.5t-60.5 88.5t-4 126l9 51q16 98 75.5 157.5t150.5 59.5q45 0 84.5 -16t63.5 -50t24 -87q0 -29 -8.5 -61.5t-31.5 -70.5h-289q-9 -69 16 -112.5t103 -43.5q28 0 64 6.5t75 19.5zM292 432q-57 0 -94 -37.5t-48 -104.5h224
q8 17 10.5 32t2.5 28q0 42 -27 62t-68 20zM287 579l-75 130l81 36l61 -166h-67z" />
    <glyph glyph-name="eacute" unicode="&#xe9;" horiz-adv-x="505" 
d="M409 20q-43 -16 -83 -23t-76 -7q-80 0 -125.5 32.5t-60.5 88.5t-4 126l9 51q16 98 75.5 157.5t150.5 59.5q45 0 84.5 -16t63.5 -50t24 -87q0 -29 -8.5 -61.5t-31.5 -70.5h-289q-9 -69 16 -112.5t103 -43.5q28 0 64 6.5t75 19.5zM292 432q-57 0 -94 -37.5t-48 -104.5h224
q8 17 10.5 32t2.5 28q0 42 -27 62t-68 20zM359 579h-76l119 166l77 -36z" />
    <glyph glyph-name="ecircumflex" unicode="&#xea;" horiz-adv-x="505" 
d="M409 20q-43 -16 -83 -23t-76 -7q-80 0 -125.5 32.5t-60.5 88.5t-4 126l9 51q16 98 75.5 157.5t150.5 59.5q45 0 84.5 -16t63.5 -50t24 -87q0 -29 -8.5 -61.5t-31.5 -70.5h-289q-9 -69 16 -112.5t103 -43.5q28 0 64 6.5t75 19.5zM292 432q-57 0 -94 -37.5t-48 -104.5h224
q8 17 10.5 32t2.5 28q0 42 -27 62t-68 20zM390 579l-50 95l-85 -95h-69l121 161h83l64 -161h-64z" />
    <glyph glyph-name="edieresis" unicode="&#xeb;" horiz-adv-x="505" 
d="M409 20q-43 -16 -83 -23t-76 -7q-80 0 -125.5 32.5t-60.5 88.5t-4 126l9 51q16 98 75.5 157.5t150.5 59.5q45 0 84.5 -16t63.5 -50t24 -87q0 -29 -8.5 -61.5t-31.5 -70.5h-289q-9 -69 16 -112.5t103 -43.5q28 0 64 6.5t75 19.5zM292 432q-57 0 -94 -37.5t-48 -104.5h224
q8 17 10.5 32t2.5 28q0 42 -27 62t-68 20zM276 619h-86l15 86h86zM467 619h-86l15 86h86z" />
    <glyph glyph-name="igrave" unicode="&#xec;" horiz-adv-x="259" 
d="M126 0h-82l88 495h82zM154 579l-75 130l81 36l61 -166h-67z" />
    <glyph glyph-name="iacute" unicode="&#xed;" horiz-adv-x="259" 
d="M126 0h-82l88 495h82zM226 579h-76l119 166l77 -36z" />
    <glyph glyph-name="icircumflex" unicode="&#xee;" horiz-adv-x="259" 
d="M126 0h-82l88 495h82zM258 579l-50 95l-85 -95h-69l121 161h83l64 -161h-64z" />
    <glyph glyph-name="idieresis" unicode="&#xef;" horiz-adv-x="259" 
d="M126 0h-82l88 495h82zM143 619h-86l15 86h86zM334 619h-86l15 86h86z" />
    <glyph glyph-name="eth" unicode="&#xf0;" horiz-adv-x="538" 
d="M479 244q-23 -132 -88 -193t-163 -61t-147 62.5t-31 167.5l6 36q15 89 71 137.5t131 48.5q43 0 84.5 -20t66.5 -73q3 59 -11.5 113.5t-49.5 103.5l-148 -89l14 82l93 56q-19 19 -41.5 37.5t-48.5 35.5l43 62q34 -22 62.5 -45.5t51.5 -48.5l156 94l-14 -82l-102 -62
q55 -76 70.5 -159t1.5 -163zM133 207q-11 -64 15 -103.5t84 -39.5q62 0 103.5 45t60.5 148q-26 64 -63.5 86.5t-70.5 22.5q-45 0 -78.5 -32t-44.5 -91z" />
    <glyph glyph-name="ntilde" unicode="&#xf1;" horiz-adv-x="571" 
d="M361 428q-19 0 -44 -8.5t-58 -32t-76 -69.5l-57 -318h-82l88 495h77l-15 -91q59 62 105.5 81.5t83.5 19.5q68 0 100.5 -49.5t18.5 -128.5l-58 -327h-82l56 320q20 108 -57 108zM419 588q-28 0 -44.5 12.5t-27 28.5t-19 28.5t-21.5 12.5q-10 0 -20.5 -14t-18.5 -56h-63
q10 55 25.5 85t35.5 41.5t41 11.5q29 0 45.5 -12.5t26.5 -28.5t18.5 -28.5t21.5 -12.5q11 0 20.5 13.5t17.5 55.5h63q-9 -55 -24.5 -84.5t-35 -41t-41.5 -11.5z" />
    <glyph glyph-name="ograve" unicode="&#xf2;" horiz-adv-x="542" 
d="M483 258l-8 -50q-16 -106 -75.5 -162t-154.5 -56q-70 0 -115.5 32t-63.5 88t-7 127l8 51q17 102 75.5 159.5t154.5 57.5q71 0 116 -33t63 -88.5t7 -125.5zM398 260q12 75 -14 122.5t-88 47.5q-58 0 -95.5 -37t-48.5 -105l-8 -53q-12 -77 14.5 -124t87.5 -47
q58 0 95.5 36.5t48.5 107.5zM284 579l-75 130l81 36l61 -166h-67z" />
    <glyph glyph-name="oacute" unicode="&#xf3;" horiz-adv-x="542" 
d="M483 258l-8 -50q-16 -106 -75.5 -162t-154.5 -56q-70 0 -115.5 32t-63.5 88t-7 127l8 51q17 102 75.5 159.5t154.5 57.5q71 0 116 -33t63 -88.5t7 -125.5zM398 260q12 75 -14 122.5t-88 47.5q-58 0 -95.5 -37t-48.5 -105l-8 -53q-12 -77 14.5 -124t87.5 -47
q58 0 95.5 36.5t48.5 107.5zM356 579h-76l119 166l77 -36z" />
    <glyph glyph-name="ocircumflex" unicode="&#xf4;" horiz-adv-x="542" 
d="M483 258l-8 -50q-16 -106 -75.5 -162t-154.5 -56q-70 0 -115.5 32t-63.5 88t-7 127l8 51q17 102 75.5 159.5t154.5 57.5q71 0 116 -33t63 -88.5t7 -125.5zM398 260q12 75 -14 122.5t-88 47.5q-58 0 -95.5 -37t-48.5 -105l-8 -53q-12 -77 14.5 -124t87.5 -47
q58 0 95.5 36.5t48.5 107.5zM387 579l-50 95l-85 -95h-69l121 161h83l64 -161h-64z" />
    <glyph glyph-name="otilde" unicode="&#xf5;" horiz-adv-x="542" 
d="M483 258l-8 -50q-16 -106 -75.5 -162t-154.5 -56q-70 0 -115.5 32t-63.5 88t-7 127l8 51q17 102 75.5 159.5t154.5 57.5q71 0 116 -33t63 -88.5t7 -125.5zM398 260q12 75 -14 122.5t-88 47.5q-58 0 -95.5 -37t-48.5 -105l-8 -53q-12 -77 14.5 -124t87.5 -47
q58 0 95.5 36.5t48.5 107.5zM389 588q-28 0 -44.5 12.5t-27 28.5t-19 28.5t-21.5 12.5q-10 0 -20.5 -14t-18.5 -56h-63q10 55 25.5 85t35.5 41.5t41 11.5q29 0 45.5 -12.5t26.5 -28.5t18.5 -28.5t21.5 -12.5q11 0 20.5 13.5t17.5 55.5h63q-9 -55 -24.5 -84.5t-35 -41
t-41.5 -11.5z" />
    <glyph glyph-name="odieresis" unicode="&#xf6;" horiz-adv-x="542" 
d="M483 258l-8 -50q-16 -106 -75.5 -162t-154.5 -56q-70 0 -115.5 32t-63.5 88t-7 127l8 51q17 102 75.5 159.5t154.5 57.5q71 0 116 -33t63 -88.5t7 -125.5zM398 260q12 75 -14 122.5t-88 47.5q-58 0 -95.5 -37t-48.5 -105l-8 -53q-12 -77 14.5 -124t87.5 -47
q58 0 95.5 36.5t48.5 107.5zM272 619h-86l15 86h86zM463 619h-86l15 86h86z" />
    <glyph glyph-name="divide" unicode="&#xf7;" 
d="M377 456h-92l16 91h92zM90 266l12 72h414l-12 -72h-414zM306 53h-92l16 92h92z" />
    <glyph glyph-name="oslash" unicode="&#xf8;" horiz-adv-x="543" 
d="M245 -10q-34 0 -62.5 8t-50.5 22l-40 -50h-79l75 95q-46 66 -29 172l8 51q17 102 75.5 159.5t154.5 57.5q68 0 113 -31l41 51h79l-76 -96q22 -33 29.5 -77t-0.5 -94l-8 -50q-16 -106 -75.5 -162t-154.5 -56zM144 235q-9 -55 3 -96l213 271q-25 20 -64 20q-58 0 -95.5 -37
t-48.5 -105zM398 260q9 53 -2 95l-214 -271q25 -20 64 -20q58 0 95.5 36.5t48.5 107.5z" />
    <glyph glyph-name="ugrave" unicode="&#xf9;" horiz-adv-x="559" 
d="M349 0l16 90q-58 -61 -102.5 -80.5t-80.5 -19.5q-67 0 -97.5 49t-16.5 128l58 328h82l-56 -320q-10 -55 4.5 -81.5t46.5 -26.5q19 0 43 8.5t56 32.5t74 69l56 318h82l-87 -495h-78zM300 579l-75 130l81 36l61 -166h-67z" />
    <glyph glyph-name="uacute" unicode="&#xfa;" horiz-adv-x="559" 
d="M349 0l16 90q-58 -61 -102.5 -80.5t-80.5 -19.5q-67 0 -97.5 49t-16.5 128l58 328h82l-56 -320q-10 -55 4.5 -81.5t46.5 -26.5q19 0 43 8.5t56 32.5t74 69l56 318h82l-87 -495h-78zM372 579h-76l119 166l77 -36z" />
    <glyph glyph-name="ucircumflex" unicode="&#xfb;" horiz-adv-x="559" 
d="M349 0l16 90q-58 -61 -102.5 -80.5t-80.5 -19.5q-67 0 -97.5 49t-16.5 128l58 328h82l-56 -320q-10 -55 4.5 -81.5t46.5 -26.5q19 0 43 8.5t56 32.5t74 69l56 318h82l-87 -495h-78zM404 579l-50 95l-85 -95h-69l121 161h83l64 -161h-64z" />
    <glyph glyph-name="udieresis" unicode="&#xfc;" horiz-adv-x="559" 
d="M349 0l16 90q-58 -61 -102.5 -80.5t-80.5 -19.5q-67 0 -97.5 49t-16.5 128l58 328h82l-56 -320q-10 -55 4.5 -81.5t46.5 -26.5q19 0 43 8.5t56 32.5t74 69l56 318h82l-87 -495h-78zM289 619h-86l15 86h86zM480 619h-86l15 86h86z" />
    <glyph glyph-name="yacute" unicode="&#xfd;" horiz-adv-x="472" 
d="M204 -50q-34 -63 -67.5 -101t-74 -55t-95.5 -17l14 81q35 1 59 9t46.5 32t49.5 73l18 31l-89 492h81l42 -241l23 -152l75 152l123 241h85l-263 -495zM330 579h-76l119 166l77 -36z" />
    <glyph glyph-name="thorn" unicode="&#xfe;" horiz-adv-x="556" 
d="M255 -10q-34 0 -65 8t-61 22l-41 -233h-82l168 953h82l-58 -329q47 53 88.5 73.5t78.5 20.5q50 0 82 -31t44.5 -85t2.5 -123l-7 -48q-16 -109 -75 -168.5t-157 -59.5zM342 430q-31 0 -72 -28t-91 -97l-37 -212q55 -29 107 -29q68 0 105.5 41.5t47.5 112.5l7 48
q11 79 -6 121.5t-61 42.5z" />
    <glyph glyph-name="ydieresis" unicode="&#xff;" horiz-adv-x="472" 
d="M204 -50q-34 -63 -67.5 -101t-74 -55t-95.5 -17l14 81q35 1 59 9t46.5 32t49.5 73l18 31l-89 492h81l42 -241l23 -152l75 152l123 241h85l-263 -495zM246 619h-86l15 86h86zM437 619h-86l15 86h86z" />
    <glyph glyph-name="Amacron" unicode="&#x100;" horiz-adv-x="577" 
d="M425 0l-23 158h-256l-79 -158h-89l345 680h82l107 -680h-87zM243 354l-58 -117h205l-17 117l-28 208zM535 857l-11 -63h-286l12 63h285z" />
    <glyph glyph-name="amacron" unicode="&#x101;" horiz-adv-x="549" 
d="M456 -5q-49 0 -72.5 24.5t-25.5 61.5q-47 -51 -90 -71t-81 -20q-49 0 -80.5 31t-43.5 85t-2 122l7 49q16 107 75 167.5t155 60.5q50 0 99.5 -16.5t95.5 -46.5l-54 -307q-5 -30 2 -47.5t32 -17.5h14l-14 -75h-17zM146 228q-11 -79 6 -121.5t57 -42.5q30 0 70 26t86 91
l39 222q-54 27 -101 27q-65 0 -102.5 -42.5t-47.5 -110.5zM489 672l-11 -63h-286l12 63h285z" />
    <glyph glyph-name="Abreve" unicode="&#x102;" horiz-adv-x="577" 
d="M425 0l-23 158h-256l-79 -158h-89l345 680h82l107 -680h-87zM243 354l-58 -117h205l-17 117l-28 208zM387 833q29 0 49 18.5t31 64.5h68q-18 -79 -56.5 -112.5t-94.5 -33.5q-57 0 -88.5 33.5t-22.5 112.5h63q-5 -46 9 -64.5t42 -18.5z" />
    <glyph glyph-name="abreve" unicode="&#x103;" horiz-adv-x="549" 
d="M456 -5q-49 0 -72.5 24.5t-25.5 61.5q-47 -51 -90 -71t-81 -20q-49 0 -80.5 31t-43.5 85t-2 122l7 49q16 107 75 167.5t155 60.5q50 0 99.5 -16.5t95.5 -46.5l-54 -307q-5 -30 2 -47.5t32 -17.5h14l-14 -75h-17zM146 228q-11 -79 6 -121.5t57 -42.5q30 0 70 26t86 91
l39 222q-54 27 -101 27q-65 0 -102.5 -42.5t-47.5 -110.5zM341 648q29 0 49 18.5t31 64.5h68q-18 -79 -56.5 -112.5t-94.5 -33.5q-57 0 -88.5 33.5t-22.5 112.5h63q-5 -46 9 -64.5t42 -18.5z" />
    <glyph glyph-name="Aogonek" unicode="&#x104;" horiz-adv-x="577" 
d="M482 -206q-43 -17 -82 -17q-45 0 -69.5 20t-24.5 57q0 32 24 67.5t94 84.5l-22 152h-256l-79 -158h-89l345 680h82l107 -680q-53 -36 -80.5 -59.5t-37.5 -39t-10 -29.5q0 -27 33 -27q24 0 54 12zM243 354l-58 -117h205l-17 117l-28 208z" />
    <glyph glyph-name="aogonek" unicode="&#x105;" horiz-adv-x="549" 
d="M444 -206q-43 -17 -82 -17q-45 0 -69.5 20t-24.5 57q0 32 26.5 67.5t102.5 87.5q-19 11 -28 30t-11 42q-47 -51 -90 -71t-81 -20q-49 0 -80.5 31t-43.5 85t-2 122l7 49q16 107 75 167.5t155 60.5q50 0 99.5 -16.5t95.5 -46.5l-54 -307q-5 -30 2 -47.5t32 -17.5h14
l-14 -75q-52 -35 -79.5 -57.5t-37.5 -37.5t-10 -28q0 -27 33 -27q24 0 54 12zM146 228q-11 -79 6 -121.5t57 -42.5q30 0 70 26t86 91l39 222q-54 27 -101 27q-65 0 -102.5 -42.5t-47.5 -110.5z" />
    <glyph glyph-name="Cacute" unicode="&#x106;" horiz-adv-x="533" 
d="M172 281q-18 -100 11.5 -155.5t106.5 -55.5q27 0 64.5 5.5t85.5 23.5l21 -75q-51 -19 -97.5 -26.5t-82.5 -7.5q-77 0 -127 36t-68.5 101.5t-3.5 153.5l22 130q24 137 89.5 208t186.5 71q41 0 83.5 -10t85.5 -32l-31 -77q-41 20 -74.5 29t-67.5 9q-76 0 -120.5 -51.5
t-61.5 -146.5zM440 764h-76l119 166l77 -36z" />
    <glyph glyph-name="cacute" unicode="&#x107;" horiz-adv-x="451" 
d="M291 429q-55 0 -92 -36.5t-48 -104.5l-9 -54q-12 -74 9.5 -121.5t93.5 -47.5q53 0 121 25l14 -71q-79 -29 -142 -29q-74 0 -117 32.5t-57 88.5t-3 126l8 51q17 101 74.5 159t145.5 58q36 0 73 -10t74 -28l-29 -70q-31 15 -60.5 23.5t-55.5 8.5zM348 579h-76l119 166
l77 -36z" />
    <glyph glyph-name="Ccircumflex" unicode="&#x108;" horiz-adv-x="533" 
d="M172 281q-18 -100 11.5 -155.5t106.5 -55.5q27 0 64.5 5.5t85.5 23.5l21 -75q-51 -19 -97.5 -26.5t-82.5 -7.5q-77 0 -127 36t-68.5 101.5t-3.5 153.5l22 130q24 137 89.5 208t186.5 71q41 0 83.5 -10t85.5 -32l-31 -77q-41 20 -74.5 29t-67.5 9q-76 0 -120.5 -51.5
t-61.5 -146.5zM471 764l-50 95l-85 -95h-69l121 161h83l64 -161h-64z" />
    <glyph glyph-name="ccircumflex" unicode="&#x109;" horiz-adv-x="451" 
d="M291 429q-55 0 -92 -36.5t-48 -104.5l-9 -54q-12 -74 9.5 -121.5t93.5 -47.5q53 0 121 25l14 -71q-79 -29 -142 -29q-74 0 -117 32.5t-57 88.5t-3 126l8 51q17 101 74.5 159t145.5 58q36 0 73 -10t74 -28l-29 -70q-31 15 -60.5 23.5t-55.5 8.5zM380 579l-50 95l-85 -95
h-69l121 161h83l64 -161h-64z" />
    <glyph glyph-name="Cdotaccent" unicode="&#x10a;" horiz-adv-x="533" 
d="M172 281q-18 -100 11.5 -155.5t106.5 -55.5q27 0 64.5 5.5t85.5 23.5l21 -75q-51 -19 -97.5 -26.5t-82.5 -7.5q-77 0 -127 36t-68.5 101.5t-3.5 153.5l22 130q24 137 89.5 208t186.5 71q41 0 83.5 -10t85.5 -32l-31 -77q-41 20 -74.5 29t-67.5 9q-76 0 -120.5 -51.5
t-61.5 -146.5zM454 801h-92l15 92h92z" />
    <glyph glyph-name="cdotaccent" unicode="&#x10b;" horiz-adv-x="451" 
d="M291 429q-55 0 -92 -36.5t-48 -104.5l-9 -54q-12 -74 9.5 -121.5t93.5 -47.5q53 0 121 25l14 -71q-79 -29 -142 -29q-74 0 -117 32.5t-57 88.5t-3 126l8 51q17 101 74.5 159t145.5 58q36 0 73 -10t74 -28l-29 -70q-31 15 -60.5 23.5t-55.5 8.5zM363 616h-92l15 92h92z
" />
    <glyph glyph-name="Ccaron" unicode="&#x10c;" horiz-adv-x="533" 
d="M172 281q-18 -100 11.5 -155.5t106.5 -55.5q27 0 64.5 5.5t85.5 23.5l21 -75q-51 -19 -97.5 -26.5t-82.5 -7.5q-77 0 -127 36t-68.5 101.5t-3.5 153.5l22 130q24 137 89.5 208t186.5 71q41 0 83.5 -10t85.5 -32l-31 -77q-41 20 -74.5 29t-67.5 9q-76 0 -120.5 -51.5
t-61.5 -146.5zM564 925l-122 -161h-82l-65 161h64l51 -95l84 95h70z" />
    <glyph glyph-name="ccaron" unicode="&#x10d;" horiz-adv-x="451" 
d="M291 429q-55 0 -92 -36.5t-48 -104.5l-9 -54q-12 -74 9.5 -121.5t93.5 -47.5q53 0 121 25l14 -71q-79 -29 -142 -29q-74 0 -117 32.5t-57 88.5t-3 126l8 51q17 101 74.5 159t145.5 58q36 0 73 -10t74 -28l-29 -70q-31 15 -60.5 23.5t-55.5 8.5zM473 740l-122 -161h-82
l-65 161h64l51 -95l84 95h70z" />
    <glyph glyph-name="Dcaron" unicode="&#x10e;" horiz-adv-x="637" 
d="M62 0l120 680h194q79 0 131 -36t73 -99t6 -146l-23 -135q-22 -123 -93 -193.5t-187 -70.5h-221zM372 598h-117l-92 -517h123q75 0 123 48t64 135l23 135q17 92 -15 145.5t-109 53.5zM563 925l-122 -161h-82l-65 161h64l51 -95l84 95h70z" />
    <glyph glyph-name="dcaron" unicode="&#x10f;" horiz-adv-x="618" 
d="M346 0l15 88q-47 -55 -89.5 -76.5t-81.5 -21.5q-50 0 -82 31t-44 85t-2 122l7 49q16 109 74.5 168.5t157.5 59.5q33 0 64 -8t61 -22l47 265h82l-131 -740h-78zM147 228q-11 -79 6 -121.5t60 -42.5q32 0 73 28t90 98l37 211q-55 29 -107 29q-67 0 -104 -41t-48 -112z
M657 546h-55l35 194h83z" />
    <glyph glyph-name="Dcroat" unicode="&#x110;" horiz-adv-x="647" 
d="M53 384h87l52 296h193q79 0 131 -36t73.5 -99t6.5 -146l-24 -135q-21 -123 -92 -193.5t-187 -70.5h-221l54 305h-87zM350 305h-137l-40 -224h123q75 0 123 48t63 135l24 135q17 92 -15 145.5t-110 53.5h-116l-38 -214h137z" />
    <glyph glyph-name="dcroat" unicode="&#x111;" horiz-adv-x="554" 
d="M346 0l15 88q-47 -55 -89.5 -76.5t-81.5 -21.5q-50 0 -82 31t-44 85t-2 122l7 49q16 109 74.5 168.5t157.5 59.5q33 0 64 -8t61 -22l20 111h-157l11 62h157l16 92h82l-16 -92h84l-11 -62h-84l-104 -586h-78zM147 228q-11 -79 6 -121.5t60 -42.5q32 0 73 28t90 98l37 211
q-55 29 -107 29q-67 0 -104 -41t-48 -112z" />
    <glyph glyph-name="Emacron" unicode="&#x112;" horiz-adv-x="531" 
d="M456 81l-14 -81h-380l120 680h370l-15 -82h-282l-38 -213h253l-15 -82h-252l-40 -222h293zM537 857l-11 -63h-286l12 63h285z" />
    <glyph glyph-name="emacron" unicode="&#x113;" horiz-adv-x="505" 
d="M409 20q-43 -16 -83 -23t-76 -7q-80 0 -125.5 32.5t-60.5 88.5t-4 126l9 51q16 98 75.5 157.5t150.5 59.5q45 0 84.5 -16t63.5 -50t24 -87q0 -29 -8.5 -61.5t-31.5 -70.5h-289q-9 -69 16 -112.5t103 -43.5q28 0 64 6.5t75 19.5zM292 432q-57 0 -94 -37.5t-48 -104.5h224
q8 17 10.5 32t2.5 28q0 42 -27 62t-68 20zM480 672l-11 -63h-286l12 63h285z" />
    <glyph glyph-name="Ebreve" unicode="&#x114;" horiz-adv-x="531" 
d="M456 81l-14 -81h-380l120 680h370l-15 -82h-282l-38 -213h253l-15 -82h-252l-40 -222h293zM389 833q29 0 49 18.5t31 64.5h68q-18 -79 -56.5 -112.5t-94.5 -33.5q-57 0 -88.5 33.5t-22.5 112.5h63q-5 -46 9 -64.5t42 -18.5z" />
    <glyph glyph-name="ebreve" unicode="&#x115;" horiz-adv-x="505" 
d="M409 20q-43 -16 -83 -23t-76 -7q-80 0 -125.5 32.5t-60.5 88.5t-4 126l9 51q16 98 75.5 157.5t150.5 59.5q45 0 84.5 -16t63.5 -50t24 -87q0 -29 -8.5 -61.5t-31.5 -70.5h-289q-9 -69 16 -112.5t103 -43.5q28 0 64 6.5t75 19.5zM292 432q-57 0 -94 -37.5t-48 -104.5h224
q8 17 10.5 32t2.5 28q0 42 -27 62t-68 20zM331 648q29 0 49 18.5t31 64.5h68q-18 -79 -56.5 -112.5t-94.5 -33.5q-57 0 -88.5 33.5t-22.5 112.5h63q-5 -46 9 -64.5t42 -18.5z" />
    <glyph glyph-name="Edotaccent" unicode="&#x116;" horiz-adv-x="531" 
d="M456 81l-14 -81h-380l120 680h370l-15 -82h-282l-38 -213h253l-15 -82h-252l-40 -222h293zM431 801h-92l15 92h92z" />
    <glyph glyph-name="edotaccent" unicode="&#x117;" horiz-adv-x="505" 
d="M409 20q-43 -16 -83 -23t-76 -7q-80 0 -125.5 32.5t-60.5 88.5t-4 126l9 51q16 98 75.5 157.5t150.5 59.5q45 0 84.5 -16t63.5 -50t24 -87q0 -29 -8.5 -61.5t-31.5 -70.5h-289q-9 -69 16 -112.5t103 -43.5q28 0 64 6.5t75 19.5zM292 432q-57 0 -94 -37.5t-48 -104.5h224
q8 17 10.5 32t2.5 28q0 42 -27 62t-68 20zM374 616h-92l15 92h92z" />
    <glyph glyph-name="Eogonek" unicode="&#x118;" horiz-adv-x="531" 
d="M413 -206q-45 -17 -83 -17q-44 0 -69 20t-25 57q0 31 23.5 65t90.5 81h-288l120 680h370l-15 -82h-282l-38 -213h253l-15 -82h-252l-40 -222h293l-14 -81q-53 -36 -80.5 -59.5t-37.5 -39t-10 -29.5q0 -27 33 -27q24 0 55 12z" />
    <glyph glyph-name="eogonek" unicode="&#x119;" horiz-adv-x="505" 
d="M368 -206q-43 -17 -82 -17q-45 0 -69.5 20t-24.5 57q0 29 18.5 61.5t68.5 75.5q-7 -1 -14.5 -1h-14.5q-80 0 -125.5 32.5t-60.5 88.5t-4 126l9 51q16 98 75.5 157.5t150.5 59.5q45 0 84.5 -16t63.5 -50t24 -87q0 -29 -8.5 -61.5t-31.5 -70.5h-289q-9 -69 16 -112.5
t103 -43.5q28 0 64 6.5t75 19.5l13 -70q-57 -41 -87 -68.5t-41 -46t-11 -33.5q0 -27 33 -27q24 0 54 12zM292 432q-57 0 -94 -37.5t-48 -104.5h224q8 17 10.5 32t2.5 28q0 42 -27 62t-68 20z" />
    <glyph glyph-name="Ecaron" unicode="&#x11a;" horiz-adv-x="531" 
d="M456 81l-14 -81h-380l120 680h370l-15 -82h-282l-38 -213h253l-15 -82h-252l-40 -222h293zM541 925l-122 -161h-82l-65 161h64l51 -95l84 95h70z" />
    <glyph glyph-name="ecaron" unicode="&#x11b;" horiz-adv-x="505" 
d="M409 20q-43 -16 -83 -23t-76 -7q-80 0 -125.5 32.5t-60.5 88.5t-4 126l9 51q16 98 75.5 157.5t150.5 59.5q45 0 84.5 -16t63.5 -50t24 -87q0 -29 -8.5 -61.5t-31.5 -70.5h-289q-9 -69 16 -112.5t103 -43.5q28 0 64 6.5t75 19.5zM292 432q-57 0 -94 -37.5t-48 -104.5h224
q8 17 10.5 32t2.5 28q0 42 -27 62t-68 20zM483 740l-122 -161h-82l-65 161h64l51 -95l84 95h70z" />
    <glyph glyph-name="Gcircumflex" unicode="&#x11c;" horiz-adv-x="604" 
d="M499 41q-55 -28 -106.5 -39.5t-99.5 -11.5q-81 0 -133 36t-72 101.5t-5 153.5l23 130q23 137 92.5 208t195.5 71q45 0 92.5 -10t95.5 -33l-31 -76q-46 22 -85 30t-74 8q-82 0 -130.5 -51.5t-65.5 -146.5l-23 -130q-17 -101 14 -156.5t116 -55.5q29 0 58.5 5.5t66.5 20.5
l33 184h-127l15 77h206zM486 764l-50 95l-85 -95h-69l121 161h83l64 -161h-64z" />
    <glyph glyph-name="gcircumflex" unicode="&#x11d;" horiz-adv-x="554" 
d="M424 0q-8 -46 -21.5 -86t-38.5 -71t-66.5 -48.5t-104.5 -17.5q-40 0 -79.5 8t-79.5 24l21 70q37 -15 70.5 -21.5t64.5 -6.5q56 0 86 18t44 51.5t22 79.5l14 79q-45 -49 -86.5 -69t-79.5 -20q-50 0 -82 31t-44 85t-2 122l7 49q16 109 74.5 168.5t157.5 59.5
q53 0 104 -16.5t97 -46.5zM147 228q-11 -79 6 -121.5t60 -42.5q32 0 73 26t88 93l39 219q-56 28 -107 28q-67 0 -104 -41t-48 -112zM405 579l-50 95l-85 -95h-69l121 161h83l64 -161h-64z" />
    <glyph glyph-name="Gbreve" unicode="&#x11e;" horiz-adv-x="604" 
d="M499 41q-55 -28 -106.5 -39.5t-99.5 -11.5q-81 0 -133 36t-72 101.5t-5 153.5l23 130q23 137 92.5 208t195.5 71q45 0 92.5 -10t95.5 -33l-31 -76q-46 22 -85 30t-74 8q-82 0 -130.5 -51.5t-65.5 -146.5l-23 -130q-17 -101 14 -156.5t116 -55.5q29 0 58.5 5.5t66.5 20.5
l33 184h-127l15 77h206zM427 833q29 0 49 18.5t31 64.5h68q-18 -79 -56.5 -112.5t-94.5 -33.5q-57 0 -88.5 33.5t-22.5 112.5h63q-5 -46 9 -64.5t42 -18.5z" />
    <glyph glyph-name="gbreve" unicode="&#x11f;" horiz-adv-x="554" 
d="M424 0q-8 -46 -21.5 -86t-38.5 -71t-66.5 -48.5t-104.5 -17.5q-40 0 -79.5 8t-79.5 24l21 70q37 -15 70.5 -21.5t64.5 -6.5q56 0 86 18t44 51.5t22 79.5l14 79q-45 -49 -86.5 -69t-79.5 -20q-50 0 -82 31t-44 85t-2 122l7 49q16 109 74.5 168.5t157.5 59.5
q53 0 104 -16.5t97 -46.5zM147 228q-11 -79 6 -121.5t60 -42.5q32 0 73 26t88 93l39 219q-56 28 -107 28q-67 0 -104 -41t-48 -112zM346 648q29 0 49 18.5t31 64.5h68q-18 -79 -56.5 -112.5t-94.5 -33.5q-57 0 -88.5 33.5t-22.5 112.5h63q-5 -46 9 -64.5t42 -18.5z" />
    <glyph glyph-name="Gdotaccent" unicode="&#x120;" horiz-adv-x="604" 
d="M499 41q-55 -28 -106.5 -39.5t-99.5 -11.5q-81 0 -133 36t-72 101.5t-5 153.5l23 130q23 137 92.5 208t195.5 71q45 0 92.5 -10t95.5 -33l-31 -76q-46 22 -85 30t-74 8q-82 0 -130.5 -51.5t-65.5 -146.5l-23 -130q-17 -101 14 -156.5t116 -55.5q29 0 58.5 5.5t66.5 20.5
l33 184h-127l15 77h206zM469 801h-92l15 92h92z" />
    <glyph glyph-name="gdotaccent" unicode="&#x121;" horiz-adv-x="554" 
d="M424 0q-8 -46 -21.5 -86t-38.5 -71t-66.5 -48.5t-104.5 -17.5q-40 0 -79.5 8t-79.5 24l21 70q37 -15 70.5 -21.5t64.5 -6.5q56 0 86 18t44 51.5t22 79.5l14 79q-45 -49 -86.5 -69t-79.5 -20q-50 0 -82 31t-44 85t-2 122l7 49q16 109 74.5 168.5t157.5 59.5
q53 0 104 -16.5t97 -46.5zM147 228q-11 -79 6 -121.5t60 -42.5q32 0 73 26t88 93l39 219q-56 28 -107 28q-67 0 -104 -41t-48 -112zM389 616h-92l15 92h92z" />
    <glyph glyph-name="uni0122" unicode="&#x122;" horiz-adv-x="604" 
d="M499 41q-55 -28 -106.5 -39.5t-99.5 -11.5q-81 0 -133 36t-72 101.5t-5 153.5l23 130q23 137 92.5 208t195.5 71q45 0 92.5 -10t95.5 -33l-31 -76q-46 22 -85 30t-74 8q-82 0 -130.5 -51.5t-65.5 -146.5l-23 -130q-17 -101 14 -156.5t116 -55.5q29 0 58.5 5.5t66.5 20.5
l33 184h-127l15 77h206zM215 -248l-52 14l60 157h93z" />
    <glyph glyph-name="uni0123" unicode="&#x123;" horiz-adv-x="554" 
d="M424 0q-8 -46 -21.5 -86t-38.5 -71t-66.5 -48.5t-104.5 -17.5q-40 0 -79.5 8t-79.5 24l21 70q37 -15 70.5 -21.5t64.5 -6.5q56 0 86 18t44 51.5t22 79.5l14 79q-45 -49 -86.5 -69t-79.5 -20q-50 0 -82 31t-44 85t-2 122l7 49q16 109 74.5 168.5t157.5 59.5
q53 0 104 -16.5t97 -46.5zM147 228q-11 -79 6 -121.5t60 -42.5q32 0 73 26t88 93l39 219q-56 28 -107 28q-67 0 -104 -41t-48 -112zM390 750l52 -14l-60 -157h-93z" />
    <glyph glyph-name="Hcircumflex" unicode="&#x124;" horiz-adv-x="683" 
d="M446 0l53 303h-297l-53 -303h-87l120 680h87l-52 -295h297l52 295h87l-120 -680h-87zM499 764l-50 95l-85 -95h-69l121 161h83l64 -161h-64z" />
    <glyph glyph-name="hcircumflex" unicode="&#x125;" horiz-adv-x="571" 
d="M361 428q-19 0 -44.5 -8.5t-58.5 -32.5t-76 -70l-56 -317h-82l130 740h82l-58 -331q57 59 102.5 77.5t82.5 18.5q69 0 101 -49t18 -129l-58 -327h-82l56 320q11 54 -4.5 81t-52.5 27zM398 824l-50 95l-85 -95h-69l121 161h83l64 -161h-64z" />
    <glyph glyph-name="Hbar" unicode="&#x126;" horiz-adv-x="703" 
d="M211 303l-53 -303h-87l89 504h-86l12 67h86l19 109h87l-19 -109h297l19 109h87l-19 -109h87l-12 -67h-87l-89 -504h-87l53 303h-297zM226 385h297l21 119h-297z" />
    <glyph glyph-name="hbar" unicode="&#x127;" horiz-adv-x="571" 
d="M182 317l-56 -317h-82l103 588h-86l11 60h86l16 92h82l-16 -92h155l-11 -60h-155l-31 -179q57 59 102.5 77.5t82.5 18.5q69 0 101 -49t18 -129l-58 -327h-82l56 320q11 54 -4.5 81t-52.5 27q-19 0 -44.5 -8.5t-58.5 -32.5t-76 -70z" />
    <glyph glyph-name="Itilde" unicode="&#x128;" horiz-adv-x="300" 
d="M149 0h-87l120 680h87zM310 773q-28 0 -44.5 12.5t-27 28.5t-19 28.5t-21.5 12.5q-10 0 -20.5 -14t-18.5 -56h-63q10 55 25.5 85t35.5 41.5t41 11.5q29 0 45.5 -12.5t26.5 -28.5t18.5 -28.5t21.5 -12.5q11 0 20.5 13.5t17.5 55.5h63q-9 -55 -24.5 -84.5t-35 -41
t-41.5 -11.5z" />
    <glyph glyph-name="itilde" unicode="&#x129;" horiz-adv-x="259" 
d="M126 0h-82l88 495h82zM259 588q-28 0 -44.5 12.5t-27 28.5t-19 28.5t-21.5 12.5q-10 0 -20.5 -14t-18.5 -56h-63q10 55 25.5 85t35.5 41.5t41 11.5q29 0 45.5 -12.5t26.5 -28.5t18.5 -28.5t21.5 -12.5q11 0 20.5 13.5t17.5 55.5h63q-9 -55 -24.5 -84.5t-35 -41
t-41.5 -11.5z" />
    <glyph glyph-name="Imacron" unicode="&#x12a;" horiz-adv-x="300" 
d="M149 0h-87l120 680h87zM397 857l-11 -63h-286l12 63h285z" />
    <glyph glyph-name="imacron" unicode="&#x12b;" horiz-adv-x="259" 
d="M126 0h-82l88 495h82zM347 672l-11 -63h-286l12 63h285z" />
    <glyph glyph-name="Ibreve" unicode="&#x12c;" horiz-adv-x="300" 
d="M149 0h-87l120 680h87zM249 833q29 0 49 18.5t31 64.5h68q-18 -79 -56.5 -112.5t-94.5 -33.5q-57 0 -88.5 33.5t-22.5 112.5h63q-5 -46 9 -64.5t42 -18.5z" />
    <glyph glyph-name="ibreve" unicode="&#x12d;" horiz-adv-x="259" 
d="M126 0h-82l88 495h82zM198 648q29 0 49 18.5t31 64.5h68q-18 -79 -56.5 -112.5t-94.5 -33.5q-57 0 -88.5 33.5t-22.5 112.5h63q-5 -46 9 -64.5t42 -18.5z" />
    <glyph glyph-name="Iogonek" unicode="&#x12e;" horiz-adv-x="300" 
d="M144 -206q-45 -17 -83 -17q-44 0 -68.5 19.5t-24.5 55.5q0 32 22 68t73 79l119 681h87l-120 -680q-56 -48 -79.5 -78t-23.5 -52q0 -25 32 -25q25 0 55 12z" />
    <glyph glyph-name="iogonek" unicode="&#x12f;" horiz-adv-x="260" 
d="M237 619h-85l15 86h85zM121 -206q-45 -17 -83 -17q-43 0 -68 19.5t-25 55.5q0 32 23.5 69t76.5 83l87 491h82l-88 -495q-56 -48 -79.5 -78t-23.5 -52q0 -25 32 -25q25 0 55 12z" />
    <glyph glyph-name="Idotaccent" unicode="&#x130;" horiz-adv-x="300" 
d="M149 0h-87l120 680h87zM291 801h-92l15 92h92z" />
    <glyph glyph-name="dotlessi" unicode="&#x131;" horiz-adv-x="259" 
d="M126 0h-82l88 495h82z" />
    <glyph glyph-name="IJ" unicode="&#x132;" horiz-adv-x="663" 
d="M149 0h-87l120 680h87zM282 -7l15 83q57 0 93.5 12t57.5 44.5t31 91.5l80 456h87l-80 -456q-14 -77 -42 -128.5t-84.5 -77t-157.5 -25.5z" />
    <glyph glyph-name="ij" unicode="&#x133;" horiz-adv-x="519" 
d="M241 616h-92l15 92h92zM126 0h-82l88 495h82zM499 616h-92l16 92h92zM156 -223l13 78q53 0 85 25t45 97l92 518h82l-92 -518q-11 -62 -34 -107t-68 -69t-123 -24z" />
    <glyph glyph-name="Jcircumflex" unicode="&#x134;" horiz-adv-x="363" 
d="M-18 -7l15 83q57 0 93.5 12t57.5 44.5t31 91.5l80 456h87l-80 -456q-14 -77 -42 -128.5t-84.5 -77t-157.5 -25.5zM384 764l-50 95l-85 -95h-69l121 161h83l64 -161h-64z" />
    <glyph glyph-name="jcircumflex" unicode="&#x135;" horiz-adv-x="259" 
d="M-103 -223l13 78q53 0 85 25t45 97l91 518h82l-91 -518q-11 -62 -34 -107t-68 -69t-123 -24zM257 579l-50 95l-85 -95h-69l121 161h83l64 -161h-64z" />
    <glyph glyph-name="uni0136" unicode="&#x136;" horiz-adv-x="595" 
d="M440 0l-140 325q-26 -24 -54 -47.5t-57 -48.5l-40 -229h-87l120 680h87l-61 -346q103 89 181.5 174t137.5 172h100q-58 -82 -121.5 -156.5t-136.5 -145.5l169 -378h-98zM212 -248l-52 14l60 157h93z" />
    <glyph glyph-name="uni0137" unicode="&#x137;" horiz-adv-x="508" 
d="M351 0l-100 230q-22 -19 -47 -38.5t-51 -39.5l-27 -152h-82l131 740h82l-88 -496q75 62 135.5 121.5t112.5 129.5h98q-46 -61 -94 -113t-103 -104l128 -278h-95zM162 -248l-52 14l60 157h93z" />
    <glyph glyph-name="kgreenlandic" unicode="&#x138;" horiz-adv-x="508" 
d="M351 0l-100 230q-22 -20 -47 -39t-51 -39l-27 -152h-82l88 495h82l-44 -250q74 62 134.5 121t112.5 129h98q-46 -61 -94 -113t-103 -104l128 -278h-95z" />
    <glyph glyph-name="Lacute" unicode="&#x139;" horiz-adv-x="506" 
d="M449 81l-14 -81h-373l120 680h87l-106 -599h286zM281 764h-76l119 166l77 -36z" />
    <glyph glyph-name="lacute" unicode="&#x13a;" horiz-adv-x="264" 
d="M65 125l108 615h82l-108 -616q-4 -28 1.5 -41t33.5 -13h15l-14 -75h-17q-69 0 -90 36.5t-11 93.5zM266 824h-76l119 166l77 -36z" />
    <glyph glyph-name="uni013B" unicode="&#x13b;" horiz-adv-x="506" 
d="M449 81l-14 -81h-373l120 680h87l-106 -599h286zM187 -248l-52 14l60 157h93z" />
    <glyph glyph-name="uni013C" unicode="&#x13c;" horiz-adv-x="264" 
d="M65 125l108 615h82l-108 -616q-4 -28 1.5 -41t33.5 -13h15l-14 -75h-17q-69 0 -90 36.5t-11 93.5zM49 -248l-52 14l60 157h93z" />
    <glyph glyph-name="Lcaron" unicode="&#x13d;" horiz-adv-x="506" 
d="M449 81l-14 -81h-373l120 680h87l-106 -599h286zM375 486h-55l35 194h83z" />
    <glyph glyph-name="lcaron" unicode="&#x13e;" horiz-adv-x="321" 
d="M65 125l108 615h82l-108 -616q-4 -28 1.5 -41t33.5 -13h15l-14 -75h-17q-69 0 -90 36.5t-11 93.5zM362 546h-55l35 194h83z" />
    <glyph glyph-name="Ldot" unicode="&#x13f;" horiz-adv-x="506" 
d="M449 81l-14 -81h-373l120 680h87l-106 -599h286zM464 338h-92l15 92h92z" />
    <glyph glyph-name="ldot" unicode="&#x140;" horiz-adv-x="288" 
d="M65 125l108 615h82l-108 -616q-4 -28 1.5 -41t33.5 -13h15l-14 -75h-17q-69 0 -90 36.5t-11 93.5zM334 338h-92l15 92h92z" />
    <glyph glyph-name="Lslash" unicode="&#x141;" horiz-adv-x="516" 
d="M459 81l-14 -81h-373l48 272l-93 -40l15 90l94 41l56 317h87l-49 -276l148 64l-15 -90l-149 -65l-41 -232h286z" />
    <glyph glyph-name="lslash" unicode="&#x142;" horiz-adv-x="302" 
d="M217 70l-13 -75h-17q-70 0 -90.5 36.5t-10.5 93.5l32 181l-95 -49l15 83l94 49l62 351h82l-53 -304l96 50l-15 -83l-96 -50l-40 -229q-5 -28 1 -41t34 -13h14z" />
    <glyph glyph-name="Nacute" unicode="&#x143;" horiz-adv-x="690" 
d="M62 0l120 680h91q44 -96 81.5 -184.5t70.5 -178t64 -189.5l38 272l50 280h82l-120 -680h-90q-48 153 -98.5 289.5t-110.5 272.5l-46 -284l-49 -278h-83zM471 764h-76l119 166l77 -36z" />
    <glyph glyph-name="nacute" unicode="&#x144;" horiz-adv-x="571" 
d="M361 428q-19 0 -44 -8.5t-58 -32t-76 -69.5l-57 -318h-82l88 495h77l-15 -91q59 62 105.5 81.5t83.5 19.5q68 0 100.5 -49.5t18.5 -128.5l-58 -327h-82l56 320q20 108 -57 108zM386 579h-76l119 166l77 -36z" />
    <glyph glyph-name="uni0145" unicode="&#x145;" horiz-adv-x="690" 
d="M62 0l120 680h91q44 -96 81.5 -184.5t70.5 -178t64 -189.5l38 272l50 280h82l-120 -680h-90q-48 153 -98.5 289.5t-110.5 272.5l-46 -284l-49 -278h-83zM232 -248l-52 14l60 157h93z" />
    <glyph glyph-name="uni0146" unicode="&#x146;" horiz-adv-x="571" 
d="M361 428q-19 0 -44 -8.5t-58 -32t-76 -69.5l-57 -318h-82l88 495h77l-15 -91q59 62 105.5 81.5t83.5 19.5q68 0 100.5 -49.5t18.5 -128.5l-58 -327h-82l56 320q20 108 -57 108zM175 -248l-52 14l60 157h93z" />
    <glyph glyph-name="Ncaron" unicode="&#x147;" horiz-adv-x="690" 
d="M62 0l120 680h91q44 -96 81.5 -184.5t70.5 -178t64 -189.5l38 272l50 280h82l-120 -680h-90q-48 153 -98.5 289.5t-110.5 272.5l-46 -284l-49 -278h-83zM595 925l-122 -161h-82l-65 161h64l51 -95l84 95h70z" />
    <glyph glyph-name="ncaron" unicode="&#x148;" horiz-adv-x="571" 
d="M361 428q-19 0 -44 -8.5t-58 -32t-76 -69.5l-57 -318h-82l88 495h77l-15 -91q59 62 105.5 81.5t83.5 19.5q68 0 100.5 -49.5t18.5 -128.5l-58 -327h-82l56 320q20 108 -57 108zM511 740l-122 -161h-82l-65 161h64l51 -95l84 95h70z" />
    <glyph glyph-name="napostrophe" unicode="&#x149;" horiz-adv-x="650" 
d="M440 428q-19 0 -44 -8.5t-58 -32t-76 -69.5l-57 -318h-82l88 495h77l-15 -91q59 62 105.5 81.5t83.5 19.5q68 0 100.5 -49.5t18.5 -128.5l-58 -327h-82l56 320q20 108 -57 108zM190 680l-3 -19q-11 -67 -39 -123t-78 -118l-49 28q26 42 42 75.5t26.5 70t18.5 86.5h82z
" />
    <glyph glyph-name="Eng" unicode="&#x14a;" horiz-adv-x="690" 
d="M62 0l120 680h91q44 -94 81.5 -180.5t71.5 -174.5t65 -186l36 261l50 280h82l-118 -672q-14 -76 -42 -127.5t-84.5 -77.5t-157.5 -26l15 84q56 0 92 12t57 42.5t32 85.5q-34 110 -67.5 202.5t-69 179.5t-76.5 178l-46 -283l-49 -278h-83z" />
    <glyph glyph-name="eng" unicode="&#x14b;" horiz-adv-x="571" 
d="M440 -23q-11 -62 -34 -107t-68.5 -69t-123.5 -24l13 78q53 0 85 24.5t45 97.5l61 343q20 108 -57 108q-19 0 -44.5 -8.5t-58.5 -32.5t-76 -70l-56 -317h-82l88 495h77l-15 -91q59 62 105.5 81.5t83.5 19.5q69 0 102 -50t17 -128z" />
    <glyph glyph-name="Omacron" unicode="&#x14c;" horiz-adv-x="647" 
d="M596 399l-23 -135q-23 -127 -93 -200.5t-185 -73.5q-80 0 -133 36.5t-73.5 102.5t-5.5 153l24 135q22 125 92 199t185 74q80 0 132.5 -37t74 -102.5t5.5 -151.5zM506 399q17 98 -15 154t-111 56q-73 0 -120 -51t-63 -141l-24 -135q-17 -99 14.5 -155.5t110.5 -56.5
q74 0 121.5 51.5t63.5 142.5zM570 857l-11 -63h-286l12 63h285z" />
    <glyph glyph-name="omacron" unicode="&#x14d;" horiz-adv-x="542" 
d="M483 258l-8 -50q-16 -106 -75.5 -162t-154.5 -56q-70 0 -115.5 32t-63.5 88t-7 127l8 51q17 102 75.5 159.5t154.5 57.5q71 0 116 -33t63 -88.5t7 -125.5zM398 260q12 75 -14 122.5t-88 47.5q-58 0 -95.5 -37t-48.5 -105l-8 -53q-12 -77 14.5 -124t87.5 -47
q58 0 95.5 36.5t48.5 107.5zM476 672l-11 -63h-286l12 63h285z" />
    <glyph glyph-name="Obreve" unicode="&#x14e;" horiz-adv-x="647" 
d="M596 399l-23 -135q-23 -127 -93 -200.5t-185 -73.5q-80 0 -133 36.5t-73.5 102.5t-5.5 153l24 135q22 125 92 199t185 74q80 0 132.5 -37t74 -102.5t5.5 -151.5zM506 399q17 98 -15 154t-111 56q-73 0 -120 -51t-63 -141l-24 -135q-17 -99 14.5 -155.5t110.5 -56.5
q74 0 121.5 51.5t63.5 142.5zM422 833q29 0 49 18.5t31 64.5h68q-18 -79 -56.5 -112.5t-94.5 -33.5q-57 0 -88.5 33.5t-22.5 112.5h63q-5 -46 9 -64.5t42 -18.5z" />
    <glyph glyph-name="obreve" unicode="&#x14f;" horiz-adv-x="542" 
d="M483 258l-8 -50q-16 -106 -75.5 -162t-154.5 -56q-70 0 -115.5 32t-63.5 88t-7 127l8 51q17 102 75.5 159.5t154.5 57.5q71 0 116 -33t63 -88.5t7 -125.5zM398 260q12 75 -14 122.5t-88 47.5q-58 0 -95.5 -37t-48.5 -105l-8 -53q-12 -77 14.5 -124t87.5 -47
q58 0 95.5 36.5t48.5 107.5zM328 648q29 0 49 18.5t31 64.5h68q-18 -79 -56.5 -112.5t-94.5 -33.5q-57 0 -88.5 33.5t-22.5 112.5h63q-5 -46 9 -64.5t42 -18.5z" />
    <glyph glyph-name="Ohungarumlaut" unicode="&#x150;" horiz-adv-x="647" 
d="M596 399l-23 -135q-23 -127 -93 -200.5t-185 -73.5q-80 0 -133 36.5t-73.5 102.5t-5.5 153l24 135q22 125 92 199t185 74q80 0 132.5 -37t74 -102.5t5.5 -151.5zM506 399q17 98 -15 154t-111 56q-73 0 -120 -51t-63 -141l-24 -135q-17 -99 14.5 -155.5t110.5 -56.5
q74 0 121.5 51.5t63.5 142.5zM379 764h-72l111 166l66 -36zM517 764h-72l111 166l66 -36z" />
    <glyph glyph-name="ohungarumlaut" unicode="&#x151;" horiz-adv-x="542" 
d="M483 258l-8 -50q-16 -106 -75.5 -162t-154.5 -56q-70 0 -115.5 32t-63.5 88t-7 127l8 51q17 102 75.5 159.5t154.5 57.5q71 0 116 -33t63 -88.5t7 -125.5zM398 260q12 75 -14 122.5t-88 47.5q-58 0 -95.5 -37t-48.5 -105l-8 -53q-12 -77 14.5 -124t87.5 -47
q58 0 95.5 36.5t48.5 107.5zM285 579h-72l111 166l66 -36zM423 579h-72l111 166l66 -36z" />
    <glyph glyph-name="OE" unicode="&#x152;" horiz-adv-x="868" 
d="M107 416q21 123 92.5 193.5t186.5 70.5h503l-14 -82h-282l-38 -213h252l-14 -82h-252l-40 -222h293l-14 -81h-486q-79 0 -131 35.5t-73 99t-7 146.5zM298 81h116l92 517h-123q-75 0 -123 -48t-63 -134l-24 -135q-16 -93 15.5 -146.5t109.5 -53.5z" />
    <glyph glyph-name="oe" unicode="&#x153;" horiz-adv-x="841" 
d="M745 20q-43 -16 -82.5 -23t-73.5 -7q-67 0 -108.5 25.5t-60.5 69.5q-58 -95 -176 -95q-70 0 -115 32t-63 88t-7 127l8 51q17 102 75.5 159.5t152.5 57.5q61 0 102 -27.5t60 -74.5q29 48 73 75t102 27q43 0 82 -16t63.5 -50t24.5 -87q0 -28 -8.5 -60.5t-29.5 -69.5h-290
q-6 -46 2 -82t36 -56t81 -20q27 0 63 6.5t76 19.5zM628 432q-57 0 -94 -37.5t-49 -105.5h222q8 17 11.5 32.5t3.5 28.5q0 42 -27 62t-67 20zM398 260q12 75 -14 122.5t-88 47.5q-58 0 -95.5 -37t-48.5 -105l-8 -53q-12 -77 14.5 -124t87.5 -47q58 0 95.5 36.5t48.5 107.5z
" />
    <glyph glyph-name="Racute" unicode="&#x154;" horiz-adv-x="601" 
d="M196 266l-47 -266h-87l120 680h202q64 0 107 -25t62 -69.5t9 -102.5l-7 -43q-10 -58 -44 -100t-89 -60q59 -135 96 -280h-94q-16 68 -38 134.5t-49 131.5h-141zM381 600h-126l-45 -254h126q52 0 86.5 25t42.5 71l8 43q9 55 -16 85t-76 30zM427 764h-76l119 166l77 -36z
" />
    <glyph glyph-name="racute" unicode="&#x155;" horiz-adv-x="367" 
d="M379 422q-23 0 -55 -7.5t-68.5 -30.5t-74.5 -70l-55 -314h-82l88 495h77l-16 -93q57 63 108.5 83t91.5 20zM316 579h-76l119 166l77 -36z" />
    <glyph glyph-name="uni0156" unicode="&#x156;" horiz-adv-x="601" 
d="M196 266l-47 -266h-87l120 680h202q64 0 107 -25t62 -69.5t9 -102.5l-7 -43q-10 -58 -44 -100t-89 -60q59 -135 96 -280h-94q-16 68 -38 134.5t-49 131.5h-141zM381 600h-126l-45 -254h126q52 0 86.5 25t42.5 71l8 43q9 55 -16 85t-76 30zM214 -248l-52 14l60 157h93z
" />
    <glyph glyph-name="uni0157" unicode="&#x157;" horiz-adv-x="367" 
d="M379 422q-23 0 -55 -7.5t-68.5 -30.5t-74.5 -70l-55 -314h-82l88 495h77l-16 -93q57 63 108.5 83t91.5 20zM17 -248l-52 14l60 157h93z" />
    <glyph glyph-name="Rcaron" unicode="&#x158;" horiz-adv-x="601" 
d="M196 266l-47 -266h-87l120 680h202q64 0 107 -25t62 -69.5t9 -102.5l-7 -43q-10 -58 -44 -100t-89 -60q59 -135 96 -280h-94q-16 68 -38 134.5t-49 131.5h-141zM381 600h-126l-45 -254h126q52 0 86.5 25t42.5 71l8 43q9 55 -16 85t-76 30zM551 925l-122 -161h-82l-65 161
h64l51 -95l84 95h70z" />
    <glyph glyph-name="rcaron" unicode="&#x159;" horiz-adv-x="367" 
d="M379 422q-23 0 -55 -7.5t-68.5 -30.5t-74.5 -70l-55 -314h-82l88 495h77l-16 -93q57 63 108.5 83t91.5 20zM440 740l-122 -161h-82l-65 161h64l51 -95l84 95h70z" />
    <glyph glyph-name="Sacute" unicode="&#x15a;" horiz-adv-x="506" 
d="M208 68q74 0 112.5 32t38.5 86q0 70 -81 106l-72 32q-61 27 -90 67.5t-29 101.5q0 54 23 98.5t73 71.5t130 27q93 0 182 -44l-30 -75q-43 20 -79 30t-73 10q-67 0 -101.5 -30.5t-34.5 -82.5q0 -34 18.5 -56.5t61.5 -42.5l71 -32q58 -25 90 -66.5t32 -107.5
q0 -53 -24 -99.5t-77 -75t-141 -28.5q-49 0 -99.5 11.5t-103.5 36.5l30 75q50 -24 91 -34.5t82 -10.5zM384 764h-76l119 166l77 -36z" />
    <glyph glyph-name="sacute" unicode="&#x15b;" horiz-adv-x="433" 
d="M177 63q58 0 83.5 20t25.5 52q0 26 -16 42t-54 30l-48 19q-51 19 -76.5 51t-25.5 81q0 40 17.5 73t56.5 53.5t102 20.5q77 0 156 -36l-26 -70q-36 17 -68 24.5t-64 7.5q-49 0 -70.5 -18t-21.5 -49q0 -22 13.5 -38t46.5 -29l49 -18q55 -20 83 -52t28 -83q0 -39 -19 -74.5
t-61.5 -57.5t-112.5 -22q-83 0 -167 37l26 69q39 -17 74 -25t69 -8zM309 579h-76l119 166l77 -36z" />
    <glyph glyph-name="Scircumflex" unicode="&#x15c;" horiz-adv-x="506" 
d="M208 68q74 0 112.5 32t38.5 86q0 70 -81 106l-72 32q-61 27 -90 67.5t-29 101.5q0 54 23 98.5t73 71.5t130 27q93 0 182 -44l-30 -75q-43 20 -79 30t-73 10q-67 0 -101.5 -30.5t-34.5 -82.5q0 -34 18.5 -56.5t61.5 -42.5l71 -32q58 -25 90 -66.5t32 -107.5
q0 -53 -24 -99.5t-77 -75t-141 -28.5q-49 0 -99.5 11.5t-103.5 36.5l30 75q50 -24 91 -34.5t82 -10.5zM416 764l-50 95l-85 -95h-69l121 161h83l64 -161h-64z" />
    <glyph glyph-name="scircumflex" unicode="&#x15d;" horiz-adv-x="433" 
d="M177 63q58 0 83.5 20t25.5 52q0 26 -16 42t-54 30l-48 19q-51 19 -76.5 51t-25.5 81q0 40 17.5 73t56.5 53.5t102 20.5q77 0 156 -36l-26 -70q-36 17 -68 24.5t-64 7.5q-49 0 -70.5 -18t-21.5 -49q0 -22 13.5 -38t46.5 -29l49 -18q55 -20 83 -52t28 -83q0 -39 -19 -74.5
t-61.5 -57.5t-112.5 -22q-83 0 -167 37l26 69q39 -17 74 -25t69 -8zM341 579l-50 95l-85 -95h-69l121 161h83l64 -161h-64z" />
    <glyph glyph-name="Scedilla" unicode="&#x15e;" horiz-adv-x="506" 
d="M290 -126q0 -38 -29.5 -67.5t-91.5 -29.5q-22 0 -41 4t-39 11l14 56q17 -6 34 -9t30 -3q30 0 42.5 10.5t12.5 23.5q0 12 -9.5 19.5t-33.5 7.5q-6 0 -12 -0.5t-13 -1.5l-16 38l21 60q-37 4 -75.5 15t-78.5 30l30 75q50 -24 91 -34.5t82 -10.5q74 0 112.5 32t38.5 86
q0 70 -81 106l-72 32q-61 27 -90 67.5t-29 101.5q0 54 23 98.5t73 71.5t130 27q93 0 182 -44l-30 -75q-43 20 -79 30t-73 10q-67 0 -101.5 -30.5t-34.5 -82.5q0 -34 18.5 -56.5t61.5 -42.5l71 -32q58 -25 90 -66.5t32 -107.5q0 -52 -23 -97.5t-74 -74.5t-136 -31l-14 -40
q41 -1 64 -21t23 -55z" />
    <glyph glyph-name="scedilla" unicode="&#x15f;" horiz-adv-x="433" 
d="M255 -126q0 -38 -29.5 -67.5t-91.5 -29.5q-22 0 -41 4t-39 11l14 56q17 -6 34 -9t30 -3q30 0 42.5 10.5t12.5 23.5q0 12 -9.5 19.5t-33.5 7.5q-6 0 -12 -0.5t-13 -1.5l-16 38l22 60q-58 7 -117 34l26 69q39 -17 74 -25t69 -8q58 0 83.5 20t25.5 52q0 26 -16 42t-54 30
l-48 19q-51 19 -76.5 51t-25.5 81q0 40 17.5 73t56.5 53.5t102 20.5q77 0 156 -36l-26 -70q-36 17 -68 24.5t-64 7.5q-49 0 -70.5 -18t-21.5 -49q0 -22 13.5 -38t46.5 -29l49 -18q55 -20 83 -52t28 -83q0 -39 -19 -74.5t-59.5 -57.5t-107.5 -22l-14 -40q41 -1 64 -21t23 -55
z" />
    <glyph glyph-name="Scaron" unicode="&#x160;" horiz-adv-x="506" 
d="M208 68q74 0 112.5 32t38.5 86q0 70 -81 106l-72 32q-61 27 -90 67.5t-29 101.5q0 54 23 98.5t73 71.5t130 27q93 0 182 -44l-30 -75q-43 20 -79 30t-73 10q-67 0 -101.5 -30.5t-34.5 -82.5q0 -34 18.5 -56.5t61.5 -42.5l71 -32q58 -25 90 -66.5t32 -107.5
q0 -53 -24 -99.5t-77 -75t-141 -28.5q-49 0 -99.5 11.5t-103.5 36.5l30 75q50 -24 91 -34.5t82 -10.5zM509 925l-122 -161h-82l-65 161h64l51 -95l84 95h70z" />
    <glyph glyph-name="scaron" unicode="&#x161;" horiz-adv-x="433" 
d="M177 63q58 0 83.5 20t25.5 52q0 26 -16 42t-54 30l-48 19q-51 19 -76.5 51t-25.5 81q0 40 17.5 73t56.5 53.5t102 20.5q77 0 156 -36l-26 -70q-36 17 -68 24.5t-64 7.5q-49 0 -70.5 -18t-21.5 -49q0 -22 13.5 -38t46.5 -29l49 -18q55 -20 83 -52t28 -83q0 -39 -19 -74.5
t-61.5 -57.5t-112.5 -22q-83 0 -167 37l26 69q39 -17 74 -25t69 -8zM434 740l-122 -161h-82l-65 161h64l51 -95l84 95h70z" />
    <glyph glyph-name="uni0162" unicode="&#x162;" horiz-adv-x="509" 
d="M74 598l15 82h483l-14 -82h-198l-106 -598h-87l106 598h-199zM142 -248l-52 14l60 157h93z" />
    <glyph glyph-name="uni0163" unicode="&#x163;" horiz-adv-x="382" 
d="M321 17q-64 -27 -121 -27q-51 0 -79 22.5t-36 58.5t-1 77l48 275h-86l12 72h87l24 138h82l-24 -138h162l-13 -72h-162l-49 -275q-8 -46 7 -64.5t44 -18.5q16 0 38.5 4.5t48.5 16.5zM109 -248l-52 14l60 157h93z" />
    <glyph glyph-name="Tcaron" unicode="&#x164;" horiz-adv-x="509" 
d="M74 598l15 82h483l-14 -82h-198l-106 -598h-87l106 598h-199zM505 925l-122 -161h-82l-65 161h64l51 -95l84 95h70z" />
    <glyph glyph-name="tcaron" unicode="&#x165;" horiz-adv-x="381" 
d="M321 17q-64 -27 -121 -27q-51 0 -79 22.5t-36 58.5t-1 77l48 275h-86l12 72h87l24 138h82l-24 -138h162l-13 -72h-162l-49 -275q-8 -46 7 -64.5t44 -18.5q16 0 38.5 4.5t48.5 16.5zM366 568h-55l35 194h83z" />
    <glyph glyph-name="Tbar" unicode="&#x166;" horiz-adv-x="509" 
d="M435 294h-129l-52 -294h-87l52 294h-129l13 75h129l41 229h-199l15 82h483l-14 -82h-198l-41 -229h130z" />
    <glyph glyph-name="tbar" unicode="&#x167;" horiz-adv-x="400" 
d="M338 17q-64 -27 -121 -27q-51 0 -79 22.5t-36 58.5t-1 77l15 84h-87l11 60h86l23 131h-86l12 72h87l24 138h82l-24 -138h162l-13 -72h-162l-23 -131h130l-10 -60h-131l-15 -84q-8 -46 7 -64.5t44 -18.5q16 0 38.5 4.5t48.5 16.5z" />
    <glyph glyph-name="Utilde" unicode="&#x168;" horiz-adv-x="648" 
d="M168 680h90l-77 -436q-8 -50 0 -89.5t36 -62t79 -22.5q71 0 113 45.5t56 128.5l77 436h90l-77 -436q-21 -117 -83.5 -185.5t-178.5 -68.5q-78 0 -127.5 33.5t-68 91t-6.5 129.5zM483 773q-28 0 -44.5 12.5t-27 28.5t-19 28.5t-21.5 12.5q-10 0 -20.5 -14t-18.5 -56h-63
q10 55 25.5 85t35.5 41.5t41 11.5q29 0 45.5 -12.5t26.5 -28.5t18.5 -28.5t21.5 -12.5q11 0 20.5 13.5t17.5 55.5h63q-9 -55 -24.5 -84.5t-35 -41t-41.5 -11.5z" />
    <glyph glyph-name="utilde" unicode="&#x169;" horiz-adv-x="559" 
d="M349 0l16 90q-58 -61 -102.5 -80.5t-80.5 -19.5q-67 0 -97.5 49t-16.5 128l58 328h82l-56 -320q-10 -55 4.5 -81.5t46.5 -26.5q19 0 43 8.5t56 32.5t74 69l56 318h82l-87 -495h-78zM405 588q-28 0 -44.5 12.5t-27 28.5t-19 28.5t-21.5 12.5q-10 0 -20.5 -14t-18.5 -56
h-63q10 55 25.5 85t35.5 41.5t41 11.5q29 0 45.5 -12.5t26.5 -28.5t18.5 -28.5t21.5 -12.5q11 0 20.5 13.5t17.5 55.5h63q-9 -55 -24.5 -84.5t-35 -41t-41.5 -11.5z" />
    <glyph glyph-name="Umacron" unicode="&#x16a;" horiz-adv-x="648" 
d="M168 680h90l-77 -436q-8 -50 0 -89.5t36 -62t79 -22.5q71 0 113 45.5t56 128.5l77 436h90l-77 -436q-21 -117 -83.5 -185.5t-178.5 -68.5q-78 0 -127.5 33.5t-68 91t-6.5 129.5zM571 857l-11 -63h-286l12 63h285z" />
    <glyph glyph-name="umacron" unicode="&#x16b;" horiz-adv-x="559" 
d="M349 0l16 90q-58 -61 -102.5 -80.5t-80.5 -19.5q-67 0 -97.5 49t-16.5 128l58 328h82l-56 -320q-10 -55 4.5 -81.5t46.5 -26.5q19 0 43 8.5t56 32.5t74 69l56 318h82l-87 -495h-78zM493 672l-11 -63h-286l12 63h285z" />
    <glyph glyph-name="Ubreve" unicode="&#x16c;" horiz-adv-x="648" 
d="M168 680h90l-77 -436q-8 -50 0 -89.5t36 -62t79 -22.5q71 0 113 45.5t56 128.5l77 436h90l-77 -436q-21 -117 -83.5 -185.5t-178.5 -68.5q-78 0 -127.5 33.5t-68 91t-6.5 129.5zM422 833q29 0 49 18.5t31 64.5h68q-18 -79 -56.5 -112.5t-94.5 -33.5q-57 0 -88.5 33.5
t-22.5 112.5h63q-5 -46 9 -64.5t42 -18.5z" />
    <glyph glyph-name="ubreve" unicode="&#x16d;" horiz-adv-x="559" 
d="M349 0l16 90q-58 -61 -102.5 -80.5t-80.5 -19.5q-67 0 -97.5 49t-16.5 128l58 328h82l-56 -320q-10 -55 4.5 -81.5t46.5 -26.5q19 0 43 8.5t56 32.5t74 69l56 318h82l-87 -495h-78zM344 648q29 0 49 18.5t31 64.5h68q-18 -79 -56.5 -112.5t-94.5 -33.5q-57 0 -88.5 33.5
t-22.5 112.5h63q-5 -46 9 -64.5t42 -18.5z" />
    <glyph glyph-name="Uring" unicode="&#x16e;" horiz-adv-x="648" 
d="M168 680h90l-77 -436q-8 -50 0 -89.5t36 -62t79 -22.5q71 0 113 45.5t56 128.5l77 436h90l-77 -436q-21 -117 -83.5 -185.5t-178.5 -68.5q-78 0 -127.5 33.5t-68 91t-6.5 129.5zM544 864l-3 -15q-7 -45 -40 -73t-83 -28q-53 0 -81.5 31.5t-20.5 80.5l2 15q8 45 40.5 73
t82.5 28q54 0 82.5 -32t20.5 -80zM485 870q4 22 -8.5 36.5t-38.5 14.5q-23 0 -40 -13.5t-21 -38.5l-3 -14q-4 -23 9 -37.5t38 -14.5q24 0 41 13.5t21 38.5z" />
    <glyph glyph-name="uring" unicode="&#x16f;" horiz-adv-x="559" 
d="M349 0l16 90q-58 -61 -102.5 -80.5t-80.5 -19.5q-67 0 -97.5 49t-16.5 128l58 328h82l-56 -320q-10 -55 4.5 -81.5t46.5 -26.5q19 0 43 8.5t56 32.5t74 69l56 318h82l-87 -495h-78zM466 679l-3 -15q-7 -45 -40 -73t-83 -28q-53 0 -81.5 31.5t-20.5 80.5l2 15
q8 45 40.5 73t82.5 28q54 0 82.5 -32t20.5 -80zM407 685q4 22 -8.5 36.5t-38.5 14.5q-23 0 -40 -13.5t-21 -38.5l-3 -14q-4 -23 9 -37.5t38 -14.5q24 0 41 13.5t21 38.5z" />
    <glyph glyph-name="Uhungarumlaut" unicode="&#x170;" horiz-adv-x="648" 
d="M168 680h90l-77 -436q-8 -50 0 -89.5t36 -62t79 -22.5q71 0 113 45.5t56 128.5l77 436h90l-77 -436q-21 -117 -83.5 -185.5t-178.5 -68.5q-78 0 -127.5 33.5t-68 91t-6.5 129.5zM379 764h-72l111 166l66 -36zM517 764h-72l111 166l66 -36z" />
    <glyph glyph-name="uhungarumlaut" unicode="&#x171;" horiz-adv-x="559" 
d="M349 0l16 90q-58 -61 -102.5 -80.5t-80.5 -19.5q-67 0 -97.5 49t-16.5 128l58 328h82l-56 -320q-10 -55 4.5 -81.5t46.5 -26.5q19 0 43 8.5t56 32.5t74 69l56 318h82l-87 -495h-78zM301 579h-72l111 166l66 -36zM439 579h-72l111 166l66 -36z" />
    <glyph glyph-name="Uogonek" unicode="&#x172;" horiz-adv-x="648" 
d="M384 -206q-45 -17 -83 -17q-44 0 -69 20t-25 57q0 30 19.5 62.5t66.5 73.5q-78 0 -127.5 33.5t-68 91t-6.5 129.5l77 436h90l-77 -436q-8 -50 0 -89.5t36 -62t79 -22.5q71 0 113 45.5t56 128.5l77 436h90l-77 -436q-12 -68 -37.5 -121t-68.5 -85q-64 -47 -99.5 -77.5
t-49.5 -50.5t-14 -38q0 -27 32 -27q25 0 55 12z" />
    <glyph glyph-name="uogonek" unicode="&#x173;" horiz-adv-x="559" 
d="M396 -206q-43 -17 -82 -17q-45 0 -69.5 20t-24.5 57q0 33 27 71t105 90l13 75q-58 -61 -102.5 -80.5t-80.5 -19.5q-67 0 -97.5 49t-16.5 128l58 328h82l-56 -320q-10 -55 4.5 -81.5t46.5 -26.5q19 0 43 8.5t56 32.5t74 69l56 318h82l-87 -495q-53 -36 -81 -59.5t-38 -39
t-10 -29.5q0 -27 33 -27q24 0 54 12z" />
    <glyph glyph-name="Wcircumflex" unicode="&#x174;" horiz-adv-x="860" 
d="M209 392l1 -266l254 554h82l57 -555l98 267l110 288h89l-269 -680h-90l-57 554l-253 -554h-90l-29 680h89zM587 764l-50 95l-85 -95h-69l121 161h83l64 -161h-64z" />
    <glyph glyph-name="wcircumflex" unicode="&#x175;" horiz-adv-x="716" 
d="M728 495l-214 -495h-95l-32 407l-179 -407h-95l-39 495h80l14 -207l9 -206l180 413h88l34 -410l79 202l85 208h85zM482 579l-50 95l-85 -95h-69l121 161h83l64 -161h-64z" />
    <glyph glyph-name="Ycircumflex" unicode="&#x176;" horiz-adv-x="524" 
d="M590 680l-280 -409l-48 -271h-87l48 271l-136 409h89l104 -322l214 322h96zM420 764l-50 95l-85 -95h-69l121 161h83l64 -161h-64z" />
    <glyph glyph-name="ycircumflex" unicode="&#x177;" horiz-adv-x="472" 
d="M204 -50q-34 -63 -67.5 -101t-74 -55t-95.5 -17l14 81q35 1 59 9t46.5 32t49.5 73l18 31l-89 492h81l42 -241l23 -152l75 152l123 241h85l-263 -495zM361 579l-50 95l-85 -95h-69l121 161h83l64 -161h-64z" />
    <glyph glyph-name="Ydieresis" unicode="&#x178;" horiz-adv-x="524" 
d="M590 680l-280 -409l-48 -271h-87l48 271l-136 409h89l104 -322l214 322h96zM305 804h-86l15 86h86zM496 804h-86l15 86h86z" />
    <glyph glyph-name="Zacute" unicode="&#x179;" horiz-adv-x="508" 
d="M440 81l-14 -81h-428l11 70l404 528h-301l15 82h409l-13 -71l-404 -528h321zM381 764h-76l119 166l77 -36z" />
    <glyph glyph-name="zacute" unicode="&#x17a;" horiz-adv-x="412" 
d="M347 71l-12 -71h-343l10 64l297 359h-224l13 72h324l-11 -65l-296 -359h242zM298 579h-76l119 166l77 -36z" />
    <glyph glyph-name="Zdotaccent" unicode="&#x17b;" horiz-adv-x="508" 
d="M440 81l-14 -81h-428l11 70l404 528h-301l15 82h409l-13 -71l-404 -528h321zM396 801h-92l15 92h92z" />
    <glyph glyph-name="zdotaccent" unicode="&#x17c;" horiz-adv-x="412" 
d="M347 71l-12 -71h-343l10 64l297 359h-224l13 72h324l-11 -65l-296 -359h242zM313 616h-92l15 92h92z" />
    <glyph glyph-name="Zcaron" unicode="&#x17d;" horiz-adv-x="508" 
d="M440 81l-14 -81h-428l11 70l404 528h-301l15 82h409l-13 -71l-404 -528h321zM506 925l-122 -161h-82l-65 161h64l51 -95l84 95h70z" />
    <glyph glyph-name="zcaron" unicode="&#x17e;" horiz-adv-x="412" 
d="M347 71l-12 -71h-343l10 64l297 359h-224l13 72h324l-11 -65l-296 -359h242zM423 740l-122 -161h-82l-65 161h64l51 -95l84 95h70z" />
    <glyph glyph-name="florin" unicode="&#x192;" horiz-adv-x="362" 
d="M130 -54q-13 -50 -32 -88t-50.5 -59.5t-83.5 -21.5q-24 0 -50.5 5.5t-49.5 15.5l28 69q19 -8 35.5 -11.5t30.5 -3.5q35 0 55.5 22.5t33.5 71.5l100 375h-121l13 72h127l50 188q13 50 31.5 88t50.5 59.5t85 21.5q24 0 50.5 -5t49.5 -16l-29 -69q-18 8 -34.5 11.5
t-30.5 3.5q-37 0 -56.5 -22t-33.5 -72l-50 -188h120l-13 -72h-126z" />
    <glyph glyph-name="uni0218" unicode="&#x218;" horiz-adv-x="506" 
d="M208 68q74 0 112.5 32t38.5 86q0 70 -81 106l-72 32q-61 27 -90 67.5t-29 101.5q0 54 23 98.5t73 71.5t130 27q93 0 182 -44l-30 -75q-43 20 -79 30t-73 10q-67 0 -101.5 -30.5t-34.5 -82.5q0 -34 18.5 -56.5t61.5 -42.5l71 -32q58 -25 90 -66.5t32 -107.5
q0 -53 -24 -99.5t-77 -75t-141 -28.5q-49 0 -99.5 11.5t-103.5 36.5l30 75q50 -24 91 -34.5t82 -10.5zM135 -248l-52 14l60 157h93z" />
    <glyph glyph-name="uni0219" unicode="&#x219;" horiz-adv-x="433" 
d="M177 63q58 0 83.5 20t25.5 52q0 26 -16 42t-54 30l-48 19q-51 19 -76.5 51t-25.5 81q0 40 17.5 73t56.5 53.5t102 20.5q77 0 156 -36l-26 -70q-36 17 -68 24.5t-64 7.5q-49 0 -70.5 -18t-21.5 -49q0 -22 13.5 -38t46.5 -29l49 -18q55 -20 83 -52t28 -83q0 -39 -19 -74.5
t-61.5 -57.5t-112.5 -22q-83 0 -167 37l26 69q39 -17 74 -25t69 -8zM94 -248l-52 14l60 157h93z" />
    <glyph glyph-name="uni021A" unicode="&#x21a;" horiz-adv-x="509" 
d="M74 598l15 82h483l-14 -82h-198l-106 -598h-87l106 598h-199zM142 -248l-52 14l60 157h93z" />
    <glyph glyph-name="uni021B" unicode="&#x21b;" horiz-adv-x="382" 
d="M321 17q-64 -27 -121 -27q-51 0 -79 22.5t-36 58.5t-1 77l48 275h-86l12 72h87l24 138h82l-24 -138h162l-13 -72h-162l-49 -275q-8 -46 7 -64.5t44 -18.5q16 0 38.5 4.5t48.5 16.5zM109 -248l-52 14l60 157h93z" />
    <glyph glyph-name="uni0237" unicode="&#x237;" horiz-adv-x="259" 
d="M-103 -223l13 78q53 0 85 25t45 97l91 518h82l-91 -518q-11 -62 -34 -107t-68 -69t-123 -24z" />
    <glyph glyph-name="circumflex" unicode="&#x2c6;" horiz-adv-x="500" 
d="M378 579l-50 95l-85 -95h-69l121 161h83l64 -161h-64z" />
    <glyph glyph-name="caron" unicode="&#x2c7;" horiz-adv-x="500" 
d="M471 740l-122 -161h-82l-65 161h64l51 -95l84 95h70z" />
    <glyph glyph-name="breve" unicode="&#x2d8;" horiz-adv-x="500" 
d="M318 648q29 0 49 18.5t31 64.5h68q-18 -79 -56.5 -112.5t-94.5 -33.5q-57 0 -88.5 33.5t-22.5 112.5h63q-5 -46 9 -64.5t42 -18.5z" />
    <glyph glyph-name="dotaccent" unicode="&#x2d9;" horiz-adv-x="500" 
d="M361 616h-92l15 92h92z" />
    <glyph glyph-name="ring" unicode="&#x2da;" horiz-adv-x="500" 
d="M440 679l-3 -15q-7 -45 -40 -73t-83 -28q-53 0 -81.5 31.5t-20.5 80.5l2 15q8 45 40.5 73t82.5 28q54 0 82.5 -32t20.5 -80zM381 685q4 22 -8.5 36.5t-38.5 14.5q-23 0 -40 -13.5t-21 -38.5l-3 -14q-4 -23 9 -37.5t38 -14.5q24 0 41 13.5t21 38.5z" />
    <glyph glyph-name="ogonek" unicode="&#x2db;" horiz-adv-x="500" 
d="M200 -155q24 0 54 12l11 -63q-43 -17 -82 -17q-45 0 -69.5 20t-24.5 57q0 25 14.5 52t52.5 60.5t107 76.5l32 -43q-53 -36 -80.5 -59.5t-37.5 -39t-10 -29.5q0 -27 33 -27z" />
    <glyph glyph-name="tilde" unicode="&#x2dc;" horiz-adv-x="500" 
d="M379 588q-28 0 -44.5 12.5t-27 28.5t-19 28.5t-21.5 12.5q-10 0 -20.5 -14t-18.5 -56h-63q10 55 25.5 85t35.5 41.5t41 11.5q29 0 45.5 -12.5t26.5 -28.5t18.5 -28.5t21.5 -12.5q11 0 20.5 13.5t17.5 55.5h63q-9 -55 -24.5 -84.5t-35 -41t-41.5 -11.5z" />
    <glyph glyph-name="hungarumlaut" unicode="&#x2dd;" horiz-adv-x="500" 
d="M275 579h-72l111 166l66 -36zM413 579h-72l111 166l66 -36z" />
    <glyph glyph-name="pi" unicode="&#x3c0;" horiz-adv-x="561" 
d="M502 70l-14 -75h-31q-70 0 -93.5 36.5t-13.5 93.5l53 298h-186l-74 -423h-82l74 423h-79l13 72h508l-13 -72h-79l-53 -299q-4 -28 4.5 -41t36.5 -13h29z" />
    <glyph glyph-name="Wgrave" unicode="&#x1e80;" horiz-adv-x="860" 
d="M209 392l1 -266l254 554h82l57 -555l98 267l110 288h89l-269 -680h-90l-57 554l-253 -554h-90l-29 680h89zM481 764l-75 130l81 36l61 -166h-67z" />
    <glyph glyph-name="wgrave" unicode="&#x1e81;" horiz-adv-x="716" 
d="M728 495l-214 -495h-95l-32 407l-179 -407h-95l-39 495h80l14 -207l9 -206l180 413h88l34 -410l79 202l85 208h85zM379 579l-75 130l81 36l61 -166h-67z" />
    <glyph glyph-name="Wacute" unicode="&#x1e82;" horiz-adv-x="860" 
d="M209 392l1 -266l254 554h82l57 -555l98 267l110 288h89l-269 -680h-90l-57 554l-253 -554h-90l-29 680h89zM556 764h-76l119 166l77 -36z" />
    <glyph glyph-name="wacute" unicode="&#x1e83;" horiz-adv-x="716" 
d="M728 495l-214 -495h-95l-32 407l-179 -407h-95l-39 495h80l14 -207l9 -206l180 413h88l34 -410l79 202l85 208h85zM451 579h-76l119 166l77 -36z" />
    <glyph glyph-name="Wdieresis" unicode="&#x1e84;" horiz-adv-x="860" 
d="M209 392l1 -266l254 554h82l57 -555l98 267l110 288h89l-269 -680h-90l-57 554l-253 -554h-90l-29 680h89zM473 804h-86l15 86h86zM664 804h-86l15 86h86z" />
    <glyph glyph-name="wdieresis" unicode="&#x1e85;" horiz-adv-x="716" 
d="M728 495l-214 -495h-95l-32 407l-179 -407h-95l-39 495h80l14 -207l9 -206l180 413h88l34 -410l79 202l85 208h85zM367 619h-86l15 86h86zM558 619h-86l15 86h86z" />
    <glyph glyph-name="uni1E9E" unicode="&#x1e9e;" horiz-adv-x="603" 
d="M543 151q-14 -76 -61 -118.5t-133 -42.5q-36 0 -74.5 8.5t-76.5 27.5l31 75q33 -17 63 -24.5t58 -7.5q50 0 74 24.5t31 66.5l3 16q8 46 -8 72t-56 43l-82 35l11 65l138 194q-42 25 -99 25q-59 0 -96.5 -34t-50.5 -107l-83 -469h-87l83 469q20 116 81 168.5t155 52.5
q58 0 107.5 -18.5t80.5 -47.5l-10 -59l-134 -188l28 -12q62 -27 93 -74.5t17 -123.5z" />
    <glyph glyph-name="Ygrave" unicode="&#x1ef2;" horiz-adv-x="524" 
d="M590 680l-280 -409l-48 -271h-87l48 271l-136 409h89l104 -322l214 322h96zM316 764l-75 130l81 36l61 -166h-67z" />
    <glyph glyph-name="ygrave" unicode="&#x1ef3;" horiz-adv-x="472" 
d="M204 -50q-34 -63 -67.5 -101t-74 -55t-95.5 -17l14 81q35 1 59 9t46.5 32t49.5 73l18 31l-89 492h81l42 -241l23 -152l75 152l123 241h85l-263 -495zM258 579l-75 130l81 36l61 -166h-67z" />
    <glyph glyph-name="endash" unicode="&#x2013;" horiz-adv-x="592" 
d="M59 267l13 72h480l-13 -72h-480z" />
    <glyph glyph-name="emdash" unicode="&#x2014;" horiz-adv-x="792" 
d="M59 267l13 72h680l-13 -72h-680z" />
    <glyph glyph-name="quoteleft" unicode="&#x2018;" horiz-adv-x="192" 
d="M69 430l3 19q11 67 39.5 122.5t77.5 118.5l49 -29q-25 -41 -41 -74.5t-26.5 -70t-19.5 -86.5h-82z" />
    <glyph glyph-name="quoteright" unicode="&#x2019;" horiz-adv-x="192" 
d="M231 680l-3 -19q-11 -67 -39 -123t-78 -118l-49 28q26 42 42 75.5t26.5 70t18.5 86.5h82z" />
    <glyph glyph-name="quotesinglbase" unicode="&#x201a;" horiz-adv-x="192" 
d="M109 91l-3 -19q-11 -66 -39 -122t-77 -118l-49 29q25 41 41 74.5t26.5 69.5t18.5 86h82z" />
    <glyph glyph-name="quotedblleft" unicode="&#x201c;" horiz-adv-x="356" 
d="M233 430l3 19q11 67 39.5 122.5t77.5 118.5l49 -29q-25 -41 -41 -74.5t-26.5 -70t-19.5 -86.5h-82zM69 430l3 19q11 67 39.5 122.5t77.5 118.5l49 -29q-25 -41 -41 -74.5t-26.5 -70t-19.5 -86.5h-82z" />
    <glyph glyph-name="quotedblright" unicode="&#x201d;" horiz-adv-x="356" 
d="M231 680l-3 -19q-11 -67 -39 -123t-78 -118l-49 28q26 42 42 75.5t26.5 70t18.5 86.5h82zM395 680l-3 -19q-11 -67 -39 -123t-78 -118l-49 28q26 42 42 75.5t26.5 70t18.5 86.5h82z" />
    <glyph glyph-name="quotedblbase" unicode="&#x201e;" horiz-adv-x="356" 
d="M109 91l-3 -19q-11 -66 -39 -122t-77 -118l-49 29q26 41 41.5 74.5t26 69.5t18.5 86h82zM273 91l-3 -19q-11 -66 -39 -122t-77 -118l-50 29q26 41 42 74.5t26.5 69.5t18.5 86h82z" />
    <glyph glyph-name="dagger" unicode="&#x2020;" horiz-adv-x="431" 
d="M254 230l-81 -373h-55l51 373l11 66l41 152l-138 -13h-36l14 82h36l134 -14l11 141l6 36h86l-6 -36l-38 -141l138 13h36l-15 -82h-36l-134 14l-13 -152z" />
    <glyph glyph-name="daggerdbl" unicode="&#x2021;" horiz-adv-x="453" 
d="M206 -107l-7 -36h-85l6 36l38 140l-138 -13h-35l15 82h35l134 -14l13 152l10 56l41 152l-139 -13h-36l15 82h36l134 -14l10 141l7 36h85l-6 -36l-38 -141l138 13h36l-14 -82h-36l-135 14l-13 -152l-10 -56l-41 -152l139 14h36l-14 -82h-36l-134 13z" />
    <glyph glyph-name="bullet" unicode="&#x2022;" horiz-adv-x="243" 
d="M188 271h-125l22 125h125z" />
    <glyph glyph-name="ellipsis" unicode="&#x2026;" horiz-adv-x="592" 
d="M98 0h-92l16 91h92zM298 0h-92l16 91h92zM498 0h-92l16 91h92z" />
    <glyph glyph-name="perthousand" unicode="&#x2030;" horiz-adv-x="1098" 
d="M355 501q-10 -63 -47 -94.5t-98 -31.5q-67 0 -98.5 43t-21.5 104l5 36q10 63 47 95t98 32q68 0 99.5 -43t21.5 -105zM590 680h75l-464 -680h-74zM291 502l5 36q6 41 -8.5 64t-49.5 23q-31 0 -52 -16.5t-26 -51.5l-5 -36q-7 -40 7.5 -63.5t49.5 -23.5q32 0 53 17t26 51z
M697 121q-10 -63 -47 -94.5t-98 -31.5q-67 0 -98.5 43t-21.5 104l5 36q10 63 47 95t98 32q68 0 99.5 -43t21.5 -105zM1035 121q-10 -63 -47 -94.5t-98 -31.5q-68 0 -99 43t-22 104l6 36q10 63 47 95t98 32q68 0 99 -43t22 -105zM633 122l5 36q6 41 -8.5 64t-49.5 23
q-31 0 -52 -16.5t-26 -51.5l-5 -36q-7 -40 7.5 -63.5t49.5 -23.5q32 0 53 17t26 51zM970 122l6 36q6 41 -8.5 64t-49.5 23q-31 0 -52 -16.5t-26 -51.5l-6 -36q-6 -40 8.5 -63.5t49.5 -23.5q32 0 53 17t25 51z" />
    <glyph glyph-name="guilsinglleft" unicode="&#x2039;" horiz-adv-x="377" 
d="M296 98l-16 -84l-247 207l9 53l320 204l-16 -96l-227 -141z" />
    <glyph glyph-name="guilsinglright" unicode="&#x203a;" horiz-adv-x="377" 
d="M334 218l-320 -204l16 95l226 141l-176 143l16 85l247 -207z" />
    <glyph glyph-name="fraction" unicode="&#x2044;" horiz-adv-x="111" 
d="M266 680h75l-464 -680h-74z" />
    <glyph glyph-name="uni2070" unicode="&#x2070;" horiz-adv-x="336" 
d="M365 644l-10 -67q-23 -137 -139 -137q-65 0 -95.5 38.5t-19.5 107.5l10 67q21 137 139 137q65 0 95.5 -39t19.5 -107zM300 644q14 85 -51 85q-60 0 -72 -76l-11 -67q-14 -85 51 -85q60 0 73 76z" />
    <glyph glyph-name="uni2074" unicode="&#x2074;" horiz-adv-x="264" 
d="M301 515h-38l-12 -70h-59l12 70h-145l8 45q49 59 87.5 114t69.5 111h68q-29 -54 -64.5 -106t-82.5 -108h69l10 56h59l-10 -56h37z" />
    <glyph glyph-name="uni2075" unicode="&#x2075;" horiz-adv-x="274" 
d="M298 539q-7 -47 -40 -73t-91 -26q-25 0 -49.5 5t-48.5 16l20 58q21 -10 40 -14t36 -4q29 0 46 10t22 35l3 15q4 20 -7.5 32.5t-40.5 12.5q-26 0 -57 -11l-29 27l39 163h187l-10 -59h-133l-15 -68q13 4 33 4q49 0 78 -25.5t20 -79.5z" />
    <glyph glyph-name="uni2076" unicode="&#x2076;" horiz-adv-x="304" 
d="M327 539q-7 -45 -38.5 -72t-84.5 -27q-58 0 -87.5 38t-17.5 106l13 68q14 76 49 107t93 31q23 0 45.5 -5t47.5 -17l-20 -56q-18 10 -36.5 13.5t-33.5 3.5q-32 0 -53 -17.5t-29 -59.5l-2 -12q17 11 35.5 17.5t38.5 6.5q45 0 67.5 -29t15.5 -76zM229 607q-31 0 -66 -26
q-13 -82 44 -82q23 0 37 11t18 30l3 19q4 22 -5.5 35t-30.5 13z" />
    <glyph glyph-name="uni2077" unicode="&#x2077;" horiz-adv-x="239" 
d="M311 729q-47 -71 -84 -142t-62 -142h-67q24 69 59.5 139t82.5 140h-149l11 61h219z" />
    <glyph glyph-name="uni2078" unicode="&#x2078;" horiz-adv-x="307" 
d="M323 541q0 -43 -33 -72t-95 -29q-58 0 -83 23.5t-25 56.5q0 26 16 49.5t55 45.5q-19 14 -27 33t-8 42q0 38 29 69t89 31q53 0 78 -24t25 -57q0 -25 -14.5 -46.5t-48.5 -42.5q42 -29 42 -79zM218 652l26 -12q23 18 29.5 33t6.5 27q0 14 -10.5 23.5t-31.5 9.5
q-25 0 -38.5 -11t-13.5 -30q0 -25 32 -40zM151 532q0 -15 11.5 -25t36.5 -10q27 0 44 11t17 31q0 24 -38 42l-28 13q-25 -17 -34 -32t-9 -30z" />
    <glyph glyph-name="uni2079" unicode="&#x2079;" horiz-adv-x="304" 
d="M320 577q-13 -76 -48.5 -106.5t-93.5 -30.5q-23 0 -45.5 4.5t-48.5 16.5l21 57q18 -10 36.5 -14t33.5 -4q32 0 53 17.5t28 59.5l2 12q-35 -23 -73 -23q-45 0 -67.5 29t-15.5 75l3 20q8 46 39.5 73t83.5 27q59 0 87.5 -38.5t16.5 -106.5zM167 670q-4 -21 5.5 -34t30.5 -13
q30 0 66 25q15 82 -44 82q-47 0 -55 -41z" />
    <glyph glyph-name="uni2080" unicode="&#x2080;" horiz-adv-x="336" 
d="M269 94l-10 -67q-23 -137 -139 -137q-65 0 -95.5 38.5t-19.5 107.5l10 67q21 137 139 137q65 0 95.5 -39t19.5 -107zM204 94q14 85 -51 85q-60 0 -72 -76l-11 -67q-14 -85 51 -85q60 0 73 76z" />
    <glyph glyph-name="uni2081" unicode="&#x2081;" horiz-adv-x="222" 
d="M11 185l99 50h56l-60 -340h-64l48 267l-57 -28z" />
    <glyph glyph-name="uni2082" unicode="&#x2082;" horiz-adv-x="270" 
d="M189 -45l-11 -60h-216l7 41q7 41 19 64.5t31.5 39t50.5 29.5l36 16q23 11 35.5 21t14.5 27l2 10q6 36 -45 36q-39 0 -92 -20l-11 59q57 22 107 22q65 0 88 -28t18 -68l-2 -12q-5 -41 -31 -62.5t-68 -40.5l-35 -16q-21 -9 -32.5 -21.5t-16.5 -36.5h151z" />
    <glyph glyph-name="uni2083" unicode="&#x2083;" horiz-adv-x="274" 
d="M189 -17q-8 -44 -37.5 -68.5t-91.5 -24.5q-24 0 -48.5 5t-46.5 16l20 57q20 -10 39.5 -13.5t37.5 -3.5q56 0 62 38l2 8q3 19 -8.5 30.5t-40.5 11.5h-43l9 55h44q27 0 42 11t18 29l1 7q4 20 -8.5 29t-36.5 9q-16 0 -34 -3.5t-42 -13.5l-15 58q27 11 51.5 15.5t46.5 4.5
q62 0 86 -27t18 -68l-1 -7q-9 -53 -59 -74q45 -22 36 -71z" />
    <glyph glyph-name="uni2084" unicode="&#x2084;" horiz-adv-x="264" 
d="M205 -35h-38l-12 -70h-59l12 70h-145l8 45q49 59 87.5 114t69.5 111h68q-29 -54 -64.5 -106t-82.5 -108h69l10 56h59l-10 -56h37z" />
    <glyph glyph-name="uni2085" unicode="&#x2085;" horiz-adv-x="274" 
d="M202 -11q-7 -47 -40 -73t-91 -26q-25 0 -49.5 5t-48.5 16l20 58q21 -10 40 -14t36 -4q29 0 46 10t22 35l3 15q4 20 -7.5 32.5t-40.5 12.5q-26 0 -57 -11l-29 27l39 163h187l-10 -59h-133l-15 -68q13 4 33 4q49 0 78 -25.5t20 -79.5z" />
    <glyph glyph-name="uni2086" unicode="&#x2086;" horiz-adv-x="304" 
d="M231 -11q-7 -45 -38.5 -72t-84.5 -27q-58 0 -87.5 38t-17.5 106l13 68q14 76 49 107t93 31q23 0 45.5 -5t47.5 -17l-20 -56q-18 10 -36.5 13.5t-33.5 3.5q-32 0 -53 -17.5t-29 -59.5l-2 -12q17 11 35.5 17.5t38.5 6.5q45 0 67.5 -29t15.5 -76zM133 57q-31 0 -66 -26
q-13 -82 44 -82q23 0 37 11t18 30l3 19q4 22 -5.5 35t-30.5 13z" />
    <glyph glyph-name="uni2087" unicode="&#x2087;" horiz-adv-x="238" 
d="M215 179q-47 -71 -84 -142t-62 -142h-67q24 69 59.5 139t82.5 140h-149l11 61h219z" />
    <glyph glyph-name="uni2088" unicode="&#x2088;" horiz-adv-x="307" 
d="M227 -9q0 -43 -33 -72t-95 -29q-58 0 -83 23.5t-25 56.5q0 26 16 49.5t55 45.5q-19 14 -27 33t-8 42q0 38 29 69t89 31q53 0 78 -24t25 -57q0 -25 -14.5 -46.5t-48.5 -42.5q42 -29 42 -79zM122 102l26 -12q23 18 29.5 33t6.5 27q0 14 -10.5 23.5t-31.5 9.5
q-25 0 -38.5 -11t-13.5 -30q0 -25 32 -40zM55 -18q0 -15 11.5 -25t36.5 -10q27 0 44 11t17 31q0 24 -38 42l-28 13q-25 -17 -34 -32t-9 -30z" />
    <glyph glyph-name="uni2089" unicode="&#x2089;" horiz-adv-x="304" 
d="M224 27q-13 -76 -48.5 -106.5t-93.5 -30.5q-23 0 -45.5 4.5t-48.5 16.5l21 57q18 -10 36.5 -14t33.5 -4q32 0 53 17.5t28 59.5l2 12q-35 -23 -73 -23q-45 0 -67.5 29t-15.5 75l3 20q8 46 39.5 73t83.5 27q59 0 87.5 -38.5t16.5 -106.5zM71 120q-4 -21 5.5 -34t30.5 -13
q30 0 66 25q15 82 -44 82q-47 0 -55 -41z" />
    <glyph glyph-name="Euro" unicode="&#x20ac;" horiz-adv-x="580" 
d="M508 24q-51 -19 -97.5 -26.5t-82.5 -7.5q-100 0 -153.5 59.5t-52.5 161.5h-93l12 69h88l17 100h-87l12 68h87q28 119 92.5 180.5t176.5 61.5q41 0 83.5 -10t85.5 -32l-31 -77q-41 20 -74.5 29t-67.5 9q-68 0 -111 -41.5t-63 -119.5h235l-26 -68h-222l-17 -100h206
l-26 -69h-187q-1 -67 30.5 -104t94.5 -37q27 0 64.5 5.5t85.5 23.5z" />
    <glyph glyph-name="uni20B9" unicode="&#x20b9;" horiz-adv-x="541" 
d="M306 0q-40 54 -78 98t-77.5 85t-86.5 83l12 67h157q50 0 85.5 28.5t47.5 78.5h-272l12 67h273q5 50 -21 78t-76 28h-157l12 67h445l-12 -67h-141q41 -40 35 -106h87l-12 -67h-86q-16 -80 -76 -127t-156 -47h-42q68 -61 123 -123.5t113 -142.5h-109z" />
    <glyph glyph-name="uni2113" unicode="&#x2113;" horiz-adv-x="383" 
d="M286 19q-31 -15 -61.5 -22t-58.5 -7q-55 0 -81.5 21.5t-32.5 56.5t1 74l68 389q12 68 50.5 113.5t111.5 45.5q33 0 62.5 -11.5t48.5 -38t19 -73.5q0 -42 -22.5 -93t-79.5 -114.5t-163 -145.5l-14 -78q-7 -40 5.5 -55.5t41.5 -15.5q17 0 40 4.5t48 16.5zM204 532l-39 -220
q66 57 101.5 102.5t49.5 81.5t14 62q0 30 -14 43.5t-34 13.5q-29 0 -49.5 -19.5t-28.5 -63.5z" />
    <glyph glyph-name="uni2116" unicode="&#x2116;" horiz-adv-x="1089" 
d="M1088 514l-5 -36q-11 -79 -56.5 -121t-116.5 -42q-81 0 -116.5 49t-25.5 121l5 36q11 80 56 122t117 42q54 0 87.5 -22.5t47.5 -61.5t7 -87zM62 0l120 680h91q44 -96 81.5 -184.5t70.5 -178t64 -189.5l38 272l50 280h82l-120 -680h-90q-48 153 -98.5 289.5t-110.5 272.5
l-46 -284l-49 -278h-83zM1019 514q7 46 -11.5 75.5t-63.5 29.5q-40 0 -67 -25t-34 -73l-6 -36q-7 -46 11.5 -75.5t63.5 -29.5q41 0 67.5 25t33.5 73zM730 164l11 65h278l-11 -65h-278z" />
    <glyph glyph-name="trademark" unicode="&#x2122;" horiz-adv-x="716" 
d="M468 680l60 -218l138 218h72l-60 -340h-60l17 97l29 146l-126 -199h-45l-53 199l-23 -146l-17 -97h-60l60 340h68zM70 621l11 59h271l-11 -59h-103l-50 -281h-63l50 281h-105z" />
    <glyph glyph-name="uni2126" unicode="&#x2126;" horiz-adv-x="655" 
d="M264 185l-33 -185h-213l14 79h134l11 59q-55 32 -80 96.5t-10 148.5l8 42q22 120 97.5 192.5t196.5 72.5q87 0 143 -36.5t77.5 -100.5t6.5 -148l-7 -43q-15 -82 -57.5 -141.5t-113.5 -88.5l-9 -53h134l-14 -79h-213l33 186q62 15 100.5 64t51.5 124l8 42
q16 90 -20.5 141.5t-120.5 51.5t-136.5 -51.5t-68.5 -141.5l-7 -42q-13 -76 10 -125.5t78 -63.5z" />
    <glyph glyph-name="estimated" unicode="&#x212e;" horiz-adv-x="813" 
d="M785 305h-583q-5 0 -5 -4v-176q0 -12 8 -20q42 -44 99 -70t122 -26q70 0 129.5 29t102.5 78h52q-49 -57 -123.5 -91.5t-161.5 -34.5q-75 0 -140 25t-114.5 69.5t-77.5 103.5t-28 126t28 126t77.5 103.5t114.5 69.5t140 25t140 -25t114.5 -69.5t77.5 -103.5t28 -126v-9z
M653 328v178q0 12 -9 21q-42 42 -98 67t-120 25t-121 -25.5t-99 -69.5q-9 -9 -9 -22v-174q0 -5 5 -5h447q4 0 4 5z" />
    <glyph glyph-name="uni2153" unicode="&#x2153;" horiz-adv-x="664" 
d="M89 630l99 50h56l-60 -340h-64l48 267l-57 -28zM518 680h75l-464 -680h-74zM598 88q-8 -44 -37.5 -68.5t-91.5 -24.5q-24 0 -48.5 5t-46.5 16l20 57q20 -10 39.5 -13.5t37.5 -3.5q56 0 62 38l2 8q3 19 -8.5 30.5t-40.5 11.5h-43l9 55h44q27 0 42 11t18 29l1 7
q4 20 -8.5 29t-36.5 9q-16 0 -34 -3.5t-42 -13.5l-15 58q27 11 51.5 15.5t46.5 4.5q62 0 86 -27t18 -68l-1 -7q-9 -53 -59 -74q45 -22 36 -71z" />
    <glyph glyph-name="uni2154" unicode="&#x2154;" horiz-adv-x="706" 
d="M267 400l-11 -60h-216l7 41q7 41 19 64.5t31.5 39t50.5 29.5l36 16q23 11 35.5 21t14.5 27l2 10q6 36 -45 36q-39 0 -92 -20l-11 59q57 22 107 22q65 0 88 -28t18 -68l-2 -12q-5 -41 -31 -62.5t-68 -40.5l-35 -16q-21 -9 -32.5 -21.5t-16.5 -36.5h151zM560 680h75
l-464 -680h-74zM640 88q-8 -44 -37.5 -68.5t-91.5 -24.5q-24 0 -48.5 5t-46.5 16l20 57q20 -10 39.5 -13.5t37.5 -3.5q56 0 62 38l2 8q3 19 -8.5 30.5t-40.5 11.5h-43l9 55h44q27 0 42 11t18 29l1 7q4 20 -8.5 29t-36.5 9q-16 0 -34 -3.5t-42 -13.5l-15 58q27 11 51.5 15.5
t46.5 4.5q62 0 86 -27t18 -68l-1 -7q-9 -53 -59 -74q45 -22 36 -71z" />
    <glyph glyph-name="oneeighth" unicode="&#x215b;" horiz-adv-x="676" 
d="M89 630l99 50h56l-60 -340h-64l48 267l-57 -28zM518 680h75l-464 -680h-74zM615 96q0 -43 -33 -72t-95 -29q-58 0 -83 23.5t-25 56.5q0 26 16 49.5t55 45.5q-19 14 -27 33t-8 42q0 38 29 69t89 31q53 0 78 -24t25 -57q0 -25 -14.5 -46.5t-48.5 -42.5q42 -29 42 -79z
M510 207l26 -12q23 18 29.5 33t6.5 27q0 14 -10.5 23.5t-31.5 9.5q-25 0 -38.5 -11t-13.5 -30q0 -25 32 -40zM443 87q0 -15 11.5 -25t36.5 -10q27 0 44 11t17 31q0 24 -38 42l-28 13q-25 -17 -34 -32t-9 -30z" />
    <glyph glyph-name="threeeighths" unicode="&#x215c;" horiz-adv-x="712" 
d="M267 428q-8 -44 -37.5 -68.5t-91.5 -24.5q-24 0 -48.5 5t-46.5 16l20 57q20 -10 39.5 -13.5t37.5 -3.5q56 0 62 38l2 8q3 19 -8.5 30.5t-40.5 11.5h-43l9 55h44q27 0 42 11t18 29l1 7q4 20 -8.5 29t-36.5 9q-16 0 -34 -3.5t-42 -13.5l-15 58q27 11 51.5 15.5t46.5 4.5
q62 0 86 -27t18 -68l-1 -7q-9 -53 -59 -74q45 -22 36 -71zM554 680h75l-464 -680h-74zM651 96q0 -43 -33 -72t-95 -29q-58 0 -83 23.5t-25 56.5q0 26 16 49.5t55 45.5q-19 14 -27 33t-8 42q0 38 29 69t89 31q53 0 78 -24t25 -57q0 -25 -14.5 -46.5t-48.5 -42.5
q42 -29 42 -79zM546 207l26 -12q23 18 29.5 33t6.5 27q0 14 -10.5 23.5t-31.5 9.5q-25 0 -38.5 -11t-13.5 -30q0 -25 32 -40zM479 87q0 -15 11.5 -25t36.5 -10q27 0 44 11t17 31q0 24 -38 42l-28 13q-25 -17 -34 -32t-9 -30z" />
    <glyph glyph-name="fiveeighths" unicode="&#x215d;" horiz-adv-x="718" 
d="M280 434q-7 -47 -40 -73t-91 -26q-25 0 -49.5 5t-48.5 16l20 58q21 -10 40 -14t36 -4q29 0 46 10t22 35l3 15q4 20 -7.5 32.5t-40.5 12.5q-26 0 -57 -11l-29 27l39 163h187l-10 -59h-133l-15 -68q13 4 33 4q49 0 78 -25.5t20 -79.5zM560 680h75l-464 -680h-74zM657 96
q0 -43 -33 -72t-95 -29q-58 0 -83 23.5t-25 56.5q0 26 16 49.5t55 45.5q-19 14 -27 33t-8 42q0 38 29 69t89 31q53 0 78 -24t25 -57q0 -25 -14.5 -46.5t-48.5 -42.5q42 -29 42 -79zM552 207l26 -12q23 18 29.5 33t6.5 27q0 14 -10.5 23.5t-31.5 9.5q-25 0 -38.5 -11
t-13.5 -30q0 -25 32 -40zM485 87q0 -15 11.5 -25t36.5 -10q27 0 44 11t17 31q0 24 -38 42l-28 13q-25 -17 -34 -32t-9 -30z" />
    <glyph glyph-name="seveneighths" unicode="&#x215e;" horiz-adv-x="673" 
d="M293 624q-47 -71 -84 -142t-62 -142h-67q24 69 59.5 139t82.5 140h-149l11 61h219zM515 680h75l-464 -680h-74zM612 96q0 -43 -33 -72t-95 -29q-58 0 -83 23.5t-25 56.5q0 26 16 49.5t55 45.5q-19 14 -27 33t-8 42q0 38 29 69t89 31q53 0 78 -24t25 -57
q0 -25 -14.5 -46.5t-48.5 -42.5q42 -29 42 -79zM507 207l26 -12q23 18 29.5 33t6.5 27q0 14 -10.5 23.5t-31.5 9.5q-25 0 -38.5 -11t-13.5 -30q0 -25 32 -40zM440 87q0 -15 11.5 -25t36.5 -10q27 0 44 11t17 31q0 24 -38 42l-28 13q-25 -17 -34 -32t-9 -30z" />
    <glyph glyph-name="arrowleft" unicode="&#x2190;" horiz-adv-x="651" 
d="M325 185l-35 -46l-238 195v45l238 193l35 -46l-148 -135h432v-67h-433z" />
    <glyph glyph-name="arrowup" unicode="&#x2191;" horiz-adv-x="651" 
d="M503 362l-136 149v-433h-67v433l-138 -149l-46 35l195 238h45l193 -238z" />
    <glyph glyph-name="arrowright" unicode="&#x2192;" horiz-adv-x="651" 
d="M612 334l-238 -193l-35 46l149 135h-433v67h434l-150 139l35 46l238 -195v-45z" />
    <glyph glyph-name="arrowdown" unicode="&#x2193;" horiz-adv-x="651" 
d="M549 317l-195 -238h-45l-193 238l46 36l135 -148v431h67v-433l139 150z" />
    <glyph glyph-name="arrowboth" unicode="&#x2194;" horiz-adv-x="781" 
d="M329 185l-36 -46l-238 195v45l238 193l36 -46l-149 -135h448l-149 138l35 46l238 -195v-45l-238 -193l-35 46l149 136h-449z" />
    <glyph glyph-name="arrowupdn" unicode="&#x2195;" horiz-adv-x="651" 
d="M553 247l-195 -238h-45l-193 238l46 36l136 -149v449l-139 -150l-46 35l195 238h45l193 -238l-46 -35l-135 149v-448l138 149z" />
    <glyph glyph-name="uni2196" unicode="&#x2196;" horiz-adv-x="651" 
d="M552 184l-47 -47l-306 306l8 -204l-58 -8l-31 307l32 32l305 -32l-7 -58l-202 10z" />
    <glyph glyph-name="uni2197" unicode="&#x2197;" horiz-adv-x="651" 
d="M457 239l8 201l-305 -305l-47 48l306 306l-204 -8l-7 57l306 31l32 -32l-32 -305z" />
    <glyph glyph-name="uni2198" unicode="&#x2198;" horiz-adv-x="651" 
d="M543 176l-32 -32l-305 32l7 57l202 -9l-306 306l47 47l306 -306l-7 204l57 7z" />
    <glyph glyph-name="uni2199" unicode="&#x2199;" horiz-adv-x="651" 
d="M455 177l-306 -31l-32 32l32 305l58 -8l-10 -201l306 306l47 -48l-306 -306l204 8z" />
    <glyph glyph-name="partialdiff" unicode="&#x2202;" horiz-adv-x="536" 
d="M469 235q-31 -124 -96 -184.5t-157 -60.5q-70 0 -113.5 33t-58.5 87.5t1 120.5l9 36q20 85 75 130t125 45q44 0 87 -21.5t67 -76.5q11 95 -27 184.5t-138 161.5l46 60q71 -50 115 -109.5t65 -123t22.5 -125.5t-12.5 -117zM127 218q-15 -64 8.5 -109t82.5 -45
q58 0 102.5 45.5t69.5 143.5q-22 66 -58.5 89.5t-70.5 23.5q-43 0 -78.5 -29t-47.5 -83z" />
    <glyph glyph-name="uni2206" unicode="&#x2206;" horiz-adv-x="558" 
d="M489 65l-12 -65h-483l11 65l309 615h81zM234 354l-137 -278h305l-38 278l-29 207z" />
    <glyph glyph-name="product" unicode="&#x220f;" horiz-adv-x="703" 
d="M91 598l14 82h644l-14 -82h-87l-131 -741h-87l131 741h-296l-131 -741h-87l131 741h-87z" />
    <glyph glyph-name="summation" unicode="&#x2211;" horiz-adv-x="525" 
d="M-25 -72l328 342l-206 339l12 71h462l-14 -82h-351l186 -305l-10 -58l-286 -296h362l-14 -82h-482z" />
    <glyph glyph-name="minus" unicode="&#x2212;" 
d="M90 266l12 72h414l-12 -72h-414z" />
    <glyph glyph-name="uni2215" unicode="&#x2215;" horiz-adv-x="111" 
d="M266 680h75l-464 -680h-74z" />
    <glyph glyph-name="radical" unicode="&#x221a;" 
d="M41 299l13 72h151l52 -251l315 560h85l-391 -680h-55l-69 299h-101z" />
    <glyph glyph-name="infinity" unicode="&#x221e;" horiz-adv-x="777" 
d="M750 337q0 -62 -23 -115t-67.5 -85.5t-111.5 -32.5t-108 33t-61 84q-42 -62 -86.5 -89.5t-94.5 -27.5q-64 0 -106.5 42.5t-42.5 133.5q0 63 23 116t68 85.5t111 32.5q68 0 108 -34t60 -84q42 62 86.5 89.5t94.5 27.5q64 0 107 -42t43 -134zM126 292q0 -52 23.5 -76.5
t62.5 -24.5q35 0 68.5 22t76.5 81l-8 31q-13 47 -36 74.5t-67 27.5q-38 0 -65 -19.5t-41 -50t-14 -65.5zM450 293q13 -46 36 -74.5t67 -28.5q39 0 65.5 19.5t40 50.5t13.5 66q0 53 -23.5 77t-62.5 24q-35 0 -68.5 -22t-76.5 -82z" />
    <glyph glyph-name="integral" unicode="&#x222b;" horiz-adv-x="343" 
d="M45 -54l169 635q14 50 32.5 88t50.5 59.5t84 21.5q24 0 50.5 -5t49.5 -16l-28 -69q-19 8 -35.5 11.5t-30.5 3.5q-36 0 -56 -22t-34 -72l-169 -635q-13 -50 -31.5 -88t-50 -59.5t-84.5 -21.5q-24 0 -50.5 5.5t-49.5 15.5l29 69q18 -8 34.5 -11.5t30.5 -3.5q36 0 56 22.5
t33 71.5z" />
    <glyph glyph-name="approxequal" unicode="&#x2248;" 
d="M404 312q-39 0 -62.5 17t-39 39t-30.5 39t-37 17q-18 0 -37.5 -19t-41.5 -80l-63 16q20 65 44 98t49.5 45t50.5 12q39 0 62.5 -17t39 -39t30.5 -39t36 -17q20 0 39.5 20t41.5 80l64 -16q-20 -64 -44.5 -98t-50 -46t-51.5 -12zM368 104q-39 0 -62.5 17t-39 39t-30.5 39
t-37 17q-19 0 -38 -19t-42 -80l-63 16q20 65 44 98t49.5 45t50.5 12q39 0 62.5 -17t39 -39t30.5 -39t37 -17q19 0 38.5 20t42.5 80l63 -16q-20 -64 -44.5 -98t-50 -46t-50.5 -12z" />
    <glyph glyph-name="notequal" unicode="&#x2260;" 
d="M486 166h-239l-90 -130l-52 33l67 97h-100l13 72h137l89 128h-204l13 72h241l89 129l51 -33l-66 -96h99l-13 -72h-136l-88 -128h202z" />
    <glyph glyph-name="lessequal" unicode="&#x2264;" 
d="M494 214l-13 -77l-385 168l10 54l443 165l-15 -83l-318 -112zM43 0l12 71h414l-12 -71h-414z" />
    <glyph glyph-name="greaterequal" unicode="&#x2265;" 
d="M510 302l-443 -165l15 83l318 112l-278 115l13 77l385 -168zM43 0l12 71h414l-12 -71h-414z" />
    <glyph glyph-name="lozenge" unicode="&#x25ca;" 
d="M225 0l-108 340l225 340h53l108 -340l-225 -340h-53zM198 334l69 -228l156 241l-69 228z" />
    <glyph glyph-name="uniF6C3" unicode="&#xf6c3;" horiz-adv-x="500" 
d="M138 -248l-52 14l60 157h93z" />
    <glyph glyph-name="A.alt" horiz-adv-x="703" 
d="M52 418q23 134 96 198t200 64h183l107 -680h-87l-24 160h-254l-6 -13q-51 -101 -95.5 -172t-90.5 -114.5t-101 -63.5t-127 -20l15 84q42 0 78.5 11.5t72.5 42.5t75 87t84 145l231 455h-73q-88 0 -136 -45t-65 -139h-83zM369 354l-58 -117h205l-17 117l-28 208z" />
    <glyph glyph-name="Aacute.alt" horiz-adv-x="703" 
d="M52 418q23 134 96 198t200 64h183l107 -680h-87l-24 160h-254l-6 -13q-51 -101 -95.5 -172t-90.5 -114.5t-101 -63.5t-127 -20l15 84q42 0 78.5 11.5t72.5 42.5t75 87t84 145l231 455h-73q-88 0 -136 -45t-65 -139h-83zM369 354l-58 -117h205l-17 117l-28 208zM541 764
h-76l119 166l77 -36z" />
    <glyph glyph-name="Abreve.alt" horiz-adv-x="703" 
d="M52 418q23 134 96 198t200 64h183l107 -680h-87l-24 160h-254l-6 -13q-51 -101 -95.5 -172t-90.5 -114.5t-101 -63.5t-127 -20l15 84q42 0 78.5 11.5t72.5 42.5t75 87t84 145l231 455h-73q-88 0 -136 -45t-65 -139h-83zM369 354l-58 -117h205l-17 117l-28 208zM513 833
q29 0 49 18.5t31 64.5h68q-18 -79 -56.5 -112.5t-94.5 -33.5q-57 0 -88.5 33.5t-22.5 112.5h63q-5 -46 9 -64.5t42 -18.5z" />
    <glyph glyph-name="Acircumflex.alt" horiz-adv-x="703" 
d="M52 418q23 134 96 198t200 64h183l107 -680h-87l-24 160h-254l-6 -13q-51 -101 -95.5 -172t-90.5 -114.5t-101 -63.5t-127 -20l15 84q42 0 78.5 11.5t72.5 42.5t75 87t84 145l231 455h-73q-88 0 -136 -45t-65 -139h-83zM369 354l-58 -117h205l-17 117l-28 208zM573 764
l-50 95l-85 -95h-69l121 161h83l64 -161h-64z" />
    <glyph glyph-name="Adieresis.alt" horiz-adv-x="703" 
d="M52 418q23 134 96 198t200 64h183l107 -680h-87l-24 160h-254l-6 -13q-51 -101 -95.5 -172t-90.5 -114.5t-101 -63.5t-127 -20l15 84q42 0 78.5 11.5t72.5 42.5t75 87t84 145l231 455h-73q-88 0 -136 -45t-65 -139h-83zM369 354l-58 -117h205l-17 117l-28 208zM458 804
h-86l15 86h86zM649 804h-86l15 86h86z" />
    <glyph glyph-name="Agrave.alt" horiz-adv-x="703" 
d="M52 418q23 134 96 198t200 64h183l107 -680h-87l-24 160h-254l-6 -13q-51 -101 -95.5 -172t-90.5 -114.5t-101 -63.5t-127 -20l15 84q42 0 78.5 11.5t72.5 42.5t75 87t84 145l231 455h-73q-88 0 -136 -45t-65 -139h-83zM369 354l-58 -117h205l-17 117l-28 208zM469 764
l-75 130l81 36l61 -166h-67z" />
    <glyph glyph-name="Amacron.alt" horiz-adv-x="703" 
d="M52 418q23 134 96 198t200 64h183l107 -680h-87l-24 160h-254l-6 -13q-51 -101 -95.5 -172t-90.5 -114.5t-101 -63.5t-127 -20l15 84q42 0 78.5 11.5t72.5 42.5t75 87t84 145l231 455h-73q-88 0 -136 -45t-65 -139h-83zM369 354l-58 -117h205l-17 117l-28 208zM662 857
l-11 -63h-286l12 63h285z" />
    <glyph glyph-name="Aogonek.alt" horiz-adv-x="703" 
d="M52 418q23 134 96 198t200 64h183l107 -680q-53 -36 -80.5 -59.5t-37.5 -39t-10 -29.5q0 -27 33 -27q24 0 54 12l11 -63q-43 -17 -82 -17q-45 0 -69.5 20t-24.5 57q0 32 24 67.5t94 84.5l-22 152h-256l-5 -11q-51 -101 -95.5 -172t-90.5 -114.5t-101 -63.5t-127 -20
l15 84q42 0 78.5 11.5t72.5 42.5t75 87t84 145l231 455h-73q-88 0 -136 -45t-65 -139h-83zM369 354l-58 -117h205l-17 117l-28 208z" />
    <glyph glyph-name="Aring.alt" horiz-adv-x="592" 
d="M155 147q-51 -101 -95 -172t-90 -114.5t-101.5 -63.5t-127.5 -20l15 84q42 0 79 11.5t73 42.5t74.5 87t83.5 145l251 492q-25 14 -36 39.5t-6 58.5l2 15q8 45 40.5 73t82.5 28q54 0 82.5 -32t20.5 -80l-3 -15q-11 -68 -74 -92l101 -634h-87l-24 158h-256zM444 747
q4 22 -8.5 36.5t-38.5 14.5q-23 0 -40 -13.5t-21 -38.5l-3 -14q-4 -23 9 -37.5t38 -14.5q24 0 41 13.5t21 38.5zM258 354l-58 -117h205l-18 117l-28 208z" />
    <glyph glyph-name="Atilde.alt" horiz-adv-x="703" 
d="M52 418q23 134 96 198t200 64h183l107 -680h-87l-24 160h-254l-6 -13q-51 -101 -95.5 -172t-90.5 -114.5t-101 -63.5t-127 -20l15 84q42 0 78.5 11.5t72.5 42.5t75 87t84 145l231 455h-73q-88 0 -136 -45t-65 -139h-83zM369 354l-58 -117h205l-17 117l-28 208zM574 773
q-28 0 -44.5 12.5t-27 28.5t-19 28.5t-21.5 12.5q-10 0 -20.5 -14t-18.5 -56h-63q10 55 25.5 85t35.5 41.5t41 11.5q29 0 45.5 -12.5t26.5 -28.5t18.5 -28.5t21.5 -12.5q11 0 20.5 13.5t17.5 55.5h63q-9 -55 -24.5 -84.5t-35 -41t-41.5 -11.5z" />
    <glyph glyph-name="B.alt" horiz-adv-x="760" 
d="M46 418q23 134 96 198t200 64h204q94 0 139 -51t31 -134l-4 -23q-14 -87 -93 -125q44 -21 63 -61.5t10 -92.5l-3 -23q-13 -80 -65 -125t-152 -45h-236l106 602h-12q-88 0 -135.5 -45t-64.5 -139h-84zM542 600h-113l-38 -215h113q50 0 80 23t37 63l5 24q8 49 -13 77
t-71 28zM515 305h-138l-40 -226h138q53 0 85 24.5t39 67.5l4 24q8 50 -14 80t-74 30z" />
    <glyph glyph-name="D.alt" horiz-adv-x="811" 
d="M46 418q23 134 96 198t200 64h208q79 0 131 -36t73 -99t6 -146l-23 -135q-22 -123 -93 -193.5t-187 -70.5h-221l106 602h-12q-88 0 -135.5 -45t-64.5 -139h-84zM546 598h-117l-92 -517h123q75 0 123 48t64 135l23 135q17 92 -15 145.5t-109 53.5z" />
    <glyph glyph-name="Dcaron.alt" horiz-adv-x="811" 
d="M46 418q23 134 96 198t200 64h208q79 0 131 -36t73 -99t6 -146l-23 -135q-22 -123 -93 -193.5t-187 -70.5h-221l106 602h-12q-88 0 -135.5 -45t-64.5 -139h-84zM546 598h-117l-92 -517h123q75 0 123 48t64 135l23 135q17 92 -15 145.5t-109 53.5zM737 925l-122 -161h-82
l-65 161h64l51 -95l84 95h70z" />
    <glyph glyph-name="E.alt" horiz-adv-x="705" 
d="M46 418q23 134 96 198t200 64h384l-15 -82h-282l-38 -213h253l-15 -82h-252l-40 -222h293l-14 -81h-380l106 602h-12q-88 0 -135.5 -45t-64.5 -139h-84z" />
    <glyph glyph-name="Eacute.alt" horiz-adv-x="705" 
d="M46 418q23 134 96 198t200 64h384l-15 -82h-282l-38 -213h253l-15 -82h-252l-40 -222h293l-14 -81h-380l106 602h-12q-88 0 -135.5 -45t-64.5 -139h-84zM591 764h-76l119 166l77 -36z" />
    <glyph glyph-name="Ebreve.alt" horiz-adv-x="705" 
d="M46 418q23 134 96 198t200 64h384l-15 -82h-282l-38 -213h253l-15 -82h-252l-40 -222h293l-14 -81h-380l106 602h-12q-88 0 -135.5 -45t-64.5 -139h-84zM563 833q29 0 49 18.5t31 64.5h68q-18 -79 -56.5 -112.5t-94.5 -33.5q-57 0 -88.5 33.5t-22.5 112.5h63
q-5 -46 9 -64.5t42 -18.5z" />
    <glyph glyph-name="Ecaron.alt" horiz-adv-x="705" 
d="M46 418q23 134 96 198t200 64h384l-15 -82h-282l-38 -213h253l-15 -82h-252l-40 -222h293l-14 -81h-380l106 602h-12q-88 0 -135.5 -45t-64.5 -139h-84zM715 925l-122 -161h-82l-65 161h64l51 -95l84 95h70z" />
    <glyph glyph-name="Ecircumflex.alt" horiz-adv-x="705" 
d="M46 418q23 134 96 198t200 64h384l-15 -82h-282l-38 -213h253l-15 -82h-252l-40 -222h293l-14 -81h-380l106 602h-12q-88 0 -135.5 -45t-64.5 -139h-84zM622 764l-50 95l-85 -95h-69l121 161h83l64 -161h-64z" />
    <glyph glyph-name="Edieresis.alt" horiz-adv-x="705" 
d="M46 418q23 134 96 198t200 64h384l-15 -82h-282l-38 -213h253l-15 -82h-252l-40 -222h293l-14 -81h-380l106 602h-12q-88 0 -135.5 -45t-64.5 -139h-84zM508 804h-86l15 86h86zM699 804h-86l15 86h86z" />
    <glyph glyph-name="Edotaccent.alt" horiz-adv-x="705" 
d="M46 418q23 134 96 198t200 64h384l-15 -82h-282l-38 -213h253l-15 -82h-252l-40 -222h293l-14 -81h-380l106 602h-12q-88 0 -135.5 -45t-64.5 -139h-84zM606 801h-92l15 92h92z" />
    <glyph glyph-name="Egrave.alt" horiz-adv-x="705" 
d="M46 418q23 134 96 198t200 64h384l-15 -82h-282l-38 -213h253l-15 -82h-252l-40 -222h293l-14 -81h-380l106 602h-12q-88 0 -135.5 -45t-64.5 -139h-84zM519 764l-75 130l81 36l61 -166h-67z" />
    <glyph glyph-name="Emacron.alt" horiz-adv-x="705" 
d="M46 418q23 134 96 198t200 64h384l-15 -82h-282l-38 -213h253l-15 -82h-252l-40 -222h293l-14 -81h-380l106 602h-12q-88 0 -135.5 -45t-64.5 -139h-84zM712 857l-11 -63h-286l12 63h285z" />
    <glyph glyph-name="Eogonek.alt" horiz-adv-x="705" 
d="M46 418q23 134 96 198t200 64h384l-15 -82h-282l-38 -213h253l-15 -82h-252l-40 -222h293l-14 -81q-53 -36 -80.5 -59.5t-37.5 -39t-10 -29.5q0 -27 33 -27q24 0 55 12l11 -63q-45 -17 -83 -17q-44 0 -69 20t-25 57q0 31 23.5 65t90.5 81h-288l106 602h-12
q-88 0 -135.5 -45t-64.5 -139h-84z" />
    <glyph glyph-name="F.alt" horiz-adv-x="680" 
d="M46 418q23 134 96 198t200 64h378l-15 -82h-276l-41 -230h247l-15 -82h-246l-51 -286h-87l106 602h-12q-88 0 -135.5 -45t-64.5 -139h-84z" />
    <glyph glyph-name="G.alt" horiz-adv-x="604" 
d="M494 8q-13 -76 -41.5 -127.5t-85 -77.5t-157.5 -26l14 80q60 0 98 12.5t60 45.5t32 93l2 12q-64 -21 -126 -21q-79 0 -130.5 35.5t-71 101t-4.5 154.5l21 121q24 137 93 208t196 71q44 0 91.5 -10t95.5 -33l-31 -76q-46 22 -85 30t-74 8q-82 0 -130.5 -51.5t-65.5 -146.5
l-21 -121q-18 -101 13 -157t116 -56q29 0 60 6t68 21l30 175h-127l15 77h206z" />
    <glyph glyph-name="Gbreve.alt" horiz-adv-x="604" 
d="M494 8q-13 -76 -41.5 -127.5t-85 -77.5t-157.5 -26l14 80q60 0 98 12.5t60 45.5t32 93l2 12q-64 -21 -126 -21q-79 0 -130.5 35.5t-71 101t-4.5 154.5l21 121q24 137 93 208t196 71q44 0 91.5 -10t95.5 -33l-31 -76q-46 22 -85 30t-74 8q-82 0 -130.5 -51.5t-65.5 -146.5
l-21 -121q-18 -101 13 -157t116 -56q29 0 60 6t68 21l30 175h-127l15 77h206zM427 833q29 0 49 18.5t31 64.5h68q-18 -79 -56.5 -112.5t-94.5 -33.5q-57 0 -88.5 33.5t-22.5 112.5h63q-5 -46 9 -64.5t42 -18.5z" />
    <glyph glyph-name="Gcircumflex.alt" horiz-adv-x="604" 
d="M494 8q-13 -76 -41.5 -127.5t-85 -77.5t-157.5 -26l14 80q60 0 98 12.5t60 45.5t32 93l2 12q-64 -21 -126 -21q-79 0 -130.5 35.5t-71 101t-4.5 154.5l21 121q24 137 93 208t196 71q44 0 91.5 -10t95.5 -33l-31 -76q-46 22 -85 30t-74 8q-82 0 -130.5 -51.5t-65.5 -146.5
l-21 -121q-18 -101 13 -157t116 -56q29 0 60 6t68 21l30 175h-127l15 77h206zM486 764l-50 95l-85 -95h-69l121 161h83l64 -161h-64z" />
    <glyph glyph-name="Gdotaccent.alt" horiz-adv-x="604" 
d="M494 8q-13 -76 -41.5 -127.5t-85 -77.5t-157.5 -26l14 80q60 0 98 12.5t60 45.5t32 93l2 12q-64 -21 -126 -21q-79 0 -130.5 35.5t-71 101t-4.5 154.5l21 121q24 137 93 208t196 71q44 0 91.5 -10t95.5 -33l-31 -76q-46 22 -85 30t-74 8q-82 0 -130.5 -51.5t-65.5 -146.5
l-21 -121q-18 -101 13 -157t116 -56q29 0 60 6t68 21l30 175h-127l15 77h206zM469 801h-92l15 92h92z" />
    <glyph glyph-name="H.alt" horiz-adv-x="857" 
d="M46 418q23 134 96 198t200 64h101l-52 -295h297l52 295h87l-120 -680h-87l53 303h-297l-53 -303h-87l106 602h-12q-88 0 -135.5 -45t-64.5 -139h-84z" />
    <glyph glyph-name="Hcircumflex.alt" horiz-adv-x="857" 
d="M46 418q23 134 96 198t200 64h101l-52 -295h297l52 295h87l-120 -680h-87l53 303h-297l-53 -303h-87l106 602h-12q-88 0 -135.5 -45t-64.5 -139h-84zM673 764l-50 95l-85 -95h-69l121 161h83l64 -161h-64z" />
    <glyph glyph-name="J.alt" horiz-adv-x="467" 
d="M46 418q23 134 96 198t200 64h108l-80 -456q-14 -77 -42 -128.5t-84.5 -77t-157.5 -25.5l15 83q57 0 93.5 12t57.5 44.5t31 91.5l66 378h-19q-88 0 -135.5 -45t-64.5 -139h-84z" />
    <glyph glyph-name="Jcircumflex.alt" horiz-adv-x="467" 
d="M46 418q23 134 96 198t200 64h108l-80 -456q-14 -77 -42 -128.5t-84.5 -77t-157.5 -25.5l15 83q57 0 93.5 12t57.5 44.5t31 91.5l66 378h-19q-88 0 -135.5 -45t-64.5 -139h-84zM488 764l-50 95l-85 -95h-69l121 161h83l64 -161h-64z" />
    <glyph glyph-name="K.alt" horiz-adv-x="769" 
d="M46 418q23 134 96 198t200 64h101l-61 -346q103 89 181.5 174t137.5 172h100q-58 -82 -121.5 -156.5t-136.5 -145.5l169 -378h-98l-140 325q-26 -24 -54 -47.5t-57 -48.5l-40 -229h-87l106 602h-12q-88 0 -135.5 -45t-64.5 -139h-84z" />
    <glyph glyph-name="uni0136.alt" horiz-adv-x="769" 
d="M46 418q23 134 96 198t200 64h101l-61 -346q103 89 181.5 174t137.5 172h100q-58 -82 -121.5 -156.5t-136.5 -145.5l169 -378h-98l-140 325q-26 -24 -54 -47.5t-57 -48.5l-40 -229h-87l106 602h-12q-88 0 -135.5 -45t-64.5 -139h-84zM387 -248l-52 14l60 157h93z" />
    <glyph glyph-name="L.alt" horiz-adv-x="680" 
d="M46 418q23 134 96 198t200 64h101l-106 -599h286l-14 -81h-373l106 602h-12q-88 0 -135.5 -45t-64.5 -139h-84z" />
    <glyph glyph-name="Lacute.alt" horiz-adv-x="680" 
d="M46 418q23 134 96 198t200 64h101l-106 -599h286l-14 -81h-373l106 602h-12q-88 0 -135.5 -45t-64.5 -139h-84zM454 764h-76l119 166l77 -36z" />
    <glyph glyph-name="Lcaron.alt" horiz-adv-x="680" 
d="M46 418q23 134 96 198t200 64h101l-106 -599h286l-14 -81h-373l106 602h-12q-88 0 -135.5 -45t-64.5 -139h-84zM570 486h-55l35 194h83z" />
    <glyph glyph-name="uni013B.alt" horiz-adv-x="680" 
d="M46 418q23 134 96 198t200 64h101l-106 -599h286l-14 -81h-373l106 602h-12q-88 0 -135.5 -45t-64.5 -139h-84zM355 -248l-52 14l60 157h93z" />
    <glyph glyph-name="M.alt" horiz-adv-x="1003" 
d="M454 680l118 -506l300 506h100l-120 -680h-82l51 291l54 256l-278 -467h-82l-107 477l-38 -266l-51 -291h-83l106 602h-12q-88 0 -135.5 -45t-64.5 -139h-84q23 134 96 198t200 64h112z" />
    <glyph glyph-name="N.alt" horiz-adv-x="864" 
d="M46 418q23 134 96 198t200 64h105q44 -96 81.5 -184.5t70.5 -178t64 -189.5l38 272l50 280h82l-120 -680h-90q-48 153 -98.5 289.5t-110.5 272.5l-46 -284l-49 -278h-83l106 602h-12q-88 0 -135.5 -45t-64.5 -139h-84z" />
    <glyph glyph-name="Nacute.alt" horiz-adv-x="864" 
d="M46 418q23 134 96 198t200 64h105q44 -96 81.5 -184.5t70.5 -178t64 -189.5l38 272l50 280h82l-120 -680h-90q-48 153 -98.5 289.5t-110.5 272.5l-46 -284l-49 -278h-83l106 602h-12q-88 0 -135.5 -45t-64.5 -139h-84zM646 764h-76l119 166l77 -36z" />
    <glyph glyph-name="Ncaron.alt" horiz-adv-x="864" 
d="M46 418q23 134 96 198t200 64h105q44 -96 81.5 -184.5t70.5 -178t64 -189.5l38 272l50 280h82l-120 -680h-90q-48 153 -98.5 289.5t-110.5 272.5l-46 -284l-49 -278h-83l106 602h-12q-88 0 -135.5 -45t-64.5 -139h-84zM770 925l-122 -161h-82l-65 161h64l51 -95l84 95h70
z" />
    <glyph glyph-name="uni0145.alt" horiz-adv-x="864" 
d="M46 418q23 134 96 198t200 64h105q44 -96 81.5 -184.5t70.5 -178t64 -189.5l38 272l50 280h82l-120 -680h-90q-48 153 -98.5 289.5t-110.5 272.5l-46 -284l-49 -278h-83l106 602h-12q-88 0 -135.5 -45t-64.5 -139h-84zM406 -248l-52 14l60 157h93z" />
    <glyph glyph-name="Eng.alt" horiz-adv-x="864" 
d="M46 418q23 134 96 198t200 64h105q44 -94 81.5 -180.5t71.5 -174.5t65 -186l36 261l50 280h82l-118 -672q-14 -76 -42 -127.5t-84.5 -77.5t-157.5 -26l15 84q56 0 92 12t57 42.5t32 85.5q-34 110 -67.5 202.5t-69 179.5t-76.5 178l-46 -283l-49 -278h-83l106 602h-12
q-88 0 -135.5 -45t-64.5 -139h-84z" />
    <glyph glyph-name="Ntilde.alt" horiz-adv-x="864" 
d="M46 418q23 134 96 198t200 64h105q44 -96 81.5 -184.5t70.5 -178t64 -189.5l38 272l50 280h82l-120 -680h-90q-48 153 -98.5 289.5t-110.5 272.5l-46 -284l-49 -278h-83l106 602h-12q-88 0 -135.5 -45t-64.5 -139h-84zM679 773q-28 0 -44.5 12.5t-27 28.5t-19 28.5
t-21.5 12.5q-10 0 -20.5 -14t-18.5 -56h-63q10 55 25.5 85t35.5 41.5t41 11.5q29 0 45.5 -12.5t26.5 -28.5t18.5 -28.5t21.5 -12.5q11 0 20.5 13.5t17.5 55.5h63q-9 -55 -24.5 -84.5t-35 -41t-41.5 -11.5z" />
    <glyph glyph-name="P.alt" horiz-adv-x="739" 
d="M46 418q23 134 96 198t200 64h215q68 0 111 -26t60 -71.5t7 -102.5l-10 -54q-14 -82 -69 -130t-153 -48h-136l-44 -248h-87l106 602h-12q-88 0 -135.5 -45t-64.5 -139h-84zM553 598h-124l-48 -269h125q54 0 87.5 26.5t41.5 72.5l10 53q11 55 -13 86t-79 31z" />
    <glyph glyph-name="R.alt" horiz-adv-x="775" 
d="M370 266l-47 -266h-87l106 602h-12q-88 0 -135.5 -45t-64.5 -139h-84q23 134 96 198t200 64h216q64 0 107 -25t62 -69.5t9 -102.5l-7 -43q-10 -58 -44 -100t-89 -60q59 -135 96 -280h-94q-16 68 -38 134.5t-49 131.5h-141zM555 600h-126l-45 -254h126q52 0 86.5 25
t42.5 71l8 43q9 55 -16 85t-76 30z" />
    <glyph glyph-name="Racute.alt" horiz-adv-x="775" 
d="M370 266l-47 -266h-87l106 602h-12q-88 0 -135.5 -45t-64.5 -139h-84q23 134 96 198t200 64h216q64 0 107 -25t62 -69.5t9 -102.5l-7 -43q-10 -58 -44 -100t-89 -60q59 -135 96 -280h-94q-16 68 -38 134.5t-49 131.5h-141zM555 600h-126l-45 -254h126q52 0 86.5 25
t42.5 71l8 43q9 55 -16 85t-76 30zM601 764h-76l119 166l77 -36z" />
    <glyph glyph-name="Rcaron.alt" horiz-adv-x="775" 
d="M370 266l-47 -266h-87l106 602h-12q-88 0 -135.5 -45t-64.5 -139h-84q23 134 96 198t200 64h216q64 0 107 -25t62 -69.5t9 -102.5l-7 -43q-10 -58 -44 -100t-89 -60q59 -135 96 -280h-94q-16 68 -38 134.5t-49 131.5h-141zM555 600h-126l-45 -254h126q52 0 86.5 25
t42.5 71l8 43q9 55 -16 85t-76 30zM725 925l-122 -161h-82l-65 161h64l51 -95l84 95h70z" />
    <glyph glyph-name="uni0156.alt" horiz-adv-x="775" 
d="M370 266l-47 -266h-87l106 602h-12q-88 0 -135.5 -45t-64.5 -139h-84q23 134 96 198t200 64h216q64 0 107 -25t62 -69.5t9 -102.5l-7 -43q-10 -58 -44 -100t-89 -60q59 -135 96 -280h-94q-16 68 -38 134.5t-49 131.5h-141zM555 600h-126l-45 -254h126q52 0 86.5 25
t42.5 71l8 43q9 55 -16 85t-76 30zM387 -248l-52 14l60 157h93z" />
    <glyph glyph-name="T.alt" horiz-adv-x="618" 
d="M46 418q23 134 96 198t200 64h339l-15 -82h-198l-105 -598h-87l105 598h-51q-88 0 -135.5 -44t-64.5 -136h-84z" />
    <glyph glyph-name="Tbar.alt" horiz-adv-x="618" 
d="M543 290h-129l-51 -290h-87l51 290h-130l14 79h130l40 229h-51q-88 0 -135.5 -44t-64.5 -136h-84q23 134 96 198t200 64h339l-15 -82h-198l-40 -229h129z" />
    <glyph glyph-name="Tcaron.alt" horiz-adv-x="618" 
d="M46 418q23 134 96 198t200 64h339l-15 -82h-198l-105 -598h-87l105 598h-51q-88 0 -135.5 -44t-64.5 -136h-84zM614 925l-122 -161h-82l-65 161h64l51 -95l84 95h70z" />
    <glyph glyph-name="uni0162.alt" horiz-adv-x="618" 
d="M46 418q23 134 96 198t200 64h339l-15 -82h-198l-105 -598h-87l105 598h-51q-88 0 -135.5 -44t-64.5 -136h-84zM251 -248l-52 14l60 157h93z" />
    <glyph glyph-name="uni021A.alt" horiz-adv-x="618" 
d="M46 418q23 134 96 198t200 64h339l-15 -82h-198l-105 -598h-87l105 598h-51q-88 0 -135.5 -44t-64.5 -136h-84zM251 -248l-52 14l60 157h93z" />
    <glyph glyph-name="U.alt" horiz-adv-x="834" 
d="M46 418q23 134 96 198t200 64h102l-77 -436q-13 -75 13 -124.5t102 -49.5q72 0 113.5 45.5t55.5 128.5l77 436h90l-77 -436q-21 -117 -83 -185.5t-178 -68.5q-79 0 -128.5 33.5t-68 91t-6.5 129.5l63 358h-10q-88 0 -135.5 -45t-64.5 -139h-84z" />
    <glyph glyph-name="Uacute.alt" horiz-adv-x="834" 
d="M46 418q23 134 96 198t200 64h102l-77 -436q-13 -75 13 -124.5t102 -49.5q72 0 113.5 45.5t55.5 128.5l77 436h90l-77 -436q-21 -117 -83 -185.5t-178 -68.5q-79 0 -128.5 33.5t-68 91t-6.5 129.5l63 358h-10q-88 0 -135.5 -45t-64.5 -139h-84zM636 764h-76l119 166
l77 -36z" />
    <glyph glyph-name="Ubreve.alt" horiz-adv-x="834" 
d="M46 418q23 134 96 198t200 64h102l-77 -436q-13 -75 13 -124.5t102 -49.5q72 0 113.5 45.5t55.5 128.5l77 436h90l-77 -436q-21 -117 -83 -185.5t-178 -68.5q-79 0 -128.5 33.5t-68 91t-6.5 129.5l63 358h-10q-88 0 -135.5 -45t-64.5 -139h-84zM608 833q29 0 49 18.5
t31 64.5h68q-18 -79 -56.5 -112.5t-94.5 -33.5q-57 0 -88.5 33.5t-22.5 112.5h63q-5 -46 9 -64.5t42 -18.5z" />
    <glyph glyph-name="Ucircumflex.alt" horiz-adv-x="834" 
d="M46 418q23 134 96 198t200 64h102l-77 -436q-13 -75 13 -124.5t102 -49.5q72 0 113.5 45.5t55.5 128.5l77 436h90l-77 -436q-21 -117 -83 -185.5t-178 -68.5q-79 0 -128.5 33.5t-68 91t-6.5 129.5l63 358h-10q-88 0 -135.5 -45t-64.5 -139h-84zM668 764l-50 95l-85 -95
h-69l121 161h83l64 -161h-64z" />
    <glyph glyph-name="Udieresis.alt" horiz-adv-x="834" 
d="M46 418q23 134 96 198t200 64h102l-77 -436q-13 -75 13 -124.5t102 -49.5q72 0 113.5 45.5t55.5 128.5l77 436h90l-77 -436q-21 -117 -83 -185.5t-178 -68.5q-79 0 -128.5 33.5t-68 91t-6.5 129.5l63 358h-10q-88 0 -135.5 -45t-64.5 -139h-84zM553 804h-86l15 86h86z
M744 804h-86l15 86h86z" />
    <glyph glyph-name="Ugrave.alt" horiz-adv-x="834" 
d="M46 418q23 134 96 198t200 64h102l-77 -436q-13 -75 13 -124.5t102 -49.5q72 0 113.5 45.5t55.5 128.5l77 436h90l-77 -436q-21 -117 -83 -185.5t-178 -68.5q-79 0 -128.5 33.5t-68 91t-6.5 129.5l63 358h-10q-88 0 -135.5 -45t-64.5 -139h-84zM564 764l-75 130l81 36
l61 -166h-67z" />
    <glyph glyph-name="Uhungarumlaut.alt" horiz-adv-x="834" 
d="M46 418q23 134 96 198t200 64h102l-77 -436q-13 -75 13 -124.5t102 -49.5q72 0 113.5 45.5t55.5 128.5l77 436h90l-77 -436q-21 -117 -83 -185.5t-178 -68.5q-79 0 -128.5 33.5t-68 91t-6.5 129.5l63 358h-10q-88 0 -135.5 -45t-64.5 -139h-84zM565 764h-72l111 166
l66 -36zM703 764h-72l111 166l66 -36z" />
    <glyph glyph-name="Umacron.alt" horiz-adv-x="834" 
d="M46 418q23 134 96 198t200 64h102l-77 -436q-13 -75 13 -124.5t102 -49.5q72 0 113.5 45.5t55.5 128.5l77 436h90l-77 -436q-21 -117 -83 -185.5t-178 -68.5q-79 0 -128.5 33.5t-68 91t-6.5 129.5l63 358h-10q-88 0 -135.5 -45t-64.5 -139h-84zM757 857l-11 -63h-286
l12 63h285z" />
    <glyph glyph-name="Uogonek.alt" horiz-adv-x="834" 
d="M46 418q23 134 96 198t200 64h102l-77 -436q-13 -75 13 -124.5t102 -49.5q72 0 113.5 45.5t55.5 128.5l77 436h90l-77 -436q-12 -68 -37.5 -121t-68.5 -85q-64 -47 -99.5 -77.5t-49.5 -50.5t-14 -38q0 -27 32 -27q25 0 55 12l11 -63q-45 -17 -83 -17q-44 0 -69 20t-25 57
q0 30 19.5 62.5t67.5 73.5q-79 0 -128.5 33.5t-68 91t-6.5 129.5l63 358h-10q-88 0 -135.5 -45t-64.5 -139h-84z" />
    <glyph glyph-name="Uring.alt" horiz-adv-x="834" 
d="M46 418q23 134 96 198t200 64h102l-77 -436q-13 -75 13 -124.5t102 -49.5q72 0 113.5 45.5t55.5 128.5l77 436h90l-77 -436q-21 -117 -83 -185.5t-178 -68.5q-79 0 -128.5 33.5t-68 91t-6.5 129.5l63 358h-10q-88 0 -135.5 -45t-64.5 -139h-84zM730 864l-3 -15
q-7 -45 -40 -73t-83 -28q-53 0 -81.5 31.5t-20.5 80.5l2 15q8 45 40.5 73t82.5 28q54 0 82.5 -32t20.5 -80zM671 870q4 22 -8.5 36.5t-38.5 14.5q-23 0 -40 -13.5t-21 -38.5l-3 -14q-4 -23 9 -37.5t38 -14.5q24 0 41 13.5t21 38.5z" />
    <glyph glyph-name="Utilde.alt" horiz-adv-x="834" 
d="M46 418q23 134 96 198t200 64h102l-77 -436q-13 -75 13 -124.5t102 -49.5q72 0 113.5 45.5t55.5 128.5l77 436h90l-77 -436q-21 -117 -83 -185.5t-178 -68.5q-79 0 -128.5 33.5t-68 91t-6.5 129.5l63 358h-10q-88 0 -135.5 -45t-64.5 -139h-84zM669 773q-28 0 -44.5 12.5
t-27 28.5t-19 28.5t-21.5 12.5q-10 0 -20.5 -14t-18.5 -56h-63q10 55 25.5 85t35.5 41.5t41 11.5q29 0 45.5 -12.5t26.5 -28.5t18.5 -28.5t21.5 -12.5q11 0 20.5 13.5t17.5 55.5h63q-9 -55 -24.5 -84.5t-35 -41t-41.5 -11.5z" />
    <glyph glyph-name="V.alt" horiz-adv-x="792" 
d="M46 418q23 134 96 198t200 64h67l46 -345l26 -218l104 219l95 196q51 104 96.5 175.5t92.5 114.5t102.5 62t125.5 19l-15 -84q-42 0 -79 -11.5t-74 -42.5t-75.5 -87.5t-83.5 -145.5l-263 -532h-89l-87 602h-1q-88 0 -135.5 -45t-64.5 -139h-84z" />
    <glyph glyph-name="W.alt" horiz-adv-x="1087" 
d="M708 553l-253 -553h-90l-26 602h-9q-88 0 -135.5 -45t-64.5 -139h-84q23 134 95 198t195 64h89l8 -288l1 -268l254 556h82l57 -555l98 267l45 116q45 119 90.5 196t95 120.5t108.5 61t132 17.5l-15 -84q-46 0 -87.5 -11t-81 -43t-78 -94t-78.5 -163l-201 -508h-89z" />
    <glyph glyph-name="Wacute.alt" horiz-adv-x="1087" 
d="M708 553l-253 -553h-90l-26 602h-9q-88 0 -135.5 -45t-64.5 -139h-84q23 134 95 198t195 64h89l8 -288l1 -268l254 556h82l57 -555l98 267l45 116q45 119 90.5 196t95 120.5t108.5 61t132 17.5l-15 -84q-46 0 -87.5 -11t-81 -43t-78 -94t-78.5 -163l-201 -508h-89z
M781 764h-76l119 166l77 -36z" />
    <glyph glyph-name="Wcircumflex.alt" horiz-adv-x="1087" 
d="M708 553l-253 -553h-90l-26 602h-9q-88 0 -135.5 -45t-64.5 -139h-84q23 134 95 198t195 64h89l8 -288l1 -268l254 556h82l57 -555l98 267l45 116q45 119 90.5 196t95 120.5t108.5 61t132 17.5l-15 -84q-46 0 -87.5 -11t-81 -43t-78 -94t-78.5 -163l-201 -508h-89z
M812 764l-50 95l-85 -95h-69l121 161h83l64 -161h-64z" />
    <glyph glyph-name="Wdieresis.alt" horiz-adv-x="1087" 
d="M708 553l-253 -553h-90l-26 602h-9q-88 0 -135.5 -45t-64.5 -139h-84q23 134 95 198t195 64h89l8 -288l1 -268l254 556h82l57 -555l98 267l45 116q45 119 90.5 196t95 120.5t108.5 61t132 17.5l-15 -84q-46 0 -87.5 -11t-81 -43t-78 -94t-78.5 -163l-201 -508h-89z
M697 804h-86l15 86h86zM888 804h-86l15 86h86z" />
    <glyph glyph-name="Wgrave.alt" horiz-adv-x="1087" 
d="M708 553l-253 -553h-90l-26 602h-9q-88 0 -135.5 -45t-64.5 -139h-84q23 134 95 198t195 64h89l8 -288l1 -268l254 556h82l57 -555l98 267l45 116q45 119 90.5 196t95 120.5t108.5 61t132 17.5l-15 -84q-46 0 -87.5 -11t-81 -43t-78 -94t-78.5 -163l-201 -508h-89z
M706 764l-75 130l81 36l61 -166h-67z" />
    <glyph glyph-name="X.alt" horiz-adv-x="710" 
d="M46 418q23 134 87.5 198t188.5 64h44l106 -260l191 260h98l-254 -339l138 -341h-91l-111 273l-201 -273h-97l263 353l-101 249q-84 -1 -122 -46t-55 -138h-84z" />
    <glyph glyph-name="Y.alt" horiz-adv-x="734" 
d="M46 418q23 134 87.5 198t188.5 64h64l104 -322l214 322h96l-280 -409l-48 -271h-87l48 271l-111 331h-12q-85 0 -124 -45t-56 -139h-84z" />
    <glyph glyph-name="Yacute.alt" horiz-adv-x="734" 
d="M46 418q23 134 87.5 198t188.5 64h64l104 -322l214 322h96l-280 -409l-48 -271h-87l48 271l-111 331h-12q-85 0 -124 -45t-56 -139h-84zM596 764h-76l119 166l77 -36z" />
    <glyph glyph-name="Ycircumflex.alt" horiz-adv-x="734" 
d="M46 418q23 134 87.5 198t188.5 64h64l104 -322l214 322h96l-280 -409l-48 -271h-87l48 271l-111 331h-12q-85 0 -124 -45t-56 -139h-84zM628 764l-50 95l-85 -95h-69l121 161h83l64 -161h-64z" />
    <glyph glyph-name="Ydieresis.alt" horiz-adv-x="734" 
d="M46 418q23 134 87.5 198t188.5 64h64l104 -322l214 322h96l-280 -409l-48 -271h-87l48 271l-111 331h-12q-85 0 -124 -45t-56 -139h-84zM513 804h-86l15 86h86zM704 804h-86l15 86h86z" />
    <glyph glyph-name="Ygrave.alt" horiz-adv-x="734" 
d="M46 418q23 134 87.5 198t188.5 64h64l104 -322l214 322h96l-280 -409l-48 -271h-87l48 271l-111 331h-12q-85 0 -124 -45t-56 -139h-84zM524 764l-75 130l81 36l61 -166h-67z" />
    <glyph glyph-name="i.dot" horiz-adv-x="260" 
d="M241 616h-92l15 92h92zM126 0h-82l88 495h82z" />
    <glyph glyph-name="zero.denominator" horiz-adv-x="336" 
d="M288 199l-10 -67q-23 -137 -139 -137q-65 0 -95.5 38.5t-19.5 107.5l10 67q21 137 139 137q65 0 95.5 -39t19.5 -107zM223 199q14 85 -51 85q-60 0 -72 -76l-11 -67q-14 -85 51 -85q60 0 73 76z" />
    <glyph glyph-name="one.denominator" horiz-adv-x="222" 
d="M30 290l99 50h56l-60 -340h-64l48 267l-57 -28z" />
    <glyph glyph-name="two.denominator" horiz-adv-x="270" 
d="M208 60l-11 -60h-216l7 41q7 41 19 64.5t31.5 39t50.5 29.5l36 16q23 11 35.5 21t14.5 27l2 10q6 36 -45 36q-39 0 -92 -20l-11 59q57 22 107 22q65 0 88 -28t18 -68l-2 -12q-5 -41 -31 -62.5t-68 -40.5l-35 -16q-21 -9 -32.5 -21.5t-16.5 -36.5h151z" />
    <glyph glyph-name="three.denominator" horiz-adv-x="274" 
d="M208 88q-8 -44 -37.5 -68.5t-91.5 -24.5q-24 0 -48.5 5t-46.5 16l20 57q20 -10 39.5 -13.5t37.5 -3.5q56 0 62 38l2 8q3 19 -8.5 30.5t-40.5 11.5h-43l9 55h44q27 0 42 11t18 29l1 7q4 20 -8.5 29t-36.5 9q-16 0 -34 -3.5t-42 -13.5l-15 58q27 11 51.5 15.5t46.5 4.5
q62 0 86 -27t18 -68l-1 -7q-9 -53 -59 -74q45 -22 36 -71z" />
    <glyph glyph-name="four.denominator" horiz-adv-x="265" 
d="M224 70h-38l-12 -70h-59l12 70h-145l8 45q49 59 87.5 114t69.5 111h68q-29 -54 -64.5 -106t-82.5 -108h69l10 56h59l-10 -56h37z" />
    <glyph glyph-name="five.denominator" horiz-adv-x="274" 
d="M221 94q-7 -47 -40 -73t-91 -26q-25 0 -49.5 5t-48.5 16l20 58q21 -10 40 -14t36 -4q29 0 46 10t22 35l3 15q4 20 -7.5 32.5t-40.5 12.5q-26 0 -57 -11l-29 27l39 163h187l-10 -59h-133l-15 -68q13 4 33 4q49 0 78 -25.5t20 -79.5z" />
    <glyph glyph-name="six.denominator" horiz-adv-x="304" 
d="M250 94q-7 -45 -38.5 -72t-84.5 -27q-58 0 -87.5 38t-17.5 106l13 68q14 76 49 107t93 31q23 0 45.5 -5t47.5 -17l-20 -56q-18 10 -36.5 13.5t-33.5 3.5q-32 0 -53 -17.5t-29 -59.5l-2 -12q17 11 35.5 17.5t38.5 6.5q45 0 67.5 -29t15.5 -76zM152 162q-31 0 -66 -26
q-13 -82 44 -82q23 0 37 11t18 30l3 19q4 22 -5.5 35t-30.5 13z" />
    <glyph glyph-name="seven.denominator" horiz-adv-x="239" 
d="M234 284q-47 -71 -84 -142t-62 -142h-67q24 69 59.5 139t82.5 140h-149l11 61h219z" />
    <glyph glyph-name="eight.denominator" horiz-adv-x="307" 
d="M246 96q0 -43 -33 -72t-95 -29q-58 0 -83 23.5t-25 56.5q0 26 16 49.5t55 45.5q-19 14 -27 33t-8 42q0 38 29 69t89 31q53 0 78 -24t25 -57q0 -25 -14.5 -46.5t-48.5 -42.5q42 -29 42 -79zM141 207l26 -12q23 18 29.5 33t6.5 27q0 14 -10.5 23.5t-31.5 9.5
q-25 0 -38.5 -11t-13.5 -30q0 -25 32 -40zM74 87q0 -15 11.5 -25t36.5 -10q27 0 44 11t17 31q0 24 -38 42l-28 13q-25 -17 -34 -32t-9 -30z" />
    <glyph glyph-name="nine.denominator" horiz-adv-x="304" 
d="M243 132q-13 -76 -48.5 -106.5t-93.5 -30.5q-23 0 -45.5 4.5t-48.5 16.5l21 57q18 -10 36.5 -14t33.5 -4q32 0 53 17.5t28 59.5l2 12q-35 -23 -73 -23q-45 0 -67.5 29t-15.5 75l3 20q8 46 39.5 73t83.5 27q59 0 87.5 -38.5t16.5 -106.5zM90 225q-4 -21 5.5 -34t30.5 -13
q30 0 66 25q15 82 -44 82q-47 0 -55 -41z" />
    <glyph glyph-name="zero.numerator" horiz-adv-x="336" 
d="M347 539l-10 -67q-23 -137 -139 -137q-65 0 -95.5 38.5t-19.5 107.5l10 67q21 137 139 137q65 0 95.5 -39t19.5 -107zM282 539q14 85 -51 85q-60 0 -72 -76l-11 -67q-14 -85 51 -85q60 0 73 76z" />
    <glyph glyph-name="one.numerator" horiz-adv-x="222" 
d="M89 630l99 50h56l-60 -340h-64l48 267l-57 -28z" />
    <glyph glyph-name="two.numerator" horiz-adv-x="270" 
d="M267 400l-11 -60h-216l7 41q7 41 19 64.5t31.5 39t50.5 29.5l36 16q23 11 35.5 21t14.5 27l2 10q6 36 -45 36q-39 0 -92 -20l-11 59q57 22 107 22q65 0 88 -28t18 -68l-2 -12q-5 -41 -31 -62.5t-68 -40.5l-35 -16q-21 -9 -32.5 -21.5t-16.5 -36.5h151z" />
    <glyph glyph-name="three.numerator" horiz-adv-x="274" 
d="M267 428q-8 -44 -37.5 -68.5t-91.5 -24.5q-24 0 -48.5 5t-46.5 16l20 57q20 -10 39.5 -13.5t37.5 -3.5q56 0 62 38l2 8q3 19 -8.5 30.5t-40.5 11.5h-43l9 55h44q27 0 42 11t18 29l1 7q4 20 -8.5 29t-36.5 9q-16 0 -34 -3.5t-42 -13.5l-15 58q27 11 51.5 15.5t46.5 4.5
q62 0 86 -27t18 -68l-1 -7q-9 -53 -59 -74q45 -22 36 -71z" />
    <glyph glyph-name="four.numerator" horiz-adv-x="265" 
d="M283 410h-38l-12 -70h-59l12 70h-145l8 45q49 59 87.5 114t69.5 111h68q-29 -54 -64.5 -106t-82.5 -108h69l10 56h59l-10 -56h37z" />
    <glyph glyph-name="five.numerator" horiz-adv-x="274" 
d="M280 434q-7 -47 -40 -73t-91 -26q-25 0 -49.5 5t-48.5 16l20 58q21 -10 40 -14t36 -4q29 0 46 10t22 35l3 15q4 20 -7.5 32.5t-40.5 12.5q-26 0 -57 -11l-29 27l39 163h187l-10 -59h-133l-15 -68q13 4 33 4q49 0 78 -25.5t20 -79.5z" />
    <glyph glyph-name="six.numerator" horiz-adv-x="304" 
d="M309 434q-7 -45 -38.5 -72t-84.5 -27q-58 0 -87.5 38t-17.5 106l13 68q14 76 49 107t93 31q23 0 45.5 -5t47.5 -17l-20 -56q-18 10 -36.5 13.5t-33.5 3.5q-32 0 -53 -17.5t-29 -59.5l-2 -12q17 11 35.5 17.5t38.5 6.5q45 0 67.5 -29t15.5 -76zM211 502q-31 0 -66 -26
q-13 -82 44 -82q23 0 37 11t18 30l3 19q4 22 -5.5 35t-30.5 13z" />
    <glyph glyph-name="seven.numerator" horiz-adv-x="239" 
d="M293 624q-47 -71 -84 -142t-62 -142h-67q24 69 59.5 139t82.5 140h-149l11 61h219z" />
    <glyph glyph-name="eight.numerator" horiz-adv-x="307" 
d="M305 436q0 -43 -33 -72t-95 -29q-58 0 -83 23.5t-25 56.5q0 26 16 49.5t55 45.5q-19 14 -27 33t-8 42q0 38 29 69t89 31q53 0 78 -24t25 -57q0 -25 -14.5 -46.5t-48.5 -42.5q42 -29 42 -79zM200 547l26 -12q23 18 29.5 33t6.5 27q0 14 -10.5 23.5t-31.5 9.5
q-25 0 -38.5 -11t-13.5 -30q0 -25 32 -40zM133 427q0 -15 11.5 -25t36.5 -10q27 0 44 11t17 31q0 24 -38 42l-28 13q-25 -17 -34 -32t-9 -30z" />
    <glyph glyph-name="nine.numerator" horiz-adv-x="304" 
d="M302 472q-13 -76 -48.5 -106.5t-93.5 -30.5q-23 0 -45.5 4.5t-48.5 16.5l21 57q18 -10 36.5 -14t33.5 -4q32 0 53 17.5t28 59.5l2 12q-35 -23 -73 -23q-45 0 -67.5 29t-15.5 75l3 20q8 46 39.5 73t83.5 27q59 0 87.5 -38.5t16.5 -106.5zM149 565q-4 -21 5.5 -34t30.5 -13
q30 0 66 25q15 82 -44 82q-47 0 -55 -41z" />
    <glyph glyph-name="zero.posf" horiz-adv-x="569" 
d="M509 258l-8 -50q-16 -106 -79 -162t-164 -56q-75 0 -123.5 32t-67.5 88t-8 127l8 51q17 102 79.5 159.5t163.5 57.5q76 0 124 -33t67 -88.5t8 -125.5zM423 260q11 74 -17 121.5t-97 47.5q-62 0 -103 -36.5t-52 -104.5l-8 -53q-13 -76 16 -123t97 -47q63 0 103.5 36.5
t51.5 106.5z" />
    <glyph glyph-name="one.posf" horiz-adv-x="348" 
d="M46 401l178 94h79l-87 -495h-85l70 400l-128 -67z" />
    <glyph glyph-name="two.posf" horiz-adv-x="466" 
d="M377 76l-13 -76h-347l12 66q14 81 50 122t105 64l69 24q40 14 61.5 31.5t25.5 42.5l2 12q9 66 -85 66q-31 0 -64 -7.5t-78 -25.5l-23 70q95 40 173 40q63 0 100.5 -21.5t52 -56t7.5 -73.5l-2 -13q-6 -39 -27.5 -64.5t-52.5 -42t-67 -28.5l-69 -24q-44 -16 -63.5 -40
t-27.5 -66h261z" />
    <glyph glyph-name="three.posf" horiz-adv-x="466" 
d="M365 -16q-13 -81 -67.5 -130t-169.5 -49q-46 0 -93 10.5t-94 33.5l29 72q44 -21 83 -29.5t76 -8.5q62 0 101 24t48 79l3 15q8 54 -15 86.5t-83 32.5h-100l14 76h100q57 0 89.5 26.5t39.5 71.5l2 16q9 62 -17.5 89t-83.5 27q-35 0 -74 -8.5t-89 -28.5l-22 72
q53 23 101.5 33.5t90.5 10.5q107 0 150.5 -54.5t30.5 -138.5l-2 -16q-15 -102 -108 -143q37 -22 54 -60.5t8 -92.5z" />
    <glyph glyph-name="four.posf" horiz-adv-x="494" 
d="M432 0h-74l-33 -185h-82l33 185h-292l12 66q100 118 177.5 219.5t138.5 209.5h99q-61 -106 -136.5 -207t-170.5 -212h185l19 108h82l-19 -108h75z" />
    <glyph glyph-name="five.posf" horiz-adv-x="479" 
d="M38 169l77 326h339l-14 -80h-263l-46 -193q39 13 84 13q66 0 111 -26t64.5 -73t8.5 -109l-6 -31q-15 -88 -72.5 -139.5t-170.5 -51.5q-46 0 -93 10.5t-95 33.5l33 73q44 -22 82.5 -30.5t75.5 -8.5q62 0 102 26.5t50 86.5l6 31q10 59 -16 95t-93 36q-54 0 -121 -29z" />
    <glyph glyph-name="six.posf" horiz-adv-x="552" 
d="M489 187q-16 -93 -74.5 -145t-151.5 -52q-114 0 -164.5 80.5t-26.5 216.5l25 139q24 138 93 201t178 63q40 0 83.5 -9.5t89.5 -32.5l-33 -73q-40 20 -75 28t-64 8q-73 0 -122.5 -42t-67.5 -143l-13 -70q76 69 163 69q60 0 100.5 -27t58 -74t7.5 -106zM311 348
q-38 0 -80.5 -19t-79.5 -61q-29 -200 115 -200q54 0 92 31t48 88l5 30q10 57 -14.5 94t-85.5 37z" />
    <glyph glyph-name="seven.posf" horiz-adv-x="458" 
d="M460 425q-100 -151 -176 -303.5t-129 -306.5h-95q53 152 128 301.5t173 298.5h-314l15 80h411z" />
    <glyph glyph-name="eight.posf" horiz-adv-x="532" 
d="M474 193q0 -51 -24 -97.5t-76 -76t-138 -29.5q-70 0 -115.5 22t-67.5 58t-22 76q0 52 34.5 106t113.5 97q-35 25 -54.5 60.5t-19.5 83.5t23 93.5t71 74.5t124 29q92 0 141.5 -43.5t49.5 -112.5q0 -49 -29.5 -99t-99.5 -93q43 -26 66 -61t23 -88zM275 395l50 -23
q62 42 82 80t20 69q0 44 -27.5 68.5t-78.5 24.5q-54 0 -92 -29t-38 -85q0 -36 20 -60.5t64 -44.5zM118 165q0 -41 29 -70.5t93 -29.5q69 0 107.5 32t38.5 84q0 38 -22 63t-73 48l-53 24q-68 -40 -94 -76.5t-26 -74.5z" />
    <glyph glyph-name="nine.posf" horiz-adv-x="549" 
d="M454 68q-24 -138 -93 -200.5t-178 -62.5q-40 0 -83.5 9t-90.5 32l33 73q41 -19 75.5 -27.5t64.5 -8.5q73 0 122 42t67 143l12 69q-75 -68 -162 -68q-60 0 -100 27t-57 74t-8 106l4 31q14 93 74 145.5t153 52.5q76 0 124 -36.5t65.5 -103.5t1.5 -158zM139 277
q-9 -57 15 -94t85 -37q39 0 81 19.5t79 60.5q29 200 -115 200q-53 0 -92 -31t-48 -88z" />
    <glyph glyph-name="zero.tlf" horiz-adv-x="529" 
d="M520 399l-23 -135q-24 -133 -89.5 -203.5t-173.5 -70.5q-74 0 -123.5 35t-69 100.5t-3.5 156.5l24 135q23 131 88.5 202t174.5 71q73 0 122.5 -35.5t69 -100.5t3.5 -155zM432 399q19 104 -11 158t-100 54q-136 0 -171 -194l-24 -135q-18 -105 11.5 -159.5t98.5 -54.5
q137 0 173 196z" />
    <glyph glyph-name="one.tlf" horiz-adv-x="529" 
d="M132 575l199 105h79l-106 -600h122l-14 -80h-365l14 80h158l89 504l-148 -77z" />
    <glyph glyph-name="two.tlf" horiz-adv-x="529" 
d="M429 79l-14 -79h-389l12 66q14 76 38 124t60 79t84 54l71 35q56 26 87 51t38 71l3 20q9 52 -18 81.5t-90 29.5q-31 0 -70.5 -8.5t-89.5 -28.5l-22 73q55 23 101 33t87 10q73 0 117 -26.5t61.5 -69.5t8.5 -94l-3 -20q-9 -55 -32 -88.5t-60.5 -57t-88.5 -48.5l-71 -34
q-57 -27 -83.5 -67t-40.5 -106h304z" />
    <glyph glyph-name="three.tlf" horiz-adv-x="529" 
d="M436 169q-13 -81 -67.5 -130t-169.5 -49q-46 0 -93 10.5t-94 33.5l29 72q44 -21 83 -29.5t76 -8.5q62 0 101 24t48 79l3 15q8 54 -15 86.5t-83 32.5h-100l14 76h100q57 0 89.5 26.5t39.5 71.5l2 16q9 62 -17.5 89t-83.5 27q-35 0 -74 -8.5t-89 -28.5l-22 72
q53 23 101.5 33.5t90.5 10.5q107 0 150.5 -54.5t30.5 -138.5l-2 -16q-15 -102 -108 -143q37 -22 54 -60.5t8 -92.5z" />
    <glyph glyph-name="four.tlf" horiz-adv-x="529" 
d="M479 163h-75l-29 -163h-82l29 163h-292l12 67q98 118 178.5 228t141.5 222h99q-61 -110 -138.5 -217.5t-173.5 -222.5h186l22 124h82l-22 -124h75z" />
    <glyph glyph-name="five.tlf" horiz-adv-x="529" 
d="M94 354l77 326h339l-14 -80h-263l-46 -193q39 13 84 13q66 0 111 -26t64.5 -73t8.5 -109l-6 -31q-15 -88 -72.5 -139.5t-170.5 -51.5q-46 0 -93 10.5t-95 33.5l33 73q44 -22 82.5 -30.5t75.5 -8.5q62 0 102 26.5t50 86.5l6 31q10 59 -16 95t-93 36q-54 0 -121 -29z" />
    <glyph glyph-name="six.tlf" horiz-adv-x="529" 
d="M481 187q-16 -93 -74.5 -145t-151.5 -52q-114 0 -164.5 80.5t-26.5 216.5l25 139q24 138 93 201t178 63q40 0 83.5 -9.5t89.5 -32.5l-33 -73q-40 20 -75 28t-64 8q-73 0 -122.5 -42t-67.5 -143l-13 -70q76 69 163 69q60 0 100.5 -27t58 -74t7.5 -106zM303 348
q-38 0 -80.5 -19t-79.5 -61q-29 -200 115 -200q54 0 92 31t48 88l5 30q10 57 -14.5 94t-85.5 37z" />
    <glyph glyph-name="seven.tlf" horiz-adv-x="529" 
d="M524 610q-100 -151 -176 -303.5t-129 -306.5h-95q53 152 128 301.5t173 298.5h-314l15 80h411z" />
    <glyph glyph-name="eight.tlf" horiz-adv-x="529" 
d="M474 193q0 -51 -24 -97.5t-76 -76t-138 -29.5q-70 0 -115.5 22t-67.5 58t-22 76q0 52 34.5 106t113.5 97q-35 25 -54.5 60.5t-19.5 83.5t23 93.5t71 74.5t124 29q92 0 141.5 -43.5t49.5 -112.5q0 -49 -29.5 -99t-99.5 -93q43 -26 66 -61t23 -88zM275 395l50 -23
q62 42 82 80t20 69q0 44 -27.5 68.5t-78.5 24.5q-54 0 -92 -29t-38 -85q0 -36 20 -60.5t64 -44.5zM118 165q0 -41 29 -70.5t93 -29.5q69 0 107.5 32t38.5 84q0 38 -22 63t-73 48l-53 24q-68 -40 -94 -76.5t-26 -74.5z" />
    <glyph glyph-name="nine.tlf" horiz-adv-x="529" 
d="M474 253q-24 -138 -93 -200.5t-178 -62.5q-40 0 -83.5 9t-90.5 32l33 73q41 -19 75.5 -27.5t64.5 -8.5q73 0 122 42t67 143l12 69q-75 -68 -162 -68q-60 0 -100 27t-57 74t-8 106l4 31q14 93 74 145.5t153 52.5q76 0 124 -36.5t65.5 -103.5t1.5 -158zM159 462
q-9 -57 15 -94t85 -37q39 0 81 19.5t79 60.5q29 200 -115 200q-53 0 -92 -31t-48 -88z" />
    <glyph glyph-name="uni2155" horiz-adv-x="654" 
d="M89 630l99 50h56l-60 -340h-64l48 267l-57 -28zM518 680h75l-464 -680h-74zM601 94q-7 -47 -40 -73t-91 -26q-25 0 -49.5 5t-48.5 16l20 58q21 -10 40 -14t36 -4q29 0 46 10t22 35l3 15q4 20 -7.5 32.5t-40.5 12.5q-26 0 -57 -11l-29 27l39 163h187l-10 -59h-133l-15 -68
q13 4 33 4q49 0 78 -25.5t20 -79.5z" />
    <glyph glyph-name="uni2156" horiz-adv-x="696" 
d="M267 400l-11 -60h-216l7 41q7 41 19 64.5t31.5 39t50.5 29.5l36 16q23 11 35.5 21t14.5 27l2 10q6 36 -45 36q-39 0 -92 -20l-11 59q57 22 107 22q65 0 88 -28t18 -68l-2 -12q-5 -41 -31 -62.5t-68 -40.5l-35 -16q-21 -9 -32.5 -21.5t-16.5 -36.5h151zM560 680h75
l-464 -680h-74zM643 94q-7 -47 -40 -73t-91 -26q-25 0 -49.5 5t-48.5 16l20 58q21 -10 40 -14t36 -4q29 0 46 10t22 35l3 15q4 20 -7.5 32.5t-40.5 12.5q-26 0 -57 -11l-29 27l39 163h187l-10 -59h-133l-15 -68q13 4 33 4q49 0 78 -25.5t20 -79.5z" />
    <glyph glyph-name="uni2157" horiz-adv-x="690" 
d="M267 428q-8 -44 -37.5 -68.5t-91.5 -24.5q-24 0 -48.5 5t-46.5 16l20 57q20 -10 39.5 -13.5t37.5 -3.5q56 0 62 38l2 8q3 19 -8.5 30.5t-40.5 11.5h-43l9 55h44q27 0 42 11t18 29l1 7q4 20 -8.5 29t-36.5 9q-16 0 -34 -3.5t-42 -13.5l-15 58q27 11 51.5 15.5t46.5 4.5
q62 0 86 -27t18 -68l-1 -7q-9 -53 -59 -74q45 -22 36 -71zM554 680h75l-464 -680h-74zM637 94q-7 -47 -40 -73t-91 -26q-25 0 -49.5 5t-48.5 16l20 58q21 -10 40 -14t36 -4q29 0 46 10t22 35l3 15q4 20 -7.5 32.5t-40.5 12.5q-26 0 -57 -11l-29 27l39 163h187l-10 -59h-133
l-15 -68q13 4 33 4q49 0 78 -25.5t20 -79.5z" />
    <glyph glyph-name="uni2158" horiz-adv-x="700" 
d="M283 410h-38l-12 -70h-59l12 70h-145l8 45q49 59 87.5 114t69.5 111h68q-29 -54 -64.5 -106t-82.5 -108h69l10 56h59l-10 -56h37zM565 680h75l-464 -680h-74zM648 94q-7 -47 -40 -73t-91 -26q-25 0 -49.5 5t-48.5 16l20 58q21 -10 40 -14t36 -4q29 0 46 10t22 35l3 15
q4 20 -7.5 32.5t-40.5 12.5q-26 0 -57 -11l-29 27l39 163h187l-10 -59h-133l-15 -68q13 4 33 4q49 0 78 -25.5t20 -79.5z" />
    <glyph glyph-name="uni2159" horiz-adv-x="672" 
d="M89 630l99 50h56l-60 -340h-64l48 267l-57 -28zM518 680h75l-464 -680h-74zM618 94q-7 -45 -38.5 -72t-84.5 -27q-58 0 -87.5 38t-17.5 106l13 68q14 76 49 107t93 31q23 0 45.5 -5t47.5 -17l-20 -56q-18 10 -36.5 13.5t-33.5 3.5q-32 0 -53 -17.5t-29 -59.5l-2 -12
q17 11 35.5 17.5t38.5 6.5q45 0 67.5 -29t15.5 -76zM520 162q-31 0 -66 -26q-13 -82 44 -82q23 0 37 11t18 30l3 19q4 22 -5.5 35t-30.5 13z" />
    <glyph glyph-name="uni215A" horiz-adv-x="714" 
d="M280 434q-7 -47 -40 -73t-91 -26q-25 0 -49.5 5t-48.5 16l20 58q21 -10 40 -14t36 -4q29 0 46 10t22 35l3 15q4 20 -7.5 32.5t-40.5 12.5q-26 0 -57 -11l-29 27l39 163h187l-10 -59h-133l-15 -68q13 4 33 4q49 0 78 -25.5t20 -79.5zM560 680h75l-464 -680h-74zM660 94
q-7 -45 -38.5 -72t-84.5 -27q-58 0 -87.5 38t-17.5 106l13 68q14 76 49 107t93 31q23 0 45.5 -5t47.5 -17l-20 -56q-18 10 -36.5 13.5t-33.5 3.5q-32 0 -53 -17.5t-29 -59.5l-2 -12q17 11 35.5 17.5t38.5 6.5q45 0 67.5 -29t15.5 -76zM562 162q-31 0 -66 -26q-13 -82 44 -82
q23 0 37 11t18 30l3 19q4 22 -5.5 35t-30.5 13z" />
    <glyph glyph-name="uni2150" horiz-adv-x="652" 
d="M89 630l99 50h56l-60 -340h-64l48 267l-57 -28zM518 680h75l-464 -680h-74zM647 284q-47 -71 -84 -142t-62 -142h-67q24 69 59.5 139t82.5 140h-149l11 61h219z" />
    <glyph glyph-name="two_fraction_seven" horiz-adv-x="694" 
d="M267 400l-11 -60h-216l7 41q7 41 19 64.5t31.5 39t50.5 29.5l36 16q23 11 35.5 21t14.5 27l2 10q6 36 -45 36q-39 0 -92 -20l-11 59q57 22 107 22q65 0 88 -28t18 -68l-2 -12q-5 -41 -31 -62.5t-68 -40.5l-35 -16q-21 -9 -32.5 -21.5t-16.5 -36.5h151zM560 680h75
l-464 -680h-74zM689 284q-47 -71 -84 -142t-62 -142h-67q24 69 59.5 139t82.5 140h-149l11 61h219z" />
    <glyph glyph-name="three_fraction_seven" horiz-adv-x="688" 
d="M267 428q-8 -44 -37.5 -68.5t-91.5 -24.5q-24 0 -48.5 5t-46.5 16l20 57q20 -10 39.5 -13.5t37.5 -3.5q56 0 62 38l2 8q3 19 -8.5 30.5t-40.5 11.5h-43l9 55h44q27 0 42 11t18 29l1 7q4 20 -8.5 29t-36.5 9q-16 0 -34 -3.5t-42 -13.5l-15 58q27 11 51.5 15.5t46.5 4.5
q62 0 86 -27t18 -68l-1 -7q-9 -53 -59 -74q45 -22 36 -71zM554 680h75l-464 -680h-74zM683 284q-47 -71 -84 -142t-62 -142h-67q24 69 59.5 139t82.5 140h-149l11 61h219z" />
    <glyph glyph-name="four_fraction_seven" horiz-adv-x="699" 
d="M283 410h-38l-12 -70h-59l12 70h-145l8 45q49 59 87.5 114t69.5 111h68q-29 -54 -64.5 -106t-82.5 -108h69l10 56h59l-10 -56h37zM565 680h75l-464 -680h-74zM694 284q-47 -71 -84 -142t-62 -142h-67q24 69 59.5 139t82.5 140h-149l11 61h219z" />
    <glyph glyph-name="five_fraction_seven" horiz-adv-x="694" 
d="M280 434q-7 -47 -40 -73t-91 -26q-25 0 -49.5 5t-48.5 16l20 58q21 -10 40 -14t36 -4q29 0 46 10t22 35l3 15q4 20 -7.5 32.5t-40.5 12.5q-26 0 -57 -11l-29 27l39 163h187l-10 -59h-133l-15 -68q13 4 33 4q49 0 78 -25.5t20 -79.5zM560 680h75l-464 -680h-74zM689 284
q-47 -71 -84 -142t-62 -142h-67q24 69 59.5 139t82.5 140h-149l11 61h219z" />
    <glyph glyph-name="six_fraction_seven" horiz-adv-x="718" 
d="M309 434q-7 -45 -38.5 -72t-84.5 -27q-58 0 -87.5 38t-17.5 106l13 68q14 76 49 107t93 31q23 0 45.5 -5t47.5 -17l-20 -56q-18 10 -36.5 13.5t-33.5 3.5q-32 0 -53 -17.5t-29 -59.5l-2 -12q17 11 35.5 17.5t38.5 6.5q45 0 67.5 -29t15.5 -76zM211 502q-31 0 -66 -26
q-13 -82 44 -82q23 0 37 11t18 30l3 19q4 22 -5.5 35t-30.5 13zM584 680h75l-464 -680h-74zM713 284q-47 -71 -84 -142t-62 -142h-67q24 69 59.5 139t82.5 140h-149l11 61h219z" />
    <glyph glyph-name="uni2151" horiz-adv-x="684" 
d="M89 630l99 50h56l-60 -340h-64l48 267l-57 -28zM518 680h75l-464 -680h-74zM623 132q-13 -76 -48.5 -106.5t-93.5 -30.5q-23 0 -45.5 4.5t-48.5 16.5l21 57q18 -10 36.5 -14t33.5 -4q32 0 53 17.5t28 59.5l2 12q-35 -23 -73 -23q-45 0 -67.5 29t-15.5 75l3 20
q8 46 39.5 73t83.5 27q59 0 87.5 -38.5t16.5 -106.5zM470 225q-4 -21 5.5 -34t30.5 -13q30 0 66 25q15 82 -44 82q-47 0 -55 -41z" />
    <glyph glyph-name="two_fraction_nine" horiz-adv-x="727" 
d="M267 400l-11 -60h-216l7 41q7 41 19 64.5t31.5 39t50.5 29.5l36 16q23 11 35.5 21t14.5 27l2 10q6 36 -45 36q-39 0 -92 -20l-11 59q57 22 107 22q65 0 88 -28t18 -68l-2 -12q-5 -41 -31 -62.5t-68 -40.5l-35 -16q-21 -9 -32.5 -21.5t-16.5 -36.5h151zM560 680h75
l-464 -680h-74zM665 132q-13 -76 -48.5 -106.5t-93.5 -30.5q-23 0 -45.5 4.5t-48.5 16.5l21 57q18 -10 36.5 -14t33.5 -4q32 0 53 17.5t28 59.5l2 12q-35 -23 -73 -23q-45 0 -67.5 29t-15.5 75l3 20q8 46 39.5 73t83.5 27q59 0 87.5 -38.5t16.5 -106.5zM512 225
q-4 -21 5.5 -34t30.5 -13q30 0 66 25q15 82 -44 82q-47 0 -55 -41z" />
    <glyph glyph-name="four_fraction_nine" horiz-adv-x="731" 
d="M283 410h-38l-12 -70h-59l12 70h-145l8 45q49 59 87.5 114t69.5 111h68q-29 -54 -64.5 -106t-82.5 -108h69l10 56h59l-10 -56h37zM565 680h75l-464 -680h-74zM670 132q-13 -76 -48.5 -106.5t-93.5 -30.5q-23 0 -45.5 4.5t-48.5 16.5l21 57q18 -10 36.5 -14t33.5 -4
q32 0 53 17.5t28 59.5l2 12q-35 -23 -73 -23q-45 0 -67.5 29t-15.5 75l3 20q8 46 39.5 73t83.5 27q59 0 87.5 -38.5t16.5 -106.5zM517 225q-4 -21 5.5 -34t30.5 -13q30 0 66 25q15 82 -44 82q-47 0 -55 -41z" />
    <glyph glyph-name="five_fraction_nine" horiz-adv-x="726" 
d="M280 434q-7 -47 -40 -73t-91 -26q-25 0 -49.5 5t-48.5 16l20 58q21 -10 40 -14t36 -4q29 0 46 10t22 35l3 15q4 20 -7.5 32.5t-40.5 12.5q-26 0 -57 -11l-29 27l39 163h187l-10 -59h-133l-15 -68q13 4 33 4q49 0 78 -25.5t20 -79.5zM560 680h75l-464 -680h-74zM665 132
q-13 -76 -48.5 -106.5t-93.5 -30.5q-23 0 -45.5 4.5t-48.5 16.5l21 57q18 -10 36.5 -14t33.5 -4q32 0 53 17.5t28 59.5l2 12q-35 -23 -73 -23q-45 0 -67.5 29t-15.5 75l3 20q8 46 39.5 73t83.5 27q59 0 87.5 -38.5t16.5 -106.5zM512 225q-4 -21 5.5 -34t30.5 -13q30 0 66 25
q15 82 -44 82q-47 0 -55 -41z" />
    <glyph glyph-name="seven_fraction_nine" horiz-adv-x="681" 
d="M293 624q-47 -71 -84 -142t-62 -142h-67q24 69 59.5 139t82.5 140h-149l11 61h219zM515 680h75l-464 -680h-74zM620 132q-13 -76 -48.5 -106.5t-93.5 -30.5q-23 0 -45.5 4.5t-48.5 16.5l21 57q18 -10 36.5 -14t33.5 -4q32 0 53 17.5t28 59.5l2 12q-35 -23 -73 -23
q-45 0 -67.5 29t-15.5 75l3 20q8 46 39.5 73t83.5 27q59 0 87.5 -38.5t16.5 -106.5zM467 225q-4 -21 5.5 -34t30.5 -13q30 0 66 25q15 82 -44 82q-47 0 -55 -41z" />
    <glyph glyph-name="eight_fraction_nine" horiz-adv-x="752" 
d="M305 436q0 -43 -33 -72t-95 -29q-58 0 -83 23.5t-25 56.5q0 26 16 49.5t55 45.5q-19 14 -27 33t-8 42q0 38 29 69t89 31q53 0 78 -24t25 -57q0 -25 -14.5 -46.5t-48.5 -42.5q42 -29 42 -79zM200 547l26 -12q23 18 29.5 33t6.5 27q0 14 -10.5 23.5t-31.5 9.5
q-25 0 -38.5 -11t-13.5 -30q0 -25 32 -40zM133 427q0 -15 11.5 -25t36.5 -10q27 0 44 11t17 31q0 24 -38 42l-28 13q-25 -17 -34 -32t-9 -30zM585 680h75l-464 -680h-74zM690 132q-13 -76 -48.5 -106.5t-93.5 -30.5q-23 0 -45.5 4.5t-48.5 16.5l21 57q18 -10 36.5 -14
t33.5 -4q32 0 53 17.5t28 59.5l2 12q-35 -23 -73 -23q-45 0 -67.5 29t-15.5 75l3 20q8 46 39.5 73t83.5 27q59 0 87.5 -38.5t16.5 -106.5zM537 225q-4 -21 5.5 -34t30.5 -13q30 0 66 25q15 82 -44 82q-47 0 -55 -41z" />
    <glyph glyph-name="exclamdown.case" horiz-adv-x="280" 
d="M169 680h92l-16 -92h-92zM150 497h66l-36 -247l-44 -250h-82l44 250z" />
    <glyph glyph-name="questiondown.case" horiz-adv-x="438" 
d="M261 680h91l-16 -92h-91zM202 66q35 0 75.5 9t91.5 30l19 -72q-52 -22 -100 -32.5t-90 -10.5q-71 0 -114 25t-58.5 67.5t-6.5 92.5l3 18q10 52 36.5 83.5t69.5 68.5l37 33q35 30 47.5 50t17.5 50l4 19h84l-4 -22q-6 -33 -16.5 -57t-30 -46t-53.5 -51l-38 -33
q-28 -23 -46 -47t-25 -60l-3 -18q-8 -44 17 -70.5t83 -26.5z" />
    <glyph glyph-name="parenleft.case" horiz-adv-x="315" 
d="M152 235q0 -73 26.5 -151t78.5 -146l-63 -49q-61 77 -93 170t-32 178v27q0 139 70.5 276.5t213.5 251.5l45 -63q-117 -99 -181.5 -214t-64.5 -256v-24z" />
    <glyph glyph-name="parenright.case" horiz-adv-x="316" 
d="M195 420v24q0 74 -27 152.5t-78 145.5l62 49q62 -76 94 -169.5t32 -179.5v-27q0 -138 -70 -275.5t-213 -251.5l-46 63q116 98 181 213t65 256z" />
    <glyph glyph-name="braceleft.case" horiz-adv-x="378" 
d="M326 -30l-13 -72h-79q-65 0 -100 25.5t-41 69.5t15 98l37 98q13 34 15.5 60t-12 40.5t-52.5 14.5h-65l12 72h65q56 0 74 32t16 83l-2 98q-3 94 39 143.5t134 49.5h99l-12 -72h-86q-49 0 -70 -29.5t-20 -72.5l3 -98q3 -144 -90 -174q81 -31 30 -166l-38 -98
q-16 -43 -5.5 -72.5t59.5 -29.5h87z" />
    <glyph glyph-name="braceright.case" horiz-adv-x="378" 
d="M214 91q3 -94 -39 -143.5t-134 -49.5h-99l13 72h85q50 0 71 29.5t19 72.5l-3 98q-3 143 90 173q-81 31 -30 167l38 98q17 43 6.5 72.5t-60.5 29.5h-87l13 72h79q66 0 100.5 -25.5t40.5 -69t-15 -98.5l-37 -98q-13 -34 -15.5 -60.5t12.5 -41t52 -14.5h65l-12 -72h-65
q-56 0 -74 -32t-16 -82z" />
    <glyph glyph-name="bracketleft.case" horiz-adv-x="346" 
d="M294 -30l-13 -72h-237l156 883h237l-13 -72h-155l-130 -739h155z" />
    <glyph glyph-name="bracketright.case" horiz-adv-x="347" 
d="M334 781l-155 -883h-237l13 72h155l129 739h-155l13 72h237z" />
    <glyph glyph-name="hyphen.case" horiz-adv-x="392" 
d="M59 287l13 72h280l-13 -72h-280z" />
    <glyph glyph-name="endash.case" horiz-adv-x="592" 
d="M59 287l13 72h480l-13 -72h-480z" />
    <glyph glyph-name="emdash.case" horiz-adv-x="792" 
d="M59 287l13 72h680l-13 -72h-680z" />
    <glyph glyph-name="guillemotleft.case" horiz-adv-x="667" 
d="M312 188l-16 -84l-247 207l9 53l320 204l-16 -96l-227 -141zM602 188l-16 -84l-247 207l9 53l320 204l-16 -96l-227 -141z" />
    <glyph glyph-name="guillemotright.case" horiz-adv-x="667" 
d="M349 308l-320 -204l16 95l226 141l-176 143l16 85l247 -207zM639 308l-320 -204l16 95l226 141l-176 143l16 85l247 -207z" />
    <glyph glyph-name="guilsinglleft.case" horiz-adv-x="377" 
d="M312 188l-16 -84l-247 207l9 53l320 204l-16 -96l-227 -141z" />
    <glyph glyph-name="guilsinglright.case" horiz-adv-x="377" 
d="M349 308l-320 -204l16 95l226 141l-176 143l16 85l247 -207z" />
    <glyph glyph-name="at.case" horiz-adv-x="950" 
d="M733 -89q-58 -26 -126 -41t-136 -15q-131 0 -225.5 54t-145 151t-50.5 225q0 103 32 191t91 153.5t141 102t182 36.5q91 0 166.5 -31t130 -86t84 -129t29.5 -160q0 -82 -28.5 -147.5t-78 -103.5t-112.5 -38q-48 0 -79.5 20t-39.5 63q-43 -48 -84 -68t-81 -20
q-47 0 -77.5 27.5t-41.5 76t-2 109.5l8 55q15 100 69 154.5t143 54.5q49 0 95.5 -16.5t91.5 -45.5l-44 -251q-9 -52 6 -71.5t44 -19.5q35 0 65 28t49 77.5t19 115.5q0 95 -41.5 171t-116.5 120.5t-174 44.5q-82 0 -150 -31t-116.5 -87t-75 -131.5t-26.5 -163.5
q0 -109 41 -190t117.5 -125.5t184.5 -44.5q59 0 121 14.5t114 39.5zM366 281q-10 -67 5.5 -103.5t53.5 -36.5q29 0 65 24t77 83l33 196q-49 27 -92 27q-60 0 -92 -36t-42 -99z" />
    <glyph glyph-name="bar.case" horiz-adv-x="295" 
d="M195 816h82l-168 -953h-82z" />
    <glyph glyph-name="brokenbar.case" horiz-adv-x="282" 
d="M189 816h82l-68 -383h-82zM88 246h82l-67 -383h-82z" />
    <glyph glyph-name="caron.alt" horiz-adv-x="500" 
d="M329 546h-55l35 194h83z" />
    <glyph glyph-name="revcommaaccent" horiz-adv-x="500" 
d="M362 750l52 -14l-60 -157h-93z" />
    </font>
</defs>
</svg>
