<?xml version="1.0" encoding="utf-8"?>
<!-- Generator: Adobe Illustrator 27.3.1, SVG Export Plug-In . SVG Version: 6.00 Build 0)  -->
<svg version="1.1" id="Capa_1" xmlns="http://www.w3.org/2000/svg" xmlns:xlink="http://www.w3.org/1999/xlink" x="0px" y="0px"
	 viewBox="0 0 600 270" style="enable-background:new 0 0 600 270;" xml:space="preserve">
<style type="text/css">
	.st0{fill:#272727;}
	.st1{fill:#0063AF;}
	.st2{fill:#DC2337;}
</style>
<g>
	<g>
		<path class="st0" d="M84.4,12.9c8.7,6.4,14.2,15.1,16.5,26L80.7,43c-1.1-6.7-4.3-12-9.6-16.1c-5.3-4.1-11.7-6.1-19.2-6.1
			c-7.4,0-13.4,1.8-17.9,5.4c-4.5,3.6-6.8,8.2-6.8,13.9c0,4.4,1.3,7.9,3.9,10.4c2.6,2.5,6.6,4.3,12.2,5.5l27.3,5.8
			C92.2,66.5,103,78,103,96.2c0,11.8-4.4,21.2-13.3,28.2c-8.9,7-20.6,10.5-35.2,10.5c-14,0-25.8-3.3-35.5-9.9
			c-9.7-6.6-15.3-15.8-16.8-27.6l21.5-4.5c1.5,7.9,5.2,13.9,10.9,18c5.8,4.1,13,6.1,21.7,6.1c8.3,0,14.8-1.8,19.5-5.4
			s7.1-8.3,7.1-14.2c0-4.8-1.4-8.4-4.1-10.9c-2.7-2.5-7.3-4.5-13.7-5.8l-27.5-5.7C16.5,70,5.9,58.6,5.9,40.6
			c0-11.2,4.2-20.2,12.7-27.1S38.3,3.2,52.3,3.2C65,3.2,75.7,6.5,84.4,12.9z"/>
		<path class="st0" d="M203.6,16.9c9.6,9.1,14.4,20.8,14.4,35.2s-4.8,26.1-14.5,35.3s-21.5,13.8-35.5,13.8c-14.1,0-26-4.6-35.7-13.8
			s-14.6-20.9-14.6-35.3s4.9-26.1,14.6-35.2S154,3.2,168.1,3.2S194,7.8,203.6,16.9z M189.8,75.2c6.2-6,9.2-13.7,9.2-23.1
			c0-9.4-3.1-17.1-9.2-23.1c-6.2-6-13.4-9-21.7-9c-8.5,0-15.9,3-22,9c-6.1,6-9.1,13.7-9.1,23.1c0,9.4,3,17.1,9.1,23.1
			c6.1,6,13.4,9,22,9C176.4,84.2,183.6,81.2,189.8,75.2z"/>
		<path class="st0" d="M378.8,46.2c6.8,6.8,10.3,15.6,10.3,26.4v62.2h-19.4V76.6c0-6.8-2-12.2-5.9-16.3c-4-4.1-9-6.1-15.2-6.1
			c-7.8,0-14,2.7-18.5,8.1c-4.5,5.4-6.8,13.3-6.8,23.6v49h-19.6V76.6c0-6.8-2-12.2-5.9-16.3c-4-4.1-9-6.1-15.2-6.1
			c-7.7,0-13.7,2.7-18.2,8.1c-4.5,5.4-6.7,13.3-6.7,23.6v49h-19.6V38.7h19.6v10.6c7.2-8.8,17.2-13.2,30-13.2
			c6.8,0,12.9,1.5,18.4,4.5c5.5,3,9.7,7.2,12.7,12.6c8.2-11.4,19.8-17.2,34.9-17.2C363.6,36.1,372,39.5,378.8,46.2z"/>
		<path class="st0" d="M492.8,16.9c9.6,9.1,14.4,20.8,14.4,35.2s-4.8,26.1-14.5,35.3s-21.5,13.8-35.5,13.8c-14.1,0-26-4.6-35.7-13.8
			s-14.6-20.9-14.6-35.3s4.9-26.1,14.6-35.2s21.7-13.7,35.7-13.7C471.3,3.2,483.2,7.8,492.8,16.9z M478.9,75.2
			c6.2-6,9.2-13.7,9.2-23.1c0-9.4-3.1-17.1-9.2-23.1c-6.2-6-13.4-9-21.7-9c-8.5,0-15.9,3-22,9c-6.1,6-9.1,13.7-9.1,23.1
			c0,9.4,3,17.1,9.1,23.1c6.1,6,13.4,9,22,9C465.5,84.2,472.7,81.2,478.9,75.2z"/>
		<path class="st0" d="M538.9,103c0.6,5.3,3.1,9.2,7.3,11.9c4.2,2.6,9.6,4,16.1,4c5.7,0,10.2-1.1,13.5-3.4c3.3-2.3,5-5.3,5-9.1
			c0-5.5-4.2-9.2-12.6-11.1l-20.4-4.1c-17-3.8-25.5-12.3-25.5-25.5c0-8.8,3.4-15.9,10.1-21.4c6.7-5.5,15.7-8.2,26.9-8.2
			c10.6,0,19.3,2.5,26.3,7.4c7,5,11.3,11.5,13.1,19.5L580,67c-0.8-4.7-3-8.4-6.8-11.1s-8.6-4.1-14.5-4.1c-5.4,0-9.5,1.2-12.4,3.5
			c-2.8,2.3-4.2,5.2-4.2,8.8c0,5.3,3.8,8.8,11.3,10.6l22.3,4.9c7.7,1.6,13.6,4.6,17.9,9c4.3,4.3,6.4,9.8,6.4,16.3
			c0,9.6-3.6,17-10.7,22.3c-7.2,5.3-16.7,7.9-28.7,7.9c-11.1,0-20.4-2.4-28.1-7.1c-7.7-4.7-12.1-11.6-13.2-20.7L538.9,103z"/>
		<path class="st1" d="M224.6,134.9c-0.7-0.8-1.4-1.6-2.2-2.3c-14.7-13.9-32.7-20.8-54.2-20.8s-39.6,6.9-54.5,20.8
			c-0.8,0.7-1.5,1.6-2.2,2.3H224.6z"/>
		<path class="st2" d="M514.1,134.9c-0.7-0.8-1.4-1.6-2.2-2.3c-14.7-13.9-32.7-20.8-54.2-20.8c-21.5,0-39.6,6.9-54.5,20.8
			c-0.8,0.7-1.5,1.6-2.2,2.3H514.1z"/>
	</g>
	<g>
		<g>
			
				<rect id="Rectángulo_1330_00000029739436228977670970000015480115507781091759_" y="260.9" class="st1" width="82.3" height="9.1"/>
			
				<rect id="Rectángulo_1331_00000109746455187229371030000002448515594216032188_" x="82.3" y="260.9" class="st2" width="101.4" height="9.1"/>
		</g>
		<g>
			
				<rect id="Rectángulo_1340_00000109014825286716341930000007384703681710562465_" x="0.4" y="190.4" class="st0" width="7.7" height="40.9"/>
			<path id="Trazado_2740_00000106826943877486589160000015204569207378048446_" class="st0" d="M29.1,216.8h-4.5v14.6h-7.7v-40.9
				h12.7c8.2,0,15.9,4.1,15.9,13.2C45,210.9,39.1,216.8,29.1,216.8 M29.1,196.8H25v14.1h4.1c3.6,0.5,6.8-2.3,7.3-5.9l0,0
				c0-0.5,0-0.9,0-1.4C36.8,199.1,34.1,196.8,29.1,196.8"/>
			<path id="Trazado_2741_00000119801702671869469420000016111135599431874219_" class="st0" d="M61.8,231.8
				c-4.5,0-9.6-1.4-13.6-4.1l3.2-6.4c2.7,2.3,6.4,3.6,10.5,4.1c3.2,0.5,5.9-1.8,5.9-5l0,0v-0.9c0-8.6-19.1-4.1-19.1-19.1
				c0-5.9,4.5-11.4,14.6-11.4c4.1,0,8.2,0.9,12.3,2.7l-2.7,6.4c-2.7-1.4-6.4-2.3-9.6-2.3c-3.6,0-5.9,1.4-5.9,4.1
				c0,7.3,19.1,4.5,19.1,18.7C76.8,225.5,71.4,231.8,61.8,231.8"/>
			<g>
				<path id="Trazado_2687_00000076599911873179796100000013359875356315882935_" class="st0" d="M111.1,232.1
					c-11.4,0-17.4-7.5-17.4-21.1c0-12.6,6.1-20.6,17.4-20.6c4.8-0.2,9.6,1,13.8,3.4l-2.9,6.3c-2.9-2-6.4-3-9.9-2.9
					c-6.8,0-10.2,4.8-10.2,13.6c0,9.4,3.4,14,9.9,14c3.8-0.1,7.5-1.4,10.7-3.6l2.4,6.3C120.9,230.5,116.1,232.1,111.1,232.1"/>
				<path id="Trazado_2688_00000126322673590644633160000004906453759551801258_" class="st0" d="M130.5,231.3v-41.4h7.8v10.9
					c0,1.6-0.3,3.1-0.7,4.6c2.1-2.6,5.2-4.1,8.5-4.1c8.5,0,10.7,4.4,10.7,11.9v18.2h-8v-17.4c0-4.1-1.7-6.5-5.3-6.5
					c-1.9,0-3.8,0.6-5.3,1.7v22.3L130.5,231.3z"/>
				<path id="Trazado_2689_00000075120790943324384270000004810406552213964168_" class="st0" d="M165.3,231.3v-23.7l-3.4-0.7V202
					h11.1v29.3H165.3z M165.1,189.9h8v7h-8V189.9z"/>
				<path id="Trazado_2690_00000148643833168016624990000004667317624470921350_" class="st0" d="M180.3,223.6v-33.7h7.8v33.2
					c0,2.4,1.5,2.9,4.8,2.9v5.6c-1.4,0.3-2.9,0.5-4.4,0.5C182.5,232.1,180.3,228.7,180.3,223.6"/>
				<path id="Trazado_2691_00000014601645644436703920000012143940195225681026_" class="st0" d="M204.8,218.8
					c-0.3,3.7,2.4,6.9,6.1,7.3c0.5,0,1,0,1.4,0c3-0.2,6-1,8.7-2.4l1.5,5.6c-3.4,1.8-7.3,2.8-11.1,2.9c-9,0-14.5-5.6-14.5-15.3
					c0-9,4.4-15.3,13.8-15.3c9,0,12.3,6.5,12.3,14v3.1L204.8,218.8z M210.1,207.1c-3.9,0-5.6,3.6-5.6,7h10.7
					C215.4,210.3,214.2,207.1,210.1,207.1L210.1,207.1z"/>
				<path id="Trazado_2692_00000098196686401689744810000013130751198306880680_" class="st0" d="M235.3,231.3H231l10.9-40.4h9.9
					l10.2,40.4h-5.1l-2.4-10.4h-16.7L235.3,231.3z M245,194.8l-6.1,22.3h14.8l-5.3-22.3L245,194.8z"/>
				<path id="Trazado_2693_00000086673461343401283570000010272250934828637864_" class="st0" d="M277,232.1c-4.1,0-7.5-2.2-7.5-9
					v-17.7h-4.4V202h4.4v-5.3l4.6-1.5v6.8h8.5v3.4h-8.5v18.2c0,3.1,1.2,4.6,3.9,4.6c1.6-0.1,3.2-0.5,4.6-1.2l1,3.4
					C281.5,231.4,279.3,232,277,232.1"/>
				<path id="Trazado_2694_00000172410753026418371700000008266380636493591700_" class="st0" d="M291.7,231.3v-25.7l-3.1-0.7V202
					h7.8v29.3H291.7z M291.5,190.4h4.8v4.8h-4.8V190.4z"/>
				<path id="Trazado_2695_00000134223600076607674070000014817689795308552082_" class="st0" d="M307.7,218
					c0,7.3,3.6,10.4,9.2,10.4c3.3-0.2,6.4-1.2,9.2-2.9l1.2,3.1c-3.2,2-6.9,3.1-10.7,3.1c-8,0-13.3-5.3-13.3-15.5
					c0-9.2,4.6-15,12.6-15c8.2,0,11.9,6.8,11.9,14v2.7L307.7,218z M315.7,205c-5.6,0-7.8,4.8-7.8,9.9h15.3
					C323.2,209.8,321.5,204.9,315.7,205L315.7,205z"/>
				<path id="Trazado_2696_00000165220342711258408360000010087167224731646344_" class="st0" d="M353,231.3v-17.7
					c0-5.6-1.7-8.7-6.8-8.7c-2.8,0.2-5.4,1.4-7.3,3.4v23h-4.6V202h3.1l1,3.4c2.4-2.5,5.7-4,9.2-4.1c6.8,0,9.9,4.1,9.9,11.4v18.6
					L353,231.3z"/>
				<path id="Trazado_2697_00000000218506949481289270000004787427801367174582_" class="st0" d="M384.5,227.9
					c-2.1,2.5-5.2,4-8.5,4.1c-7,0-11.9-5.1-11.9-15.3c0-9,4.4-15.3,12.3-15.3c2.8-0.1,5.5,0.8,7.8,2.4c-0.2-1.6-0.3-3.2-0.2-4.8
					v-9.2h4.6v41.4h-3.4L384.5,227.9z M384,206.9c-2.1-1.4-4.5-2.2-7-2.2c-5.6,0-8.2,4.4-8.2,11.9c0,7.3,2.4,11.9,7.8,11.9
					c2.9-0.1,5.6-1.4,7.5-3.6L384,206.9z"/>
				<path id="Trazado_2698_00000177451996982271417640000008182692710188432571_" class="st0" d="M400.2,218
					c0,7.3,3.6,10.4,9.2,10.4c3.3-0.1,6.4-1.2,9.2-2.9l1.2,3.1c-3.2,2-6.9,3.1-10.7,3.1c-8,0-13.3-5.3-13.3-15.5
					c0-9.2,4.6-15,12.6-15c8.2,0,11.9,6.8,11.9,14v2.7L400.2,218z M408,205c-5.6,0-7.8,4.8-7.8,9.9h15.3
					C415.5,209.8,413.8,204.9,408,205L408,205z"/>
			</g>
		</g>
	</g>
</g>
</svg>
