<svg width="240" height="55" viewBox="0 0 240 55" fill="none" xmlns="http://www.w3.org/2000/svg">
<g id="Brand" clip-path="url(#clip0_2175_221068)">
<path id="Vector" d="M51.7879 19.8L35.1805 3.18333C33.1316 1.13333 30.3998 0 27.5014 0C24.603 0 21.8712 1.13333 19.8057 3.18333L3.18157 19.8C1.1327 21.85 0 24.5833 0 27.5C0 30.4167 1.1327 33.1333 3.18157 35.2L19.789 51.8167C21.8379 53.8667 24.5697 55 27.4847 55C30.3998 55 33.1149 53.8667 35.1805 51.8167L51.7879 35.2C53.8368 33.15 54.9695 30.4167 54.9695 27.5C54.9695 24.5833 53.8368 21.8667 51.7879 19.8Z" fill="#262626"/>
<path id="Vector_2" d="M31.7489 48.3996C29.3836 50.7663 25.569 50.7663 23.2037 48.3996L10.8105 35.9996L15.9577 30.8496L32.6318 47.5329L31.7656 48.3996H31.7489Z" fill="#E0E1FF"/>
<path id="Vector_3" d="M36.1407 28.4943L27.8486 36.791L35.5989 44.5456L43.891 36.2489L36.1407 28.4943Z" fill="#E0E1FF"/>
<path id="Vector_4" d="M48.3731 31.7673L47.3903 32.7507L38.945 24.3007C37.5291 22.884 35.2304 22.884 33.8145 24.3007L24.6029 33.5173L18.0399 26.9507C16.624 25.534 14.3253 25.534 12.9094 26.9507L7.34586 32.5173L6.59628 31.7673C4.23093 29.4007 4.23093 25.584 6.59628 23.2173L23.2204 6.60065C24.4031 5.41732 25.9522 4.83398 27.4847 4.83398C29.0338 4.83398 30.583 5.41732 31.749 6.60065L48.3564 23.2173C50.7218 25.584 50.7218 29.4007 48.3564 31.7673H48.3731Z" fill="#E0E1FF"/>
<path id="Vector_5" d="M75.4913 36.4664C75.4913 38.2331 76.0743 39.2497 78.3064 39.2497C79.7556 39.2497 81.7545 39.0664 83.5202 38.7664L84.1532 42.7331C82.1543 43.1497 80.3386 43.3664 78.3064 43.3664C73.2093 43.3664 70.9438 40.8497 70.9438 37.1831V28.7497C70.9438 25.0831 73.2259 22.5664 78.3064 22.5664C80.3386 22.5664 82.1543 22.7831 84.1532 23.1997L83.5202 27.1664C81.7545 26.8664 79.7556 26.6831 78.3064 26.6831C76.0577 26.6831 75.4913 27.7164 75.4913 29.4664V36.4497V36.4664Z" fill="#262626"/>
<path id="Vector_6" d="M87.8013 37.4V33.9667C87.8013 30.9333 89.2338 28 94.4642 28C99.6947 28 101.127 30.95 101.127 33.9667V37.4C101.127 40.4333 99.6947 43.3667 94.4642 43.3667C89.2338 43.3667 87.8013 40.4167 87.8013 37.4ZM96.7796 37.5167V33.85C96.7796 32.45 96.0467 31.6667 94.4809 31.6667C92.9151 31.6667 92.1822 32.45 92.1822 33.85V37.5167C92.1822 38.9167 92.9151 39.7 94.4809 39.7C96.0467 39.7 96.7796 38.9167 96.7796 37.5167Z" fill="#262626"/>
<path id="Vector_7" d="M105.075 37.4V33.9667C105.075 30.9333 106.508 28 111.738 28C116.969 28 118.401 30.95 118.401 33.9667V37.4C118.401 40.4333 116.969 43.3667 111.738 43.3667C106.508 43.3667 105.075 40.4167 105.075 37.4ZM114.054 37.5167V33.85C114.054 32.45 113.321 31.6667 111.755 31.6667C110.189 31.6667 109.456 32.45 109.456 33.85V37.5167C109.456 38.9167 110.189 39.7 111.755 39.7C113.321 39.7 114.054 38.9167 114.054 37.5167Z" fill="#262626"/>
<path id="Vector_8" d="M127.479 34.0667V43.0667H123.115V28.3H126.746L127.046 29.7333C127.962 29.1333 129.828 28.25 131.01 28L131.377 32.1167C130.078 32.6333 128.412 33.3833 127.462 34.05L127.479 34.0667Z" fill="#262626"/>
<path id="Vector_9" d="M134.342 33.466C134.342 29.9827 135.858 27.9993 139.306 27.9993C140.522 27.9993 142.071 28.1827 143.07 28.416V22.266L147.435 21.666V43.0827H144.003L143.553 41.8993C142.521 42.566 140.605 43.3827 139.006 43.3827C136.008 43.3827 134.342 41.5327 134.342 37.916V33.4493V33.466ZM143.07 32.166C142.304 31.9827 141.188 31.7993 140.288 31.7993C139.139 31.7993 138.706 32.4993 138.706 33.466V37.9327C138.706 38.966 139.122 39.5993 140.288 39.5993C141.288 39.5993 142.437 38.9993 143.07 38.4493V32.166Z" fill="#262626"/>
<path id="Vector_10" d="M152.882 26.4497V21.8164H157.246V26.4497H152.882ZM152.882 43.0664V28.2997H157.246V43.0664H152.882Z" fill="#262626"/>
<path id="Vector_11" d="M162.709 43.0836V22.2836L167.074 21.6836V43.1003H162.709V43.0836Z" fill="#262626"/>
<path id="Vector_12" d="M172.521 43.0836V22.2836L176.885 21.6836V43.1003H172.521V43.0836Z" fill="#262626"/>
<path id="Vector_13" d="M185.963 37.2167V37.6333C185.963 39.3333 186.63 39.7833 188.629 39.7833C189.995 39.7833 191.81 39.5333 193.109 39.15L193.742 42.4333C192.41 42.9167 190.261 43.3667 188.196 43.3667C183.398 43.3667 181.583 41 181.583 37.3667V33.9167C181.583 30.7333 183.015 28 187.912 28C192.81 28 193.876 30.9167 193.876 34.1333V37.2333H185.93L185.963 37.2167ZM189.778 33.3C189.778 32.2667 189.478 31.4167 187.962 31.4167C186.446 31.4167 185.963 32.2667 185.963 33.3V33.9333H189.778V33.3Z" fill="#262626"/>
<path id="Vector_14" d="M202.954 34.0667V43.0667H198.59V28.3H202.221L202.521 29.7333C203.437 29.1333 205.303 28.25 206.485 28L206.852 32.1167C205.553 32.6333 203.887 33.3833 202.937 34.05L202.954 34.0667Z" fill="#262626"/>
<path id="Vector_15" d="M218.479 43.0842L218.179 42.1509C216.48 43.0842 214.964 43.4009 213.965 43.4009C211.233 43.4009 210.117 41.4342 210.117 38.9176C210.117 35.9509 211.483 34.7676 214.514 34.7676H217.696V33.6509C217.696 32.1342 217.429 31.6176 215.097 31.6176C213.798 31.6176 212.482 31.7676 211.099 32.0342L210.516 28.7509C211.916 28.3342 214.131 28.0176 215.814 28.0176C220.944 28.0176 222.06 29.5676 222.06 33.6509V43.0842H218.479ZM217.696 37.7842H215.597C214.664 37.7842 214.298 38.0342 214.298 38.8509C214.298 39.6676 214.631 40.0009 215.48 40.0009C216.397 40.0009 217.03 39.7842 217.696 39.4842V37.7842Z" fill="#262626"/>
<path id="Vector_16" d="M229.373 37.9508L230.955 37.0508H231.438V43.0841H230.888V37.7008L229.622 38.4174L229.356 37.9675L229.373 37.9508Z" fill="#262626"/>
<path id="Vector_17" d="M233.637 42.2676H234.22V43.0676H233.637V42.2676Z" fill="#262626"/>
<path id="Vector_18" d="M240 41.5669C240 42.5003 239.5 43.1669 238.134 43.1669C236.768 43.1669 236.269 42.5003 236.269 41.5669V38.5336C236.269 37.6003 236.768 36.9336 238.134 36.9336C239.5 36.9336 240 37.6003 240 38.5336V41.5669ZM236.802 41.5336C236.802 42.3003 237.118 42.6836 238.134 42.6836C239.15 42.6836 239.467 42.3003 239.467 41.5336V38.5836C239.467 37.8169 239.167 37.4336 238.134 37.4336C237.101 37.4336 236.802 37.8169 236.802 38.5836V41.5336Z" fill="#262626"/>
<path id="Vector_19" d="M72.3267 10.1339C73.8425 10.1339 74.2756 10.9172 74.2756 11.9672V14.5005C74.2756 15.5505 73.8425 16.3339 72.3267 16.3339H70.2778V10.1172H72.3267V10.1339ZM70.8275 15.8672H72.3434C73.3928 15.8672 73.7259 15.4339 73.7259 14.5505V11.9505C73.7259 11.0672 73.3928 10.6339 72.3434 10.6339H70.8275V15.8672Z" fill="#262626"/>
<path id="Vector_20" d="M77.6903 15.9659C78.1567 15.9659 78.6731 15.8659 79.1229 15.7492L79.2228 16.1826C78.8064 16.3326 78.2067 16.4326 77.657 16.4326C76.3744 16.4326 75.9746 15.7659 75.9746 14.7826V13.3492C75.9746 12.4159 76.391 11.6992 77.6737 11.6992C78.9563 11.6992 79.3227 12.4159 79.3227 13.3492V14.2326H76.5076V14.7992C76.5076 15.6159 76.7908 15.9492 77.6903 15.9492V15.9659ZM76.5076 13.7492H78.7897V13.3326C78.7897 12.5659 78.5232 12.1659 77.6737 12.1659C76.8241 12.1659 76.5243 12.5659 76.5243 13.3326V13.7492H76.5076Z" fill="#262626"/>
<path id="Vector_21" d="M82.3375 16.4501C81.8877 16.4501 81.338 16.3501 81.0049 16.2168L81.1048 15.7835C81.5046 15.9001 81.971 15.9668 82.3042 15.9668C83.137 15.9668 83.3203 15.8001 83.3203 15.2335C83.3203 14.5835 83.3036 14.5168 82.2708 14.2668C81.1381 14.0001 81.0382 13.7168 81.0382 12.8835C81.0382 12.1335 81.4047 11.7168 82.5207 11.7168C82.9371 11.7168 83.4535 11.7668 83.8033 11.8835L83.7533 12.3335C83.3869 12.2668 82.8539 12.2001 82.4874 12.2001C81.6878 12.2001 81.5879 12.4001 81.5879 12.9001C81.5879 13.5335 81.6212 13.5835 82.4707 13.8001C83.8033 14.1335 83.8866 14.3501 83.8866 15.2001C83.8866 16.0501 83.5868 16.4501 82.3708 16.4501H82.3375Z" fill="#262626"/>
<path id="Vector_22" d="M85.6689 10.9492V9.94922H86.2186V10.9492H85.6689ZM85.6689 16.3659V11.8159H86.2186V16.3659H85.6689Z" fill="#262626"/>
<path id="Vector_23" d="M89.8334 14.9658C89.6002 14.9658 89.417 14.9491 89.2338 14.9158C88.9839 15.1158 88.884 15.2991 88.884 15.5158C88.884 15.6991 88.9839 15.8158 89.3004 15.8491C89.8668 15.8991 90 15.8991 90.5997 15.9491C91.4326 16.0158 91.7324 16.3991 91.7324 17.0324C91.7324 17.9824 91.266 18.2991 89.7835 18.2991C89.367 18.2991 88.6674 18.2158 88.1844 18.0824L88.2677 17.6491C88.7174 17.7491 89.3171 17.8324 89.8001 17.8324C91.0328 17.8324 91.1994 17.5824 91.1994 17.0658C91.1994 16.6158 91.0161 16.4324 90.4664 16.3991C89.8834 16.3658 89.8334 16.3658 89.2338 16.3158C88.5675 16.2658 88.3343 15.9158 88.3343 15.5158C88.3343 15.2658 88.4342 14.9991 88.7674 14.7491C88.3176 14.4824 88.1011 14.0324 88.1011 13.3824V13.3324C88.1011 12.2991 88.5508 11.7324 89.8501 11.7324C90.1499 11.7324 90.3998 11.7658 90.6163 11.8324H91.8657V12.2324L91.2993 12.2824C91.4992 12.5491 91.5991 12.9158 91.5991 13.3491V13.3991C91.5991 14.4324 91.0494 14.9991 89.8501 14.9991L89.8334 14.9658ZM89.8334 12.1824C88.9339 12.1824 88.6175 12.4658 88.6175 13.2991V13.3991C88.6175 14.2658 89.0172 14.5158 89.8334 14.5158C90.6497 14.5158 91.0494 14.2324 91.0494 13.3991V13.2991C91.0494 12.4824 90.7329 12.1824 89.8334 12.1824Z" fill="#262626"/>
<path id="Vector_24" d="M96.3131 16.3501V12.6668C96.3131 12.3335 96.1299 12.2168 95.8134 12.2168C95.4469 12.2168 94.6307 12.4335 94.0643 12.7335V16.3501H93.5146V11.8001H93.9977L94.031 12.2168C94.5141 11.9835 95.3303 11.7168 95.88 11.7168C96.5963 11.7168 96.8461 12.1168 96.8461 12.7501V16.3668H96.2964L96.3131 16.3501Z" fill="#262626"/>
<path id="Vector_25" d="M102.576 16.4501C102.126 16.4501 101.577 16.3501 101.244 16.2168L101.344 15.7835C101.743 15.9001 102.21 15.9668 102.543 15.9668C103.376 15.9668 103.559 15.8001 103.559 15.2335C103.559 14.5835 103.542 14.5168 102.51 14.2668C101.377 14.0001 101.277 13.7168 101.277 12.8835C101.277 12.1335 101.643 11.7168 102.759 11.7168C103.176 11.7168 103.692 11.7668 104.042 11.8835L103.992 12.3335C103.626 12.2668 103.093 12.2001 102.726 12.2001C101.927 12.2001 101.827 12.4001 101.827 12.9001C101.827 13.5335 101.86 13.5835 102.71 13.8001C104.042 14.1335 104.125 14.3501 104.125 15.2001C104.125 16.0501 103.826 16.4501 102.61 16.4501H102.576Z" fill="#262626"/>
<path id="Vector_26" d="M107.64 16.3508L106.974 18.1841H106.441L107.124 16.3508H106.824L105.292 11.8008H105.841L107.24 15.9674L108.656 11.8008H109.206L107.674 16.3508H107.64Z" fill="#262626"/>
<path id="Vector_27" d="M111.721 16.4501C111.272 16.4501 110.722 16.3501 110.389 16.2168L110.489 15.7835C110.888 15.9001 111.355 15.9668 111.688 15.9668C112.521 15.9668 112.704 15.8001 112.704 15.2335C112.704 14.5835 112.687 14.5168 111.655 14.2668C110.522 14.0001 110.422 13.7168 110.422 12.8835C110.422 12.1335 110.788 11.7168 111.905 11.7168C112.321 11.7168 112.837 11.7668 113.187 11.8835L113.137 12.3335C112.771 12.2668 112.238 12.2001 111.871 12.2001C111.072 12.2001 110.972 12.4001 110.972 12.9001C110.972 13.5335 111.005 13.5835 111.855 13.8001C113.187 14.1335 113.27 14.3501 113.27 15.2001C113.27 16.0501 112.971 16.4501 111.755 16.4501H111.721Z" fill="#262626"/>
<path id="Vector_28" d="M117.401 16.266C117.135 16.366 116.768 16.4493 116.452 16.4493C115.735 16.4493 115.419 16.1827 115.419 15.466V12.266H114.536V11.7993H115.419V10.7327L115.969 10.666V11.816H117.351L117.301 12.2827H115.969V15.416C115.969 15.816 116.019 15.9827 116.485 15.9827C116.735 15.9827 117.035 15.9327 117.301 15.8493L117.401 16.266Z" fill="#262626"/>
<path id="Vector_29" d="M120.466 15.9659C120.933 15.9659 121.449 15.8659 121.899 15.7492L121.999 16.1826C121.582 16.3326 120.983 16.4326 120.433 16.4326C119.15 16.4326 118.75 15.7659 118.75 14.7826V13.3492C118.75 12.4159 119.167 11.6992 120.45 11.6992C121.732 11.6992 122.099 12.4159 122.099 13.3492V14.2326H119.284V14.7992C119.284 15.6159 119.567 15.9492 120.466 15.9492V15.9659ZM119.284 13.7492H121.566V13.3326C121.566 12.5659 121.299 12.1659 120.45 12.1659C119.6 12.1659 119.3 12.5659 119.3 13.3326V13.7492H119.284Z" fill="#262626"/>
<path id="Vector_30" d="M129.478 16.3501V12.6668C129.478 12.3335 129.295 12.2168 128.979 12.2168C128.545 12.2168 127.796 12.4335 127.229 12.7335V16.3501H126.68V12.6668C126.68 12.3335 126.497 12.2168 126.18 12.2168C125.814 12.2168 124.997 12.4335 124.431 12.7335V16.3501H123.881V11.8001H124.364L124.398 12.2168C124.881 11.9835 125.697 11.7168 126.247 11.7168C126.73 11.7168 126.996 11.9001 127.13 12.2168C127.646 11.9668 128.479 11.7168 129.028 11.7168C129.745 11.7168 129.995 12.1168 129.995 12.7501V16.3668H129.445L129.478 16.3501Z" fill="#262626"/>
</g>
<defs>
<clipPath id="clip0_2175_221068">
<rect width="240" height="55" fill="white"/>
</clipPath>
</defs>
</svg>
