<?xml version="1.0" encoding="utf-8"?>
<!-- Generator: Adobe Illustrator 18.1.1, SVG Export Plug-In . SVG Version: 6.00 Build 0)  -->
<svg version="1.1" id="Layer_1" xmlns="http://www.w3.org/2000/svg" xmlns:xlink="http://www.w3.org/1999/xlink" x="0px" y="0px"
	 viewBox="0 0 40 40" enable-background="new 0 0 40 40" xml:space="preserve">
<title>Logo BE blco (H) 160px</title>
<g>
	<rect x="0.9" y="1.3" fill="#FFFFFF" width="38.2" height="38.2"/>
	<path id="_Trazado_10" fill="#D70032" d="M1.8,20.5l13-5.7v-4.1l0,0c4.1-0.6,7.8-2.7,10.4-5.8l0,0l13,10.6V2.2H1.8V20.5z"/>
	<path id="_Trazado_11" fill="#FFFFFF" d="M14.8,32.5h10.4V4.9l0,0c-2.7,3.1-6.4,5.2-10.4,5.8l0,0v4.1l-13,5.7v4.1l13-5.7v-4.1
		L19,13v4l-4.1,1.8v4L19,21v4l-4.2,1.8v-4l-13,5.7v4l13-5.7L14.8,32.5z"/>
	<polygon id="_Trazado_12" fill="#EE801D" points="14.8,22.8 14.8,22.8 14.8,18.9 14.8,18.9 14.8,18.9 1.8,24.6 1.8,28.5 14.8,22.8 
			"/>
	<polygon id="_Trazado_13" fill="#EE801D" points="14.8,26.8 1.8,32.5 1.8,32.5 14.8,32.5 	"/>
	<polygon id="_Trazado_14" fill="#EE801D" points="14.8,18.9 19,17.1 19,13 14.8,14.9 14.8,18.9 14.8,18.9 	"/>
	<polygon id="_Trazado_15" points="14.8,18.9 14.8,18.9 14.8,18.9 14.8,18.9 	"/>
	<polygon id="_Trazado_16" fill="#EE801D" points="14.8,22.8 14.8,26.8 19,25 19,21 14.8,22.8 14.8,22.8 	"/>
	<polygon id="_Trazado_17" points="14.8,22.8 14.8,22.8 14.8,22.8 14.8,22.8 	"/>
	<polygon id="_Trazado_18" fill="#EE801D" points="25.2,32.5 38.2,32.5 38.2,15.5 25.2,4.9 	"/>
	<polygon id="_Trazado_19" points="25.2,32.5 25.2,32.5 25.2,4.9 	"/>
	<polygon id="_Trazado_20" points="1.8,38.6 38.2,38.6 38.2,38.6 	"/>
	<polygon id="_Trazado_21" fill="#0257A0" points="25.2,32.5 25.2,32.5 14.8,32.5 1.8,32.5 1.8,38.6 38.2,38.6 38.2,32.5 	"/>
	<line id="_Trazado_22" fill="none" x1="25.2" y1="32.5" x2="25.2" y2="32.5"/>
</g>
</svg>
