<?xml version="1.0" encoding="utf-8"?>
<!-- Generator: Adobe Illustrator 18.1.1, SVG Export Plug-In . SVG Version: 6.00 Build 0)  -->
<svg version="1.1" id="Layer_1" xmlns="http://www.w3.org/2000/svg" xmlns:xlink="http://www.w3.org/1999/xlink" x="0px" y="0px"
	 viewBox="-7 9 18.8 21.8" enable-background="new -7 9 18.8 21.8" xml:space="preserve">
<title>Atoms / Icons / white / 24px / logo / claveunica</title>
<desc>Created with Sketch.</desc>
<g id="Atoms-_x2F_-Icons-_x2F_-white-_x2F_-24px-_x2F_-logo-_x2F_-claveunica">
	<path id="cl-icons-43" fill="#2662A7" d="M1.9,21.8c-0.1-0.1-0.2-0.3-0.2-0.5c0-0.2,0.1-0.4,0.3-0.5c0.1-0.1,0.3-0.2,0.5-0.2
		c0.2,0,0.4,0.1,0.5,0.3c0.3,0.3,0.2,0.8-0.1,1c-0.1,0.1-0.3,0.2-0.5,0.2C2.2,22.1,2,22,1.9,21.8L1.9,21.8z M5.7,13.2
		c3.4,1.3,5.7,4.6,5.7,8.3c0,5-4,9-9,9s-9-4-9-9c-0.1-3.6,2.1-6.9,5.5-8.3c0.4-0.1,0.6-0.1,0.8,0.4c0.2,0.4,0,0.8-0.4,1
		c-3.4,1.5-5.2,5.3-4.2,8.9s4.5,5.9,8.2,5.4c3.7-0.5,6.5-3.7,6.5-7.4c0-3.1-1.9-5.8-4.7-7c-0.2-0.1-0.3-0.2-0.4-0.4s-0.1-0.4,0-0.5
		c0.1-0.2,0.2-0.3,0.4-0.4C5.3,13.1,5.5,13.1,5.7,13.2z M-2.1,21.2c0-2.2,1.6-4.2,3.8-4.6v-6.4c0-0.4,0.3-0.8,0.7-0.8h3.3
		c0.4,0,0.7,0.4,0.7,0.8c0,0.4-0.3,0.7-0.7,0.8H3.2v5.8C5.4,17,7,18.9,6.9,21.2c0,2.5-2,4.6-4.5,4.7C-0.1,25.8-2.1,23.7-2.1,21.2z
		 M5.4,21.3c0-1.7-1.3-3.1-3-3.1c-1.6,0.2-2.8,1.5-2.8,3.1c0,1.6,1.2,2.9,2.8,3.1C4.1,24.3,5.4,22.9,5.4,21.3z"/>
</g>
</svg>
